<?xml version="1.0" encoding="utf-8"?>
<!-- Generator: Adobe Illustrator 17.1.0, SVG Export Plug-In . SVG Version: 6.00 Build 0)  -->
<!DOCTYPE svg PUBLIC "-//W3C//DTD SVG 1.1//EN" "http://www.w3.org/Graphics/SVG/1.1/DTD/svg11.dtd" [
	<!ENTITY ns_flows "http://ns.adobe.com/Flows/1.0/">
	<!ENTITY ns_extend "http://ns.adobe.com/Extensibility/1.0/">
	<!ENTITY ns_ai "http://ns.adobe.com/AdobeIllustrator/10.0/">
	<!ENTITY ns_graphs "http://ns.adobe.com/Graphs/1.0/">
	<!ENTITY st0 "display:none;">
	<!ENTITY st1 "display:inline;fill:#252525;">
	<!ENTITY st2 "fill:#FFFFFF;">
	<!ENTITY st3 "fill:#149B9E;">
	<!ENTITY st4 "fill:#27BDBE;">
	<!ENTITY st5 "display:none;fill:none;">
	<!ENTITY st6 "fill:#808080;">
	<!ENTITY st7 "fill:#808080;stroke:#7E7E7E;stroke-width:2.9999;stroke-miterlimit:2.6131;">
	<!ENTITY st8 "clip-path:url(#SVGID_2_);fill:#808080;">
	<!ENTITY st9 "clip-path:url(#SVGID_4_);fill:#808080;">
	<!ENTITY st10 "clip-path:url(#SVGID_6_);fill:#808080;">
	<!ENTITY st11 "clip-path:url(#SVGID_8_);fill:#808080;">
	<!ENTITY st12 "clip-path:url(#SVGID_10_);fill:#808080;">
	<!ENTITY st13 "clip-path:url(#SVGID_12_);fill:#808080;">
	<!ENTITY st14 "clip-path:url(#SVGID_14_);fill:#808080;">
	<!ENTITY st15 "clip-path:url(#SVGID_16_);fill:#808080;">
	<!ENTITY st16 "clip-path:url(#SVGID_18_);fill:#808080;">
	<!ENTITY st17 "clip-path:url(#SVGID_20_);fill:#808080;">
	<!ENTITY st18 "clip-path:url(#SVGID_22_);fill:#808080;">
	<!ENTITY st19 "clip-path:url(#SVGID_24_);fill:#808080;">
	<!ENTITY st20 "clip-path:url(#SVGID_26_);fill:#808080;">
	<!ENTITY st21 "clip-path:url(#SVGID_28_);fill:#808080;">
	<!ENTITY st22 "clip-path:url(#SVGID_30_);fill:#808080;">
	<!ENTITY st23 "clip-path:url(#SVGID_32_);fill:#808080;">
	<!ENTITY st24 "clip-path:url(#SVGID_34_);fill:#808080;">
	<!ENTITY st25 "clip-path:url(#SVGID_36_);fill:#808080;">
	<!ENTITY st26 "clip-path:url(#SVGID_38_);fill:#808080;">
	<!ENTITY st27 "clip-path:url(#SVGID_40_);fill:#808080;">
	<!ENTITY st28 "clip-path:url(#SVGID_42_);fill:#808080;">
	<!ENTITY st29 "clip-path:url(#SVGID_44_);fill:#808080;">
	<!ENTITY st30 "clip-path:url(#SVGID_46_);fill:#808080;">
	<!ENTITY st31 "clip-path:url(#SVGID_48_);fill:#808080;">
	<!ENTITY st32 "clip-path:url(#SVGID_50_);fill:#808080;">
	<!ENTITY st33 "clip-path:url(#SVGID_52_);fill:#808080;">
	<!ENTITY st34 "clip-path:url(#SVGID_54_);fill:#808080;">
	<!ENTITY st35 "clip-path:url(#SVGID_56_);fill:#808080;">
	<!ENTITY st36 "clip-path:url(#SVGID_58_);fill:#808080;">
	<!ENTITY st37 "clip-path:url(#SVGID_60_);fill:#808080;">
	<!ENTITY st38 "clip-path:url(#SVGID_62_);fill:#808080;">
	<!ENTITY st39 "clip-path:url(#SVGID_64_);fill:#808080;">
	<!ENTITY st40 "clip-path:url(#SVGID_66_);fill:#808080;">
	<!ENTITY st41 "clip-path:url(#SVGID_68_);fill:#808080;">
	<!ENTITY st42 "clip-path:url(#SVGID_70_);fill:#808080;">
	<!ENTITY st43 "clip-path:url(#SVGID_72_);fill:#808080;">
	<!ENTITY st44 "clip-path:url(#SVGID_74_);fill:#808080;">
	<!ENTITY st45 "clip-path:url(#SVGID_76_);fill:#808080;">
	<!ENTITY st46 "fill:#B3B3B3;">
	<!ENTITY st47 "opacity:0.35;clip-path:url(#SVGID_78_);fill:#231F20;">
	<!ENTITY st48 "opacity:0.35;clip-path:url(#SVGID_80_);fill:#231F20;">
	<!ENTITY st49 "opacity:0.35;clip-path:url(#i_Dot_1_);">
	<!ENTITY st50 "fill:#231F20;">
	<!ENTITY st51 "opacity:0.35;clip-path:url(#i_1_);">
	<!ENTITY st52 "opacity:0.35;clip-path:url(#SVGID_82_);">
	<!ENTITY st53 "opacity:0.35;clip-path:url(#SVGID_84_);">
	<!ENTITY st54 "opacity:0.35;clip-path:url(#SVGID_86_);">
	<!ENTITY st55 "opacity:0.35;clip-path:url(#SVGID_88_);">
	<!ENTITY st56 "opacity:0.35;clip-path:url(#SVGID_90_);">
	<!ENTITY st57 "opacity:0.35;clip-path:url(#SVGID_92_);">
	<!ENTITY st58 "opacity:0.35;clip-path:url(#SVGID_94_);">
	<!ENTITY st59 "fill:#CCCCCC;">
	<!ENTITY st60 "fill-rule:evenodd;clip-rule:evenodd;fill:#CCCCCC;">
	<!ENTITY st61 "fill-rule:evenodd;clip-rule:evenodd;fill:#585858;">
	<!ENTITY st62 "fill:#585858;">
	<!ENTITY st63 "fill-rule:evenodd;clip-rule:evenodd;fill:#B3B3B3;">
	<!ENTITY st64 "fill:#0177B5;">
	<!ENTITY st65 "fill-rule:evenodd;clip-rule:evenodd;fill:#808080;">
	<!ENTITY st66 "fill:#2AA9E0;">
	<!ENTITY st67 "fill:#3B5999;">
	<!ENTITY st68 "fill:#C30907;">
	<!ENTITY st69 "display:inline;fill:#FFFFFF;">
	<!ENTITY st70 "display:inline;">
	<!ENTITY st71 "fill-rule:evenodd;clip-rule:evenodd;fill:#FFFFFF;">
	<!ENTITY st72 "fill-rule:evenodd;clip-rule:evenodd;fill:#333333;">
	<!ENTITY st73 "display:inline;fill:#333333;">
	<!ENTITY st74 "fill:#333333;">
]>
<svg version="1.1" xmlns:x="&ns_extend;" xmlns:i="&ns_ai;" xmlns:graph="&ns_graphs;"
	 xmlns="http://www.w3.org/2000/svg" xmlns:xlink="http://www.w3.org/1999/xlink" xmlns:a="http://ns.adobe.com/AdobeSVGViewerExtensions/3.0/"
	 x="0px" y="0px" viewBox="0 0 330 41" style="enable-background:new 0 0 330 41;" xml:space="preserve">
<g id="Background" style="&st0;">
	<rect x="-450" y="-639" style="&st1;" width="1280" height="800"/>
</g>
<g id="No_Rollover">
	<g id="Blue_Fission_Logo">
		<g>
			<g id="Text_9_">
				<path style="&st6;" d="M0,40.5V0.5h10.5c4.7,0,7.5,0.9,9.6,2.6s3.2,4.3,3.2,7.4c0,1.2-0.3,2.5-0.8,3.6c-0.5,1.1-1.3,2.2-2.1,3
					c-0.8,0.9-1.8,1.6-2.9,2.1c-1.1,0.6-1.9,0.7-1.9,0.7s1.7,0.3,3.1,0.8c1.3,0.5,2.6,1.2,3.5,2.1c0.9,0.8,1.6,1.9,2.1,3
					c0.5,1.1,0.8,2.5,0.8,3.9c0,1.8-0.4,3.4-0.9,4.7c-0.6,1.3-1.5,2.3-2.6,3.2c-1.1,0.9-2.6,1.6-4.2,2.1c-1.6,0.5-3.4,0.6-5.4,0.7H0
					z M1.1,19.6l9.7,0c1.5,0.1,4.3-0.4,5.2-0.8c1.4-0.6,2.6-1.3,3.5-2.2c0.9-0.9,1.6-1.9,2-2.9c0.4-1.1,0.6-2.1,0.6-3.2
					c0-2.9-1-5.1-2.9-6.7s-4.8-2.4-8.7-2.4l-9.4,0V19.6z M1.2,20.7v18.8H12c1.9,0,3.5-0.2,5-0.6c1.5-0.4,2.7-1,3.7-1.8
					c1-0.8,1.8-1.8,2.3-3c0.5-1.2,0.8-2.6,0.8-4.2c0-1.4-0.3-2.7-0.8-3.8c-0.6-1.1-1.4-2.1-2.4-2.9c-1-0.8-2.2-1.5-3.7-1.8
					c-1.4-0.3-3.1-0.6-4.9-0.6H1.2z"/>
				<path style="&st6;" d="M34.3,39.5h20.2v1.1H33.2V0.5h1.1V39.5z"/>
				<path style="&st6;" d="M72.6,39.9c2.1,0,3.9-0.4,5.6-1.1c1.6-0.7,3-1.8,4.2-3.1c1.1-1.3,2-2.8,2.6-4.5c0.6-1.7,0.9-3.6,0.9-5.8
					l0-25h1.2v24.8c0,2.1-0.3,4.2-0.9,6.1c-0.7,1.9-1.5,3.6-2.8,5c-1.3,1.4-2.8,2.5-4.6,3.4c-1.8,0.8-3.8,1.2-6.1,1.2
					s-4.3-0.4-6.1-1.2c-1.8-0.8-3.4-1.9-4.6-3.4c-1.3-1.4-2.1-3.1-2.8-5c-0.7-1.9-0.9-3.9-0.9-6.1V0.5h1.2l0,25.1
					c0,2,0.3,3.8,0.9,5.6c0.6,1.7,1.5,3.3,2.6,4.6c1.1,1.3,2.5,2.3,4.2,3.1C68.6,39.6,70.5,39.9,72.6,39.9z"/>
				<path style="&st6;" d="M119.4,0.5v1H96.9v18.1h19.3v1H96.9v18.8h22.8l0,1.1H95.8V0.5H119.4z"/>
				<path style="&st6;" d="M161.9,0.5v1h-22.5v18.7h19.6v1h-19.6v19.3h-1.1v-40H161.9z"/>
				<path style="&st6;" d="M230.9,4.6c-0.1,0.1-0.4,0.1-0.5,0.1c-0.4,0-0.7-0.3-1-0.7c-0.3-0.4-0.9-0.9-1.6-1.3
					c-0.8-0.5-1.3-0.8-2.4-1.1c-1.1-0.4-2.3-0.6-3.9-0.6c-1.6,0-3,0.2-4.2,0.7c-1.3,0.5-2.2,1.2-3.1,2c-0.8,0.8-1.5,1.9-1.9,3
					c-0.3,0.9-0.6,2-0.6,3.2c0,1.5,0.3,2.6,0.9,3.6c0.6,1,1.4,1.8,2.3,2.5c1,0.7,2.1,1.3,3.3,1.7c1.2,0.5,2.5,0.9,3.8,1.3
					c1.3,0.4,2.5,0.9,3.8,1.3c1.2,0.5,2.4,1.2,3.3,1.9c1,0.7,1.7,1.6,2.3,2.7c0.6,1.1,0.8,2.5,0.8,4.1c0,1.6-0.3,3.3-0.8,4.7
					c-0.5,1.4-1.3,2.6-2.4,3.7c-1,1-2.3,1.9-3.8,2.5c-1.5,0.6-3,1-5.3,1c-1.9,0-3.1-0.3-4.1-0.5c-1.1-0.2-2-0.7-2.9-1.1
					c-0.9-0.4-1.7-1.2-2.4-1.8c-0.7-0.6-1.3-1.3-2-2.1l0.3-0.2c0.1-0.1,0.3-0.2,0.6-0.1c0.3,0.1,0.3,0.2,0.6,0.4
					c0.2,0.2,0.5,0.5,0.9,0.9c0.4,0.4,0.7,0.7,1.2,1.1c0.5,0.4,1.2,0.8,1.9,1.2c0.8,0.4,1.6,0.7,2.6,0.9c1,0.2,2.1,0.4,3.3,0.4
					c1.5,0,3.2-0.2,4.6-0.8c1.4-0.6,2.6-1.4,3.6-2.4c1-1,1.7-2.1,2.3-3.5c0.5-1.3,0.8-2.8,0.7-4.1c0-0.8-0.2-2.2-0.6-3.1
					c-0.4-0.9-0.9-1.7-1.6-2.3c-0.7-0.6-1.3-1.1-2.2-1.6c-0.9-0.5-1.8-0.9-2.8-1.2c-1-0.4-2-0.7-3-1c-1-0.3-2-0.7-3-1
					c-1-0.4-1.9-0.8-2.8-1.3c-0.9-0.5-1.7-1.2-2.4-1.8c-0.7-0.7-1.2-1.4-1.5-2.3c-0.4-0.9-0.7-2.4-0.7-3.7c0-1.3,0.2-2.4,0.7-3.6
					c0.5-1.2,1.2-2.3,2.1-3.2c0.9-0.9,2-1.7,3.4-2.2c1.3-0.5,3.1-0.9,4.8-0.9c1.9,0,3.7,0.4,5.1,1s3.3,1.9,4.5,3.4L230.9,4.6z"/>
				<path style="&st6;" d="M242.4,40.5h-1.1v-39h-2.7V0.5h3.9V40.5z"/>
				<path style="&st6;" d="M301.4,0.7l27.5,37.5V0.5h1.1v39.9h-0.4c-0.1,0-0.3-0.1-0.4-0.2L301.5,2.5v37.9h-1.1V0.5l0.5,0
					C301.2,0.5,301.4,0.7,301.4,0.7z"/>
				<path style="&st6;" d="M203,4.6c-0.1,0.1-0.4,0.1-0.5,0.1c-0.4,0-0.7-0.3-1-0.7c-0.3-0.4-0.9-0.9-1.6-1.3
					c-0.8-0.5-1.3-0.8-2.4-1.1c-1.1-0.4-2.3-0.6-3.9-0.6c-1.6,0-3,0.2-4.2,0.7c-1.3,0.5-2.2,1.2-3.1,2c-0.8,0.8-1.5,1.9-1.9,3
					c-0.3,0.9-0.6,2-0.6,3.2c0,1.5,0.3,2.6,0.9,3.6c0.6,1,1.4,1.8,2.3,2.5c1,0.7,2.1,1.3,3.3,1.7c1.2,0.5,2.5,0.9,3.8,1.3
					c1.3,0.4,2.5,0.9,3.8,1.3c1.2,0.5,2.4,1.2,3.3,1.9c1,0.7,1.7,1.6,2.3,2.7c0.6,1.1,0.8,2.5,0.8,4.1c0,1.6-0.3,3.3-0.8,4.7
					c-0.5,1.4-1.3,2.6-2.4,3.7c-1,1-2.3,1.9-3.8,2.5c-1.5,0.6-3,1-5.3,1c-1.9,0-3.1-0.3-4.1-0.5c-1.1-0.2-2-0.7-2.9-1.1
					c-0.9-0.4-1.7-1.2-2.4-1.8c-0.7-0.6-1.3-1.3-2-2.1l0.3-0.2c0.1-0.1,0.3-0.2,0.6-0.1c0.3,0.1,0.3,0.2,0.6,0.4
					c0.2,0.2,0.5,0.5,0.9,0.9c0.4,0.4,0.7,0.7,1.2,1.1c0.5,0.4,1.2,0.8,1.9,1.2c0.8,0.4,1.6,0.7,2.6,0.9c1,0.2,2.1,0.4,3.3,0.4
					c1.5,0,3.2-0.2,4.6-0.8c1.4-0.6,2.6-1.4,3.6-2.4c1-1,1.7-2.1,2.3-3.5c0.5-1.3,0.8-2.8,0.7-4.1c0-0.8-0.2-2.2-0.6-3.1
					c-0.4-0.9-0.9-1.7-1.6-2.3c-0.7-0.6-1.3-1.1-2.2-1.6c-0.9-0.5-1.8-0.9-2.8-1.2c-1-0.4-2-0.7-3-1c-1-0.3-2-0.7-3-1
					c-1-0.4-1.9-0.8-2.8-1.3c-0.9-0.5-1.7-1.2-2.4-1.8c-0.7-0.7-1.2-1.4-1.5-2.3c-0.4-0.9-0.7-2.4-0.7-3.7c0-1.3,0.2-2.4,0.7-3.6
					c0.5-1.2,1.2-2.3,2.1-3.2c0.9-0.9,2-1.7,3.4-2.2c1.3-0.5,3.1-0.9,4.8-0.9c1.9,0,3.7,0.4,5.1,1s3.3,1.9,4.5,3.4L203,4.6z"/>
				<path style="&st6;" d="M172.1,40.5H171v-39h-2.7V0.5h3.9V40.5z"/>
			</g>
			<g id="Power_Symbol_9_">
				<path style="&st6;" d="M257.2,5.1c0,0,0.8,1.2,0.8,1.1c-3.8,2.9-7.1,8.8-7.1,14.6c0,10.3,8.4,18.7,18.7,18.7
					c10.3,0,18.7-8.4,18.7-18.7c0-9.3-7.1-14.6-7.1-14.6l0.9-1.1c4.6,3.7,7.6,9.3,7.6,15.7c0,11.1-9,20.1-20.1,20.1
					c-11.1,0-20.1-9-20.1-20.1C249.6,14.5,252.5,8.8,257.2,5.1z"/>
				<path style="&st6;" d="M266.3,0.4h4v17.9H269V1.8l-2.6,0V0.4z"/>
			</g>
		</g>
	</g>
</g>
<g id="Icons">
</g>
<g id="Icon_Rollovers" style="&st0;">
</g>
</svg>
