<?xml version="1.0" encoding="utf-8"?>
<!-- Generator: Adobe Illustrator 17.1.0, SVG Export Plug-In . SVG Version: 6.00 Build 0)  -->
<!DOCTYPE svg PUBLIC "-//W3C//DTD SVG 1.1//EN" "http://www.w3.org/Graphics/SVG/1.1/DTD/svg11.dtd" [
	<!ENTITY ns_flows "http://ns.adobe.com/Flows/1.0/">
	<!ENTITY ns_extend "http://ns.adobe.com/Extensibility/1.0/">
	<!ENTITY ns_ai "http://ns.adobe.com/AdobeIllustrator/10.0/">
	<!ENTITY ns_graphs "http://ns.adobe.com/Graphs/1.0/">
	<!ENTITY st0 "display:none;">
	<!ENTITY st1 "display:inline;fill:#252525;">
	<!ENTITY st2 "fill:#FFFFFF;">
	<!ENTITY st3 "fill:#149B9E;">
	<!ENTITY st4 "fill:#27BDBE;">
	<!ENTITY st5 "display:none;fill:none;">
	<!ENTITY st6 "fill:#808080;">
	<!ENTITY st7 "fill:#808080;stroke:#7E7E7E;stroke-width:2.9999;stroke-miterlimit:2.6131;">
	<!ENTITY st8 "clip-path:url(#SVGID_2_);fill:#808080;">
	<!ENTITY st9 "clip-path:url(#SVGID_4_);fill:#808080;">
	<!ENTITY st10 "clip-path:url(#SVGID_6_);fill:#808080;">
	<!ENTITY st11 "clip-path:url(#SVGID_8_);fill:#808080;">
	<!ENTITY st12 "clip-path:url(#SVGID_10_);fill:#808080;">
	<!ENTITY st13 "clip-path:url(#SVGID_12_);fill:#808080;">
	<!ENTITY st14 "clip-path:url(#SVGID_14_);fill:#808080;">
	<!ENTITY st15 "clip-path:url(#SVGID_16_);fill:#808080;">
	<!ENTITY st16 "clip-path:url(#SVGID_18_);fill:#808080;">
	<!ENTITY st17 "clip-path:url(#SVGID_20_);fill:#808080;">
	<!ENTITY st18 "clip-path:url(#SVGID_22_);fill:#808080;">
	<!ENTITY st19 "clip-path:url(#SVGID_24_);fill:#808080;">
	<!ENTITY st20 "clip-path:url(#SVGID_26_);fill:#808080;">
	<!ENTITY st21 "clip-path:url(#SVGID_28_);fill:#808080;">
	<!ENTITY st22 "clip-path:url(#SVGID_30_);fill:#808080;">
	<!ENTITY st23 "clip-path:url(#SVGID_32_);fill:#808080;">
	<!ENTITY st24 "clip-path:url(#SVGID_34_);fill:#808080;">
	<!ENTITY st25 "clip-path:url(#SVGID_36_);fill:#808080;">
	<!ENTITY st26 "clip-path:url(#SVGID_38_);fill:#808080;">
	<!ENTITY st27 "clip-path:url(#SVGID_40_);fill:#808080;">
	<!ENTITY st28 "clip-path:url(#SVGID_42_);fill:#808080;">
	<!ENTITY st29 "clip-path:url(#SVGID_44_);fill:#808080;">
	<!ENTITY st30 "clip-path:url(#SVGID_46_);fill:#808080;">
	<!ENTITY st31 "clip-path:url(#SVGID_48_);fill:#808080;">
	<!ENTITY st32 "clip-path:url(#SVGID_50_);fill:#808080;">
	<!ENTITY st33 "clip-path:url(#SVGID_52_);fill:#808080;">
	<!ENTITY st34 "clip-path:url(#SVGID_54_);fill:#808080;">
	<!ENTITY st35 "clip-path:url(#SVGID_56_);fill:#808080;">
	<!ENTITY st36 "clip-path:url(#SVGID_58_);fill:#808080;">
	<!ENTITY st37 "clip-path:url(#SVGID_60_);fill:#808080;">
	<!ENTITY st38 "clip-path:url(#SVGID_62_);fill:#808080;">
	<!ENTITY st39 "clip-path:url(#SVGID_64_);fill:#808080;">
	<!ENTITY st40 "clip-path:url(#SVGID_66_);fill:#808080;">
	<!ENTITY st41 "clip-path:url(#SVGID_68_);fill:#808080;">
	<!ENTITY st42 "clip-path:url(#SVGID_70_);fill:#808080;">
	<!ENTITY st43 "clip-path:url(#SVGID_72_);fill:#808080;">
	<!ENTITY st44 "clip-path:url(#SVGID_74_);fill:#808080;">
	<!ENTITY st45 "clip-path:url(#SVGID_76_);fill:#808080;">
	<!ENTITY st46 "fill:#B3B3B3;">
	<!ENTITY st47 "opacity:0.35;clip-path:url(#SVGID_78_);fill:#231F20;">
	<!ENTITY st48 "opacity:0.35;clip-path:url(#SVGID_80_);fill:#231F20;">
	<!ENTITY st49 "opacity:0.35;clip-path:url(#i_Dot_1_);">
	<!ENTITY st50 "fill:#231F20;">
	<!ENTITY st51 "opacity:0.35;clip-path:url(#i_1_);">
	<!ENTITY st52 "opacity:0.35;clip-path:url(#SVGID_82_);">
	<!ENTITY st53 "opacity:0.35;clip-path:url(#SVGID_84_);">
	<!ENTITY st54 "opacity:0.35;clip-path:url(#SVGID_86_);">
	<!ENTITY st55 "opacity:0.35;clip-path:url(#SVGID_88_);">
	<!ENTITY st56 "opacity:0.35;clip-path:url(#SVGID_90_);">
	<!ENTITY st57 "opacity:0.35;clip-path:url(#SVGID_92_);">
	<!ENTITY st58 "opacity:0.35;clip-path:url(#SVGID_94_);">
	<!ENTITY st59 "fill:#CCCCCC;">
	<!ENTITY st60 "fill-rule:evenodd;clip-rule:evenodd;fill:#CCCCCC;">
	<!ENTITY st61 "fill-rule:evenodd;clip-rule:evenodd;fill:#585858;">
	<!ENTITY st62 "fill:#585858;">
	<!ENTITY st63 "fill-rule:evenodd;clip-rule:evenodd;fill:#B3B3B3;">
	<!ENTITY st64 "fill:#0177B5;">
	<!ENTITY st65 "fill-rule:evenodd;clip-rule:evenodd;fill:#808080;">
	<!ENTITY st66 "fill:#2AA9E0;">
	<!ENTITY st67 "fill:#3B5999;">
	<!ENTITY st68 "fill:#C30907;">
	<!ENTITY st69 "display:inline;fill:#FFFFFF;">
	<!ENTITY st70 "display:inline;">
	<!ENTITY st71 "fill-rule:evenodd;clip-rule:evenodd;fill:#FFFFFF;">
	<!ENTITY st72 "fill-rule:evenodd;clip-rule:evenodd;fill:#333333;">
	<!ENTITY st73 "display:inline;fill:#333333;">
	<!ENTITY st74 "fill:#333333;">
]>
<svg version="1.1" xmlns:x="&ns_extend;" xmlns:i="&ns_ai;" xmlns:graph="&ns_graphs;"
	 xmlns="http://www.w3.org/2000/svg" xmlns:xlink="http://www.w3.org/1999/xlink" xmlns:a="http://ns.adobe.com/AdobeSVGViewerExtensions/3.0/"
	 x="0px" y="0px" viewBox="0 0 330 47.6" style="enable-background:new 0 0 330 47.6;" xml:space="preserve">
<g id="Background" style="&st0;">
	<rect x="-450" y="-532.4" style="&st1;" width="1280" height="800"/>
</g>
<g id="No_Rollover">
	<g id="Digital_Garden_Media_Logo">
		<path style="&st6;" d="M23.8,0H0v47.6h23.8c13.1,0,23.8-10.7,23.8-23.8C47.6,10.7,36.9,0,23.8,0z M23.8,44.2H3.4V3.4h20.4
			c11.3,0,20.4,9.2,20.4,20.4S35.1,44.2,23.8,44.2z"/>
		<path style="&st6;" d="M32.9,22.1c-2.5-2.3-5.7-3.5-9.1-3.5c-3.6,0-7.1,1.4-9.6,4L13,23.8l1.2,1.2c2.6,2.6,6,4,9.6,4
			c3.4,0,6.6-1.2,9.1-3.5h4.5c-0.8,6.7-6.6,12-13.6,12c-7.5,0-13.7-6.1-13.7-13.7s6.1-13.7,13.7-13.7c3,0,5.9,1,8.3,2.8
			c2,1.5,3.6,3.7,4.5,6h3.6c-1-3.5-3.2-6.6-6-8.7c-3-2.3-6.6-3.5-10.3-3.5c-9.4,0-17.1,7.7-17.1,17.1c0,9.4,7.7,17.1,17.1,17.1
			c9.4,0,17.1-7.7,17.1-17.1v-1.7H32.9z M23.8,25.6c-2.1,0-4.1-0.6-5.8-1.8c1.7-1.2,3.7-1.8,5.8-1.8s4.1,0.6,5.8,1.8
			C27.9,25,25.9,25.6,23.8,25.6z"/>
		<path style="&st6;" d="M60.1,31.3h-5.7V16h5.7c4.8,0,8.1,3.3,8.1,7.6S64.9,31.3,60.1,31.3z M60.1,18.4h-3v10.4h3
			c3.2,0,5.3-2.2,5.3-5.2C65.4,20.6,63.3,18.4,60.1,18.4z M74.3,16v15.3h-2.7V16H74.3z M85.6,31.6c-4.8,0-7.9-3.4-7.9-7.9
			c0-4.3,3.3-7.9,7.9-7.9c2.7,0,4.3,0.7,5.9,2.1l-1.7,2c-1.2-1-2.3-1.6-4.3-1.6c-2.8,0-5,2.4-5,5.4c0,3.2,2.1,5.5,5.2,5.5
			c1.4,0,2.8-0.5,3.7-1.2v-2.9h-3.9v-2.3H92v6.4C90.5,30.5,88.4,31.6,85.6,31.6z M98.4,16v15.3h-2.7V16H98.4z M108.9,31.3h-2.7V18.5
			h-4.9V16h12.4v2.5h-4.9V31.3z M129.3,31.3h-2.8l-1.6-3.7h-7.2l-1.6,3.7h-2.8l6.7-15.4h2.5L129.3,31.3z M121.3,19.1l-2.6,6.1h5.3
			L121.3,19.1z M131.9,16h2.7v12.8h8v2.4h-10.7V16z M159.2,31.6c-4.8,0-7.9-3.4-7.9-7.9c0-4.3,3.3-7.9,7.9-7.9
			c2.7,0,4.3,0.7,5.9,2.1l-1.7,2c-1.2-1-2.3-1.6-4.3-1.6c-2.8,0-5,2.4-5,5.4c0,3.2,2.1,5.5,5.2,5.5c1.4,0,2.8-0.5,3.7-1.2v-2.9h-3.9
			v-2.3h6.5v6.4C164.1,30.5,162,31.6,159.2,31.6z M183.8,31.3h-2.8l-1.6-3.7h-7.2l-1.6,3.7h-2.8l6.7-15.4h2.5L183.8,31.3z
			 M175.7,19.1l-2.6,6.1h5.3L175.7,19.1z M196.2,31.3l-3.8-5.3h-3.4v5.3h-2.7V16h6.8c3.5,0,5.7,1.9,5.7,4.9c0,2.5-1.5,4.1-3.6,4.7
			l4.1,5.8H196.2z M193,18.4h-3.9v5.1h3.9c1.9,0,3.1-1,3.1-2.6C196.2,19.3,195,18.4,193,18.4z M207.9,31.3h-5.7V16h5.7
			c4.8,0,8.1,3.3,8.1,7.6S212.7,31.3,207.9,31.3z M207.9,18.4h-3v10.4h3c3.2,0,5.3-2.2,5.3-5.2C213.2,20.6,211.1,18.4,207.9,18.4z
			 M230.6,18.4H222v4h7.7v2.4H222v4.1h8.8v2.4h-11.5V16h11.3V18.4z M244.6,16h2.6v15.3H245l-8.4-10.9v10.9h-2.6V16h2.5l8.2,10.6V16z
			 M265.3,27.5L265.3,27.5l-4.9-7.2v10.9h-2.6V16h2.9l4.7,7.2l4.7-7.2h2.9v15.3h-2.7v-11L265.3,27.5z M288,18.4h-8.7v4h7.7v2.4h-7.7
			v4.1h8.8v2.4h-11.5V16H288V18.4z M297,31.3h-5.7V16h5.7c4.8,0,8.1,3.3,8.1,7.6S301.9,31.3,297,31.3z M297,18.4h-3v10.4h3
			c3.2,0,5.3-2.2,5.3-5.2C302.4,20.6,300.3,18.4,297,18.4z M311.3,16v15.3h-2.7V16H311.3z M330,31.3h-2.8l-1.6-3.7h-7.2l-1.6,3.7
			H314l6.7-15.4h2.5L330,31.3z M322,19.1l-2.6,6.1h5.3L322,19.1z"/>
	</g>
</g>
<g id="Icons">
</g>
<g id="Icon_Rollovers" style="&st0;">
</g>
</svg>
