<?xml version="1.0" encoding="utf-8"?>
<!-- Generator: Adobe Illustrator 17.1.0, SVG Export Plug-In . SVG Version: 6.00 Build 0)  -->
<!DOCTYPE svg PUBLIC "-//W3C//DTD SVG 1.1//EN" "http://www.w3.org/Graphics/SVG/1.1/DTD/svg11.dtd" [
	<!ENTITY ns_flows "http://ns.adobe.com/Flows/1.0/">
	<!ENTITY ns_extend "http://ns.adobe.com/Extensibility/1.0/">
	<!ENTITY ns_ai "http://ns.adobe.com/AdobeIllustrator/10.0/">
	<!ENTITY ns_graphs "http://ns.adobe.com/Graphs/1.0/">
	<!ENTITY st0 "fill:#149B9E;">
	<!ENTITY st1 "fill:#27BDBE;">
	<!ENTITY st2 "display:none;fill:none;">
	<!ENTITY st3 "fill:#FFFFFF;">
	<!ENTITY st4 "opacity:0.35;clip-path:url(#SVGID_2_);fill:#231F20;">
	<!ENTITY st5 "opacity:0.35;clip-path:url(#SVGID_4_);fill:#231F20;">
	<!ENTITY st6 "opacity:0.35;clip-path:url(#i_Dot_1_);">
	<!ENTITY st7 "fill:#231F20;">
	<!ENTITY st8 "opacity:0.35;clip-path:url(#i_1_);">
	<!ENTITY st9 "opacity:0.35;clip-path:url(#SVGID_6_);">
	<!ENTITY st10 "opacity:0.35;clip-path:url(#SVGID_8_);">
	<!ENTITY st11 "opacity:0.35;clip-path:url(#SVGID_10_);">
	<!ENTITY st12 "opacity:0.35;clip-path:url(#SVGID_12_);">
	<!ENTITY st13 "opacity:0.35;clip-path:url(#SVGID_14_);">
	<!ENTITY st14 "opacity:0.35;clip-path:url(#SVGID_16_);">
	<!ENTITY st15 "opacity:0.35;clip-path:url(#SVGID_18_);">
	<!ENTITY st16 "display:none;">
	<!ENTITY st17 "display:inline;fill:#252525;">
	<!ENTITY st18 "fill:#808080;">
	<!ENTITY st19 "fill:#808080;stroke:#7E7E7E;stroke-width:2.9999;stroke-miterlimit:2.6131;">
	<!ENTITY st20 "clip-path:url(#SVGID_20_);fill:#808080;">
	<!ENTITY st21 "clip-path:url(#SVGID_22_);fill:#808080;">
	<!ENTITY st22 "clip-path:url(#SVGID_24_);fill:#808080;">
	<!ENTITY st23 "clip-path:url(#SVGID_26_);fill:#808080;">
	<!ENTITY st24 "clip-path:url(#SVGID_28_);fill:#808080;">
	<!ENTITY st25 "clip-path:url(#SVGID_30_);fill:#808080;">
	<!ENTITY st26 "clip-path:url(#SVGID_32_);fill:#808080;">
	<!ENTITY st27 "clip-path:url(#SVGID_34_);fill:#808080;">
	<!ENTITY st28 "clip-path:url(#SVGID_36_);fill:#808080;">
	<!ENTITY st29 "clip-path:url(#SVGID_38_);fill:#808080;">
	<!ENTITY st30 "clip-path:url(#SVGID_40_);fill:#808080;">
	<!ENTITY st31 "clip-path:url(#SVGID_42_);fill:#808080;">
	<!ENTITY st32 "clip-path:url(#SVGID_44_);fill:#808080;">
	<!ENTITY st33 "clip-path:url(#SVGID_46_);fill:#808080;">
	<!ENTITY st34 "clip-path:url(#SVGID_48_);fill:#808080;">
	<!ENTITY st35 "clip-path:url(#SVGID_50_);fill:#808080;">
	<!ENTITY st36 "clip-path:url(#SVGID_52_);fill:#808080;">
	<!ENTITY st37 "clip-path:url(#SVGID_54_);fill:#808080;">
	<!ENTITY st38 "clip-path:url(#SVGID_56_);fill:#808080;">
	<!ENTITY st39 "clip-path:url(#SVGID_58_);fill:#808080;">
	<!ENTITY st40 "clip-path:url(#SVGID_60_);fill:#808080;">
	<!ENTITY st41 "clip-path:url(#SVGID_62_);fill:#808080;">
	<!ENTITY st42 "clip-path:url(#SVGID_64_);fill:#808080;">
	<!ENTITY st43 "clip-path:url(#SVGID_66_);fill:#808080;">
	<!ENTITY st44 "clip-path:url(#SVGID_68_);fill:#808080;">
	<!ENTITY st45 "clip-path:url(#SVGID_70_);fill:#808080;">
	<!ENTITY st46 "clip-path:url(#SVGID_72_);fill:#808080;">
	<!ENTITY st47 "clip-path:url(#SVGID_74_);fill:#808080;">
	<!ENTITY st48 "clip-path:url(#SVGID_76_);fill:#808080;">
	<!ENTITY st49 "clip-path:url(#SVGID_78_);fill:#808080;">
	<!ENTITY st50 "clip-path:url(#SVGID_80_);fill:#808080;">
	<!ENTITY st51 "clip-path:url(#SVGID_82_);fill:#808080;">
	<!ENTITY st52 "clip-path:url(#SVGID_84_);fill:#808080;">
	<!ENTITY st53 "clip-path:url(#SVGID_86_);fill:#808080;">
	<!ENTITY st54 "clip-path:url(#SVGID_88_);fill:#808080;">
	<!ENTITY st55 "clip-path:url(#SVGID_90_);fill:#808080;">
	<!ENTITY st56 "clip-path:url(#SVGID_92_);fill:#808080;">
	<!ENTITY st57 "clip-path:url(#SVGID_94_);fill:#808080;">
	<!ENTITY st58 "fill:#B3B3B3;">
	<!ENTITY st59 "fill:#CCCCCC;">
	<!ENTITY st60 "fill-rule:evenodd;clip-rule:evenodd;fill:#CCCCCC;">
	<!ENTITY st61 "fill-rule:evenodd;clip-rule:evenodd;fill:#585858;">
	<!ENTITY st62 "fill:#585858;">
	<!ENTITY st63 "fill-rule:evenodd;clip-rule:evenodd;fill:#B3B3B3;">
	<!ENTITY st64 "fill:#0177B5;">
	<!ENTITY st65 "fill-rule:evenodd;clip-rule:evenodd;fill:#808080;">
	<!ENTITY st66 "fill:#2AA9E0;">
	<!ENTITY st67 "fill:#3B5999;">
	<!ENTITY st68 "fill:#C30907;">
	<!ENTITY st69 "display:inline;fill:#FFFFFF;">
	<!ENTITY st70 "display:inline;">
	<!ENTITY st71 "fill-rule:evenodd;clip-rule:evenodd;fill:#FFFFFF;">
	<!ENTITY st72 "fill-rule:evenodd;clip-rule:evenodd;fill:#333333;">
	<!ENTITY st73 "display:inline;fill:#333333;">
	<!ENTITY st74 "fill:#333333;">
]>
<svg version="1.1" xmlns:x="&ns_extend;" xmlns:i="&ns_ai;" xmlns:graph="&ns_graphs;"
	 xmlns="http://www.w3.org/2000/svg" xmlns:xlink="http://www.w3.org/1999/xlink" xmlns:a="http://ns.adobe.com/AdobeSVGViewerExtensions/3.0/"
	 x="0px" y="0px" viewBox="0 0 30 30" style="enable-background:new 0 0 30 30;" xml:space="preserve">
<symbol  id="ToyBox_Media_Box_Icon_Full_Color" viewBox="0 -79.2 72 79.2">
	<polygon style="&st0;" points="72,-72.5 36,-79.2 36,0 72,-16.5 	"/>
	<polygon style="&st1;" points="0,-72.5 36,-79.2 36,0 0,-16.5 	"/>
	<polygon style="&st2;" points="0,0 72,0 72,-79 0,-79 	"/>
</symbol>
<symbol  id="ToyBox_Media_Logo_Full_Color_Light" viewBox="0 -85.9 199.8 85.9">
	<path style="&st3;" d="M168.7-33.4l-11.9,19h15.2l5.9-10.9l6,10.9h15.3l-12.2-19l12.6-19.8h-15.2L178-41.4l-6.5-11.8h-15.3
		L168.7-33.4z"/>
	<g>
		<defs>
			<path id="SVGID_1_" d="M168.7-33.4l-11.9,19.1h15.3l5.9-10.9l6.1,10.9h15.3l-12.2-19.1l12.7-19.9h-15.3L178-41.5l-6.5-11.8
				l-15.3,0L168.7-33.4z"/>
		</defs>
		<clipPath id="SVGID_2_">
			<use xlink:href="#SVGID_1_"  style="overflow:visible;"/>
		</clipPath>
		<polygon style="&st4;" points="169.3,-54 143,-57.9 115.3,-50.4 140.2,-4.1 164.9,-14.5 		"/>
	</g>
	<g id="Box_5_">
		<polygon style="&st0;" points="164.9,-53.3 139.9,-57.4 139.9,-3.4 164.9,-14.4 		"/>
		<polygon style="&st1;" points="114.9,-53.3 139.9,-57.4 139.9,-3.4 114.9,-14.4 		"/>
	</g>
	<g>
		<path style="&st3;" d="M193.4-84.9l-1.8,3.5h-0.2c-1.2-1.5-2.5-2.6-3.8-3.1c-1.3-0.6-2.9-0.8-5-0.8c-2.5,0-4.5,0.8-5.9,2.3
			c-1.4,1.5-2.2,3.6-2.2,6.3c0,2.8,1,4.9,3,6.3c2,1.4,4.8,2.2,8.6,2.3l4.4,0.1v0.4c0,2.2-1.1,3.3-3.2,3.3c-1.9,0-4.4-0.7-7.4-2
			l-2.7,6.1c3.1,1.6,7,2.4,11.8,2.4c3.4,0,6.1-0.8,7.9-2.5c1.9-1.7,2.8-4.1,2.8-7.1v-17.5H193.4z M186.6-78.9c1.1,0,2.1,0.4,2.9,1.1
			c0.8,0.7,1.2,1.6,1.2,2.8v2.1l-2.1-0.1c-3-0.1-4.5-1.2-4.5-3.3C184-78,184.9-78.9,186.6-78.9z"/>
	</g>
	<g id="i_shadow_5_">
		<defs>
			<path id="SVGID_3_" d="M193.4-84.9l-1.8,3.5h-0.2c-1.2-1.5-2.5-2.6-3.8-3.1c-1.3-0.6-2.9-0.8-5-0.8c-2.5,0-4.5,0.8-5.9,2.3
				c-1.4,1.5-2.2,3.6-2.2,6.3c0,2.8,1,4.9,3,6.3c2,1.4,4.8,2.2,8.6,2.3l4.4,0.1v0.4c0,2.2-1.1,3.3-3.2,3.3c-1.9,0-4.4-0.7-7.4-2
				l-2.7,6.1c3.1,1.6,7,2.4,11.8,2.4c3.4,0,6.1-0.8,7.9-2.5c1.9-1.7,2.8-4.1,2.8-7.1v-17.5H193.4z M186.6-78.9
				c1.1,0,2.1,0.4,2.9,1.1c0.8,0.7,1.2,1.6,1.2,2.8v2.1l-2.1-0.1c-3-0.1-4.5-1.2-4.5-3.3C184-78,184.9-78.9,186.6-78.9z"/>
		</defs>
		<clipPath id="SVGID_4_">
			<use xlink:href="#SVGID_3_"  style="overflow:visible;"/>
		</clipPath>
		<path id="i_shadow_6_" style="&st5;" d="M177.4-85.4h-9.6l-1.9,25.8h9.2L177.4-85.4z"/>
	</g>
	<g>
		<path id="i_Dot_7_" style="&st3;" d="M174.8-53.2c0-2.4-2.1-4.3-5-4.3c-2.9,0-5,1.9-5,4.3c0,2.4,0.9,4.7,5,4.7
			C173.3-48.5,174.8-50.8,174.8-53.2z"/>
		<path id="i_6_" style="&st3;" d="M174.8-85.4h-9.2v25.8h9.2V-85.4z"/>
	</g>
	<g id="d_shadow_part_2_3_">
		<defs>
			<path id="i_Dot_6_" d="M174.8-52.2c0-2.4-2.1-4.3-5-4.3c-2.9,0-5,1.9-5,4.3c0,2.4,0.9,4.7,5,4.7
				C173.3-47.5,174.8-49.8,174.8-52.2z"/>
		</defs>
		<clipPath id="i_Dot_1_">
			<use xlink:href="#i_Dot_6_"  style="overflow:visible;"/>
		</clipPath>
		<g id="d_shadow_6_" style="&st6;">
			<path style="&st7;" d="M151.9-84.9c-1.9,0-3.6,0.5-5.1,1.6c-1.5,1.1-2.7,2.7-3.6,4.8c-0.9,2.1-1.5,4.6-1.7,7.4
				c-0.3,4.3,0.3,7.7,1.9,10.2c1.6,2.4,3.9,3.7,6.9,3.7c1.5,0,2.8-0.3,4-0.9c1.2-0.6,2.3-1.6,3.3-3h0.2c-0.4,2.1-0.7,4.2-0.9,6.3
				l-0.5,7.1h9.3l3-36.6h-7.3l-2.2,3.4h-0.4C157.4-83.6,155.1-84.9,151.9-84.9z M155.2-77.7c1.5,0,2.5,0.5,3,1.4
				c0.5,0.9,0.8,2.4,0.7,4.3l-0.1,0.7c-0.2,2.4-0.6,4-1.4,5c-0.7,1-1.8,1.5-3.3,1.5c-1.2,0-2.1-0.6-2.7-1.7
				c-0.6-1.1-0.8-2.8-0.7-4.9c0.1-2.1,0.6-3.6,1.3-4.7C152.9-77.1,153.9-77.7,155.2-77.7z"/>
		</g>
	</g>
	<g id="d_shadow_part_1_3_">
		<defs>
			<path id="i_5_" d="M174.8-85.4h-9.2v25.8h9.2V-85.4z"/>
		</defs>
		<clipPath id="i_1_">
			<use xlink:href="#i_5_"  style="overflow:visible;"/>
		</clipPath>
		<g id="d_shadow_5_" style="&st8;">
			<path style="&st7;" d="M151.9-85.9c-1.9,0-3.6,0.5-5.1,1.6c-1.5,1.1-2.7,2.7-3.6,4.8c-0.9,2.1-1.5,4.6-1.7,7.4
				c-0.3,4.3,0.3,7.7,1.9,10.2c1.6,2.4,3.9,3.7,6.9,3.7c1.5,0,2.8-0.3,4-0.9c1.2-0.6,2.3-1.6,3.3-3h0.2c-0.4,2.1-0.7,4.2-0.9,6.3
				l-0.5,7.1h9.3l3-36.6h-7.3l-2.2,3.4h-0.4C157.4-84.6,155.1-85.9,151.9-85.9z M155.2-78.7c1.5,0,2.5,0.5,3,1.4
				c0.5,0.9,0.8,2.4,0.7,4.3l-0.1,0.7c-0.2,2.4-0.6,4-1.4,5c-0.7,1-1.8,1.5-3.3,1.5c-1.2,0-2.1-0.6-2.7-1.7
				c-0.6-1.1-0.8-2.8-0.7-4.9c0.1-2.1,0.6-3.6,1.3-4.7C152.9-78.1,153.9-78.7,155.2-78.7z"/>
		</g>
	</g>
	<g id="d_6_">
		<path style="&st3;" d="M149.4-85.9c-1.9,0-3.6,0.5-5,1.6c-1.4,1.1-2.5,2.7-3.3,4.8c-0.8,2.1-1.2,4.6-1.2,7.4
			c0,4.3,0.9,7.7,2.6,10.2s4.1,3.7,7.2,3.7c1.5,0,3.2-0.3,4.3-0.9c1.1-0.6,1.6-1,2.3-1.8h0.2l0,12.2h9.3v-36.6h-6.9l-2,3.4h-0.4
			C154.8-84.6,152.5-85.9,149.4-85.9z M153.1-78.7c1.5,0,2.5,0.5,3.1,1.4c0.6,0.9,0.9,2.4,1,4.3v0.7c0,2.4-0.3,4-1,5
			c-0.7,1-1.7,1.5-3.2,1.5c-1.2,0-2.1-0.6-2.8-1.7c-0.7-1.1-1-2.8-1-4.9c0-2.1,0.3-3.6,1-4.7C150.9-78.1,151.9-78.7,153.1-78.7z"/>
	</g>
	<g id="e_shadow_3_">
		<defs>
			<path id="SVGID_5_" d="M149.4-85.9c-1.9,0-3.6,0.5-5,1.6c-1.4,1.1-2.5,2.7-3.3,4.8c-0.8,2.1-1.2,4.6-1.2,7.4
				c0,4.3,0.9,7.7,2.6,10.2s4.1,3.7,7.2,3.7c1.5,0,3.2-0.3,4.3-0.9c1.1-0.6,1.6-1,2.3-1.8h0.2l0,12.2h9.3v-36.6h-6.9l-2,3.4h-0.4
				C154.8-84.6,152.5-85.9,149.4-85.9z M153.1-78.7c1.5,0,2.5,0.5,3.1,1.4c0.6,0.9,0.9,2.4,1,4.3v0.7c0,2.4-0.3,4-1,5
				c-0.7,1-1.7,1.5-3.2,1.5c-1.2,0-2.1-0.6-2.8-1.7c-0.7-1.1-1-2.8-1-4.9c0-2.1,0.3-3.6,1-4.7C150.9-78.1,151.9-78.7,153.1-78.7z"/>
		</defs>
		<clipPath id="SVGID_6_">
			<use xlink:href="#SVGID_5_"  style="overflow:visible;"/>
		</clipPath>
		<g style="&st9;">
			<path style="&st7;" d="M132.1-85.5c-4.4,0-8,1.2-10.6,3.5c-2.6,2.4-4.1,5.7-4.4,10.1c-0.3,4.5,0.6,7.9,2.7,10.4
				c2.1,2.4,5.3,3.6,9.5,3.6c4,0,7.6-1,9.9-3.1s3.6-5.1,3.9-9l0.3-4.1h-16.8c0.2-1.5,0.8-2.7,1.9-3.5c1.1-0.8,2.5-1.3,4.3-1.3
				c1.6,0,3.1,0.2,4.4,0.5c1.3,0.3,3.2,0.8,4.7,1.6l0.5-6.6c-1.4-0.7-3.2-1.2-4.8-1.5C136.1-85.4,134.3-85.5,132.1-85.5z
				 M130.1-64.2c-1.1,0-2-0.3-2.6-1c-0.7-0.7-1-1.8-1.1-3.2h7.9c-0.1,1.3-0.6,2.3-1.3,3.1C132.2-64.6,131.3-64.2,130.1-64.2z"/>
		</g>
	</g>
	<g id="e_3_">
		<path style="&st3;" d="M129.6-85.5c-4.4,0-7.9,1.2-10.3,3.5c-2.5,2.4-3.7,5.7-3.7,10.1c0,4.5,1.1,7.9,3.4,10.4
			c2.3,2.4,5.5,3.6,9.7,3.6c4,0,7.1-1,9.3-3.1c2.2-2.1,3.3-5.1,3.3-9v-4.1h-16.4c0.1-1.5,0.6-2.7,1.6-3.5c1-0.8,2.4-1.3,4.2-1.3
			c1.6,0,3.1,0.2,4.5,0.5c1.4,0.3,2.8,0.8,4.4,1.6v-6.6c-1.4-0.7-2.9-1.2-4.5-1.5C133.5-85.4,131.7-85.5,129.6-85.5z M129-64.2
			c-1.1,0-2-0.3-2.7-1s-1.2-1.8-1.3-3.2h7.9c0,1.3-0.4,2.3-1.1,3.1C131.1-64.6,130.2-64.2,129-64.2z"/>
	</g>
	<g id="m_shadow_3_">
		<defs>
			<path id="SVGID_7_" d="M129.6-85.5c-4.4,0-7.9,1.2-10.3,3.5c-2.5,2.4-3.7,5.7-3.7,10.1c0,4.5,1.1,7.9,3.4,10.4
				c2.3,2.4,5.5,3.6,9.7,3.6c4,0,7.1-1,9.3-3.1c2.2-2.1,3.3-5.1,3.3-9v-4.1h-16.4c0.1-1.5,0.6-2.7,1.6-3.5c1-0.8,2.4-1.3,4.2-1.3
				c1.6,0,3.1,0.2,4.5,0.5c1.4,0.3,2.8,0.8,4.4,1.6v-6.6c-1.4-0.7-2.9-1.2-4.5-1.5C133.5-85.4,131.7-85.5,129.6-85.5z M129-64.2
				c-1.1,0-2-0.3-2.7-1s-1.2-1.8-1.3-3.2h7.9c0,1.3-0.4,2.3-1.1,3.1C131.1-64.6,130.2-64.2,129-64.2z"/>
		</defs>
		<clipPath id="SVGID_8_">
			<use xlink:href="#SVGID_7_"  style="overflow:visible;"/>
		</clipPath>
		<g style="&st10;">
			<path style="&st7;" d="M109.9-85.1l-1,14.5c-0.1,1.8-0.5,3.2-1,4.1c-0.6,0.9-1.4,1.4-2.4,1.4c-1.4,0-2.4-0.6-3-1.8
				c-0.6-1.2-0.8-3.1-0.6-5.7l0.9-12.4h-9.2l-1,14.5c-0.1,1.8-0.5,3.2-1,4.1c-0.5,0.9-1.3,1.4-2.4,1.4c-1.4,0-2.4-0.6-3-1.9
				c-0.6-1.3-0.8-3.4-0.5-6.3l0.8-11.7h-9.2l-1.9,26.6h6.9l1.4-3.3h0.5c0.6,1.2,1.6,2.2,2.9,2.8c1.3,0.6,2.8,1,4.5,1
				c3.8,0,6.6-1.2,8.3-3.5h0.7c0.7,1.1,1.7,2,3,2.6c1.3,0.6,2.8,0.9,4.4,0.9c3.1,0,5.5-0.8,7.2-2.4c1.6-1.6,2.9-4.1,3.2-7.4
				l1.6-17.3H109.9z"/>
		</g>
	</g>
	<g id="m_3_">
		<path style="&st3;" d="M107.7-85.1v14.5c0,1.8-0.2,3.2-0.7,4.1c-0.5,0.9-1.3,1.4-2.3,1.4c-1.4,0-2.4-0.6-3.1-1.8
			c-0.7-1.2-1-3.1-1-5.7v-12.4h-9.2v14.5c0,1.8-0.2,3.2-0.7,4.1c-0.5,0.9-1.2,1.4-2.3,1.4c-1.4,0-2.5-0.6-3.1-1.9
			c-0.7-1.3-1-3.4-1-6.3v-11.7H75v26.6H82l1.2-3.3h0.5c0.7,1.2,1.7,2.2,3.1,2.8c1.3,0.6,2.9,1,4.6,1c3.8,0,6.5-1.2,8.1-3.5h0.7
			c0.8,1.1,1.8,2,3.1,2.6c1.3,0.6,2.8,0.9,4.4,0.9c3.1,0,5.5-0.8,7-2.4c1.5-1.6,2.3-4.1,2.3-7.4v-17.3H107.7z"/>
	</g>
	<g id="y_shadow_on_m_3_">
		<defs>
			<path id="SVGID_9_" d="M107.7-85.1v14.5c0,1.8-0.2,3.2-0.7,4.1c-0.5,0.9-1.3,1.4-2.3,1.4c-1.4,0-2.4-0.6-3.1-1.8
				c-0.7-1.2-1-3.1-1-5.7v-12.4h-9.2v14.5c0,1.8-0.2,3.2-0.7,4.1c-0.5,0.9-1.2,1.4-2.3,1.4c-1.4,0-2.5-0.6-3.1-1.9
				c-0.7-1.3-1-3.4-1-6.3v-11.7H75v26.6H82l1.2-3.3h0.5c0.7,1.2,1.7,2.2,3.1,2.8c1.3,0.6,2.9,1,4.6,1c3.8,0,6.5-1.2,8.1-3.5h0.7
				c0.8,1.1,1.8,2,3.1,2.6c1.3,0.6,2.8,0.9,4.4,0.9c3.1,0,5.5-0.8,7-2.4c1.5-1.6,2.3-4.1,2.3-7.4v-17.3H107.7z"/>
		</defs>
		<clipPath id="SVGID_10_">
			<use xlink:href="#SVGID_9_"  style="overflow:visible;"/>
		</clipPath>
		<g id="y_shadow_8_" style="&st11;">
			<path style="&st7;" d="M53.4-14.5h14.1l8.1-22.3c0.4-1.2,0.7-2.6,0.9-4.2h0.3c0.1,1.6,0.2,3,0.5,4.1l5.2,22.4h13.7L83.8-55.8
				c-1.6-5.3-3.8-9-6.5-11.1c-2.7-2.2-6.4-3.3-11-3.3c-1.8,0-3.6,0.2-5.5,0.6L60-59.1c1.2-0.3,2.6-0.4,4.2-0.4
				c1.2,0,2.2,0.2,3.1,0.7c0.9,0.5,1.6,1.1,2.2,1.9c0.6,0.8,1.2,2.2,1.8,4.1L53.4-14.5z"/>
		</g>
	</g>
	<g id="b_shadow_3_">
		<defs>
			<polygon id="SVGID_11_" points="114.9,-53.2 139.9,-57.4 139.9,-3.4 114.9,-14.4 			"/>
		</defs>
		<clipPath id="SVGID_12_">
			<use xlink:href="#SVGID_11_"  style="overflow:visible;"/>
		</clipPath>
		<g id="b_6_" style="&st12;">
			<path style="&st7;" d="M114.8-13.1c4.1,0,7.4-1.8,10-5.4c2.6-3.6,5.2-8.7,5.6-15.1c0.5-6.6-0.4-11.8-2.6-15.5
				c-2.2-3.8-6.2-5.8-10.2-5.8c-1.4,0-3.4,0.2-4.5,0.6c-1.1,0.3-2.1,0.8-3,1.4c-0.9,0.6-2,1.6-3.2,2.9h-0.8l-1.9-4H94L91.4,0h12.8
				l1-18.9c1.1,2.1,2.5,3.5,4.1,4.4C110.9-13.5,112.7-13.1,114.8-13.1z M110.4-23.8c-1.8,0-3.1-0.7-3.9-2c-0.8-1.3-1.1-3.5-0.9-6.3
				l0.1-2c0.2-3.3,0.7-5.7,1.7-7.1c0.9-1.5,2.4-2.2,4.3-2.2c1.5,0,2.7,0.8,3.4,2.5c0.7,1.7,1,4.2,0.8,7.4
				C115.4-27,113.6-23.8,110.4-23.8z"/>
		</g>
	</g>
	<g id="b_5_">
		<path style="&st3;" d="M114.4-13c4.2,0,7.6-1.8,10.1-5.3c2.5-3.5,3.7-8.4,3.7-14.7c0-6.3-1.3-11.3-3.8-14.8
			c-2.5-3.6-5.7-5.4-9.8-5.4c-1.4,0-3.4,0.2-4.5,0.5c-1.1,0.3-2.1,0.7-3,1.3c-0.9,0.5-1.9,1.5-3.1,2.7h-0.8l-2.1-3.8H90.7V0h13.4
			v-18.7c1.3,2,2.8,3.5,4.5,4.4C110.3-13.5,112.2-13,114.4-13z M109.5-23.5c-1.9,0-3.2-0.7-4.1-2c-0.9-1.3-1.3-3.3-1.3-6.1v-1.9
			c0-3.2,0.4-5.5,1.3-6.8c0.9-1.4,2.3-2.1,4.3-2.1c1.6,0,2.8,0.8,3.6,2.4c0.8,1.6,1.3,4,1.3,7.1C114.5-26.7,112.8-23.5,109.5-23.5z"
			/>
	</g>
	<g id="y_shadow_5_">
		<defs>
			<path id="SVGID_13_" d="M114.4-13c4.2,0,7.6-1.8,10.1-5.3c2.5-3.5,3.7-8.4,3.7-14.7c0-6.3-1.3-11.3-3.8-14.8
				c-2.5-3.6-6-5.4-10.4-5.4c-1.4,0-2.7,0.2-3.8,0.5c-1.1,0.3-2.1,0.7-3,1.3c-0.9,0.5-1.9,1.5-3.1,2.7h-0.8l-2.1-3.8H90.7V0h13.4
				v-18.7c1.3,2,2.8,3.5,4.5,4.4C110.3-13.5,112.2-13,114.4-13z M109.5-23.5c-1.9,0-3.2-0.7-4.1-2c-0.9-1.3-1.3-3.3-1.3-6.1v-1.9
				c0-3.2,0.4-5.5,1.3-6.8c0.9-1.4,2.3-2.1,4.3-2.1c1.6,0,2.8,0.8,3.6,2.4c0.8,1.6,1.3,4,1.3,7.1C114.5-26.7,112.8-23.5,109.5-23.5z
				"/>
		</defs>
		<clipPath id="SVGID_14_">
			<use xlink:href="#SVGID_13_"  style="overflow:visible;"/>
		</clipPath>
		<g style="&st13;">
			<path style="&st7;" d="M53.4-13.5h14.1l8.1-22.3c0.4-1.2,0.7-2.6,0.9-4.2h0.3c0.1,1.6,0.2,3,0.5,4.1l5.2,22.4h13.7L83.8-54.8
				c-1.6-5.3-3.8-9-6.5-11.1c-2.7-2.2-6.4-3.3-11-3.3c-1.8,0-3.6,0.2-5.5,0.6L60-58.1c1.2-0.3,2.6-0.4,4.2-0.4
				c1.2,0,2.2,0.2,3.1,0.7c0.9,0.5,1.6,1.1,2.2,1.9c0.6,0.8,1.2,2.2,1.8,4.1L53.4-13.5z"/>
		</g>
	</g>
	<g id="y_3_">
		<path style="&st3;" d="M53.4-13.5h14.1l7.6-23.3h0.3l7.2,23.3h13.7L80.9-54.8c-2-5.3-4.4-9-7.3-11.1c-2.9-2.2-6.6-3.3-11.2-3.3
			c-1.8,0-3.6,0.2-5.5,0.6v10.5c1.2-0.3,2.6-0.4,4.1-0.4c1.2,0,2.2,0.2,3.1,0.7c0.9,0.5,1.7,1.1,2.3,1.9c0.7,0.8,1.4,2.2,2.1,4.1
			L53.4-13.5z"/>
	</g>
	<g id="o_shadow_3_">
		<defs>
			<path id="SVGID_15_" d="M53.4-13.5h14.1l6.6-22.3c0.3-1.2,0.5-2.6,0.7-4.2H75c0.2,1.6,0.5,3,0.8,4.1l6.8,22.4h13.7L80.9-54.8
				c-2-5.3-4.4-9-7.3-11.1c-2.9-2.2-6.6-3.3-11.2-3.3c-1.8,0-3.6,0.2-5.5,0.6v10.5c1.2-0.3,2.6-0.4,4.1-0.4c1.2,0,2.2,0.2,3.1,0.7
				c0.9,0.5,1.7,1.1,2.3,1.9c0.7,0.8,1.4,2.2,2.1,4.1L53.4-13.5z"/>
		</defs>
		<clipPath id="SVGID_16_">
			<use xlink:href="#SVGID_15_"  style="overflow:visible;"/>
		</clipPath>
		<g id="o_9_" style="&st14;">
			<path style="&st7;" d="M64.9-33c0.4-6.4-0.9-11.3-4.1-14.9c-3.2-3.6-7.8-5.3-14-5.3c-5.9,0-10.7,1.8-14.5,5.5
				c-3.7,3.6-5.8,8.5-6.3,14.7c-0.4,6.3,0.9,11.2,4.1,14.8c3.2,3.5,7.8,5.3,14,5.3c3.8,0,7.2-0.8,10.3-2.4c3-1.6,5.5-3.9,7.3-7
				C63.6-25.5,64.6-29,64.9-33z M39.8-33c0.2-3.3,0.9-5.9,1.9-7.6c1-1.7,2.6-2.6,4.7-2.6c2.1,0,3.5,0.9,4.2,2.6
				c0.7,1.7,1,4.3,0.8,7.6c-0.2,3.3-0.8,5.8-1.8,7.5c-1,1.7-2.5,2.5-4.6,2.5c-2.1,0-3.5-0.8-4.2-2.5C39.8-27.2,39.5-29.7,39.8-33z"
				/>
		</g>
	</g>
	<g id="o_8_">
		<path style="&st3;" d="M62.7-33.8c-0.2-6.4-2-11.3-5.5-14.7c-3.5-3.5-8.3-5.1-14.5-5c-5.9,0.1-10.5,2.1-13.9,5.8
			c-3.4,3.7-5,8.7-4.9,14.9c0.2,6.3,2,11.2,5.5,14.6c3.5,3.4,8.3,5.1,14.5,4.9c3.8-0.1,7.2-1,10-2.7c2.9-1.7,5.1-4.1,6.6-7.1
			C62.1-26.2,62.8-29.8,62.7-33.8z M37.6-33.2c-0.1-3.3,0.3-5.9,1.1-7.7c0.8-1.8,2.3-2.7,4.4-2.7c2.1-0.1,3.6,0.8,4.5,2.5
			c0.9,1.7,1.4,4.3,1.5,7.6c0.1,3.3-0.3,5.8-1.1,7.5c-0.8,1.7-2.3,2.6-4.4,2.6c-2.1,0.1-3.6-0.8-4.5-2.4
			C38.2-27.3,37.7-29.8,37.6-33.2z"/>
	</g>
	<g id="t_shadow_3_">
		<defs>
			<path id="SVGID_17_" d="M62.7-33.8c-0.2-6.4-2-11.3-5.5-14.7c-3.5-3.5-8.3-5.1-14.5-5c-5.9,0.1-10.5,2.1-13.9,5.8
				c-3.4,3.7-5,8.7-4.9,14.9c0.2,6.3,2,11.2,5.5,14.6c3.5,3.4,8.3,5.1,14.5,4.9c3.8-0.1,7.2-1,10-2.7c2.9-1.7,5.1-4.1,6.6-7.1
				C62.1-26.2,62.8-29.8,62.7-33.8z M37.6-33.2c-0.1-3.3,0.3-5.9,1.1-7.7c0.8-1.8,2.3-2.7,4.4-2.7c2.1-0.1,3.6,0.8,4.5,2.5
				c0.9,1.7,1.4,4.3,1.5,7.6c0.1,3.3-0.3,5.8-1.1,7.5c-0.8,1.7-2.3,2.6-4.4,2.6c-2.1,0.1-3.6-0.8-4.5-2.4
				C38.2-27.3,37.7-29.8,37.6-33.2z"/>
		</defs>
		<clipPath id="SVGID_18_">
			<use xlink:href="#SVGID_17_"  style="overflow:visible;"/>
		</clipPath>
		<g id="t_Shadow_3_" style="&st15;">
			<path style="&st7;" d="M24.4-42.4c1.8,0,3.9,0.3,6.4,1.2l0.4-9.8c-1.8-0.7-3.5-1.2-5.1-1.5c-1.6-0.3-3.5-0.4-5.7-0.4
				c-4.5,0.1-7.8,1.3-9.9,3.6c-2.1,2.3-3.2,5.7-3.4,10.3l-0.7,16L1.7-23l-0.2,5.5l5.8,4.1l3.1,8.1l8.8-0.2l0.3-7.8l9.5-0.2l0.4-10.1
				l-9.5,0.2l0.7-15.1C20.7-41.1,21.9-42.4,24.4-42.4z"/>
		</g>
	</g>
	<g id="t_3_">
		<path style="&st3;" d="M21.8-42.6c1.8,0,4,0.4,6.5,1.3v-9.8c-1.8-0.8-3.5-1.3-5.2-1.7c-1.6-0.3-3.5-0.5-5.7-0.5
			c-4.5,0-7.7,1.1-9.7,3.3c-2,2.2-3,5.6-3,10.2v16H0v5.5l6,4.2l3.5,8.2h8.8v-7.8h9.5v-10h-9.5v-15.1C18.2-41.4,19.4-42.6,21.8-42.6z
			"/>
	</g>
</symbol>
<g id="Background" style="&st16;">
	<rect x="-608.4" y="-40" style="&st17;" width="1280" height="800"/>
</g>
<g id="No_Rollover">
	<g>
		<polygon id="Box_Area" style="&st3;" points="-388.9,470 -446.4,496.3 -446.4,584.4 -388.9,595 -331.4,584.4 -331.4,496.3 		"/>
		
			<use xlink:href="#ToyBox_Media_Box_Icon_Full_Color"  width="72" height="79.2" id="XMLID_1_" y="-79.2" transform="matrix(1.25 0 0 -1.2626 -433.4133 482.9878)" style="overflow:visible;"/>
	</g>
	
		<use xlink:href="#ToyBox_Media_Box_Icon_Full_Color"  width="72" height="79.2" id="XMLID_2_" y="-79.2" transform="matrix(1.25 0 0 -1.2626 -568.4133 482.4878)" style="overflow:visible;"/>
	<g id="Blue_Fission_Logo">
		<g>
			<g id="Text_9_">
				<path style="&st18;" d="M-158.4,639.6v-40.1h10.5c4.7,0,7.5,0.9,9.6,2.6c2.1,1.7,3.2,4.3,3.2,7.4c0,1.2-0.3,2.5-0.8,3.6
					c-0.5,1.1-1.3,2.2-2.1,3c-0.8,0.9-1.8,1.6-2.9,2.1c-1.1,0.6-1.9,0.7-1.9,0.7s1.7,0.3,3.1,0.8c1.3,0.5,2.6,1.2,3.5,2.1
					c0.9,0.8,1.6,1.9,2.1,3c0.5,1.1,0.8,2.5,0.8,3.9c0,1.8-0.4,3.4-0.9,4.7c-0.6,1.3-1.5,2.3-2.6,3.2c-1.1,0.9-2.6,1.6-4.2,2.1
					c-1.6,0.5-3.4,0.6-5.4,0.7H-158.4z M-157.3,618.6l9.7,0c1.5,0.1,4.3-0.4,5.2-0.8c1.4-0.6,2.6-1.3,3.5-2.2c0.9-0.9,1.6-1.9,2-2.9
					c0.4-1.1,0.6-2.1,0.6-3.2c0-2.9-1-5.1-2.9-6.7s-4.8-2.4-8.7-2.4l-9.4,0V618.6z M-157.2,619.7v18.8h10.8c1.9,0,3.5-0.2,5-0.6
					c1.5-0.4,2.7-1,3.7-1.8c1-0.8,1.8-1.8,2.3-3c0.5-1.2,0.8-2.6,0.8-4.2c0-1.4-0.3-2.7-0.8-3.8c-0.6-1.1-1.4-2.1-2.4-2.9
					c-1-0.8-2.2-1.5-3.7-1.8c-1.4-0.3-3.1-0.6-4.9-0.6H-157.2z"/>
				<path style="&st18;" d="M-124.1,638.5h20.2v1.1h-21.3v-40.1h1.1V638.5z"/>
				<path style="&st18;" d="M-85.9,639c2.1,0,3.9-0.4,5.6-1.1c1.6-0.7,3-1.8,4.2-3.1c1.1-1.3,2-2.8,2.6-4.5c0.6-1.7,0.9-3.6,0.9-5.8
					l0-25h1.2v24.8c0,2.1-0.3,4.2-0.9,6.1c-0.7,1.9-1.5,3.6-2.8,5c-1.3,1.4-2.8,2.5-4.6,3.4c-1.8,0.8-3.8,1.2-6.1,1.2
					s-4.3-0.4-6.1-1.2c-1.8-0.8-3.4-1.9-4.6-3.4c-1.3-1.4-2.1-3.1-2.8-5c-0.7-1.9-0.9-3.9-0.9-6.1v-24.8h1.2l0,25.1
					c0,2,0.3,3.8,0.9,5.6c0.6,1.7,1.5,3.3,2.6,4.6c1.1,1.3,2.5,2.3,4.2,3.1C-89.8,638.6-87.9,639-85.9,639z"/>
				<path style="&st18;" d="M-39,599.5v1h-22.5v18.1h19.3v1h-19.3v18.8h22.8l0,1.1h-23.9v-40.1H-39z"/>
				<path style="&st18;" d="M3.5,599.5v1H-19v18.7H0.7v1H-19v19.3h-1.1v-40H3.5z"/>
				<path style="&st18;" d="M72.5,603.6c-0.1,0.1-0.4,0.1-0.5,0.1c-0.4,0-0.7-0.3-1-0.7c-0.3-0.4-0.9-0.9-1.6-1.3
					c-0.8-0.5-1.3-0.8-2.4-1.1c-1.1-0.4-2.3-0.6-3.9-0.6c-1.6,0-3,0.2-4.2,0.7c-1.3,0.5-2.2,1.2-3.1,2c-0.8,0.8-1.5,1.9-1.9,3
					c-0.3,0.9-0.6,2-0.6,3.2c0,1.5,0.3,2.6,0.9,3.6c0.6,1,1.4,1.8,2.3,2.5c1,0.7,2.1,1.3,3.3,1.7c1.2,0.5,2.5,0.9,3.8,1.3
					c1.3,0.4,2.5,0.9,3.8,1.3c1.2,0.5,2.4,1.2,3.3,1.9c1,0.7,1.7,1.6,2.3,2.7c0.6,1.1,0.8,2.5,0.8,4.1c0,1.6-0.3,3.3-0.8,4.7
					c-0.5,1.4-1.3,2.6-2.4,3.7c-1,1-2.3,1.9-3.8,2.5c-1.5,0.6-3,1-5.3,1c-1.9,0-3.1-0.3-4.1-0.5c-1.1-0.2-2-0.7-2.9-1.1
					c-0.9-0.4-1.7-1.2-2.4-1.8c-0.7-0.6-1.3-1.3-2-2.1l0.3-0.2c0.1-0.1,0.3-0.2,0.6-0.1c0.3,0.1,0.3,0.2,0.6,0.4
					c0.2,0.2,0.5,0.5,0.9,0.9c0.4,0.4,0.7,0.7,1.2,1.1c0.5,0.4,1.2,0.8,1.9,1.2s1.6,0.7,2.6,0.9c1,0.2,2.1,0.4,3.3,0.4
					c1.5,0,3.2-0.2,4.6-0.8c1.4-0.6,2.6-1.4,3.6-2.4c1-1,1.7-2.1,2.3-3.5c0.5-1.3,0.8-2.8,0.7-4.1c0-0.8-0.2-2.2-0.6-3.1
					c-0.4-0.9-0.9-1.7-1.6-2.3c-0.7-0.6-1.3-1.1-2.2-1.6c-0.9-0.5-1.8-0.9-2.8-1.2c-1-0.4-2-0.7-3-1c-1-0.3-2-0.7-3-1
					c-1-0.4-1.9-0.8-2.8-1.3c-0.9-0.5-1.7-1.2-2.4-1.8c-0.7-0.7-1.2-1.4-1.5-2.3c-0.4-0.9-0.7-2.4-0.7-3.7c0-1.3,0.2-2.4,0.7-3.6
					c0.5-1.2,1.2-2.3,2.1-3.2c0.9-0.9,2-1.7,3.4-2.2c1.3-0.5,3.1-0.9,4.8-0.9c1.9,0,3.7,0.4,5.1,1s3.3,1.9,4.5,3.4L72.5,603.6z"/>
				<path style="&st18;" d="M84,639.6h-1.1v-39h-2.7v-1.1H84V639.6z"/>
				<path style="&st18;" d="M143,599.8l27.5,37.5v-37.7h1.1v39.9h-0.4c-0.1,0-0.3-0.1-0.4-0.2l-27.6-37.7v37.9H142v-39.9l0.5,0
					C142.8,599.5,143,599.8,143,599.8z"/>
				<path style="&st18;" d="M44.6,603.6c-0.1,0.1-0.4,0.1-0.5,0.1c-0.4,0-0.7-0.3-1-0.7c-0.3-0.4-0.9-0.9-1.6-1.3
					c-0.8-0.5-1.3-0.8-2.4-1.1c-1.1-0.4-2.3-0.6-3.9-0.6c-1.6,0-3,0.2-4.2,0.7c-1.3,0.5-2.2,1.2-3.1,2c-0.8,0.8-1.5,1.9-1.9,3
					c-0.3,0.9-0.6,2-0.6,3.2c0,1.5,0.3,2.6,0.9,3.6c0.6,1,1.4,1.8,2.3,2.5c1,0.7,2.1,1.3,3.3,1.7c1.2,0.5,2.5,0.9,3.8,1.3
					c1.3,0.4,2.5,0.9,3.8,1.3c1.2,0.5,2.4,1.2,3.3,1.9c1,0.7,1.7,1.6,2.3,2.7c0.6,1.1,0.8,2.5,0.8,4.1c0,1.6-0.3,3.3-0.8,4.7
					c-0.5,1.4-1.3,2.6-2.4,3.7c-1,1-2.3,1.9-3.8,2.5c-1.5,0.6-3,1-5.3,1c-1.9,0-3.1-0.3-4.1-0.5c-1.1-0.2-2-0.7-2.9-1.1
					c-0.9-0.4-1.7-1.2-2.4-1.8c-0.7-0.6-1.3-1.3-2-2.1l0.3-0.2c0.1-0.1,0.3-0.2,0.6-0.1c0.3,0.1,0.3,0.2,0.6,0.4
					c0.2,0.2,0.5,0.5,0.9,0.9c0.4,0.4,0.7,0.7,1.2,1.1c0.5,0.4,1.2,0.8,1.9,1.2s1.6,0.7,2.6,0.9c1,0.2,2.1,0.4,3.3,0.4
					c1.5,0,3.2-0.2,4.6-0.8c1.4-0.6,2.6-1.4,3.6-2.4c1-1,1.7-2.1,2.3-3.5c0.5-1.3,0.8-2.8,0.7-4.1c0-0.8-0.2-2.2-0.6-3.1
					c-0.4-0.9-0.9-1.7-1.6-2.3c-0.7-0.6-1.3-1.1-2.2-1.6c-0.9-0.5-1.8-0.9-2.8-1.2c-1-0.4-2-0.7-3-1c-1-0.3-2-0.7-3-1
					c-1-0.4-1.9-0.8-2.8-1.3c-0.9-0.5-1.7-1.2-2.4-1.8c-0.7-0.7-1.2-1.4-1.5-2.3c-0.4-0.9-0.7-2.4-0.7-3.7c0-1.3,0.2-2.4,0.7-3.6
					c0.5-1.2,1.2-2.3,2.1-3.2c0.9-0.9,2-1.7,3.4-2.2c1.3-0.5,3.1-0.9,4.8-0.9c1.9,0,3.7,0.4,5.1,1s3.3,1.9,4.5,3.4L44.6,603.6z"/>
				<path style="&st18;" d="M13.7,639.6h-1.1v-39H9.8v-1.1h3.9V639.6z"/>
			</g>
			<g id="Power_Symbol_9_">
				<path style="&st18;" d="M98.7,604.2c0,0,0.8,1.2,0.8,1.1c-3.8,2.9-7.1,8.8-7.1,14.6c0,10.3,8.4,18.7,18.7,18.7
					c10.3,0,18.7-8.4,18.7-18.7c0-9.3-7.1-14.6-7.1-14.6l0.9-1.1c4.6,3.7,7.6,9.3,7.6,15.7c0,11.1-9,20.1-20.1,20.1
					c-11.1,0-20.1-9-20.1-20.1C91.2,613.5,94.1,607.8,98.7,604.2z"/>
				<path style="&st18;" d="M107.9,599.5h4v17.9h-1.3v-16.6l-2.6,0V599.5z"/>
			</g>
		</g>
	</g>
	<g id="Digital_Garden_Media_Logo">
		<path style="&st18;" d="M-134.6,492.4h-23.8V540h23.8c13.1,0,23.8-10.7,23.8-23.8C-110.8,503.1-121.5,492.4-134.6,492.4z
			 M-134.6,536.6H-155v-40.8h20.4c11.3,0,20.4,9.2,20.4,20.4S-123.4,536.6-134.6,536.6z"/>
		<path style="&st18;" d="M-125.5,514.5c-2.5-2.3-5.7-3.5-9.1-3.5c-3.6,0-7.1,1.4-9.6,4l-1.2,1.2l1.2,1.2c2.6,2.6,6,4,9.6,4
			c3.4,0,6.6-1.2,9.1-3.5h4.5c-0.8,6.7-6.6,12-13.6,12c-7.5,0-13.7-6.1-13.7-13.7s6.1-13.7,13.7-13.7c3,0,5.9,1,8.3,2.8
			c2,1.5,3.6,3.7,4.5,6h3.6c-1-3.5-3.2-6.6-6-8.7c-3-2.3-6.6-3.5-10.3-3.5c-9.4,0-17.1,7.7-17.1,17.1c0,9.4,7.7,17.1,17.1,17.1
			c9.4,0,17.1-7.7,17.1-17.1v-1.7H-125.5z M-134.6,518c-2.1,0-4.1-0.6-5.8-1.8c1.7-1.2,3.7-1.8,5.8-1.8s4.1,0.6,5.8,1.8
			C-130.5,517.3-132.5,518-134.6,518z"/>
		<path style="&st18;" d="M-98.3,523.7h-5.7v-15.3h5.7c4.8,0,8.1,3.3,8.1,7.6S-93.5,523.7-98.3,523.7z M-98.3,510.8h-3v10.4h3
			c3.2,0,5.3-2.2,5.3-5.2C-93,513-95.1,510.8-98.3,510.8z M-84.1,508.4v15.3h-2.7v-15.3H-84.1z M-72.8,523.9c-4.8,0-7.9-3.4-7.9-7.9
			c0-4.3,3.3-7.9,7.9-7.9c2.7,0,4.3,0.7,5.9,2.1l-1.7,2c-1.2-1-2.3-1.6-4.3-1.6c-2.8,0-5,2.4-5,5.4c0,3.2,2.1,5.5,5.2,5.5
			c1.4,0,2.8-0.5,3.7-1.2v-2.9h-3.9v-2.3h6.5v6.4C-67.9,522.8-70.1,523.9-72.8,523.9z M-60,508.4v15.3h-2.7v-15.3H-60z M-49.5,523.7
			h-2.7v-12.8h-4.9v-2.5h12.4v2.5h-4.9V523.7z M-29.1,523.7H-32l-1.6-3.7h-7.2l-1.6,3.7h-2.8l6.7-15.4h2.5L-29.1,523.7z
			 M-37.1,511.5l-2.6,6.1h5.3L-37.1,511.5z M-26.5,508.4h2.7v12.8h8v2.4h-10.7V508.4z M0.8,523.9c-4.8,0-7.9-3.4-7.9-7.9
			c0-4.3,3.3-7.9,7.9-7.9c2.7,0,4.3,0.7,5.9,2.1l-1.7,2c-1.2-1-2.3-1.6-4.3-1.6c-2.8,0-5,2.4-5,5.4c0,3.2,2.1,5.5,5.2,5.5
			c1.4,0,2.8-0.5,3.7-1.2v-2.9H0.7v-2.3h6.5v6.4C5.7,522.8,3.5,523.9,0.8,523.9z M25.4,523.7h-2.8L21,520h-7.2l-1.6,3.7H9.4
			l6.7-15.4h2.5L25.4,523.7z M17.3,511.5l-2.6,6.1H20L17.3,511.5z M37.8,523.7l-3.8-5.3h-3.4v5.3H28v-15.3h6.8
			c3.5,0,5.7,1.9,5.7,4.9c0,2.5-1.5,4.1-3.6,4.7l4.1,5.8H37.8z M34.6,510.8h-3.9v5.1h3.9c1.9,0,3.1-1,3.1-2.6
			C37.7,511.7,36.6,510.8,34.6,510.8z M49.5,523.7h-5.7v-15.3h5.7c4.8,0,8.1,3.3,8.1,7.6S54.3,523.7,49.5,523.7z M49.5,510.8h-3
			v10.4h3c3.2,0,5.3-2.2,5.3-5.2C54.8,513,52.7,510.8,49.5,510.8z M72.2,510.8h-8.7v4h7.7v2.4h-7.7v4.1h8.8v2.4H60.9v-15.3h11.3
			V510.8z M86.2,508.4h2.6v15.3h-2.3l-8.4-10.9v10.9h-2.6v-15.3H78l8.2,10.6V508.4z M106.8,519.9L106.8,519.9l-4.9-7.2v10.9h-2.6
			v-15.3h2.9l4.7,7.2l4.7-7.2h2.9v15.3h-2.7v-11L106.8,519.9z M129.6,510.8H121v4h7.7v2.4H121v4.1h8.8v2.4h-11.5v-15.3h11.3V510.8z
			 M138.6,523.7h-5.7v-15.3h5.7c4.8,0,8.1,3.3,8.1,7.6S143.4,523.7,138.6,523.7z M138.6,510.8h-3v10.4h3c3.2,0,5.3-2.2,5.3-5.2
			C143.9,513,141.8,510.8,138.6,510.8z M152.9,508.4v15.3h-2.7v-15.3H152.9z M171.6,523.7h-2.8l-1.6-3.7H160l-1.6,3.7h-2.8l6.7-15.4
			h2.5L171.6,523.7z M163.6,511.5l-2.6,6.1h5.3L163.6,511.5z"/>
	</g>
	<g id="Hilton_Logo">
		<path style="&st19;" d="M386.6,380.8v47.8h-1.1v-24.2h-33.8v24.2h-1.1v-47.8h1.1v22.4h33.8v-22.4H386.6L386.6,380.8z M404.5,380.8
			v47.8h-1.1v-47.8H404.5L404.5,380.8z M421.2,428.6v-47.8h1.1v46.7h28.4v1.1H421.2L421.2,428.6z M466.1,428.6H465v-46.7h-17.3v-1.1
			h35.9v1.1h-17.5V428.6L466.1,428.6z M511.2,379.8c6.3,0,11.5,2.3,15.7,6.9c4.1,4.6,6.2,10.6,6.2,18c0,7.3-2.1,13.3-6.2,17.9
			c-4.1,4.6-9.5,6.9-16,6.9c-6.5,0-11.9-2.3-16-6.9c-4.1-4.6-6.2-10.6-6.2-17.9c0-7.5,2.1-13.5,6.2-18
			C499.1,382.1,504.6,379.8,511.2,379.8L511.2,379.8z M510.6,381c-6,0-10.9,2.2-14.8,6.5c-3.9,4.4-5.9,10.1-5.9,17.2
			c0,7.1,2,12.8,5.9,17.1c3.9,4.4,9,6.5,15.2,6.5c6.2,0,11.2-2.2,15.2-6.5c3.9-4.4,5.9-10.1,5.9-17.1c0-7.2-2-13-5.9-17.3
			C522.1,383.1,516.9,381,510.6,381L510.6,381z M545.5,428.6v-47.8h1.6l33.3,46.3v-46.3h1.1v47.8H580l-33.4-46.5v46.5H545.5
			L545.5,428.6z"/>
		<path style="&st18;" d="M322.7,429.7v-3h-1.1v-0.4h2.7v0.4h-1.1v3H322.7L322.7,429.7z M324.6,429.7v-3.4h0.7l0.8,2.4
			c0.1,0.2,0.1,0.4,0.2,0.5c0-0.1,0.1-0.3,0.2-0.5l0.8-2.3h0.6v3.4h-0.4v-2.8l-1,2.8H326l-1-2.9v2.9H324.6L324.6,429.7z"/>
		<path style="&st18;" d="M319.6,430h0.1v-42.2h-68.1V430l0.3,0c0.2-3.1,0.8-6.1,1.8-8.9c3.2-14.7,16.3-25.7,31.9-25.7
			c15.2,0,28,10.4,31.6,24.5C318.6,423.1,319.3,426.5,319.6,430L319.6,430z"/>
		<path style="&st18;" d="M251.7,342h-0.1v42.2h68.1V342l-0.3,0c-0.2,3.1-0.8,6.1-1.8,8.9c-3.2,14.7-16.3,25.7-31.9,25.7
			c-15.2,0-28-10.4-31.6-24.5C252.7,348.9,252,345.5,251.7,342L251.7,342z"/>
	</g>
	<g id="Pixelated_Table_Logo">
		<g>
			<polygon style="&st18;" points="-99.7,410.6 -158.4,410.6 -142.2,370 -104.7,370 			"/>
			<polygon style="&st18;" points="-68.6,410.6 -81.1,410.6 -93,370 -84.8,370 			"/>
			<polygon style="&st18;" points="-99.7,410.6 -158.4,410.6 -150.3,430 -140.6,430 -144.8,414.2 -100.3,414.2 			"/>
			<polygon style="&st18;" points="-84,410.6 -96.5,410.6 -96.9,414.2 -85.2,414.2 			"/>
			<polygon style="&st18;" points="-68.6,410.6 -81.1,410.6 -86.5,430 -76.3,430 			"/>
			<g>
				<polygon style="&st18;" points="-97.8,402.3 -96.5,410.6 -84,410.6 -86.2,402.3 				"/>
				<polygon style="&st18;" points="-86.7,400.3 -94.8,370 -102.7,370 -98,400.3 				"/>
			</g>
		</g>
		<g>
			<path style="&st18;" d="M-49.1,409.7c0,0-1.3,0.9-3,0.9c-1.5,0-2.9-1-2.9-2.5v-13.5h-2.4V394h2.4v-5.8h0.6v5.8h4v0.6h-4v13.5
				c0,1.2,1.1,1.9,2.2,1.9c1.5,0,2.6-0.7,2.7-0.8L-49.1,409.7z"/>
			<path style="&st18;" d="M-33.7,410.5h-0.6v-9.2c0-4.6-1.6-6.9-4.6-6.9c-3.1,0-6.1,2.5-7,5.7v10.4h-0.6v-23.2h0.6v11
				c1.4-2.7,4.1-4.5,6.9-4.5c3.4,0,5.2,2.6,5.2,7.6V410.5z"/>
			<path style="&st18;" d="M-30.1,402.1c0-4.6,3.5-8.4,7.8-8.4c4.4,0,7.9,3.8,8,8.5v0.3h-15.1c0.3,4.3,3.5,7.6,7.3,7.6
				c2.5,0,5-1.4,5.9-3.5l0.6,0.2c-0.9,2.3-3.7,3.9-6.6,3.9C-26.5,410.8-30.1,406.9-30.1,402.1z M-15,402c-0.3-4.4-3.3-7.6-7.3-7.6
				s-7,3.2-7.2,7.6H-15z"/>
			<path style="&st18;" d="M-2,406.7v10.6h-0.6V394H-2v3.5c1.4-2.2,3.9-3.8,6.5-3.8c4.6,0,8,4.3,8,8.6c0,4.5-3.1,8.5-7.7,8.5
				C1.8,410.8-0.6,408.9-2,406.7z M11.7,402.3c0-4.1-3.2-7.9-7.3-7.9c-2.5,0-6.3,2.4-6.5,5.1v5.9c1.2,2.7,3.8,4.8,6.7,4.8
				C9,410.2,11.7,406.2,11.7,402.3z"/>
			<path style="&st18;" d="M16.2,389.7v-2.4h0.6v2.4H16.2z M16.2,410.5V394h0.6v16.5H16.2z"/>
			<path style="&st18;" d="M20.6,394l5.9,7.4l0.3,0.4l0.3-0.4L33,394h0.8l-6.6,8.3l6.6,8.2h-0.8l-5.9-7.4l-0.3-0.4l-0.3,0.4
				l-5.9,7.4h-0.8l6.6-8.2l-6.6-8.3H20.6z"/>
			<path style="&st18;" d="M35,402.1c0-4.6,3.5-8.4,7.8-8.4c4.4,0,7.9,3.8,8,8.5v0.3H35.6c0.3,4.3,3.5,7.6,7.3,7.6
				c2.5,0,5-1.4,5.9-3.5l0.6,0.2c-0.9,2.3-3.7,3.9-6.6,3.9C38.6,410.8,35,406.9,35,402.1z M50.1,402c-0.3-4.4-3.3-7.6-7.3-7.6
				s-7,3.2-7.2,7.6H50.1z"/>
			<path style="&st18;" d="M54.4,387.3H55v20.8c0,1.2,0.8,2,2.1,2c0.5,0,1.2-0.1,1.7-0.3l0.2,0.5c-0.6,0.2-1.6,0.4-2.2,0.4
				c-1.5,0-2.5-1.1-2.5-2.6V387.3z"/>
			<path style="&st18;" d="M59.6,405.8c0-2.8,2.8-4.7,6.8-4.7c1.9,0,4,0.4,5.5,0.9v-1.9c0-3.4-2.2-5.7-5.4-5.7c-1.6,0-3.5,0.7-5.3,2
				l-0.4-0.5c2.1-1.4,4-2.2,5.7-2.2c3.7,0,6,2.5,6,6.4v9.1c0,0.4,0.2,0.6,0.5,0.6v0.6c-0.3,0-0.3,0-0.4-0.1
				c-0.4-0.2-0.7-0.7-0.7-1.2v-1.5c-1.5,2-4.1,3.1-7,3.1C62,410.8,59.6,408.6,59.6,405.8z M71.5,407.3c0.3-0.4,0.5-0.9,0.5-1.3v-3.3
				c-1.7-0.7-3.6-1-5.5-1c-3.7,0-6.2,1.6-6.2,4.1c0,2.5,2.1,4.4,4.7,4.4C67.8,410.2,70.3,409,71.5,407.3z"/>
			<path style="&st18;" d="M83.8,409.7c0,0-1.3,0.9-3,0.9c-1.5,0-2.9-1-2.9-2.5v-13.5h-2.4V394h2.4v-5.8h0.6v5.8h4v0.6h-4v13.5
				c0,1.2,1.1,1.9,2.2,1.9c1.5,0,2.6-0.7,2.7-0.8L83.8,409.7z"/>
			<path style="&st18;" d="M84.7,402.1c0-4.6,3.5-8.4,7.8-8.4c4.4,0,7.9,3.8,8,8.5v0.3H85.4c0.3,4.3,3.5,7.6,7.3,7.6
				c2.5,0,5-1.4,5.9-3.5l0.6,0.2c-0.9,2.3-3.7,3.9-6.6,3.9C88.3,410.8,84.7,406.9,84.7,402.1z M99.8,402c-0.3-4.4-3.3-7.6-7.3-7.6
				c-3.9,0-7,3.2-7.2,7.6H99.8z"/>
			<path style="&st18;" d="M102.8,402.3c0-4.5,3.2-8.6,7.7-8.6c3,0,5.4,1.9,6.7,4.1v-10.6h0.6v22c0,0.4,0.2,0.6,0.5,0.6v0.6
				c-0.2,0-0.3,0-0.4-0.1c-0.5-0.2-0.7-0.7-0.7-1.2v-2.2c-1.4,2.2-3.9,3.8-6.5,3.8C106.2,410.8,102.8,406.5,102.8,402.3z
				 M117.2,405.1v-5.9c-1-2.6-4.1-4.8-6.7-4.8c-4.3,0-7,4-7,7.9c0,4.1,3.2,7.9,7.3,7.9C113.3,410.2,117.1,407.8,117.2,405.1z"/>
			<path style="&st18;" d="M137.6,409.7c0,0-1.3,0.9-3,0.9c-1.5,0-2.9-1-2.9-2.5v-13.5h-2.4V394h2.4v-5.8h0.6v5.8h4v0.6h-4v13.5
				c0,1.2,1.1,1.9,2.2,1.9c1.5,0,2.6-0.7,2.7-0.8L137.6,409.7z"/>
			<path style="&st18;" d="M138.7,405.8c0-2.8,2.8-4.7,6.8-4.7c1.9,0,4,0.4,5.5,0.9v-1.9c0-3.4-2.2-5.7-5.4-5.7
				c-1.6,0-3.5,0.7-5.3,2l-0.4-0.5c2.1-1.4,4-2.2,5.7-2.2c3.7,0,6,2.5,6,6.4v9.1c0,0.4,0.2,0.6,0.5,0.6v0.6c-0.3,0-0.3,0-0.4-0.1
				c-0.4-0.2-0.7-0.7-0.7-1.2v-1.5c-1.5,2-4.1,3.1-7,3.1C141.1,410.8,138.7,408.6,138.7,405.8z M150.6,407.3
				c0.3-0.4,0.5-0.9,0.5-1.3v-3.3c-1.7-0.7-3.6-1-5.5-1c-3.7,0-6.2,1.6-6.2,4.1c0,2.5,2.1,4.4,4.7,4.4
				C146.9,410.2,149.4,409,150.6,407.3z"/>
			<path style="&st18;" d="M157.2,407.1v3.4h-0.6v-23.2h0.6v10.6c1.7-2.4,3.8-4.1,6.7-4.1c4.8,0,7.7,4.5,7.7,8.6
				c0,4.5-3.5,8.5-8,8.5C161,410.8,158.5,409.2,157.2,407.1z M171,402.3c0-4.1-2.9-7.9-7-7.9c-3.1,0-5.5,2.3-6.7,4.8v6
				c0.2,2.7,3.9,5,6.5,5C167.9,410.2,171,406.2,171,402.3z"/>
			<path style="&st18;" d="M175.6,387.3h0.6v20.8c0,1.2,0.8,2,2.1,2c0.5,0,1.2-0.1,1.8-0.3l0.2,0.5c-0.6,0.2-1.6,0.4-2.2,0.4
				c-1.5,0-2.5-1.1-2.5-2.6V387.3z"/>
			<path style="&st18;" d="M181.1,402.1c0-4.6,3.5-8.4,7.8-8.4c4.4,0,7.9,3.8,8,8.5v0.3h-15.1c0.3,4.3,3.5,7.6,7.3,7.6
				c2.5,0,5-1.4,5.9-3.5l0.6,0.2c-0.9,2.3-3.7,3.9-6.6,3.9C184.7,410.8,181.1,406.9,181.1,402.1z M196.2,402
				c-0.3-4.4-3.3-7.6-7.3-7.6c-3.9,0-7,3.2-7.2,7.6H196.2z"/>
		</g>
	</g>
	<g id="MGM_Logo">
		<path style="&st18;" d="M581.6,512.2c0,2.1-0.9,3.7-2.7,5c-1.8,1.2-4.1,1.9-7,1.9c-3.6,0-6.9-0.6-9.8-1.9l1-3.5
			c3.1,1.1,6.1,1.6,8.7,1.6c3.5,0,5.3-1,5.3-2.9c0-0.8-0.4-1.4-1.2-1.9c-0.6-0.4-2.2-1.1-4.8-2c-3-1.1-5.1-2.2-6.2-3.1
			c-1.3-1.1-1.9-2.6-1.9-4.4c0-4.1,3.1-6.2,9.4-6.2c3.1,0,5.9,0.4,8.5,1.1l-0.7,3.7c-2.6-0.6-5.2-0.9-7.8-0.9
			c-1.8,0-3.1,0.2-3.9,0.5c-0.7,0.3-1.1,0.9-1.1,1.7c0,0.8,0.5,1.5,1.4,2.1c0.7,0.4,2.4,1.1,5.2,2.2c3,1.2,4.9,2.1,5.8,2.8
			C581,508.9,581.6,510.3,581.6,512.2"/>
		<g>
			<defs>
				<path id="SVGID_19_" d="M254.6,502.8c0,5.6,0.8,10.8,3.7,15v-3.7c0-4.6,3.7-7.9,7.4-9.9C262,505.4,257.8,504.6,254.6,502.8z"/>
			</defs>
			<use xlink:href="#SVGID_19_"  style="overflow:visible;fill:#808080;"/>
			<clipPath id="SVGID_20_">
				<use xlink:href="#SVGID_19_"  style="overflow:visible;"/>
			</clipPath>
			<rect x="254.6" y="502.8" style="&st20;" width="11.1" height="15"/>
		</g>
		<g>
			<defs>
				<path id="SVGID_21_" d="M259.1,497.9l-1.1,1h-1.2C256.6,498.3,258.6,497,259.1,497.9 M258.3,496.6c-1.3,1.1-2.7,2.2-4.3,1.7
					c1,0.8,2.5,1,4,0.9c1.4,0.9,3.1-1.6,5-1.6c2.6-0.4,6-0.8,7.8,1.6l-0.9-1.8c-2.5-0.1-4.6-1-6.6-2.2c-0.5-0.2-0.9-0.3-1.4-0.3
					C260.5,494.8,259.4,495.7,258.3,496.6"/>
			</defs>
			<use xlink:href="#SVGID_21_"  style="overflow:visible;fill:#808080;"/>
			<clipPath id="SVGID_22_">
				<use xlink:href="#SVGID_21_"  style="overflow:visible;"/>
			</clipPath>
			<rect x="253.9" y="494.8" style="&st21;" width="16.8" height="5.3"/>
		</g>
		<g>
			<defs>
				<path id="SVGID_23_" d="M251.6,489.3c1.3,0.3,2.5,0.6,3.9,0.8c2.6-1.2,3.3-3.3,2.2-6.2c-1.5-2.3-3.7-3.6-6.1-4.2V489.3z"/>
			</defs>
			<use xlink:href="#SVGID_23_"  style="overflow:visible;fill:#808080;"/>
			<clipPath id="SVGID_24_">
				<use xlink:href="#SVGID_23_"  style="overflow:visible;"/>
			</clipPath>
			<rect x="251.6" y="479.7" style="&st22;" width="7.2" height="10.3"/>
		</g>
		<g>
			<defs>
				<path id="SVGID_25_" d="M264.4,511.4c-4.3,8.8,1.7,20.8-4.4,28.4h9.6c0.4-0.4,0.8-0.8,1.2-1.3c7.1-9.2-6.7-14.7-6.5-23.5
					c0.4-3.5,2.3-6.2,4.7-9.1l-0.2-0.2C266.6,507.7,265.7,509.2,264.4,511.4"/>
			</defs>
			<use xlink:href="#SVGID_25_"  style="overflow:visible;fill:#808080;"/>
			<clipPath id="SVGID_26_">
				<use xlink:href="#SVGID_25_"  style="overflow:visible;"/>
			</clipPath>
			<rect x="260" y="505.6" style="&st23;" width="17.9" height="34.2"/>
		</g>
		<g>
			<defs>
				<path id="SVGID_27_" d="M283,477c9.4,7.2,15.5,18.6,15.5,31.4c0,12.8-6.1,24.2-15.5,31.4h31.4V477H283z"/>
			</defs>
			<use xlink:href="#SVGID_27_"  style="overflow:visible;fill:#808080;"/>
			<clipPath id="SVGID_28_">
				<use xlink:href="#SVGID_27_"  style="overflow:visible;"/>
			</clipPath>
			<rect x="283" y="477" style="&st24;" width="31.4" height="62.8"/>
		</g>
		<g>
			<defs>
				<path id="SVGID_29_" d="M251.6,539.8h5.4l1.3-1.1c7.3-9.9-1.4-16.9-6.7-24.7V539.8z"/>
			</defs>
			<use xlink:href="#SVGID_29_"  style="overflow:visible;fill:#808080;"/>
			<clipPath id="SVGID_30_">
				<use xlink:href="#SVGID_29_"  style="overflow:visible;"/>
			</clipPath>
			<rect x="251.6" y="514" style="&st25;" width="14.1" height="25.8"/>
		</g>
		<g>
			<defs>
				<path id="SVGID_31_" d="M251.6,477v1c1.5,0.2,2.9,0.6,4.2,1.2c3,1.8,5.3,4.7,5.1,8.3l6.7-0.6c0.9-2.2,1.2-5.6,0.4-7.4
					c-0.5-1.1-1-1.9-1.6-2.6H251.6z"/>
			</defs>
			<use xlink:href="#SVGID_31_"  style="overflow:visible;fill:#808080;"/>
			<clipPath id="SVGID_32_">
				<use xlink:href="#SVGID_31_"  style="overflow:visible;"/>
			</clipPath>
			<rect x="251.6" y="477" style="&st26;" width="17.3" height="10.5"/>
		</g>
		<g>
			<defs>
				<path id="SVGID_33_" d="M269.5,477c1.4,1.9,1.4,4.4,1.6,6.5c2.6-2,5.9-3.2,9.3-2.2c-2.4-1.8-3.9-3.2-6.7-4.3H269.5z"/>
			</defs>
			<use xlink:href="#SVGID_33_"  style="overflow:visible;fill:#808080;"/>
			<clipPath id="SVGID_34_">
				<use xlink:href="#SVGID_33_"  style="overflow:visible;"/>
			</clipPath>
			<rect x="269.5" y="477" style="&st27;" width="10.9" height="6.5"/>
		</g>
		<g>
			<defs>
				<path id="SVGID_35_" d="M282.2,516.7c1.3,4.6-4.1,3.8-6.5,5.1c-0.9-0.7-0.5-1.9-0.6-2.8l0.6-0.6c0.6,1.8,1.7,1.1,2.9,0.4
					c0.7-0.4,1.5-0.8,2.2-0.7C281.6,517.8,281.2,516.5,282.2,516.7 M276.5,510.1c1.2-1.3,4.7-3.9,5.9-2.9c0.3,0.3,0.4,1.1,0.4,1.9
					l-0.6,1.4l-0.7-1.8c-1.7,0.4-3.2,1-4,2.6c-0.1,0.5,0.1,1.4-0.4,1.8C276,512.9,276.6,511.1,276.5,510.1 M275.3,510.1
					c-2,0.6-3.9-0.7-5.9-1.1c0-0.3-0.1-0.6,0.1-0.7c-2.9,1.8-2.1,5.3-2.7,8c0.7,3.1,4,4.3,6.3,6c3.3,0.6,6.4-0.9,9.3-2
					c0.5,0.5,1.2,0.9,0.8,1.7c-2.2,3.2-5.7,4.6-9.6,4.3c2.3,4.5,0.8,9.6-1.7,13.5h2.3c7-3.2,13.7-8.1,14.2-17.4
					c0.7-5.9,0.2-12.1-4-16.2c-0.3,0-0.6,0-0.9,0c-0.7,0-1.5,0.1-2-0.6C279.7,507.4,277.2,508.1,275.3,510.1"/>
			</defs>
			<use xlink:href="#SVGID_35_"  style="overflow:visible;fill:#808080;"/>
			<clipPath id="SVGID_36_">
				<use xlink:href="#SVGID_35_"  style="overflow:visible;"/>
			</clipPath>
			<rect x="266.6" y="505.6" style="&st28;" width="22.5" height="34.2"/>
		</g>
		<g>
			<defs>
				<path id="SVGID_37_" d="M277.4,482.9c-3.1,0.2-6.1,2.4-7.2,4.3c2.1,1.2,4.5,3,6.5,4.8c-0.1,0.7,0.4,1.7-0.6,2
					c-1.1-0.8-2-3-3.3-2.2c1.1,2.2,3.9,2.5,6.1,3.1c0.8,0.8,0.6,2.2,2.4,1.7c0.8,0.2,1.2,1.2,1.4,2c-0.9,1.7-3,1.6-4.9,1.4
					c-0.9-0.1-1.9-0.2-2.6,0c1.8,0.7,3.8,0.9,5.4,2c1.7,1.1,2.1-1.4,2.8-2.2c2.8,0.7,1.3,3.7,2.5,5.3c6,6.3,4.8,17.3,1.8,24.5
					c8.3-7.6,7.6-24.4,5.7-31.2c-1.9-6.6-7.7-15.4-15.5-15.4C277.8,482.9,277.6,482.9,277.4,482.9"/>
			</defs>
			<use xlink:href="#SVGID_37_"  style="overflow:visible;fill:#808080;"/>
			<clipPath id="SVGID_38_">
				<use xlink:href="#SVGID_37_"  style="overflow:visible;"/>
			</clipPath>
			<rect x="270.2" y="482.9" style="&st29;" width="25.9" height="46.6"/>
		</g>
		<g>
			<defs>
				<path id="SVGID_39_" d="M277.4,482.9c-1.6,0.1-3.1,0.7-4.4,1.6c4.8,0.7,9.9,2,15.4,4.1c-2.7-3.3-6.2-5.7-10.3-5.7
					C277.8,482.9,277.6,482.9,277.4,482.9 M251.6,486c2-0.6,4.1-1.1,6.3-1.5c-0.1-0.2-0.1-0.4-0.2-0.7c-1.5-2.3-3.7-3.6-6.1-4.2V486
					z M251.6,477v1c1.5,0.2,3,0.6,4.2,1.2c2,1.2,3.7,2.9,4.5,4.9c2.6-0.3,5.3-0.3,8-0.2c0.2-1.7,0.2-3.4-0.3-4.4
					c-0.5-1.1-1-1.9-1.6-2.6H251.6z M269.5,477c1.4,1.9,1.4,4.4,1.6,6.5c2.6-2,5.9-3.2,9.3-2.2c-2.4-1.8-3.9-3.2-6.7-4.3H269.5z
					 M283,477c4.9,3.7,8.8,8.6,11.5,14.2c6.2,2.9,12.8,6.7,19.9,11.6V477H283z"/>
			</defs>
			<use xlink:href="#SVGID_39_"  style="overflow:visible;fill:#808080;"/>
			<clipPath id="SVGID_40_">
				<use xlink:href="#SVGID_39_"  style="overflow:visible;"/>
			</clipPath>
			<rect x="251.6" y="477" style="&st30;" width="62.8" height="25.8"/>
		</g>
		<g>
			<defs>
				<path id="SVGID_41_" d="M260,539.8h9.6c0.4-0.4,0.8-0.8,1.2-1.3c1.4-1.9,2-3.6,2-5.2c-3.1-0.2-6.4-0.8-9.9-1.9
					C262.7,534.5,262,537.4,260,539.8 M274.6,533.3c-0.4,2.3-1.4,4.6-2.7,6.5h2.3c4.3-2,8.5-4.6,11.2-8.4
					C282.1,532.6,278.5,533.3,274.6,533.3 M251.6,539.8h5.4l1.3-1.1c2.1-2.9,2.9-5.5,2.8-7.9c-3-1.1-6.2-2.5-9.5-4.3V539.8z
					 M294.1,526.4c-2.7,5.3-6.5,9.8-11.2,13.4h31.4v-43.6C309.7,507.4,303.4,519.2,294.1,526.4"/>
			</defs>
			<use xlink:href="#SVGID_41_"  style="overflow:visible;fill:#808080;"/>
			<clipPath id="SVGID_42_">
				<use xlink:href="#SVGID_41_"  style="overflow:visible;"/>
			</clipPath>
			<rect x="251.6" y="496.2" style="&st31;" width="62.8" height="43.6"/>
		</g>
		<g>
			<defs>
				<path id="SVGID_43_" d="M269.1,508.6c0,0,0,0.1,0,0.1c0.1,0,0.2,0,0.3,0.1c0-0.2,0-0.4,0.1-0.5
					C269.3,508.4,269.2,508.5,269.1,508.6"/>
			</defs>
			<use xlink:href="#SVGID_43_"  style="overflow:visible;fill:#808080;"/>
			<clipPath id="SVGID_44_">
				<use xlink:href="#SVGID_43_"  style="overflow:visible;"/>
			</clipPath>
			<rect x="269.1" y="508.3" style="&st32;" width="0.4" height="0.5"/>
		</g>
		<g>
			<defs>
				<path id="SVGID_45_" d="M280.4,517.9c-0.7-0.1-1.5,0.3-2.2,0.7c-0.9,0.5-1.6,0.9-2.2,0.5c0.6,0.9,1.6,0.3,2.6-0.2
					c0.7-0.4,1.5-0.8,2.2-0.7c0.7-0.3,0.5-1.4,1.2-1.4c0-0.1,0-0.2-0.1-0.3c-0.1,0-0.1,0-0.2,0C281,516.4,281.2,517.5,280.4,517.9"
					/>
			</defs>
			<use xlink:href="#SVGID_45_"  style="overflow:visible;fill:#808080;"/>
			<clipPath id="SVGID_46_">
				<use xlink:href="#SVGID_45_"  style="overflow:visible;"/>
			</clipPath>
			<rect x="276" y="516.4" style="&st33;" width="5.9" height="3.5"/>
		</g>
		<g>
			<defs>
				<path id="SVGID_47_" d="M269.5,508.3c0.1,0,0.1-0.1,0.2-0.1C269.6,508.3,269.5,508.3,269.5,508.3"/>
			</defs>
			<use xlink:href="#SVGID_47_"  style="overflow:visible;fill:#808080;"/>
			<clipPath id="SVGID_48_">
				<use xlink:href="#SVGID_47_"  style="overflow:visible;"/>
			</clipPath>
			<rect x="269.5" y="508.2" style="&st34;" width="0.2" height="0.1"/>
		</g>
		<g>
			<defs>
				<path id="SVGID_49_" d="M274.8,518.7c0.1,0.9-0.4,2.1,0.6,2.8h0c-0.5-0.7-0.2-1.7-0.3-2.5l0.5-0.5c-0.1-0.1-0.1-0.3-0.2-0.4
					L274.8,518.7z"/>
			</defs>
			<use xlink:href="#SVGID_49_"  style="overflow:visible;fill:#808080;"/>
			<clipPath id="SVGID_50_">
				<use xlink:href="#SVGID_49_"  style="overflow:visible;"/>
			</clipPath>
			<rect x="274.4" y="518.1" style="&st35;" width="1.1" height="3.4"/>
		</g>
		<g>
			<defs>
				<path id="SVGID_51_" d="M276.2,509.8c0.1,0.9-0.4,2.5,0.4,2.9c-0.3-0.5,0-1.9-0.1-2.6c1.2-1.3,4.5-3.8,5.8-3
					c-0.2-0.3-0.5-0.4-0.9-0.4C279.9,506.7,277.2,508.7,276.2,509.8"/>
			</defs>
			<use xlink:href="#SVGID_51_"  style="overflow:visible;fill:#808080;"/>
			<clipPath id="SVGID_52_">
				<use xlink:href="#SVGID_51_"  style="overflow:visible;"/>
			</clipPath>
			<rect x="275.8" y="506.4" style="&st36;" width="6.5" height="6.3"/>
		</g>
		<g>
			<defs>
				<path id="SVGID_53_" d="M281.3,508.7l0.5,1.5l0.1-0.3l-0.4-1.3C281.4,508.7,281.4,508.7,281.3,508.7"/>
			</defs>
			<use xlink:href="#SVGID_53_"  style="overflow:visible;fill:#808080;"/>
			<clipPath id="SVGID_54_">
				<use xlink:href="#SVGID_53_"  style="overflow:visible;"/>
			</clipPath>
			<rect x="281.3" y="508.7" style="&st37;" width="0.6" height="1.6"/>
		</g>
		<g>
			<defs>
				<path id="SVGID_55_" d="M274.4,492.2c0.4,0.5,0.9,1.1,1.3,1.4C275.2,493.1,274.8,492.6,274.4,492.2z"/>
			</defs>
			<use xlink:href="#SVGID_55_"  style="overflow:visible;fill:#808080;"/>
			<clipPath id="SVGID_56_">
				<use xlink:href="#SVGID_55_"  style="overflow:visible;"/>
			</clipPath>
			<rect x="274.4" y="492.2" style="&st38;" width="1.3" height="1.4"/>
		</g>
		<g>
			<defs>
				<path id="SVGID_57_" d="M279.8,496.2c0.3,0.4,0.6,0.6,1.5,0.3c0.2,0.1,0.3,0.1,0.5,0.2c-0.2-0.3-0.4-0.5-0.8-0.6
					C280.4,496.4,280,496.4,279.8,496.2"/>
			</defs>
			<use xlink:href="#SVGID_57_"  style="overflow:visible;fill:#808080;"/>
			<clipPath id="SVGID_58_">
				<use xlink:href="#SVGID_57_"  style="overflow:visible;"/>
			</clipPath>
			<rect x="279.8" y="496.2" style="&st39;" width="2" height="0.6"/>
		</g>
		<g>
			<defs>
				<path id="SVGID_59_" d="M270.2,487.2c2,1.1,4.2,2.8,6.2,4.6c0,0,0,0,0,0C274.5,490,272.3,488.3,270.2,487.2
					C270.3,487.1,270.2,487.2,270.2,487.2"/>
			</defs>
			<use xlink:href="#SVGID_59_"  style="overflow:visible;fill:#808080;"/>
			<clipPath id="SVGID_60_">
				<use xlink:href="#SVGID_59_"  style="overflow:visible;"/>
			</clipPath>
			<rect x="270.2" y="487.1" style="&st40;" width="6.2" height="4.7"/>
		</g>
		<g>
			<defs>
				<path id="SVGID_61_" d="M287,487.1c3,3.1,5.2,7.3,6.2,10.9c1.9,6.6,2.6,22.6-5,30.5c-0.1,0.3-0.3,0.7-0.4,1
					c8.3-7.6,7.6-24.4,5.7-31.2C292.5,494.6,290.2,490.2,287,487.1z"/>
			</defs>
			<use xlink:href="#SVGID_61_"  style="overflow:visible;fill:#808080;"/>
			<clipPath id="SVGID_62_">
				<use xlink:href="#SVGID_61_"  style="overflow:visible;"/>
			</clipPath>
			<rect x="287" y="487.1" style="&st41;" width="9.1" height="42.4"/>
		</g>
		<g>
			<defs>
				<path id="SVGID_63_" d="M268.2,518.9c1.4,1.4,3.4,2.3,4.9,3.5c3.3,0.6,6.4-0.9,9.3-2c0.1,0.1,0.2,0.2,0.3,0.3
					c-0.2-0.2-0.4-0.4-0.6-0.6c-3,1.1-6,2.6-9.3,2C271.4,521,269.5,520.1,268.2,518.9z"/>
			</defs>
			<use xlink:href="#SVGID_63_"  style="overflow:visible;fill:#808080;"/>
			<clipPath id="SVGID_64_">
				<use xlink:href="#SVGID_63_"  style="overflow:visible;"/>
			</clipPath>
			<rect x="268.2" y="518.9" style="&st42;" width="14.5" height="4.1"/>
		</g>
		<g>
			<defs>
				<path id="SVGID_65_" d="M273.4,492.7c1.3,1.5,3.6,1.7,5.5,2.2c-0.1-0.1-0.1-0.2-0.2-0.3c-0.8-0.2-1.6-0.4-2.4-0.6
					c0,0-0.1,0-0.1,0.1c-0.1,0-0.1-0.1-0.2-0.1C275,493.6,274.1,493.3,273.4,492.7z"/>
			</defs>
			<use xlink:href="#SVGID_65_"  style="overflow:visible;fill:#808080;"/>
			<clipPath id="SVGID_66_">
				<use xlink:href="#SVGID_65_"  style="overflow:visible;"/>
			</clipPath>
			<rect x="273.4" y="492.7" style="&st43;" width="5.5" height="2.2"/>
		</g>
		<g>
			<defs>
				<path id="SVGID_67_" d="M264.3,504.6c-3.3,2-6.3,5.1-6.3,9.3v3.5c0.1,0.2,0.2,0.3,0.3,0.5v-3.7c0-4.6,3.7-7.9,7.4-9.9
					C265.3,504.4,264.8,504.5,264.3,504.6"/>
			</defs>
			<use xlink:href="#SVGID_67_"  style="overflow:visible;fill:#808080;"/>
			<clipPath id="SVGID_68_">
				<use xlink:href="#SVGID_67_"  style="overflow:visible;"/>
			</clipPath>
			<rect x="258" y="504.2" style="&st44;" width="7.8" height="13.6"/>
		</g>
		<g>
			<defs>
				<path id="SVGID_69_" d="M269.6,497.3l0.7,1.4c0.1,0.1,0.3,0.3,0.4,0.4l-0.9-1.8C269.8,497.3,269.7,497.3,269.6,497.3z"/>
			</defs>
			<use xlink:href="#SVGID_69_"  style="overflow:visible;fill:#808080;"/>
			<clipPath id="SVGID_70_">
				<use xlink:href="#SVGID_69_"  style="overflow:visible;"/>
			</clipPath>
			<rect x="269.6" y="497.3" style="&st45;" width="1.1" height="1.8"/>
		</g>
		<g>
			<defs>
				<path id="SVGID_71_" d="M268.1,506.4c-2.1,2.6-3.7,5.1-4.1,8.3c-0.2,8.9,13.6,14.3,6.5,23.5c-0.4,0.5-0.8,0.9-1.2,1.3h-9
					c-0.1,0.1-0.1,0.2-0.2,0.3h9.6c0.4-0.4,0.8-0.8,1.2-1.3c7.1-9.2-6.7-14.7-6.5-23.5c0.4-3.5,2.3-6.2,4.7-9.1l-0.2-0.2
					C268.5,505.9,268.3,506.1,268.1,506.4"/>
			</defs>
			<use xlink:href="#SVGID_71_"  style="overflow:visible;fill:#808080;"/>
			<clipPath id="SVGID_72_">
				<use xlink:href="#SVGID_71_"  style="overflow:visible;"/>
			</clipPath>
			<rect x="260" y="505.6" style="&st46;" width="17.9" height="34.2"/>
		</g>
		<g>
			<defs>
				<path id="SVGID_73_" d="M266.4,477c0.5,0.6,0.9,1.3,1.3,2.3c0.8,1.7,0.4,5.1-0.4,7.4l-6.4,0.6c0,0.1,0,0.2,0,0.3l6.7-0.6
					c0.9-2.2,1.2-5.6,0.4-7.4C267.6,478.5,267.1,477.7,266.4,477L266.4,477z"/>
			</defs>
			<use xlink:href="#SVGID_73_"  style="overflow:visible;fill:#808080;"/>
			<clipPath id="SVGID_74_">
				<use xlink:href="#SVGID_73_"  style="overflow:visible;"/>
			</clipPath>
			<rect x="260.9" y="477" style="&st47;" width="8" height="10.5"/>
		</g>
		<g>
			<defs>
				<path id="SVGID_75_" d="M251.6,514.1c5.3,7.6,13.6,14.5,6.4,24.3l-1.3,1.1h-5.1v0.3h5.4l1.3-1.1c7.3-9.9-1.4-16.9-6.7-24.7
					V514.1z"/>
			</defs>
			<use xlink:href="#SVGID_75_"  style="overflow:visible;fill:#808080;"/>
			<clipPath id="SVGID_76_">
				<use xlink:href="#SVGID_75_"  style="overflow:visible;"/>
			</clipPath>
			<rect x="251.6" y="514" style="&st48;" width="14.1" height="25.8"/>
		</g>
		<g>
			<defs>
				<path id="SVGID_77_" d="M284.4,506.2c4,4.1,4.4,10.1,3.7,15.9c-0.5,9.4-7.2,14.2-14.2,17.4h-1.8c-0.1,0.1-0.1,0.2-0.2,0.3h2.3
					c7-3.2,13.7-8.1,14.2-17.4C289.1,516.5,288.7,510.4,284.4,506.2L284.4,506.2z"/>
			</defs>
			<use xlink:href="#SVGID_77_"  style="overflow:visible;fill:#808080;"/>
			<clipPath id="SVGID_78_">
				<use xlink:href="#SVGID_77_"  style="overflow:visible;"/>
			</clipPath>
			<rect x="271.9" y="506.2" style="&st49;" width="17.2" height="33.6"/>
		</g>
		<g>
			<defs>
				<path id="SVGID_79_" d="M314.1,477v62.5h-30.7c-0.1,0.1-0.3,0.2-0.4,0.3h31.4V477H314.1z"/>
			</defs>
			<use xlink:href="#SVGID_79_"  style="overflow:visible;fill:#808080;"/>
			<clipPath id="SVGID_80_">
				<use xlink:href="#SVGID_79_"  style="overflow:visible;"/>
			</clipPath>
			<rect x="283" y="477" style="&st50;" width="31.4" height="62.8"/>
		</g>
		<g>
			<defs>
				<path id="SVGID_81_" d="M257.4,483.6c1.1,2.8,0.4,5-2.2,6.2c-1.2-0.1-2.4-0.4-3.6-0.7v0.2c1.3,0.3,2.5,0.6,3.9,0.8
					c2.6-1.2,3.3-3.3,2.2-6.2c-0.4-0.6-0.9-1.2-1.4-1.7C256.7,482.6,257.1,483.1,257.4,483.6"/>
			</defs>
			<use xlink:href="#SVGID_81_"  style="overflow:visible;fill:#808080;"/>
			<clipPath id="SVGID_82_">
				<use xlink:href="#SVGID_81_"  style="overflow:visible;"/>
			</clipPath>
			<rect x="251.6" y="482.2" style="&st51;" width="7.2" height="7.8"/>
		</g>
		<g>
			<defs>
				<path id="SVGID_83_" d="M262.6,497.3c-1.8,0-3.4,2.3-4.8,1.6h-1c0,0,0,0,0-0.1c-0.9,0-1.8-0.2-2.5-0.5c-0.1,0-0.3,0-0.4-0.1
					c1,0.8,2.5,1,4,0.9c1.4,0.9,3.1-1.6,5-1.6c2.4-0.4,5.4-0.7,7.3,1c-1.1-1.3-2.8-1.6-4.5-1.6C264.7,497,263.6,497.1,262.6,497.3"
					/>
			</defs>
			<use xlink:href="#SVGID_83_"  style="overflow:visible;fill:#808080;"/>
			<clipPath id="SVGID_84_">
				<use xlink:href="#SVGID_83_"  style="overflow:visible;"/>
			</clipPath>
			<rect x="253.9" y="496.9" style="&st52;" width="16.3" height="3.2"/>
		</g>
		<g>
			<defs>
				<path id="SVGID_85_" d="M283,477c1.4,1.1,2.7,2.2,3.9,3.4C285.7,479.2,284.4,478.1,283,477L283,477z"/>
			</defs>
			<use xlink:href="#SVGID_85_"  style="overflow:visible;fill:#808080;"/>
			<clipPath id="SVGID_86_">
				<use xlink:href="#SVGID_85_"  style="overflow:visible;"/>
			</clipPath>
			<rect x="283" y="477" style="&st53;" width="3.9" height="3.4"/>
		</g>
		<g>
			<defs>
				<path id="SVGID_87_" d="M280.4,501.7c-1.4-0.9-3.2-1.2-4.7-1.8c-0.1,0-0.3,0-0.4,0.1c1.8,0.7,3.8,0.9,5.4,2
					c1.7,1.1,2.1-1.4,2.8-2.2c0.4,0.1,0.8,0.3,1,0.5c-0.3-0.4-0.7-0.6-1.3-0.8C282.6,500.2,282.1,502.7,280.4,501.7"/>
			</defs>
			<use xlink:href="#SVGID_87_"  style="overflow:visible;fill:#808080;"/>
			<clipPath id="SVGID_88_">
				<use xlink:href="#SVGID_87_"  style="overflow:visible;"/>
			</clipPath>
			<rect x="275.3" y="499.4" style="&st54;" width="9.3" height="3.6"/>
		</g>
		<g>
			<defs>
				<path id="SVGID_89_" d="M271,483c0,0.2,0,0.3,0,0.5c2.6-2,5.9-3.2,9.3-2.2c-0.2-0.1-0.3-0.2-0.4-0.3c-0.8-0.2-1.5-0.3-2.3-0.3
					C275.2,480.7,272.9,481.6,271,483"/>
			</defs>
			<use xlink:href="#SVGID_89_"  style="overflow:visible;fill:#808080;"/>
			<clipPath id="SVGID_90_">
				<use xlink:href="#SVGID_89_"  style="overflow:visible;"/>
			</clipPath>
			<rect x="271" y="480.3" style="&st55;" width="9.4" height="3.2"/>
		</g>
		<g>
			<defs>
				<path id="SVGID_91_" d="M256.5,498.6h0.4c0.2-0.5,1.3-1.1,1.9-1l0.1-0.1c-0.1-0.2-0.3-0.3-0.6-0.3
					C257.4,497.2,256.3,498.1,256.5,498.6"/>
			</defs>
			<use xlink:href="#SVGID_91_"  style="overflow:visible;fill:#808080;"/>
			<clipPath id="SVGID_92_">
				<use xlink:href="#SVGID_91_"  style="overflow:visible;"/>
			</clipPath>
			<rect x="256.3" y="497.2" style="&st56;" width="2.5" height="1.4"/>
		</g>
		<g>
			<defs>
				<path id="SVGID_93_" d="M251.6,478c1.5,0.2,2.9,0.6,4.2,1.2c0.8,0.5,1.6,1.1,2.3,1.8c-0.8-0.8-1.7-1.5-2.6-2.1
					c-1.2-0.5-2.5-0.9-3.9-1.2V478z"/>
			</defs>
			<use xlink:href="#SVGID_93_"  style="overflow:visible;fill:#808080;"/>
			<clipPath id="SVGID_94_">
				<use xlink:href="#SVGID_93_"  style="overflow:visible;"/>
			</clipPath>
			<rect x="251.6" y="477.8" style="&st57;" width="6.5" height="3.2"/>
		</g>
		<polygon style="&st18;" points="347.8,518.6 343.5,518.6 343.5,503 337.1,514.6 334.5,514.6 328.1,503 328.1,518.6 323.8,518.6 
			323.8,495 328.2,495 335.8,508.7 343.5,495 347.8,495 		"/>
		<path style="&st18;" d="M373.7,518c-2.7,0.7-5.3,1-7.7,1c-4,0-7.2-1.2-9.7-3.5c-2.4-2.3-3.6-5.2-3.6-8.6c0-3.6,1.2-6.5,3.7-8.8
			c2.5-2.3,5.6-3.4,9.5-3.4c2.3,0,4.5,0.3,6.7,0.8l-0.6,3.8c-2.3-0.4-4.1-0.5-5.6-0.5c-3,0-5.2,0.7-6.8,2.1
			c-1.6,1.4-2.4,3.4-2.4,6.1c0,2.4,0.8,4.4,2.3,5.9c1.5,1.5,3.6,2.3,6.1,2.3c1.3,0,2.5-0.1,3.9-0.3v-7.9h4.2V518z"/>
		<polygon style="&st18;" points="403.3,518.6 399,518.6 399,503 392.6,514.6 390.1,514.6 383.7,503 383.7,518.6 379.3,518.6 
			379.3,495 383.7,495 391.4,508.7 399,495 403.3,495 		"/>
		<path style="&st18;" d="M440.8,518.6h-5.6l-6.5-8.9H423v8.9h-4.5V495h12.3c2.2,0,4.1,0.7,5.5,2.2c1.4,1.4,2.1,3.1,2.1,5.2
			c0,1.5-0.4,2.8-1.2,4c-0.8,1.2-1.9,2.1-3.4,2.6L440.8,518.6z M433.7,502.4c0-1.1-0.4-2-1.1-2.7c-0.7-0.7-1.6-1-2.7-1H423v7.4h6.9
			c1.1,0,2-0.3,2.7-1C433.3,504.4,433.7,503.5,433.7,502.4"/>
		<polygon style="&st18;" points="461.5,518.6 444.5,518.6 444.5,495 461.5,495 461.5,498.9 449.1,498.9 449.1,504.5 460.7,504.5 
			460.7,508.4 449.1,508.4 449.1,514.7 461.5,514.7 		"/>
		<path style="&st18;" d="M484.9,512.2c0,2.1-0.9,3.7-2.7,5s-4.1,1.9-7,1.9c-3.6,0-6.9-0.6-9.8-1.9l1-3.5c3.1,1.1,6,1.6,8.7,1.6
			c3.5,0,5.3-1,5.3-2.9c0-0.8-0.4-1.4-1.2-1.9c-0.6-0.4-2.2-1.1-4.8-2c-3-1.1-5.1-2.2-6.2-3.1c-1.3-1.1-1.9-2.6-1.9-4.4
			c0-4.1,3.1-6.2,9.4-6.2c3.1,0,5.9,0.4,8.5,1.1l-0.7,3.7c-2.7-0.6-5.2-0.9-7.8-0.9c-1.8,0-3.1,0.2-3.9,0.5
			c-0.7,0.3-1.1,0.9-1.1,1.7c0,0.8,0.5,1.5,1.4,2.1c0.7,0.4,2.4,1.1,5.2,2.2c3,1.2,4.9,2.1,5.8,2.8
			C484.3,508.9,484.9,510.3,484.9,512.2"/>
		<path style="&st18;" d="M511.5,506.8c0,3.4-1.1,6.3-3.4,8.6c-2.3,2.4-5.1,3.5-8.4,3.5c-3.3,0-6.1-1.2-8.4-3.5
			c-2.3-2.4-3.4-5.2-3.4-8.6c0-3.4,1.1-6.3,3.4-8.6c2.3-2.4,5.1-3.6,8.4-3.6c3.3,0,6.1,1.2,8.4,3.6
			C510.4,500.6,511.5,503.5,511.5,506.8 M507,506.8c0-2.4-0.7-4.3-2-5.9c-1.3-1.5-3.1-2.3-5.3-2.3c-2.2,0-4,0.8-5.3,2.3
			c-1.3,1.5-2,3.5-2,5.9c0,2.4,0.7,4.3,1.9,5.8c1.3,1.6,3.1,2.3,5.3,2.3c2.2,0,4-0.8,5.4-2.3C506.4,511.2,507,509.2,507,506.8"/>
		<path style="&st18;" d="M538.7,518.6h-5.6l-6.5-8.9h-5.8v8.9h-4.5V495h12.3c2.2,0,4.1,0.7,5.5,2.2c1.4,1.4,2.1,3.1,2.1,5.2
			c0,1.5-0.4,2.8-1.2,4c-0.8,1.2-2,2.1-3.4,2.6L538.7,518.6z M531.6,502.4c0-1.1-0.4-2-1.1-2.7c-0.7-0.7-1.6-1-2.7-1h-6.9v7.4h6.9
			c1.1,0,2-0.3,2.7-1C531.2,504.4,531.6,503.5,531.6,502.4"/>
		<polygon style="&st18;" points="559.7,498.9 551.9,498.9 551.9,518.6 547.4,518.6 547.4,498.9 539.5,498.9 539.5,495 559.7,495 		
			"/>
		<rect x="323.8" y="526.8" style="&st18;" width="2.5" height="12.9"/>
		<polygon style="&st18;" points="341.3,539.8 338.8,539.8 332.3,530.8 332.3,539.8 329.9,539.8 329.9,526.8 332.3,526.8 
			338.8,535.8 338.8,526.8 341.3,526.8 		"/>
		<polygon style="&st18;" points="354.4,529 350.1,529 350.1,539.8 347.6,539.8 347.6,529 343.3,529 343.3,526.8 354.4,526.8 		"/>
		<polygon style="&st18;" points="365.7,539.8 356.4,539.8 356.4,526.8 365.7,526.8 365.7,529 358.9,529 358.9,532 365.3,532 
			365.3,534.2 358.9,534.2 358.9,537.6 365.7,537.6 		"/>
		<path style="&st18;" d="M381.1,539.8H378l-3.6-4.9h-3.2v4.9h-2.5v-12.9h6.7c1.2,0,2.2,0.4,3,1.2c0.8,0.8,1.1,1.7,1.1,2.8
			c0,0.8-0.2,1.6-0.7,2.2c-0.5,0.7-1.1,1.1-1.8,1.4L381.1,539.8z M377.2,530.9c0-0.6-0.2-1.1-0.6-1.5c-0.4-0.4-0.9-0.6-1.5-0.6h-3.8
			v4.1h3.8c0.6,0,1.1-0.2,1.5-0.6C377,532,377.2,531.5,377.2,530.9"/>
		<polygon style="&st18;" points="394.5,539.8 392.1,539.8 385.6,530.8 385.6,539.8 383.2,539.8 383.2,526.8 385.6,526.8 
			392.1,535.8 392.1,526.8 394.5,526.8 		"/>
		<path style="&st18;" d="M408.8,539.8h-2.4l-1.1-2.9h-5.2l-1.1,2.9h-2.4l5-12.9h2.2L408.8,539.8z M404.7,535l-2-5.6l-2,5.6H404.7z"
			/>
		<polygon style="&st18;" points="419.1,529 414.8,529 414.8,539.8 412.4,539.8 412.4,529 408,529 408,526.8 419.1,526.8 		"/>
		<rect x="421.2" y="526.8" style="&st18;" width="2.5" height="12.9"/>
		<path style="&st18;" d="M439.4,533.3c0,1.9-0.6,3.4-1.9,4.7c-1.2,1.3-2.8,1.9-4.6,1.9c-1.8,0-3.4-0.6-4.6-1.9
			c-1.2-1.3-1.9-2.9-1.9-4.7c0-1.9,0.6-3.4,1.9-4.7c1.2-1.3,2.8-2,4.6-2c1.8,0,3.4,0.7,4.6,2C438.8,529.9,439.4,531.5,439.4,533.3
			 M436.9,533.3c0-1.3-0.4-2.4-1.1-3.2c-0.7-0.8-1.7-1.3-2.9-1.3c-1.2,0-2.2,0.4-2.9,1.3s-1.1,1.9-1.1,3.2c0,1.3,0.4,2.4,1.1,3.2
			c0.7,0.9,1.7,1.3,2.9,1.3c1.2,0,2.2-0.4,2.9-1.3C436.6,535.7,436.9,534.6,436.9,533.3"/>
		<polygon style="&st18;" points="453.4,539.8 451,539.8 444.5,530.8 444.5,539.8 442.1,539.8 442.1,526.8 444.5,526.8 451,535.8 
			451,526.8 453.4,526.8 		"/>
		<path style="&st18;" d="M467.7,539.8h-2.5l-1.1-2.9H459l-1.1,2.9h-2.4l5-12.9h2.2L467.7,539.8z M463.5,535l-2-5.6l-2,5.6H463.5z"
			/>
		<polygon style="&st18;" points="478.6,539.8 469.8,539.8 469.8,526.8 472.2,526.8 472.2,537.6 478.6,537.6 		"/>
		<path style="&st18;" d="M481.9,527.5h-1.4v3.5h-0.8v-3.5h-1.4v-0.7h3.6V527.5z M486.5,531h-0.8v-2.7l-1.1,2h-0.4l-1.2-2v2.7h-0.8
			v-4.2h0.7l1.4,2.4l1.4-2.4h0.8V531z"/>
	</g>
	<text transform="matrix(1 0 0 1 -578.4133 326.9882)"><tspan x="0" y="0" style="&st58; font-family:'MyriadPro-Regular'; font-size:12;">TBM Logo and Icons: </tspan><tspan x="105.8" y="0" style="&st3; font-family:'MyriadPro-Regular'; font-size:12;">#27bdbe, #149b9e, and white </tspan></text>
	
		<use xlink:href="#ToyBox_Media_Logo_Full_Color_Light"  width="199.8" height="85.9" x="0" y="-85.9" transform="matrix(1.2512 0 0 -1.2512 -578.4136 339.9878)" style="overflow:visible;"/>
	<text transform="matrix(1 0 0 1 -158.4133 326.9882)"><tspan x="0" y="0" style="&st58; font-family:'MyriadPro-Regular'; font-size:12;">Partner Logos: </tspan><tspan x="74.5" y="0" style="&st3; font-family:'MyriadPro-Regular'; font-size:12;">#808080</tspan></text>
</g>
<g id="Icons">
	<polygon id="Down_Arrow_4_" style="&st59;" points="-163.4,86 -163.4,70 -169.4,70 -169.4,86 -176.4,86 -166.4,99.8 -156.4,86 	"/>
	<g>
		<path style="&st59;" d="M-285.9,70c-6.2,0-11.2,5-11.2,11.2s5,11.2,11.2,11.2s11.2-5,11.2-11.2S-279.7,70-285.9,70z M-285.9,88.3
			c-3.9,0-7-3.1-7-7s3.1-7,7-7s7,3.1,7,7S-282,88.3-285.9,88.3z"/>
		<path style="&st60;" d="M-276.9,86.8c-0.4-0.4-1.1-0.4-1.5,0l-2.3,2.3c-0.4,0.4-0.4,1.1,0,1.5l9.1,9.1c0.4,0.4,1.1,0.4,1.5,0
			l2.3-2.3c0.4-0.4,0.4-1.1,0-1.5L-276.9,86.8z"/>
	</g>
	<g id="User">
		<g>
			<path style="&st61;" d="M-87.8,26.2c-0.8-4.5-4.1-8-8.5-9.1c0.8-1.2,1.2-2.6,1.2-4.1V7.5c0-4.1-3.4-7.5-7.5-7.5s-7.5,3.4-7.5,7.5
				v5.6c0,1.5,0.5,2.9,1.2,4.1c-4.4,1-7.8,4.6-8.5,9.1h-0.2v1.9c0,1,0.8,1.9,1.9,1.9h26.2c1,0,1.9-0.8,1.9-1.9v-1.9H-87.8z
				 M-106.4,7.5c0-2.1,1.7-3.8,3.8-3.8c2.1,0,3.8,1.7,3.8,3.8v5.6c0,2.1-1.7,3.8-3.8,3.8c-2.1,0-3.8-1.7-3.8-3.8V7.5z M-113.6,26.2
				c0.8-3.2,3.7-5.6,7.2-5.6h7.5c3.5,0,6.4,2.4,7.2,5.6H-113.6z"/>
		</g>
	</g>
	<g id="Clock">
		<g>
			<path style="&st61;" d="M-162.6,0c-8.3,0-15,6.7-15,15c0,8.3,6.7,15,15,15c8.3,0,15-6.7,15-15C-147.6,6.7-154.3,0-162.6,0z
				 M-162.6,26.2c-6.2,0-11.2-5-11.2-11.2s5-11.2,11.2-11.2s11.2,5,11.2,11.2S-156.4,26.2-162.6,26.2z M-160.8,7.5h-3.8v9.4h7.5
				v-3.8h-3.8V7.5z"/>
		</g>
	</g>
	<g id="Heart">
		<g>
			<path style="&st61;" d="M30,9.4C30,4.2,26.2,0,21.6,0c-2.7,0-5,1.4-6.6,3.5C13.5,1.4,11.1,0,8.4,0C3.8,0,0,4.2,0,9.4
				c0,0-1,9,15,20.6C31,18.4,30,9.4,30,9.4z M26.2,9.9c0,0.4-0.1,0.7-0.2,1.1c-0.6,2.9-2.8,8.9-11,14.1h0C6.8,19.9,4.6,13.9,4,11
				c-0.1-0.3-0.1-0.7-0.2-1.1c0-0.4,0-0.6,0-0.6c0-0.2,0-0.3,0-0.5C3.9,7.8,4.2,6.8,4.7,6c0,0,0,0,0,0c0.2-0.2,0.3-0.5,0.5-0.7
				c0,0,0.1-0.1,0.1-0.1C5.6,5,5.7,4.8,5.9,4.6C6,4.6,6.1,4.5,6.2,4.5c0.2-0.1,0.3-0.2,0.5-0.3C6.8,4.1,7,4,7.2,4
				c0.1,0,0.2-0.1,0.4-0.1c0.3-0.1,0.6-0.1,0.9-0.1c0.3,0,0.9,0,0.9,0c4.2,0,5.6,5.6,5.6,5.6s1.5-5.6,5.6-5.6c0,0,0.7,0,0.9,0
				c0.3,0,0.6,0,0.9,0.1c0.1,0,0.2,0.1,0.4,0.1C23,4,23.2,4.1,23.3,4.2c0.2,0.1,0.3,0.2,0.5,0.3c0.1,0.1,0.2,0.1,0.3,0.2
				c0.2,0.1,0.4,0.3,0.5,0.5c0,0,0.1,0.1,0.1,0.1c0.2,0.2,0.4,0.4,0.5,0.7c0,0,0,0,0,0c0.5,0.8,0.8,1.8,0.9,2.9c0,0.2,0,0.3,0,0.5
				C26.2,9.4,26.2,9.6,26.2,9.9z"/>
		</g>
	</g>
	<polygon id="Down_Arrow_1_" style="&st62;" points="-43.4,18 -27.4,18 -27.4,12 -43.4,12 -43.4,4.8 -57.2,15 -43.4,25.1 	"/>
	<g id="Clock_4_">
		<g>
			<path style="&st63;" d="M-160.5,147.5h-3.8v9.4h7.5v-3.8h-3.8V147.5z M-162.4,140c-8.3,0-15,6.7-15,15s6.7,15,15,15s15-6.7,15-15
				S-154.1,140-162.4,140z M-162.4,166.2c-6.2,0-11.2-5-11.2-11.2s5-11.2,11.2-11.2s11.2,5,11.2,11.2S-156.2,166.2-162.4,166.2z"/>
		</g>
	</g>
	<text transform="matrix(1 0 0 1 -578.4133 96.9879)"><tspan x="0" y="0" style="&st58; font-family:'MyriadPro-Regular'; font-size:12;">Nav:</tspan><tspan x="21.9" y="0" style="&st3; font-family:'MyriadPro-Regular'; font-size:12;"> #ccc / white</tspan><tspan x="84.1" y="0" style="&st58; font-family:'MyriadPro-Regular'; font-size:12;"> icons</tspan></text>
	<text transform="matrix(1 0 0 1 -578.4133 166.988)"><tspan x="0" y="0" style="&st58; font-family:'MyriadPro-Regular'; font-size:12;">News: </tspan><tspan x="32.5" y="0" style="&st3; font-family:'MyriadPro-Regular'; font-size:12;">#b3b3b3 / white </tspan><tspan x="0" y="14.4" style="&st58; font-family:'MyriadPro-Regular'; font-size:12;">icons (and text)</tspan></text>
	<text transform="matrix(1 0 0 1 -578.4133 236.9882)"><tspan x="0" y="0" style="&st58; font-family:'MyriadPro-Regular'; font-size:12;">Footer: </tspan><tspan x="38" y="0" style="&st3; font-family:'MyriadPro-Regular'; font-size:12;">#808080 / white </tspan><tspan x="0" y="14.4" style="&st58; font-family:'MyriadPro-Regular'; font-size:12;">icons (and text)</tspan></text>
	<g>
		<path style="&st62;" d="M-225.9,70c-6.2,0-11.2,5-11.2,11.2s5,11.2,11.2,11.2c6.2,0,11.2-5,11.2-11.2S-219.7,70-225.9,70z
			 M-225.9,88.3c-3.9,0-7-3.1-7-7s3.1-7,7-7c3.9,0,7,3.1,7,7S-222,88.3-225.9,88.3z"/>
		<path style="&st61;" d="M-216.9,86.8c-0.4-0.4-1.1-0.4-1.5,0l-2.3,2.3c-0.4,0.4-0.4,1.1,0,1.5l9.1,9.1c0.4,0.4,1.1,0.4,1.5,0
			l2.3-2.3c0.4-0.4,0.4-1.1,0-1.5L-216.9,86.8z"/>
	</g>
	<g id="Heart_4_">
		<g>
			<path style="&st63;" d="M-87.4,149.4c0-5.2-3.8-9.4-8.4-9.4c-2.7,0-5,1.4-6.6,3.5c-1.5-2.1-3.9-3.5-6.6-3.5
				c-4.7,0-8.4,4.2-8.4,9.4c0,0-1,9,15,20.6C-86.4,158.4-87.4,149.4-87.4,149.4z M-91.2,150c0,0.4-0.1,0.7-0.2,1.1
				c-0.6,2.9-2.8,8.9-11,14.1h0c-8.2-5.2-10.4-11.2-11-14.1c-0.1-0.3-0.1-0.7-0.2-1.1c0-0.4,0-0.6,0-0.6c0-0.2,0-0.3,0-0.5
				c0.1-1.1,0.4-2.1,0.9-2.9c0,0,0,0,0,0c0.2-0.2,0.3-0.5,0.5-0.7c0,0,0.1-0.1,0.1-0.1c0.2-0.2,0.3-0.3,0.5-0.5
				c0.1-0.1,0.2-0.1,0.3-0.2c0.2-0.1,0.3-0.2,0.5-0.3c0.2-0.1,0.3-0.1,0.5-0.2c0.1,0,0.2-0.1,0.4-0.1c0.3-0.1,0.6-0.1,0.9-0.1
				c0.3,0,0.9,0,0.9,0c4.2,0,5.6,5.6,5.6,5.6s1.5-5.6,5.6-5.6c0,0,0.7,0,0.9,0c0.3,0,0.6,0,0.9,0.1c0.1,0,0.2,0.1,0.4,0.1
				c0.2,0.1,0.3,0.1,0.5,0.2c0.2,0.1,0.3,0.2,0.5,0.3c0.1,0.1,0.2,0.1,0.3,0.2c0.2,0.1,0.4,0.3,0.5,0.5c0,0,0.1,0.1,0.1,0.1
				c0.2,0.2,0.4,0.4,0.5,0.7c0,0,0,0,0,0c0.5,0.8,0.8,1.8,0.9,2.9c0,0.2,0,0.3,0,0.5C-91.2,149.4-91.2,149.6-91.2,150z"/>
		</g>
	</g>
	<g>
		<path style="&st64;" d="M-297,149.9h6.2v20h-6.2V149.9z M-293.9,140c2,0,3.6,1.6,3.6,3.6c0,2-1.6,3.6-3.6,3.6
			c-2,0-3.6-1.6-3.6-3.6C-297.5,141.6-295.9,140-293.9,140"/>
		<path style="&st64;" d="M-286.9,149.9h6v2.7h0.1c0.8-1.6,2.9-3.2,5.9-3.2c6.3,0,7.5,4.2,7.5,9.5v11h-6.2v-9.7c0-2.3,0-5.3-3.2-5.3
			c-3.2,0-3.7,2.5-3.7,5.1v9.9h-6.2V149.9z"/>
	</g>
	<g id="Pin">
		<g>
			<path style="&st65;" d="M-397.2,210c-6.2,0-11.2,5-11.2,11.3c0,6.2,9.4,18.7,11.2,18.7c1.8,0,11.3-12.5,11.3-18.7
				C-385.9,215-391,210-397.2,210z M-397.2,228.7c-4.1,0-7.5-3.4-7.5-7.5c0-4.1,3.4-7.5,7.5-7.5s7.5,3.4,7.5,7.5
				C-389.7,225.4-393,228.7-397.2,228.7z"/>
		</g>
	</g>
	<g id="iPhone">
		<g>
			<path style="&st65;" d="M-333.5,210h-18.8c-1,0-1.9,0.8-1.9,1.9v26.2c0,1,0.8,1.9,1.9,1.9h18.8c1,0,1.9-0.8,1.9-1.9v-26.2
				C-331.7,210.8-332.5,210-333.5,210z M-341,236.2h-3.8v-1.9h3.8V236.2z M-335.4,232.5h-15v-18.8h15V232.5z"/>
		</g>
	</g>
	<g id="Envelope">
		<g>
			<path style="&st65;" d="M-263.9,210h-35c-1.4,0-2.5,1.1-2.5,2.5v25c0,1.4,1.1,2.5,2.5,2.5h35c1.4,0,2.5-1.1,2.5-2.5v-25
				C-261.4,211.1-262.5,210-263.9,210z M-267,213.5l-14.4,11.5l-14.4-11.5H-267z M-264.2,236.5h-34.5v-21.6l17.2,14.4l17.2-14.4
				v-1.4h0V236.5z"/>
		</g>
	</g>
	<path style="&st18;" d="M-83.6,231.2l-15.3-15.3c0,0-0.1-0.1-0.1-0.1l-0.2-0.2c-0.4-0.4-1-0.6-1.5-0.6c-0.6,0-1.1,0.2-1.5,0.6
		l-0.2,0.2c0,0-0.1,0.1-0.1,0.1l-15.3,15.3c-0.8,0.8-0.8,2.2,0,3l0.2,0.2c0.8,0.8,2.2,0.8,3,0l13.9-13.9l13.9,13.9
		c0.8,0.8,2.2,0.8,3,0l0.2-0.2C-82.8,233.4-82.8,232-83.6,231.2z"/>
	<path id="Twitter_1_" style="&st18;" d="M-194.5,213.5c-1.4,0.6-2.8,1-4.3,1.2c1.6-0.9,2.8-2.4,3.3-4.2c-1.5,0.9-3.1,1.5-4.8,1.8
		c-1.4-1.5-3.3-2.4-5.5-2.4c-4.2,0-7.6,3.4-7.6,7.6c0,0.6,0.1,1.2,0.2,1.7c-6.3-0.3-11.9-3.3-15.6-7.9c-0.7,1.1-1,2.4-1,3.8
		c0,2.6,1.3,4.9,3.4,6.3c-1.2,0-2.4-0.4-3.4-0.9c0,0,0,0.1,0,0.1c0,3.7,2.6,6.7,6.1,7.4c-0.6,0.2-1.3,0.3-2,0.3c-0.5,0-1,0-1.4-0.1
		c1,3,3.8,5.2,7.1,5.3c-2.6,2-5.9,3.2-9.4,3.2c-0.6,0-1.2,0-1.8-0.1c3.4,2.1,7.3,3.4,11.6,3.4c13.9,0,21.5-11.5,21.5-21.5
		c0-0.3,0-0.7,0-1C-196.8,216.4-195.5,215.1-194.5,213.5z"/>
	<path id="Facebook_1_" style="&st18;" d="M-155.2,240h-6.2v-15h-3.1v-5.2h3.1v-3.1c0-4.2,1.8-6.7,6.7-6.7h4.1v5.2h-2.6
		c-1.9,0-2.1,0.7-2.1,2.1l0,2.6h4.7l-0.5,5.2h-4.1V240z"/>
	<path id="Twitter_4_" style="&st62;" d="M-371.5,3.5c-1.4,0.6-2.8,1-4.3,1.2c1.6-0.9,2.8-2.4,3.3-4.2c-1.5,0.9-3.1,1.5-4.8,1.8
		c-1.4-1.5-3.3-2.4-5.5-2.4c-4.2,0-7.6,3.4-7.6,7.6c0,0.6,0.1,1.2,0.2,1.7c-6.3-0.3-11.9-3.3-15.6-7.9c-0.7,1.1-1,2.4-1,3.8
		c0,2.6,1.3,4.9,3.4,6.3c-1.2,0-2.4-0.4-3.4-0.9c0,0,0,0.1,0,0.1c0,3.7,2.6,6.7,6.1,7.4c-0.6,0.2-1.3,0.3-2,0.3c-0.5,0-1,0-1.4-0.1
		c1,3,3.8,5.2,7.1,5.3c-2.6,2-5.9,3.2-9.4,3.2c-0.6,0-1.2,0-1.8-0.1c3.4,2.1,7.3,3.4,11.6,3.4c13.9,0,21.5-11.5,21.5-21.5
		c0-0.3,0-0.7,0-1C-373.8,6.4-372.5,5.1-371.5,3.5z"/>
	<path id="Facebook_4_" style="&st62;" d="M-332.2,30h-6.2V15h-3.1V9.8h3.1V6.7c0-4.2,1.8-6.7,6.7-6.7h4.1v5.2h-2.6
		c-1.9,0-2.1,0.7-2.1,2.1l0,2.6h4.7L-328,15h-4.1V30z"/>
	<g id="Google_Plus_2_">
		<g>
			<path style="&st62;" d="M-223.2,1.4c0.2,0.2,0.5,0.4,0.8,0.7c0.3,0.3,0.6,0.7,0.9,1.1c0.3,0.4,0.5,0.9,0.7,1.5
				c0.2,0.6,0.3,1.2,0.3,2c0,1.4-0.3,2.5-0.9,3.4c-0.3,0.4-0.6,0.8-0.9,1.1c-0.4,0.3-0.8,0.7-1.2,1.1c-0.2,0.2-0.5,0.5-0.7,0.8
				c-0.2,0.3-0.4,0.7-0.4,1.1c0,0.4,0.1,0.7,0.4,1c0.2,0.3,0.4,0.5,0.6,0.7l1.3,1.1c0.8,0.7,1.6,1.4,2.2,2.2
				c0.6,0.8,0.9,1.9,0.9,3.3c0,1.9-0.8,3.6-2.5,5.1c-1.7,1.5-4.3,2.3-7.6,2.4c-2.8,0-4.8-0.6-6.2-1.8c-1.4-1.1-2.1-2.4-2.1-3.9
				c0-0.7,0.2-1.5,0.7-2.4c0.4-0.9,1.2-1.7,2.4-2.4c1.3-0.7,2.6-1.2,4-1.5c1.4-0.2,2.5-0.3,3.5-0.3c-0.3-0.4-0.5-0.8-0.8-1.2
				c-0.3-0.4-0.4-0.9-0.4-1.5c0-0.3,0-0.6,0.1-0.9c0.1-0.2,0.2-0.5,0.2-0.7c-0.4,0.1-0.9,0.1-1.3,0.1c-2.1,0-3.7-0.7-4.8-2
				c-1.2-1.2-1.7-2.6-1.7-4.2c0-1.9,0.8-3.7,2.4-5.3c1.1-0.9,2.3-1.5,3.5-1.8c1.2-0.2,2.3-0.4,3.4-0.4h7.9l-2.4,1.4H-223.2z
				 M-221.6,24.1c0-1-0.3-1.9-1-2.6c-0.7-0.7-1.8-1.6-3.2-2.6c-0.3,0-0.5,0-0.9,0c-0.2,0-0.7,0-1.5,0.1c-0.8,0.1-1.6,0.3-2.5,0.6
				c-0.2,0.1-0.5,0.2-0.8,0.3c-0.4,0.2-0.7,0.4-1.1,0.7c-0.4,0.3-0.7,0.7-0.9,1.2c-0.3,0.5-0.4,1.1-0.4,1.8c0,1.4,0.6,2.5,1.9,3.4
				c1.2,0.9,2.8,1.4,4.9,1.4c1.9,0,3.3-0.4,4.3-1.2C-222.1,26.3-221.6,25.3-221.6,24.1z M-227.1,12.5c1,0,1.9-0.4,2.6-1.1
				c0.3-0.5,0.5-1,0.6-1.5c0.1-0.5,0.1-1,0.1-1.3c0-1.6-0.4-3.1-1.2-4.7c-0.4-0.8-0.9-1.4-1.5-1.8c-0.6-0.4-1.3-0.7-2.1-0.7
				c-1.1,0-2,0.5-2.7,1.3c-0.6,0.9-0.9,1.8-0.9,2.9c0,1.4,0.4,2.9,1.3,4.4c0.4,0.7,0.9,1.3,1.6,1.8C-228.7,12.3-228,12.5-227.1,12.5
				z"/>
		</g>
		<polygon id="PLUS_2_" style="&st62;" points="-207.6,4.3 -211.8,4.3 -211.8,0.2 -213.8,0.2 -213.8,4.3 -217.9,4.3 -217.9,6.3 
			-213.8,6.3 -213.8,10.4 -211.8,10.4 -211.8,6.3 -207.6,6.3 		"/>
	</g>
	<g id="LinkedIn_2_">
		<path style="&st62;" d="M-297,9.9h6.2v20h-6.2V9.9z M-293.9,0c2,0,3.6,1.6,3.6,3.6c0,2-1.6,3.6-3.6,3.6c-2,0-3.6-1.6-3.6-3.6
			C-297.5,1.6-295.9,0-293.9,0"/>
		<path style="&st62;" d="M-286.9,9.9h6v2.7h0.1c0.8-1.6,2.9-3.2,5.9-3.2c6.3,0,7.5,4.2,7.5,9.5v11h-6.2v-9.7c0-2.3,0-5.3-3.2-5.3
			c-3.2,0-3.7,2.5-3.7,5.1V30h-6.2V9.9z"/>
	</g>
	<path id="Twitter_2_" style="&st59;" d="M-371.5,73.5c-1.4,0.6-2.8,1-4.3,1.2c1.6-0.9,2.8-2.4,3.3-4.2c-1.5,0.9-3.1,1.5-4.8,1.8
		c-1.4-1.5-3.3-2.4-5.5-2.4c-4.2,0-7.6,3.4-7.6,7.6c0,0.6,0.1,1.2,0.2,1.7c-6.3-0.3-11.9-3.3-15.6-7.9c-0.7,1.1-1,2.4-1,3.8
		c0,2.6,1.3,4.9,3.4,6.3c-1.2,0-2.4-0.4-3.4-0.9c0,0,0,0.1,0,0.1c0,3.7,2.6,6.7,6.1,7.4c-0.6,0.2-1.3,0.3-2,0.3c-0.5,0-1,0-1.4-0.1
		c1,3,3.8,5.2,7.1,5.3c-2.6,2-5.9,3.2-9.4,3.2c-0.6,0-1.2,0-1.8-0.1c3.4,2.1,7.3,3.4,11.6,3.4c13.9,0,21.5-11.5,21.5-21.5
		c0-0.3,0-0.7,0-1C-373.8,76.4-372.5,75.1-371.5,73.5z"/>
	<path id="Facebook_2_" style="&st59;" d="M-332.2,100h-6.2V85h-3.1v-5.2h3.1v-3.1c0-4.2,1.8-6.7,6.7-6.7h4.1v5.2h-2.6
		c-1.9,0-2.1,0.7-2.1,2.1l0,2.6h4.7L-328,85h-4.1V100z"/>
	<text transform="matrix(1 0 0 1 -578.4133 26.9879)"><tspan x="0" y="0" style="&st58; font-family:'MyriadPro-Regular'; font-size:12;">Articles: </tspan><tspan x="42" y="0" style="&st3; font-family:'MyriadPro-Regular'; font-size:12;">#585858 / #333</tspan><tspan x="0" y="14.4" style="&st58; font-family:'MyriadPro-Regular'; font-size:12;">Icons</tspan></text>
	<path id="Twitter_3_" style="&st66;" d="M-371.5,143.5c-1.4,0.6-2.8,1-4.3,1.2c1.6-0.9,2.8-2.4,3.3-4.2c-1.5,0.9-3.1,1.5-4.8,1.8
		c-1.4-1.5-3.3-2.4-5.5-2.4c-4.2,0-7.6,3.4-7.6,7.6c0,0.6,0.1,1.2,0.2,1.7c-6.3-0.3-11.9-3.3-15.6-7.9c-0.7,1.1-1,2.4-1,3.8
		c0,2.6,1.3,4.9,3.4,6.3c-1.2,0-2.4-0.4-3.4-0.9c0,0,0,0.1,0,0.1c0,3.7,2.6,6.7,6.1,7.4c-0.6,0.2-1.3,0.3-2,0.3c-0.5,0-1,0-1.4-0.1
		c1,3,3.8,5.2,7.1,5.3c-2.6,2-5.9,3.2-9.4,3.2c-0.6,0-1.2,0-1.8-0.1c3.4,2.1,7.3,3.4,11.6,3.4c13.9,0,21.5-11.5,21.5-21.5
		c0-0.3,0-0.7,0-1C-373.8,146.4-372.5,145.1-371.5,143.5z"/>
	<path id="Facebook_3_" style="&st67;" d="M-332.2,170h-6.2v-15h-3.1v-5.2h3.1v-3.1c0-4.2,1.8-6.7,6.7-6.7h4.1v5.2h-2.6
		c-1.9,0-2.1,0.7-2.1,2.1l0,2.6h4.7l-0.5,5.2h-4.1V170z"/>
	<g id="Google_Plus_1_">
		<g>
			<path style="&st68;" d="M-223.2,141.4c0.2,0.2,0.5,0.4,0.8,0.7c0.3,0.3,0.6,0.7,0.9,1.1c0.3,0.4,0.5,0.9,0.7,1.5
				c0.2,0.6,0.3,1.2,0.3,2c0,1.4-0.3,2.5-0.9,3.4c-0.3,0.4-0.6,0.8-0.9,1.1c-0.4,0.3-0.8,0.7-1.2,1.1c-0.2,0.2-0.5,0.5-0.7,0.8
				c-0.2,0.3-0.4,0.7-0.4,1.1c0,0.4,0.1,0.7,0.4,1c0.2,0.3,0.4,0.5,0.6,0.7l1.3,1.1c0.8,0.7,1.6,1.4,2.2,2.2
				c0.6,0.8,0.9,1.9,0.9,3.3c0,1.9-0.8,3.6-2.5,5.1c-1.7,1.5-4.3,2.3-7.6,2.4c-2.8,0-4.8-0.6-6.2-1.8c-1.4-1.1-2.1-2.4-2.1-3.9
				c0-0.7,0.2-1.5,0.7-2.4c0.4-0.9,1.2-1.7,2.4-2.4c1.3-0.7,2.6-1.2,4-1.5c1.4-0.2,2.5-0.3,3.5-0.3c-0.3-0.4-0.5-0.8-0.8-1.2
				c-0.3-0.4-0.4-0.9-0.4-1.5c0-0.3,0-0.6,0.1-0.9c0.1-0.2,0.2-0.5,0.2-0.7c-0.4,0.1-0.9,0.1-1.3,0.1c-2.1,0-3.7-0.7-4.8-2
				c-1.2-1.2-1.7-2.6-1.7-4.2c0-1.9,0.8-3.7,2.4-5.3c1.1-0.9,2.3-1.5,3.5-1.8c1.2-0.2,2.3-0.4,3.4-0.4h7.9l-2.4,1.4H-223.2z
				 M-221.6,164.1c0-1-0.3-1.9-1-2.6c-0.7-0.7-1.8-1.6-3.2-2.6c-0.3,0-0.5,0-0.9,0c-0.2,0-0.7,0-1.5,0.1c-0.8,0.1-1.6,0.3-2.5,0.6
				c-0.2,0.1-0.5,0.2-0.8,0.3c-0.4,0.2-0.7,0.4-1.1,0.7c-0.4,0.3-0.7,0.7-0.9,1.2c-0.3,0.5-0.4,1.1-0.4,1.8c0,1.4,0.6,2.5,1.9,3.4
				c1.2,0.9,2.8,1.4,4.9,1.4c1.9,0,3.3-0.4,4.3-1.2C-222.1,166.3-221.6,165.3-221.6,164.1z M-227.1,152.5c1,0,1.9-0.4,2.6-1.1
				c0.3-0.5,0.5-1,0.6-1.5c0.1-0.5,0.1-1,0.1-1.3c0-1.6-0.4-3.1-1.2-4.7c-0.4-0.8-0.9-1.4-1.5-1.8c-0.6-0.4-1.3-0.7-2.1-0.7
				c-1.1,0-2,0.5-2.7,1.3c-0.6,0.9-0.9,1.8-0.9,2.9c0,1.4,0.4,2.9,1.3,4.4c0.4,0.7,0.9,1.3,1.6,1.8
				C-228.7,152.3-228,152.5-227.1,152.5z"/>
		</g>
		<polygon id="PLUS_1_" style="&st68;" points="-207.6,144.3 -211.8,144.3 -211.8,140.2 -213.8,140.2 -213.8,144.3 -217.9,144.3 
			-217.9,146.3 -213.8,146.3 -213.8,150.4 -211.8,150.4 -211.8,146.3 -207.6,146.3 		"/>
	</g>
	<polygon id="Play_3_" style="&st3;" points="-125.4,100 -125.4,70 -100.4,85 	"/>
</g>
<g id="Icon_Rollovers" style="&st16;">
	<polygon id="Down_Arrow_3_" style="&st69;" points="-163.4,86 -163.4,70 -169.4,70 -169.4,86 -176.4,86 -166.4,99.8 -156.4,86 	"/>
	<g style="&st70;">
		<path style="&st3;" d="M-285.9,70c-6.2,0-11.2,5-11.2,11.2s5,11.2,11.2,11.2s11.2-5,11.2-11.2S-279.7,70-285.9,70z M-285.9,88.3
			c-3.9,0-7-3.1-7-7s3.1-7,7-7s7,3.1,7,7S-282,88.3-285.9,88.3z"/>
		<path style="&st71;" d="M-276.9,86.8c-0.4-0.4-1.1-0.4-1.5,0l-2.3,2.3c-0.4,0.4-0.4,1.1,0,1.5l9.1,9.1c0.4,0.4,1.1,0.4,1.5,0
			l2.3-2.3c0.4-0.4,0.4-1.1,0-1.5L-276.9,86.8z"/>
	</g>
	<g id="User_2_" style="&st70;">
		<g>
			<path style="&st72;" d="M-87.8,26.2c-0.8-4.5-4.1-8-8.5-9.1c0.8-1.2,1.2-2.6,1.2-4.1V7.5c0-4.1-3.4-7.5-7.5-7.5
				c-4.1,0-7.5,3.4-7.5,7.5v5.6c0,1.5,0.5,2.9,1.2,4.1c-4.4,1-7.8,4.6-8.5,9.1h-0.2v1.9c0,1,0.8,1.9,1.9,1.9h26.2
				c1,0,1.9-0.8,1.9-1.9v-1.9H-87.8z M-106.4,7.5c0-2.1,1.7-3.8,3.8-3.8c2.1,0,3.8,1.7,3.8,3.8v5.6c0,2.1-1.7,3.8-3.8,3.8
				c-2.1,0-3.8-1.7-3.8-3.8V7.5z M-113.6,26.2c0.8-3.2,3.7-5.6,7.2-5.6h7.5c3.5,0,6.4,2.4,7.2,5.6H-113.6z"/>
		</g>
	</g>
	<g id="Clock_6_" style="&st70;">
		<g>
			<path style="&st72;" d="M-162.6,0c-8.3,0-15,6.7-15,15c0,8.3,6.7,15,15,15c8.3,0,15-6.7,15-15C-147.6,6.7-154.3,0-162.6,0z
				 M-162.6,26.2c-6.2,0-11.2-5-11.2-11.2s5-11.2,11.2-11.2s11.2,5,11.2,11.2S-156.4,26.2-162.6,26.2z M-160.8,7.5h-3.8v9.4h7.5
				v-3.8h-3.8V7.5z"/>
		</g>
	</g>
	<g id="Heart_6_" style="&st70;">
		<g>
			<path style="&st72;" d="M30,9.4C30,4.2,26.2,0,21.6,0c-2.7,0-5,1.4-6.6,3.5C13.5,1.4,11.1,0,8.4,0C3.8,0,0,4.2,0,9.4
				c0,0-1,9,15,20.6C31,18.4,30,9.4,30,9.4z M26.2,9.9c0,0.4-0.1,0.7-0.2,1.1c-0.6,2.9-2.8,8.9-11,14.1h0C6.8,19.9,4.6,13.9,4,11
				c-0.1-0.3-0.1-0.7-0.2-1.1c0-0.4,0-0.6,0-0.6c0-0.2,0-0.3,0-0.5C3.9,7.8,4.2,6.8,4.7,6c0,0,0,0,0,0c0.2-0.2,0.3-0.5,0.5-0.7
				c0,0,0.1-0.1,0.1-0.1C5.6,5,5.7,4.8,5.9,4.6C6,4.6,6.1,4.5,6.2,4.5c0.2-0.1,0.3-0.2,0.5-0.3C6.8,4.1,7,4,7.2,4
				c0.1,0,0.2-0.1,0.4-0.1c0.3-0.1,0.6-0.1,0.9-0.1c0.3,0,0.9,0,0.9,0c4.2,0,5.6,5.6,5.6,5.6s1.5-5.6,5.6-5.6c0,0,0.7,0,0.9,0
				c0.3,0,0.6,0,0.9,0.1c0.1,0,0.2,0.1,0.4,0.1C23,4,23.2,4.1,23.3,4.2c0.2,0.1,0.3,0.2,0.5,0.3c0.1,0.1,0.2,0.1,0.3,0.2
				c0.2,0.1,0.4,0.3,0.5,0.5c0,0,0.1,0.1,0.1,0.1c0.2,0.2,0.4,0.4,0.5,0.7c0,0,0,0,0,0c0.5,0.8,0.8,1.8,0.9,2.9c0,0.2,0,0.3,0,0.5
				C26.2,9.4,26.2,9.6,26.2,9.9z"/>
		</g>
	</g>
	<polygon id="Down_Arrow_2_" style="&st73;" points="-43.4,18 -27.4,18 -27.4,12 -43.4,12 -43.4,4.8 -57.2,15 -43.4,25.1 	"/>
	<g id="Clock_3_" style="&st70;">
		<g>
			<path style="&st71;" d="M-160.5,147.5h-3.8v9.4h7.5v-3.8h-3.8V147.5z M-162.4,140c-8.3,0-15,6.7-15,15s6.7,15,15,15s15-6.7,15-15
				S-154.1,140-162.4,140z M-162.4,166.2c-6.2,0-11.2-5-11.2-11.2s5-11.2,11.2-11.2s11.2,5,11.2,11.2S-156.2,166.2-162.4,166.2z"/>
		</g>
	</g>
	<g id="Heart_3_" style="&st70;">
		<g>
			<path style="&st71;" d="M-87.4,149.4c0-5.2-3.8-9.4-8.4-9.4c-2.7,0-5,1.4-6.6,3.5c-1.5-2.1-3.9-3.5-6.6-3.5
				c-4.7,0-8.4,4.2-8.4,9.4c0,0-1,9,15,20.6C-86.4,158.4-87.4,149.4-87.4,149.4z M-91.2,150c0,0.4-0.1,0.7-0.2,1.1
				c-0.6,2.9-2.8,8.9-11,14.1h0c-8.2-5.2-10.4-11.2-11-14.1c-0.1-0.3-0.1-0.7-0.2-1.1c0-0.4,0-0.6,0-0.6c0-0.2,0-0.3,0-0.5
				c0.1-1.1,0.4-2.1,0.9-2.9c0,0,0,0,0,0c0.2-0.2,0.3-0.5,0.5-0.7c0,0,0.1-0.1,0.1-0.1c0.2-0.2,0.3-0.3,0.5-0.5
				c0.1-0.1,0.2-0.1,0.3-0.2c0.2-0.1,0.3-0.2,0.5-0.3c0.2-0.1,0.3-0.1,0.5-0.2c0.1,0,0.2-0.1,0.4-0.1c0.3-0.1,0.6-0.1,0.9-0.1
				c0.3,0,0.9,0,0.9,0c4.2,0,5.6,5.6,5.6,5.6s1.5-5.6,5.6-5.6c0,0,0.7,0,0.9,0c0.3,0,0.6,0,0.9,0.1c0.1,0,0.2,0.1,0.4,0.1
				c0.2,0.1,0.3,0.1,0.5,0.2c0.2,0.1,0.3,0.2,0.5,0.3c0.1,0.1,0.2,0.1,0.3,0.2c0.2,0.1,0.4,0.3,0.5,0.5c0,0,0.1,0.1,0.1,0.1
				c0.2,0.2,0.4,0.4,0.5,0.7c0,0,0,0,0,0c0.5,0.8,0.8,1.8,0.9,2.9c0,0.2,0,0.3,0,0.5C-91.2,149.4-91.2,149.6-91.2,150z"/>
		</g>
	</g>
	<g style="&st70;">
		<path style="&st3;" d="M-297,149.9h6.2v20h-6.2V149.9z M-293.9,140c2,0,3.6,1.6,3.6,3.6c0,2-1.6,3.6-3.6,3.6c-2,0-3.6-1.6-3.6-3.6
			C-297.5,141.6-295.9,140-293.9,140"/>
		<path style="&st3;" d="M-286.9,149.9h6v2.7h0.1c0.8-1.6,2.9-3.2,5.9-3.2c6.3,0,7.5,4.2,7.5,9.5v11h-6.2v-9.7c0-2.3,0-5.3-3.2-5.3
			c-3.2,0-3.7,2.5-3.7,5.1v9.9h-6.2V149.9z"/>
	</g>
	<g id="Pin_2_" style="&st70;">
		<g>
			<path style="&st71;" d="M-397.2,210c-6.2,0-11.2,5-11.2,11.3c0,6.2,9.4,18.7,11.2,18.7c1.8,0,11.3-12.5,11.3-18.7
				C-385.9,215-391,210-397.2,210z M-397.2,228.7c-4.1,0-7.5-3.4-7.5-7.5c0-4.1,3.4-7.5,7.5-7.5s7.5,3.4,7.5,7.5
				C-389.7,225.4-393,228.7-397.2,228.7z"/>
		</g>
	</g>
	<g id="iPhone_2_" style="&st70;">
		<g>
			<path style="&st71;" d="M-333.5,210h-18.8c-1,0-1.9,0.8-1.9,1.9v26.2c0,1,0.8,1.9,1.9,1.9h18.8c1,0,1.9-0.8,1.9-1.9v-26.2
				C-331.7,210.8-332.5,210-333.5,210z M-341,236.2h-3.8v-1.9h3.8V236.2z M-335.4,232.5h-15v-18.8h15V232.5z"/>
		</g>
	</g>
	<g id="Envelope_2_" style="&st70;">
		<g>
			<path style="&st71;" d="M-263.9,210h-35c-1.4,0-2.5,1.1-2.5,2.5v25c0,1.4,1.1,2.5,2.5,2.5h35c1.4,0,2.5-1.1,2.5-2.5v-25
				C-261.4,211.1-262.5,210-263.9,210z M-267,213.5l-14.4,11.5l-14.4-11.5H-267z M-264.2,236.5h-34.5v-21.6l17.2,14.4l17.2-14.4
				v-1.4h0V236.5z"/>
		</g>
	</g>
	<path style="&st69;" d="M-83.6,231.2l-15.3-15.3c0,0-0.1-0.1-0.1-0.1l-0.2-0.2c-0.4-0.4-1-0.6-1.5-0.6c-0.6,0-1.1,0.2-1.5,0.6
		l-0.2,0.2c0,0-0.1,0.1-0.1,0.1l-15.3,15.3c-0.8,0.8-0.8,2.2,0,3l0.2,0.2c0.8,0.8,2.2,0.8,3,0l13.9-13.9l13.9,13.9
		c0.8,0.8,2.2,0.8,3,0l0.2-0.2C-82.8,233.4-82.8,232-83.6,231.2z"/>
	<path id="Twitter_8_" style="&st73;" d="M-371.5,3.5c-1.4,0.6-2.8,1-4.3,1.2c1.6-0.9,2.8-2.4,3.3-4.2c-1.5,0.9-3.1,1.5-4.8,1.8
		c-1.4-1.5-3.3-2.4-5.5-2.4c-4.2,0-7.6,3.4-7.6,7.6c0,0.6,0.1,1.2,0.2,1.7c-6.3-0.3-11.9-3.3-15.6-7.9c-0.7,1.1-1,2.4-1,3.8
		c0,2.6,1.3,4.9,3.4,6.3c-1.2,0-2.4-0.4-3.4-0.9c0,0,0,0.1,0,0.1c0,3.7,2.6,6.7,6.1,7.4c-0.6,0.2-1.3,0.3-2,0.3c-0.5,0-1,0-1.4-0.1
		c1,3,3.8,5.2,7.1,5.3c-2.6,2-5.9,3.2-9.4,3.2c-0.6,0-1.2,0-1.8-0.1c3.4,2.1,7.3,3.4,11.6,3.4c13.9,0,21.5-11.5,21.5-21.5
		c0-0.3,0-0.7,0-1C-373.8,6.4-372.5,5.1-371.5,3.5z"/>
	<path id="Facebook_8_" style="&st73;" d="M-332.2,30h-6.2V15h-3.1V9.8h3.1V6.7c0-4.2,1.8-6.7,6.7-6.7h4.1v5.2h-2.6
		c-1.9,0-2.1,0.7-2.1,2.1l0,2.6h4.7L-328,15h-4.1V30z"/>
	<g id="Google_Plus_4_" style="&st70;">
		<g>
			<path style="&st74;" d="M-223.2,1.4c0.2,0.2,0.5,0.4,0.8,0.7c0.3,0.3,0.6,0.7,0.9,1.1c0.3,0.4,0.5,0.9,0.7,1.5
				c0.2,0.6,0.3,1.2,0.3,2c0,1.4-0.3,2.5-0.9,3.4c-0.3,0.4-0.6,0.8-0.9,1.1c-0.4,0.3-0.8,0.7-1.2,1.1c-0.2,0.2-0.5,0.5-0.7,0.8
				c-0.2,0.3-0.4,0.7-0.4,1.1c0,0.4,0.1,0.7,0.4,1c0.2,0.3,0.4,0.5,0.6,0.7l1.3,1.1c0.8,0.7,1.6,1.4,2.2,2.2
				c0.6,0.8,0.9,1.9,0.9,3.3c0,1.9-0.8,3.6-2.5,5.1c-1.7,1.5-4.3,2.3-7.6,2.4c-2.8,0-4.8-0.6-6.2-1.8c-1.4-1.1-2.1-2.4-2.1-3.9
				c0-0.7,0.2-1.5,0.7-2.4c0.4-0.9,1.2-1.7,2.4-2.4c1.3-0.7,2.6-1.2,4-1.5c1.4-0.2,2.5-0.3,3.5-0.3c-0.3-0.4-0.5-0.8-0.8-1.2
				c-0.3-0.4-0.4-0.9-0.4-1.5c0-0.3,0-0.6,0.1-0.9c0.1-0.2,0.2-0.5,0.2-0.7c-0.4,0.1-0.9,0.1-1.3,0.1c-2.1,0-3.7-0.7-4.8-2
				c-1.2-1.2-1.7-2.6-1.7-4.2c0-1.9,0.8-3.7,2.4-5.3c1.1-0.9,2.3-1.5,3.5-1.8c1.2-0.2,2.3-0.4,3.4-0.4h7.9l-2.4,1.4H-223.2z
				 M-221.6,24.1c0-1-0.3-1.9-1-2.6c-0.7-0.7-1.8-1.6-3.2-2.6c-0.3,0-0.5,0-0.9,0c-0.2,0-0.7,0-1.5,0.1c-0.8,0.1-1.6,0.3-2.5,0.6
				c-0.2,0.1-0.5,0.2-0.8,0.3c-0.4,0.2-0.7,0.4-1.1,0.7c-0.4,0.3-0.7,0.7-0.9,1.2c-0.3,0.5-0.4,1.1-0.4,1.8c0,1.4,0.6,2.5,1.9,3.4
				c1.2,0.9,2.8,1.4,4.9,1.4c1.9,0,3.3-0.4,4.3-1.2C-222.1,26.3-221.6,25.3-221.6,24.1z M-227.1,12.5c1,0,1.9-0.4,2.6-1.1
				c0.3-0.5,0.5-1,0.6-1.5c0.1-0.5,0.1-1,0.1-1.3c0-1.6-0.4-3.1-1.2-4.7c-0.4-0.8-0.9-1.4-1.5-1.8c-0.6-0.4-1.3-0.7-2.1-0.7
				c-1.1,0-2,0.5-2.7,1.3c-0.6,0.9-0.9,1.8-0.9,2.9c0,1.4,0.4,2.9,1.3,4.4c0.4,0.7,0.9,1.3,1.6,1.8C-228.7,12.3-228,12.5-227.1,12.5
				z"/>
		</g>
		<polygon id="PLUS_4_" style="&st74;" points="-207.6,4.3 -211.8,4.3 -211.8,0.2 -213.8,0.2 -213.8,4.3 -217.9,4.3 -217.9,6.3 
			-213.8,6.3 -213.8,10.4 -211.8,10.4 -211.8,6.3 -207.6,6.3 		"/>
	</g>
	<g id="LinkedIn_1_" style="&st70;">
		<path style="&st74;" d="M-297,9.9h6.2v20h-6.2V9.9z M-293.9,0c2,0,3.6,1.6,3.6,3.6c0,2-1.6,3.6-3.6,3.6c-2,0-3.6-1.6-3.6-3.6
			C-297.5,1.6-295.9,0-293.9,0"/>
		<path style="&st74;" d="M-286.9,9.9h6v2.7h0.1c0.8-1.6,2.9-3.2,5.9-3.2c6.3,0,7.5,4.2,7.5,9.5v11h-6.2v-9.7c0-2.3,0-5.3-3.2-5.3
			c-3.2,0-3.7,2.5-3.7,5.1V30h-6.2V9.9z"/>
	</g>
	<path id="Twitter_7_" style="&st69;" d="M-371.5,73.5c-1.4,0.6-2.8,1-4.3,1.2c1.6-0.9,2.8-2.4,3.3-4.2c-1.5,0.9-3.1,1.5-4.8,1.8
		c-1.4-1.5-3.3-2.4-5.5-2.4c-4.2,0-7.6,3.4-7.6,7.6c0,0.6,0.1,1.2,0.2,1.7c-6.3-0.3-11.9-3.3-15.6-7.9c-0.7,1.1-1,2.4-1,3.8
		c0,2.6,1.3,4.9,3.4,6.3c-1.2,0-2.4-0.4-3.4-0.9c0,0,0,0.1,0,0.1c0,3.7,2.6,6.7,6.1,7.4c-0.6,0.2-1.3,0.3-2,0.3c-0.5,0-1,0-1.4-0.1
		c1,3,3.8,5.2,7.1,5.3c-2.6,2-5.9,3.2-9.4,3.2c-0.6,0-1.2,0-1.8-0.1c3.4,2.1,7.3,3.4,11.6,3.4c13.9,0,21.5-11.5,21.5-21.5
		c0-0.3,0-0.7,0-1C-373.8,76.4-372.5,75.1-371.5,73.5z"/>
	<path id="Facebook_7_" style="&st69;" d="M-332.2,100h-6.2V85h-3.1v-5.2h3.1v-3.1c0-4.2,1.8-6.7,6.7-6.7h4.1v5.2h-2.6
		c-1.9,0-2.1,0.7-2.1,2.1l0,2.6h4.7L-328,85h-4.1V100z"/>
	<g id="Google_Plus_3_" style="&st70;">
		<g>
			<path style="&st3;" d="M-223.2,141.4c0.2,0.2,0.5,0.4,0.8,0.7c0.3,0.3,0.6,0.7,0.9,1.1c0.3,0.4,0.5,0.9,0.7,1.5
				c0.2,0.6,0.3,1.2,0.3,2c0,1.4-0.3,2.5-0.9,3.4c-0.3,0.4-0.6,0.8-0.9,1.1c-0.4,0.3-0.8,0.7-1.2,1.1c-0.2,0.2-0.5,0.5-0.7,0.8
				c-0.2,0.3-0.4,0.7-0.4,1.1c0,0.4,0.1,0.7,0.4,1c0.2,0.3,0.4,0.5,0.6,0.7l1.3,1.1c0.8,0.7,1.6,1.4,2.2,2.2
				c0.6,0.8,0.9,1.9,0.9,3.3c0,1.9-0.8,3.6-2.5,5.1c-1.7,1.5-4.3,2.3-7.6,2.4c-2.8,0-4.8-0.6-6.2-1.8c-1.4-1.1-2.1-2.4-2.1-3.9
				c0-0.7,0.2-1.5,0.7-2.4c0.4-0.9,1.2-1.7,2.4-2.4c1.3-0.7,2.6-1.2,4-1.5c1.4-0.2,2.5-0.3,3.5-0.3c-0.3-0.4-0.5-0.8-0.8-1.2
				c-0.3-0.4-0.4-0.9-0.4-1.5c0-0.3,0-0.6,0.1-0.9c0.1-0.2,0.2-0.5,0.2-0.7c-0.4,0.1-0.9,0.1-1.3,0.1c-2.1,0-3.7-0.7-4.8-2
				c-1.2-1.2-1.7-2.6-1.7-4.2c0-1.9,0.8-3.7,2.4-5.3c1.1-0.9,2.3-1.5,3.5-1.8c1.2-0.2,2.3-0.4,3.4-0.4h7.9l-2.4,1.4H-223.2z
				 M-221.6,164.1c0-1-0.3-1.9-1-2.6c-0.7-0.7-1.8-1.6-3.2-2.6c-0.3,0-0.5,0-0.9,0c-0.2,0-0.7,0-1.5,0.1c-0.8,0.1-1.6,0.3-2.5,0.6
				c-0.2,0.1-0.5,0.2-0.8,0.3c-0.4,0.2-0.7,0.4-1.1,0.7c-0.4,0.3-0.7,0.7-0.9,1.2c-0.3,0.5-0.4,1.1-0.4,1.8c0,1.4,0.6,2.5,1.9,3.4
				c1.2,0.9,2.8,1.4,4.9,1.4c1.9,0,3.3-0.4,4.3-1.2C-222.1,166.3-221.6,165.3-221.6,164.1z M-227.1,152.5c1,0,1.9-0.4,2.6-1.1
				c0.3-0.5,0.5-1,0.6-1.5c0.1-0.5,0.1-1,0.1-1.3c0-1.6-0.4-3.1-1.2-4.7c-0.4-0.8-0.9-1.4-1.5-1.8c-0.6-0.4-1.3-0.7-2.1-0.7
				c-1.1,0-2,0.5-2.7,1.3c-0.6,0.9-0.9,1.8-0.9,2.9c0,1.4,0.4,2.9,1.3,4.4c0.4,0.7,0.9,1.3,1.6,1.8
				C-228.7,152.3-228,152.5-227.1,152.5z"/>
		</g>
		<polygon id="PLUS_3_" style="&st3;" points="-207.6,144.3 -211.8,144.3 -211.8,140.2 -213.8,140.2 -213.8,144.3 -217.9,144.3 
			-217.9,146.3 -213.8,146.3 -213.8,150.4 -211.8,150.4 -211.8,146.3 -207.6,146.3 		"/>
	</g>
</g>
</svg>
