<?xml version="1.0" encoding="utf-8"?>
<!-- Generator: Adobe Illustrator 17.1.0, SVG Export Plug-In . SVG Version: 6.00 Build 0)  -->
<!DOCTYPE svg PUBLIC "-//W3C//DTD SVG 1.1//EN" "http://www.w3.org/Graphics/SVG/1.1/DTD/svg11.dtd" [
	<!ENTITY ns_flows "http://ns.adobe.com/Flows/1.0/">
	<!ENTITY ns_extend "http://ns.adobe.com/Extensibility/1.0/">
	<!ENTITY ns_ai "http://ns.adobe.com/AdobeIllustrator/10.0/">
	<!ENTITY ns_graphs "http://ns.adobe.com/Graphs/1.0/">
	<!ENTITY st0 "fill:#149B9E;">
	<!ENTITY st1 "fill:#27BDBE;">
	<!ENTITY st2 "display:none;fill:none;">
	<!ENTITY st3 "fill:#FFFFFF;">
	<!ENTITY st4 "opacity:0.35;clip-path:url(#SVGID_2_);fill:#231F20;">
	<!ENTITY st5 "opacity:0.35;clip-path:url(#SVGID_4_);fill:#231F20;">
	<!ENTITY st6 "opacity:0.35;clip-path:url(#i_Dot_1_);">
	<!ENTITY st7 "fill:#231F20;">
	<!ENTITY st8 "opacity:0.35;clip-path:url(#i_1_);">
	<!ENTITY st9 "opacity:0.35;clip-path:url(#SVGID_6_);">
	<!ENTITY st10 "opacity:0.35;clip-path:url(#SVGID_8_);">
	<!ENTITY st11 "opacity:0.35;clip-path:url(#SVGID_10_);">
	<!ENTITY st12 "opacity:0.35;clip-path:url(#SVGID_12_);">
	<!ENTITY st13 "opacity:0.35;clip-path:url(#SVGID_14_);">
	<!ENTITY st14 "opacity:0.35;clip-path:url(#SVGID_16_);">
	<!ENTITY st15 "opacity:0.35;clip-path:url(#SVGID_18_);">
	<!ENTITY st16 "display:none;">
	<!ENTITY st17 "display:inline;fill:#252525;">
	<!ENTITY st18 "fill:#808080;">
	<!ENTITY st19 "fill:#808080;stroke:#7E7E7E;stroke-width:2.9999;stroke-miterlimit:2.6131;">
	<!ENTITY st20 "clip-path:url(#SVGID_20_);fill:#808080;">
	<!ENTITY st21 "clip-path:url(#SVGID_22_);fill:#808080;">
	<!ENTITY st22 "clip-path:url(#SVGID_24_);fill:#808080;">
	<!ENTITY st23 "clip-path:url(#SVGID_26_);fill:#808080;">
	<!ENTITY st24 "clip-path:url(#SVGID_28_);fill:#808080;">
	<!ENTITY st25 "clip-path:url(#SVGID_30_);fill:#808080;">
	<!ENTITY st26 "clip-path:url(#SVGID_32_);fill:#808080;">
	<!ENTITY st27 "clip-path:url(#SVGID_34_);fill:#808080;">
	<!ENTITY st28 "clip-path:url(#SVGID_36_);fill:#808080;">
	<!ENTITY st29 "clip-path:url(#SVGID_38_);fill:#808080;">
	<!ENTITY st30 "clip-path:url(#SVGID_40_);fill:#808080;">
	<!ENTITY st31 "clip-path:url(#SVGID_42_);fill:#808080;">
	<!ENTITY st32 "clip-path:url(#SVGID_44_);fill:#808080;">
	<!ENTITY st33 "clip-path:url(#SVGID_46_);fill:#808080;">
	<!ENTITY st34 "clip-path:url(#SVGID_48_);fill:#808080;">
	<!ENTITY st35 "clip-path:url(#SVGID_50_);fill:#808080;">
	<!ENTITY st36 "clip-path:url(#SVGID_52_);fill:#808080;">
	<!ENTITY st37 "clip-path:url(#SVGID_54_);fill:#808080;">
	<!ENTITY st38 "clip-path:url(#SVGID_56_);fill:#808080;">
	<!ENTITY st39 "clip-path:url(#SVGID_58_);fill:#808080;">
	<!ENTITY st40 "clip-path:url(#SVGID_60_);fill:#808080;">
	<!ENTITY st41 "clip-path:url(#SVGID_62_);fill:#808080;">
	<!ENTITY st42 "clip-path:url(#SVGID_64_);fill:#808080;">
	<!ENTITY st43 "clip-path:url(#SVGID_66_);fill:#808080;">
	<!ENTITY st44 "clip-path:url(#SVGID_68_);fill:#808080;">
	<!ENTITY st45 "clip-path:url(#SVGID_70_);fill:#808080;">
	<!ENTITY st46 "clip-path:url(#SVGID_72_);fill:#808080;">
	<!ENTITY st47 "clip-path:url(#SVGID_74_);fill:#808080;">
	<!ENTITY st48 "clip-path:url(#SVGID_76_);fill:#808080;">
	<!ENTITY st49 "clip-path:url(#SVGID_78_);fill:#808080;">
	<!ENTITY st50 "clip-path:url(#SVGID_80_);fill:#808080;">
	<!ENTITY st51 "clip-path:url(#SVGID_82_);fill:#808080;">
	<!ENTITY st52 "clip-path:url(#SVGID_84_);fill:#808080;">
	<!ENTITY st53 "clip-path:url(#SVGID_86_);fill:#808080;">
	<!ENTITY st54 "clip-path:url(#SVGID_88_);fill:#808080;">
	<!ENTITY st55 "clip-path:url(#SVGID_90_);fill:#808080;">
	<!ENTITY st56 "clip-path:url(#SVGID_92_);fill:#808080;">
	<!ENTITY st57 "clip-path:url(#SVGID_94_);fill:#808080;">
	<!ENTITY st58 "fill:#B3B3B3;">
	<!ENTITY st59 "display:inline;fill:#CCCCCC;">
	<!ENTITY st60 "display:inline;">
	<!ENTITY st61 "fill:#CCCCCC;">
	<!ENTITY st62 "fill-rule:evenodd;clip-rule:evenodd;fill:#CCCCCC;">
	<!ENTITY st63 "fill-rule:evenodd;clip-rule:evenodd;fill:#585858;">
	<!ENTITY st64 "display:inline;fill:#585858;">
	<!ENTITY st65 "fill-rule:evenodd;clip-rule:evenodd;fill:#B3B3B3;">
	<!ENTITY st66 "fill:#585858;">
	<!ENTITY st67 "fill:#0177B5;">
	<!ENTITY st68 "fill-rule:evenodd;clip-rule:evenodd;fill:#808080;">
	<!ENTITY st69 "display:inline;fill:#808080;">
	<!ENTITY st70 "display:inline;fill:#2AA9E0;">
	<!ENTITY st71 "display:inline;fill:#3B5999;">
	<!ENTITY st72 "fill:#C30907;">
	<!ENTITY st73 "display:inline;fill:#FFFFFF;">
	<!ENTITY st74 "fill-rule:evenodd;clip-rule:evenodd;fill:#FFFFFF;">
	<!ENTITY st75 "fill-rule:evenodd;clip-rule:evenodd;fill:#333333;">
	<!ENTITY st76 "fill:#333333;">
]>
<svg version="1.1" xmlns:x="&ns_extend;" xmlns:i="&ns_ai;" xmlns:graph="&ns_graphs;"
	 xmlns="http://www.w3.org/2000/svg" xmlns:xlink="http://www.w3.org/1999/xlink" xmlns:a="http://ns.adobe.com/AdobeSVGViewerExtensions/3.0/"
	 x="0px" y="0px" viewBox="0 0 30 30" style="enable-background:new 0 0 30 30;" xml:space="preserve">
<symbol  id="ToyBox_Media_Box_Icon_Full_Color" viewBox="0 -79.2 72 79.2">
	<polygon style="&st0;" points="72,-72.5 36,-79.2 36,0 72,-16.5 	"/>
	<polygon style="&st1;" points="0,-72.5 36,-79.2 36,0 0,-16.5 	"/>
	<polygon style="&st2;" points="0,0 72,0 72,-79 0,-79 	"/>
</symbol>
<symbol  id="ToyBox_Media_Logo_Full_Color_Light" viewBox="0 -85.9 199.8 85.9">
	<path style="&st3;" d="M168.7-33.4l-11.9,19h15.2l5.9-10.9l6,10.9h15.3l-12.2-19l12.6-19.8h-15.2L178-41.4l-6.5-11.8h-15.3
		L168.7-33.4z"/>
	<g>
		<defs>
			<path id="SVGID_1_" d="M168.7-33.4l-11.9,19.1h15.3l5.9-10.9l6.1,10.9h15.3l-12.2-19.1l12.7-19.9h-15.3L178-41.5l-6.5-11.8
				l-15.3,0L168.7-33.4z"/>
		</defs>
		<clipPath id="SVGID_2_">
			<use xlink:href="#SVGID_1_"  style="overflow:visible;"/>
		</clipPath>
		<polygon style="&st4;" points="169.3,-54 143,-57.9 115.3,-50.4 140.2,-4.1 164.9,-14.5 		"/>
	</g>
	<g id="Box_5_">
		<polygon style="&st0;" points="164.9,-53.3 139.9,-57.4 139.9,-3.4 164.9,-14.4 		"/>
		<polygon style="&st1;" points="114.9,-53.3 139.9,-57.4 139.9,-3.4 114.9,-14.4 		"/>
	</g>
	<g>
		<path style="&st3;" d="M193.4-84.9l-1.8,3.5h-0.2c-1.2-1.5-2.5-2.6-3.8-3.1c-1.3-0.6-2.9-0.8-5-0.8c-2.5,0-4.5,0.8-5.9,2.3
			c-1.4,1.5-2.2,3.6-2.2,6.3c0,2.8,1,4.9,3,6.3c2,1.4,4.8,2.2,8.6,2.3l4.4,0.1v0.4c0,2.2-1.1,3.3-3.2,3.3c-1.9,0-4.4-0.7-7.4-2
			l-2.7,6.1c3.1,1.6,7,2.4,11.8,2.4c3.4,0,6.1-0.8,7.9-2.5c1.9-1.7,2.8-4.1,2.8-7.1v-17.5H193.4z M186.6-78.9c1.1,0,2.1,0.4,2.9,1.1
			c0.8,0.7,1.2,1.6,1.2,2.8v2.1l-2.1-0.1c-3-0.1-4.5-1.2-4.5-3.3C184-78,184.9-78.9,186.6-78.9z"/>
	</g>
	<g id="i_shadow_5_">
		<defs>
			<path id="SVGID_3_" d="M193.4-84.9l-1.8,3.5h-0.2c-1.2-1.5-2.5-2.6-3.8-3.1c-1.3-0.6-2.9-0.8-5-0.8c-2.5,0-4.5,0.8-5.9,2.3
				c-1.4,1.5-2.2,3.6-2.2,6.3c0,2.8,1,4.9,3,6.3c2,1.4,4.8,2.2,8.6,2.3l4.4,0.1v0.4c0,2.2-1.1,3.3-3.2,3.3c-1.9,0-4.4-0.7-7.4-2
				l-2.7,6.1c3.1,1.6,7,2.4,11.8,2.4c3.4,0,6.1-0.8,7.9-2.5c1.9-1.7,2.8-4.1,2.8-7.1v-17.5H193.4z M186.6-78.9
				c1.1,0,2.1,0.4,2.9,1.1c0.8,0.7,1.2,1.6,1.2,2.8v2.1l-2.1-0.1c-3-0.1-4.5-1.2-4.5-3.3C184-78,184.9-78.9,186.6-78.9z"/>
		</defs>
		<clipPath id="SVGID_4_">
			<use xlink:href="#SVGID_3_"  style="overflow:visible;"/>
		</clipPath>
		<path id="i_shadow_6_" style="&st5;" d="M177.4-85.4h-9.6l-1.9,25.8h9.2L177.4-85.4z"/>
	</g>
	<g>
		<path id="i_Dot_7_" style="&st3;" d="M174.8-53.2c0-2.4-2.1-4.3-5-4.3c-2.9,0-5,1.9-5,4.3c0,2.4,0.9,4.7,5,4.7
			C173.3-48.5,174.8-50.8,174.8-53.2z"/>
		<path id="i_6_" style="&st3;" d="M174.8-85.4h-9.2v25.8h9.2V-85.4z"/>
	</g>
	<g id="d_shadow_part_2_3_">
		<defs>
			<path id="i_Dot_6_" d="M174.8-52.2c0-2.4-2.1-4.3-5-4.3c-2.9,0-5,1.9-5,4.3c0,2.4,0.9,4.7,5,4.7
				C173.3-47.5,174.8-49.8,174.8-52.2z"/>
		</defs>
		<clipPath id="i_Dot_1_">
			<use xlink:href="#i_Dot_6_"  style="overflow:visible;"/>
		</clipPath>
		<g id="d_shadow_6_" style="&st6;">
			<path style="&st7;" d="M151.9-84.9c-1.9,0-3.6,0.5-5.1,1.6c-1.5,1.1-2.7,2.7-3.6,4.8c-0.9,2.1-1.5,4.6-1.7,7.4
				c-0.3,4.3,0.3,7.7,1.9,10.2c1.6,2.4,3.9,3.7,6.9,3.7c1.5,0,2.8-0.3,4-0.9c1.2-0.6,2.3-1.6,3.3-3h0.2c-0.4,2.1-0.7,4.2-0.9,6.3
				l-0.5,7.1h9.3l3-36.6h-7.3l-2.2,3.4h-0.4C157.4-83.6,155.1-84.9,151.9-84.9z M155.2-77.7c1.5,0,2.5,0.5,3,1.4
				c0.5,0.9,0.8,2.4,0.7,4.3l-0.1,0.7c-0.2,2.4-0.6,4-1.4,5c-0.7,1-1.8,1.5-3.3,1.5c-1.2,0-2.1-0.6-2.7-1.7
				c-0.6-1.1-0.8-2.8-0.7-4.9c0.1-2.1,0.6-3.6,1.3-4.7C152.9-77.1,153.9-77.7,155.2-77.7z"/>
		</g>
	</g>
	<g id="d_shadow_part_1_3_">
		<defs>
			<path id="i_5_" d="M174.8-85.4h-9.2v25.8h9.2V-85.4z"/>
		</defs>
		<clipPath id="i_1_">
			<use xlink:href="#i_5_"  style="overflow:visible;"/>
		</clipPath>
		<g id="d_shadow_5_" style="&st8;">
			<path style="&st7;" d="M151.9-85.9c-1.9,0-3.6,0.5-5.1,1.6c-1.5,1.1-2.7,2.7-3.6,4.8c-0.9,2.1-1.5,4.6-1.7,7.4
				c-0.3,4.3,0.3,7.7,1.9,10.2c1.6,2.4,3.9,3.7,6.9,3.7c1.5,0,2.8-0.3,4-0.9c1.2-0.6,2.3-1.6,3.3-3h0.2c-0.4,2.1-0.7,4.2-0.9,6.3
				l-0.5,7.1h9.3l3-36.6h-7.3l-2.2,3.4h-0.4C157.4-84.6,155.1-85.9,151.9-85.9z M155.2-78.7c1.5,0,2.5,0.5,3,1.4
				c0.5,0.9,0.8,2.4,0.7,4.3l-0.1,0.7c-0.2,2.4-0.6,4-1.4,5c-0.7,1-1.8,1.5-3.3,1.5c-1.2,0-2.1-0.6-2.7-1.7
				c-0.6-1.1-0.8-2.8-0.7-4.9c0.1-2.1,0.6-3.6,1.3-4.7C152.9-78.1,153.9-78.7,155.2-78.7z"/>
		</g>
	</g>
	<g id="d_6_">
		<path style="&st3;" d="M149.4-85.9c-1.9,0-3.6,0.5-5,1.6c-1.4,1.1-2.5,2.7-3.3,4.8c-0.8,2.1-1.2,4.6-1.2,7.4
			c0,4.3,0.9,7.7,2.6,10.2s4.1,3.7,7.2,3.7c1.5,0,3.2-0.3,4.3-0.9c1.1-0.6,1.6-1,2.3-1.8h0.2l0,12.2h9.3v-36.6h-6.9l-2,3.4h-0.4
			C154.8-84.6,152.5-85.9,149.4-85.9z M153.1-78.7c1.5,0,2.5,0.5,3.1,1.4c0.6,0.9,0.9,2.4,1,4.3v0.7c0,2.4-0.3,4-1,5
			c-0.7,1-1.7,1.5-3.2,1.5c-1.2,0-2.1-0.6-2.8-1.7c-0.7-1.1-1-2.8-1-4.9c0-2.1,0.3-3.6,1-4.7C150.9-78.1,151.9-78.7,153.1-78.7z"/>
	</g>
	<g id="e_shadow_3_">
		<defs>
			<path id="SVGID_5_" d="M149.4-85.9c-1.9,0-3.6,0.5-5,1.6c-1.4,1.1-2.5,2.7-3.3,4.8c-0.8,2.1-1.2,4.6-1.2,7.4
				c0,4.3,0.9,7.7,2.6,10.2s4.1,3.7,7.2,3.7c1.5,0,3.2-0.3,4.3-0.9c1.1-0.6,1.6-1,2.3-1.8h0.2l0,12.2h9.3v-36.6h-6.9l-2,3.4h-0.4
				C154.8-84.6,152.5-85.9,149.4-85.9z M153.1-78.7c1.5,0,2.5,0.5,3.1,1.4c0.6,0.9,0.9,2.4,1,4.3v0.7c0,2.4-0.3,4-1,5
				c-0.7,1-1.7,1.5-3.2,1.5c-1.2,0-2.1-0.6-2.8-1.7c-0.7-1.1-1-2.8-1-4.9c0-2.1,0.3-3.6,1-4.7C150.9-78.1,151.9-78.7,153.1-78.7z"/>
		</defs>
		<clipPath id="SVGID_6_">
			<use xlink:href="#SVGID_5_"  style="overflow:visible;"/>
		</clipPath>
		<g style="&st9;">
			<path style="&st7;" d="M132.1-85.5c-4.4,0-8,1.2-10.6,3.5c-2.6,2.4-4.1,5.7-4.4,10.1c-0.3,4.5,0.6,7.9,2.7,10.4
				c2.1,2.4,5.3,3.6,9.5,3.6c4,0,7.6-1,9.9-3.1s3.6-5.1,3.9-9l0.3-4.1h-16.8c0.2-1.5,0.8-2.7,1.9-3.5c1.1-0.8,2.5-1.3,4.3-1.3
				c1.6,0,3.1,0.2,4.4,0.5c1.3,0.3,3.2,0.8,4.7,1.6l0.5-6.6c-1.4-0.7-3.2-1.2-4.8-1.5C136.1-85.4,134.3-85.5,132.1-85.5z
				 M130.1-64.2c-1.1,0-2-0.3-2.6-1c-0.7-0.7-1-1.8-1.1-3.2h7.9c-0.1,1.3-0.6,2.3-1.3,3.1C132.2-64.6,131.3-64.2,130.1-64.2z"/>
		</g>
	</g>
	<g id="e_3_">
		<path style="&st3;" d="M129.6-85.5c-4.4,0-7.9,1.2-10.3,3.5c-2.5,2.4-3.7,5.7-3.7,10.1c0,4.5,1.1,7.9,3.4,10.4
			c2.3,2.4,5.5,3.6,9.7,3.6c4,0,7.1-1,9.3-3.1c2.2-2.1,3.3-5.1,3.3-9v-4.1h-16.4c0.1-1.5,0.6-2.7,1.6-3.5c1-0.8,2.4-1.3,4.2-1.3
			c1.6,0,3.1,0.2,4.5,0.5c1.4,0.3,2.8,0.8,4.4,1.6v-6.6c-1.4-0.7-2.9-1.2-4.5-1.5C133.5-85.4,131.7-85.5,129.6-85.5z M129-64.2
			c-1.1,0-2-0.3-2.7-1s-1.2-1.8-1.3-3.2h7.9c0,1.3-0.4,2.3-1.1,3.1C131.1-64.6,130.2-64.2,129-64.2z"/>
	</g>
	<g id="m_shadow_3_">
		<defs>
			<path id="SVGID_7_" d="M129.6-85.5c-4.4,0-7.9,1.2-10.3,3.5c-2.5,2.4-3.7,5.7-3.7,10.1c0,4.5,1.1,7.9,3.4,10.4
				c2.3,2.4,5.5,3.6,9.7,3.6c4,0,7.1-1,9.3-3.1c2.2-2.1,3.3-5.1,3.3-9v-4.1h-16.4c0.1-1.5,0.6-2.7,1.6-3.5c1-0.8,2.4-1.3,4.2-1.3
				c1.6,0,3.1,0.2,4.5,0.5c1.4,0.3,2.8,0.8,4.4,1.6v-6.6c-1.4-0.7-2.9-1.2-4.5-1.5C133.5-85.4,131.7-85.5,129.6-85.5z M129-64.2
				c-1.1,0-2-0.3-2.7-1s-1.2-1.8-1.3-3.2h7.9c0,1.3-0.4,2.3-1.1,3.1C131.1-64.6,130.2-64.2,129-64.2z"/>
		</defs>
		<clipPath id="SVGID_8_">
			<use xlink:href="#SVGID_7_"  style="overflow:visible;"/>
		</clipPath>
		<g style="&st10;">
			<path style="&st7;" d="M109.9-85.1l-1,14.5c-0.1,1.8-0.5,3.2-1,4.1c-0.6,0.9-1.4,1.4-2.4,1.4c-1.4,0-2.4-0.6-3-1.8
				c-0.6-1.2-0.8-3.1-0.6-5.7l0.9-12.4h-9.2l-1,14.5c-0.1,1.8-0.5,3.2-1,4.1c-0.5,0.9-1.3,1.4-2.4,1.4c-1.4,0-2.4-0.6-3-1.9
				c-0.6-1.3-0.8-3.4-0.5-6.3l0.8-11.7h-9.2l-1.9,26.6h6.9l1.4-3.3h0.5c0.6,1.2,1.6,2.2,2.9,2.8c1.3,0.6,2.8,1,4.5,1
				c3.8,0,6.6-1.2,8.3-3.5h0.7c0.7,1.1,1.7,2,3,2.6c1.3,0.6,2.8,0.9,4.4,0.9c3.1,0,5.5-0.8,7.2-2.4c1.6-1.6,2.9-4.1,3.2-7.4
				l1.6-17.3H109.9z"/>
		</g>
	</g>
	<g id="m_3_">
		<path style="&st3;" d="M107.7-85.1v14.5c0,1.8-0.2,3.2-0.7,4.1c-0.5,0.9-1.3,1.4-2.3,1.4c-1.4,0-2.4-0.6-3.1-1.8
			c-0.7-1.2-1-3.1-1-5.7v-12.4h-9.2v14.5c0,1.8-0.2,3.2-0.7,4.1c-0.5,0.9-1.2,1.4-2.3,1.4c-1.4,0-2.5-0.6-3.1-1.9
			c-0.7-1.3-1-3.4-1-6.3v-11.7H75v26.6H82l1.2-3.3h0.5c0.7,1.2,1.7,2.2,3.1,2.8c1.3,0.6,2.9,1,4.6,1c3.8,0,6.5-1.2,8.1-3.5h0.7
			c0.8,1.1,1.8,2,3.1,2.6c1.3,0.6,2.8,0.9,4.4,0.9c3.1,0,5.5-0.8,7-2.4c1.5-1.6,2.3-4.1,2.3-7.4v-17.3H107.7z"/>
	</g>
	<g id="y_shadow_on_m_3_">
		<defs>
			<path id="SVGID_9_" d="M107.7-85.1v14.5c0,1.8-0.2,3.2-0.7,4.1c-0.5,0.9-1.3,1.4-2.3,1.4c-1.4,0-2.4-0.6-3.1-1.8
				c-0.7-1.2-1-3.1-1-5.7v-12.4h-9.2v14.5c0,1.8-0.2,3.2-0.7,4.1c-0.5,0.9-1.2,1.4-2.3,1.4c-1.4,0-2.5-0.6-3.1-1.9
				c-0.7-1.3-1-3.4-1-6.3v-11.7H75v26.6H82l1.2-3.3h0.5c0.7,1.2,1.7,2.2,3.1,2.8c1.3,0.6,2.9,1,4.6,1c3.8,0,6.5-1.2,8.1-3.5h0.7
				c0.8,1.1,1.8,2,3.1,2.6c1.3,0.6,2.8,0.9,4.4,0.9c3.1,0,5.5-0.8,7-2.4c1.5-1.6,2.3-4.1,2.3-7.4v-17.3H107.7z"/>
		</defs>
		<clipPath id="SVGID_10_">
			<use xlink:href="#SVGID_9_"  style="overflow:visible;"/>
		</clipPath>
		<g id="y_shadow_8_" style="&st11;">
			<path style="&st7;" d="M53.4-14.5h14.1l8.1-22.3c0.4-1.2,0.7-2.6,0.9-4.2h0.3c0.1,1.6,0.2,3,0.5,4.1l5.2,22.4h13.7L83.8-55.8
				c-1.6-5.3-3.8-9-6.5-11.1c-2.7-2.2-6.4-3.3-11-3.3c-1.8,0-3.6,0.2-5.5,0.6L60-59.1c1.2-0.3,2.6-0.4,4.2-0.4
				c1.2,0,2.2,0.2,3.1,0.7c0.9,0.5,1.6,1.1,2.2,1.9c0.6,0.8,1.2,2.2,1.8,4.1L53.4-14.5z"/>
		</g>
	</g>
	<g id="b_shadow_3_">
		<defs>
			<polygon id="SVGID_11_" points="114.9,-53.2 139.9,-57.4 139.9,-3.4 114.9,-14.4 			"/>
		</defs>
		<clipPath id="SVGID_12_">
			<use xlink:href="#SVGID_11_"  style="overflow:visible;"/>
		</clipPath>
		<g id="b_6_" style="&st12;">
			<path style="&st7;" d="M114.8-13.1c4.1,0,7.4-1.8,10-5.4c2.6-3.6,5.2-8.7,5.6-15.1c0.5-6.6-0.4-11.8-2.6-15.5
				c-2.2-3.8-6.2-5.8-10.2-5.8c-1.4,0-3.4,0.2-4.5,0.6c-1.1,0.3-2.1,0.8-3,1.4c-0.9,0.6-2,1.6-3.2,2.9h-0.8l-1.9-4H94L91.4,0h12.8
				l1-18.9c1.1,2.1,2.5,3.5,4.1,4.4C110.9-13.5,112.7-13.1,114.8-13.1z M110.4-23.8c-1.8,0-3.1-0.7-3.9-2c-0.8-1.3-1.1-3.5-0.9-6.3
				l0.1-2c0.2-3.3,0.7-5.7,1.7-7.1c0.9-1.5,2.4-2.2,4.3-2.2c1.5,0,2.7,0.8,3.4,2.5c0.7,1.7,1,4.2,0.8,7.4
				C115.4-27,113.6-23.8,110.4-23.8z"/>
		</g>
	</g>
	<g id="b_5_">
		<path style="&st3;" d="M114.4-13c4.2,0,7.6-1.8,10.1-5.3c2.5-3.5,3.7-8.4,3.7-14.7c0-6.3-1.3-11.3-3.8-14.8
			c-2.5-3.6-5.7-5.4-9.8-5.4c-1.4,0-3.4,0.2-4.5,0.5c-1.1,0.3-2.1,0.7-3,1.3c-0.9,0.5-1.9,1.5-3.1,2.7h-0.8l-2.1-3.8H90.7V0h13.4
			v-18.7c1.3,2,2.8,3.5,4.5,4.4C110.3-13.5,112.2-13,114.4-13z M109.5-23.5c-1.9,0-3.2-0.7-4.1-2c-0.9-1.3-1.3-3.3-1.3-6.1v-1.9
			c0-3.2,0.4-5.5,1.3-6.8c0.9-1.4,2.3-2.1,4.3-2.1c1.6,0,2.8,0.8,3.6,2.4c0.8,1.6,1.3,4,1.3,7.1C114.5-26.7,112.8-23.5,109.5-23.5z"
			/>
	</g>
	<g id="y_shadow_5_">
		<defs>
			<path id="SVGID_13_" d="M114.4-13c4.2,0,7.6-1.8,10.1-5.3c2.5-3.5,3.7-8.4,3.7-14.7c0-6.3-1.3-11.3-3.8-14.8
				c-2.5-3.6-6-5.4-10.4-5.4c-1.4,0-2.7,0.2-3.8,0.5c-1.1,0.3-2.1,0.7-3,1.3c-0.9,0.5-1.9,1.5-3.1,2.7h-0.8l-2.1-3.8H90.7V0h13.4
				v-18.7c1.3,2,2.8,3.5,4.5,4.4C110.3-13.5,112.2-13,114.4-13z M109.5-23.5c-1.9,0-3.2-0.7-4.1-2c-0.9-1.3-1.3-3.3-1.3-6.1v-1.9
				c0-3.2,0.4-5.5,1.3-6.8c0.9-1.4,2.3-2.1,4.3-2.1c1.6,0,2.8,0.8,3.6,2.4c0.8,1.6,1.3,4,1.3,7.1C114.5-26.7,112.8-23.5,109.5-23.5z
				"/>
		</defs>
		<clipPath id="SVGID_14_">
			<use xlink:href="#SVGID_13_"  style="overflow:visible;"/>
		</clipPath>
		<g style="&st13;">
			<path style="&st7;" d="M53.4-13.5h14.1l8.1-22.3c0.4-1.2,0.7-2.6,0.9-4.2h0.3c0.1,1.6,0.2,3,0.5,4.1l5.2,22.4h13.7L83.8-54.8
				c-1.6-5.3-3.8-9-6.5-11.1c-2.7-2.2-6.4-3.3-11-3.3c-1.8,0-3.6,0.2-5.5,0.6L60-58.1c1.2-0.3,2.6-0.4,4.2-0.4
				c1.2,0,2.2,0.2,3.1,0.7c0.9,0.5,1.6,1.1,2.2,1.9c0.6,0.8,1.2,2.2,1.8,4.1L53.4-13.5z"/>
		</g>
	</g>
	<g id="y_3_">
		<path style="&st3;" d="M53.4-13.5h14.1l7.6-23.3h0.3l7.2,23.3h13.7L80.9-54.8c-2-5.3-4.4-9-7.3-11.1c-2.9-2.2-6.6-3.3-11.2-3.3
			c-1.8,0-3.6,0.2-5.5,0.6v10.5c1.2-0.3,2.6-0.4,4.1-0.4c1.2,0,2.2,0.2,3.1,0.7c0.9,0.5,1.7,1.1,2.3,1.9c0.7,0.8,1.4,2.2,2.1,4.1
			L53.4-13.5z"/>
	</g>
	<g id="o_shadow_3_">
		<defs>
			<path id="SVGID_15_" d="M53.4-13.5h14.1l6.6-22.3c0.3-1.2,0.5-2.6,0.7-4.2H75c0.2,1.6,0.5,3,0.8,4.1l6.8,22.4h13.7L80.9-54.8
				c-2-5.3-4.4-9-7.3-11.1c-2.9-2.2-6.6-3.3-11.2-3.3c-1.8,0-3.6,0.2-5.5,0.6v10.5c1.2-0.3,2.6-0.4,4.1-0.4c1.2,0,2.2,0.2,3.1,0.7
				c0.9,0.5,1.7,1.1,2.3,1.9c0.7,0.8,1.4,2.2,2.1,4.1L53.4-13.5z"/>
		</defs>
		<clipPath id="SVGID_16_">
			<use xlink:href="#SVGID_15_"  style="overflow:visible;"/>
		</clipPath>
		<g id="o_9_" style="&st14;">
			<path style="&st7;" d="M64.9-33c0.4-6.4-0.9-11.3-4.1-14.9c-3.2-3.6-7.8-5.3-14-5.3c-5.9,0-10.7,1.8-14.5,5.5
				c-3.7,3.6-5.8,8.5-6.3,14.7c-0.4,6.3,0.9,11.2,4.1,14.8c3.2,3.5,7.8,5.3,14,5.3c3.8,0,7.2-0.8,10.3-2.4c3-1.6,5.5-3.9,7.3-7
				C63.6-25.5,64.6-29,64.9-33z M39.8-33c0.2-3.3,0.9-5.9,1.9-7.6c1-1.7,2.6-2.6,4.7-2.6c2.1,0,3.5,0.9,4.2,2.6
				c0.7,1.7,1,4.3,0.8,7.6c-0.2,3.3-0.8,5.8-1.8,7.5c-1,1.7-2.5,2.5-4.6,2.5c-2.1,0-3.5-0.8-4.2-2.5C39.8-27.2,39.5-29.7,39.8-33z"
				/>
		</g>
	</g>
	<g id="o_8_">
		<path style="&st3;" d="M62.7-33.8c-0.2-6.4-2-11.3-5.5-14.7c-3.5-3.5-8.3-5.1-14.5-5c-5.9,0.1-10.5,2.1-13.9,5.8
			c-3.4,3.7-5,8.7-4.9,14.9c0.2,6.3,2,11.2,5.5,14.6c3.5,3.4,8.3,5.1,14.5,4.9c3.8-0.1,7.2-1,10-2.7c2.9-1.7,5.1-4.1,6.6-7.1
			C62.1-26.2,62.8-29.8,62.7-33.8z M37.6-33.2c-0.1-3.3,0.3-5.9,1.1-7.7c0.8-1.8,2.3-2.7,4.4-2.7c2.1-0.1,3.6,0.8,4.5,2.5
			c0.9,1.7,1.4,4.3,1.5,7.6c0.1,3.3-0.3,5.8-1.1,7.5c-0.8,1.7-2.3,2.6-4.4,2.6c-2.1,0.1-3.6-0.8-4.5-2.4
			C38.2-27.3,37.7-29.8,37.6-33.2z"/>
	</g>
	<g id="t_shadow_3_">
		<defs>
			<path id="SVGID_17_" d="M62.7-33.8c-0.2-6.4-2-11.3-5.5-14.7c-3.5-3.5-8.3-5.1-14.5-5c-5.9,0.1-10.5,2.1-13.9,5.8
				c-3.4,3.7-5,8.7-4.9,14.9c0.2,6.3,2,11.2,5.5,14.6c3.5,3.4,8.3,5.1,14.5,4.9c3.8-0.1,7.2-1,10-2.7c2.9-1.7,5.1-4.1,6.6-7.1
				C62.1-26.2,62.8-29.8,62.7-33.8z M37.6-33.2c-0.1-3.3,0.3-5.9,1.1-7.7c0.8-1.8,2.3-2.7,4.4-2.7c2.1-0.1,3.6,0.8,4.5,2.5
				c0.9,1.7,1.4,4.3,1.5,7.6c0.1,3.3-0.3,5.8-1.1,7.5c-0.8,1.7-2.3,2.6-4.4,2.6c-2.1,0.1-3.6-0.8-4.5-2.4
				C38.2-27.3,37.7-29.8,37.6-33.2z"/>
		</defs>
		<clipPath id="SVGID_18_">
			<use xlink:href="#SVGID_17_"  style="overflow:visible;"/>
		</clipPath>
		<g id="t_Shadow_3_" style="&st15;">
			<path style="&st7;" d="M24.4-42.4c1.8,0,3.9,0.3,6.4,1.2l0.4-9.8c-1.8-0.7-3.5-1.2-5.1-1.5c-1.6-0.3-3.5-0.4-5.7-0.4
				c-4.5,0.1-7.8,1.3-9.9,3.6c-2.1,2.3-3.2,5.7-3.4,10.3l-0.7,16L1.7-23l-0.2,5.5l5.8,4.1l3.1,8.1l8.8-0.2l0.3-7.8l9.5-0.2l0.4-10.1
				l-9.5,0.2l0.7-15.1C20.7-41.1,21.9-42.4,24.4-42.4z"/>
		</g>
	</g>
	<g id="t_3_">
		<path style="&st3;" d="M21.8-42.6c1.8,0,4,0.4,6.5,1.3v-9.8c-1.8-0.8-3.5-1.3-5.2-1.7c-1.6-0.3-3.5-0.5-5.7-0.5
			c-4.5,0-7.7,1.1-9.7,3.3c-2,2.2-3,5.6-3,10.2v16H0v5.5l6,4.2l3.5,8.2h8.8v-7.8h9.5v-10h-9.5v-15.1C18.2-41.4,19.4-42.6,21.8-42.6z
			"/>
	</g>
</symbol>
<g id="Background" style="&st16;">
	<rect x="-491" y="-180" style="&st17;" width="1280" height="800"/>
</g>
<g id="No_Rollover">
	<g>
		<polygon id="Box_Area" style="&st3;" points="-271.5,330 -329,356.3 -329,444.4 -271.5,455 -214,444.4 -214,356.3 		"/>
		
			<use xlink:href="#ToyBox_Media_Box_Icon_Full_Color"  width="72" height="79.2" id="XMLID_1_" y="-79.2" transform="matrix(1.25 0 0 -1.2626 -316 342.9756)" style="overflow:visible;"/>
	</g>
	
		<use xlink:href="#ToyBox_Media_Box_Icon_Full_Color"  width="72" height="79.2" id="XMLID_2_" y="-79.2" transform="matrix(1.25 0 0 -1.2626 -451 342.4756)" style="overflow:visible;"/>
	<g id="Blue_Fission_Logo">
		<g>
			<g id="Text_9_">
				<path style="&st18;" d="M-41,499.6v-40.1h10.5c4.7,0,7.5,0.9,9.6,2.6c2.1,1.7,3.2,4.3,3.2,7.4c0,1.2-0.3,2.5-0.8,3.6
					c-0.5,1.1-1.3,2.2-2.1,3c-0.8,0.9-1.8,1.6-2.9,2.1c-1.1,0.6-1.9,0.7-1.9,0.7s1.7,0.3,3.1,0.8c1.3,0.5,2.6,1.2,3.5,2.1
					c0.9,0.8,1.6,1.9,2.1,3c0.5,1.1,0.8,2.5,0.8,3.9c0,1.8-0.4,3.4-0.9,4.7c-0.6,1.3-1.5,2.3-2.6,3.2c-1.1,0.9-2.6,1.6-4.2,2.1
					c-1.6,0.5-3.4,0.6-5.4,0.7H-41z M-39.9,478.6l9.7,0c1.5,0.1,4.3-0.4,5.2-0.8c1.4-0.6,2.6-1.3,3.5-2.2c0.9-0.9,1.6-1.9,2-2.9
					c0.4-1.1,0.6-2.1,0.6-3.2c0-2.9-1-5.1-2.9-6.7c-1.9-1.6-4.8-2.4-8.7-2.4l-9.4,0V478.6z M-39.8,479.7v18.8H-29
					c1.9,0,3.5-0.2,5-0.6c1.5-0.4,2.7-1,3.7-1.8c1-0.8,1.8-1.8,2.3-3c0.5-1.2,0.8-2.6,0.8-4.2c0-1.4-0.3-2.7-0.8-3.8
					c-0.6-1.1-1.4-2.1-2.4-2.9c-1-0.8-2.2-1.5-3.7-1.8c-1.4-0.3-3.1-0.6-4.9-0.6H-39.8z"/>
				<path style="&st18;" d="M-6.7,498.5h20.2v1.1H-7.8v-40.1h1.1V498.5z"/>
				<path style="&st18;" d="M31.6,499c2.1,0,3.9-0.4,5.6-1.1c1.6-0.7,3-1.8,4.2-3.1c1.1-1.3,2-2.8,2.6-4.5c0.6-1.7,0.9-3.6,0.9-5.8
					l0-25h1.2v24.8c0,2.1-0.3,4.2-0.9,6.1c-0.7,1.9-1.5,3.6-2.8,5c-1.3,1.4-2.8,2.5-4.6,3.4c-1.8,0.8-3.8,1.2-6.1,1.2
					s-4.3-0.4-6.1-1.2c-1.8-0.8-3.4-1.9-4.6-3.4c-1.3-1.4-2.1-3.1-2.8-5c-0.7-1.9-0.9-3.9-0.9-6.1v-24.8h1.2l0,25.1
					c0,2,0.3,3.8,0.9,5.6c0.6,1.7,1.5,3.3,2.6,4.6c1.1,1.3,2.5,2.3,4.2,3.1C27.6,498.6,29.5,499,31.6,499z"/>
				<path style="&st18;" d="M78.4,459.5v1H55.9v18.1h19.3v1H55.9v18.8h22.8l0,1.1H54.8v-40.1H78.4z"/>
				<path style="&st18;" d="M120.9,459.5v1H98.4v18.7h19.6v1H98.4v19.3h-1.1v-40H120.9z"/>
				<path style="&st18;" d="M189.9,463.6c-0.1,0.1-0.4,0.1-0.5,0.1c-0.4,0-0.7-0.3-1-0.7c-0.3-0.4-0.9-0.9-1.6-1.3
					c-0.8-0.5-1.3-0.8-2.4-1.1c-1.1-0.4-2.3-0.6-3.9-0.6c-1.6,0-3,0.2-4.2,0.7c-1.3,0.5-2.2,1.2-3.1,2c-0.8,0.8-1.5,1.9-1.9,3
					c-0.3,0.9-0.6,2-0.6,3.2c0,1.5,0.3,2.6,0.9,3.6c0.6,1,1.4,1.8,2.3,2.5c1,0.7,2.1,1.3,3.3,1.7c1.2,0.5,2.5,0.9,3.8,1.3
					c1.3,0.4,2.5,0.9,3.8,1.3c1.2,0.5,2.4,1.2,3.3,1.9c1,0.7,1.7,1.6,2.3,2.7c0.6,1.1,0.8,2.5,0.8,4.1c0,1.6-0.3,3.3-0.8,4.7
					c-0.5,1.4-1.3,2.6-2.4,3.7c-1,1-2.3,1.9-3.8,2.5c-1.5,0.6-3,1-5.3,1c-1.9,0-3.1-0.3-4.1-0.5c-1.1-0.2-2-0.7-2.9-1.1
					c-0.9-0.4-1.7-1.2-2.4-1.8c-0.7-0.6-1.3-1.3-2-2.1l0.3-0.2c0.1-0.1,0.3-0.2,0.6-0.1c0.3,0.1,0.3,0.2,0.6,0.4
					c0.2,0.2,0.5,0.5,0.9,0.9c0.4,0.4,0.7,0.7,1.2,1.1c0.5,0.4,1.2,0.8,1.9,1.2c0.8,0.4,1.6,0.7,2.6,0.9c1,0.2,2.1,0.4,3.3,0.4
					c1.5,0,3.2-0.2,4.6-0.8c1.4-0.6,2.6-1.4,3.6-2.4c1-1,1.7-2.1,2.3-3.5c0.5-1.3,0.8-2.8,0.7-4.1c0-0.8-0.2-2.2-0.6-3.1
					c-0.4-0.9-0.9-1.7-1.6-2.3c-0.7-0.6-1.3-1.1-2.2-1.6c-0.9-0.5-1.8-0.9-2.8-1.2c-1-0.4-2-0.7-3-1c-1-0.3-2-0.7-3-1
					c-1-0.4-1.9-0.8-2.8-1.3c-0.9-0.5-1.7-1.2-2.4-1.8c-0.7-0.7-1.2-1.4-1.5-2.3c-0.4-0.9-0.7-2.4-0.7-3.7c0-1.3,0.2-2.4,0.7-3.6
					c0.5-1.2,1.2-2.3,2.1-3.2c0.9-0.9,2-1.7,3.4-2.2c1.3-0.5,3.1-0.9,4.8-0.9c1.9,0,3.7,0.4,5.1,1s3.3,1.9,4.5,3.4L189.9,463.6z"/>
				<path style="&st18;" d="M201.4,499.5h-1.1v-39h-2.7v-1.1h3.9V499.5z"/>
				<path style="&st18;" d="M260.4,459.8l27.5,37.5v-37.7h1.1v39.9h-0.4c-0.1,0-0.3-0.1-0.4-0.2l-27.6-37.7v37.9h-1.1v-39.9l0.5,0
					C260.2,459.5,260.4,459.8,260.4,459.8z"/>
				<path style="&st18;" d="M162,463.6c-0.1,0.1-0.4,0.1-0.5,0.1c-0.4,0-0.7-0.3-1-0.7c-0.3-0.4-0.9-0.9-1.6-1.3
					c-0.8-0.5-1.3-0.8-2.4-1.1c-1.1-0.4-2.3-0.6-3.9-0.6c-1.6,0-3,0.2-4.2,0.7c-1.3,0.5-2.2,1.2-3.1,2c-0.8,0.8-1.5,1.9-1.9,3
					c-0.3,0.9-0.6,2-0.6,3.2c0,1.5,0.3,2.6,0.9,3.6c0.6,1,1.4,1.8,2.3,2.5c1,0.7,2.1,1.3,3.3,1.7c1.2,0.5,2.5,0.9,3.8,1.3
					c1.3,0.4,2.5,0.9,3.8,1.3c1.2,0.5,2.4,1.2,3.3,1.9c1,0.7,1.7,1.6,2.3,2.7c0.6,1.1,0.8,2.5,0.8,4.1c0,1.6-0.3,3.3-0.8,4.7
					c-0.5,1.4-1.3,2.6-2.4,3.7c-1,1-2.3,1.9-3.8,2.5c-1.5,0.6-3,1-5.3,1c-1.9,0-3.1-0.3-4.1-0.5c-1.1-0.2-2-0.7-2.9-1.1
					c-0.9-0.4-1.7-1.2-2.4-1.8c-0.7-0.6-1.3-1.3-2-2.1l0.3-0.2c0.1-0.1,0.3-0.2,0.6-0.1c0.3,0.1,0.3,0.2,0.6,0.4
					c0.2,0.2,0.5,0.5,0.9,0.9c0.4,0.4,0.7,0.7,1.2,1.1c0.5,0.4,1.2,0.8,1.9,1.2c0.8,0.4,1.6,0.7,2.6,0.9c1,0.2,2.1,0.4,3.3,0.4
					c1.5,0,3.2-0.2,4.6-0.8c1.4-0.6,2.6-1.4,3.6-2.4c1-1,1.7-2.1,2.3-3.5c0.5-1.3,0.8-2.8,0.7-4.1c0-0.8-0.2-2.2-0.6-3.1
					c-0.4-0.9-0.9-1.7-1.6-2.3c-0.7-0.6-1.3-1.1-2.2-1.6c-0.9-0.5-1.8-0.9-2.8-1.2c-1-0.4-2-0.7-3-1c-1-0.3-2-0.7-3-1
					c-1-0.4-1.9-0.8-2.8-1.3c-0.9-0.5-1.7-1.2-2.4-1.8c-0.7-0.7-1.2-1.4-1.5-2.3c-0.4-0.9-0.7-2.4-0.7-3.7c0-1.3,0.2-2.4,0.7-3.6
					c0.5-1.2,1.2-2.3,2.1-3.2c0.9-0.9,2-1.7,3.4-2.2c1.3-0.5,3.1-0.9,4.8-0.9c1.9,0,3.7,0.4,5.1,1s3.3,1.9,4.5,3.4L162,463.6z"/>
				<path style="&st18;" d="M131.1,499.5H130v-39h-2.7v-1.1h3.9V499.5z"/>
			</g>
			<g id="Power_Symbol_9_">
				<path style="&st18;" d="M216.2,464.1c0,0,0.8,1.2,0.8,1.1c-3.8,2.9-7.1,8.8-7.1,14.6c0,10.3,8.4,18.7,18.7,18.7
					c10.3,0,18.7-8.4,18.7-18.7c0-9.3-7.1-14.6-7.1-14.6l0.9-1.1c4.6,3.7,7.6,9.3,7.6,15.7c0,11.1-9,20.1-20.1,20.1
					c-11.1,0-20.1-9-20.1-20.1C208.6,473.5,211.5,467.8,216.2,464.1z"/>
				<path style="&st18;" d="M225.3,459.4h4v17.9H228v-16.6l-2.6,0V459.4z"/>
			</g>
		</g>
	</g>
	<g id="Digital_Garden_Media_Logo">
		<path style="&st18;" d="M-17.2,352.4H-41V400h23.8c13.1,0,23.8-10.7,23.8-23.8C6.6,363-4.1,352.4-17.2,352.4z M-17.2,396.6h-20.4
			v-40.8h20.4c11.3,0,20.4,9.2,20.4,20.4S-5.9,396.6-17.2,396.6z"/>
		<path style="&st18;" d="M-8.1,374.5c-2.5-2.3-5.7-3.5-9.1-3.5c-3.6,0-7.1,1.4-9.6,4l-1.2,1.2l1.2,1.2c2.6,2.6,6,4,9.6,4
			c3.4,0,6.6-1.2,9.1-3.5h4.5c-0.8,6.7-6.6,12-13.6,12c-7.5,0-13.7-6.1-13.7-13.7s6.1-13.7,13.7-13.7c3,0,5.9,1,8.3,2.8
			c2,1.5,3.6,3.7,4.5,6h3.6c-1-3.5-3.2-6.6-6-8.7c-3-2.3-6.6-3.5-10.3-3.5c-9.4,0-17.1,7.7-17.1,17.1c0,9.4,7.7,17.1,17.1,17.1
			c9.4,0,17.1-7.7,17.1-17.1v-1.7H-8.1z M-17.2,378c-2.1,0-4.1-0.6-5.8-1.8c1.7-1.2,3.7-1.8,5.8-1.8s4.1,0.6,5.8,1.8
			C-13.1,377.3-15.1,378-17.2,378z"/>
		<path style="&st18;" d="M19.1,383.7h-5.7v-15.3h5.7c4.8,0,8.1,3.3,8.1,7.6C27.2,380.3,23.9,383.7,19.1,383.7z M19.1,370.8h-3v10.4
			h3c3.2,0,5.3-2.2,5.3-5.2C24.4,373,22.3,370.8,19.1,370.8z M33.3,368.4v15.3h-2.7v-15.3H33.3z M44.6,383.9c-4.8,0-7.9-3.4-7.9-7.9
			c0-4.3,3.3-7.9,7.9-7.9c2.7,0,4.3,0.7,5.9,2.1l-1.7,2c-1.2-1-2.3-1.6-4.3-1.6c-2.8,0-5,2.4-5,5.4c0,3.2,2.1,5.5,5.2,5.5
			c1.4,0,2.8-0.5,3.7-1.2v-2.9h-3.9v-2.3H51v6.4C49.5,382.8,47.4,383.9,44.6,383.9z M57.4,368.4v15.3h-2.7v-15.3H57.4z M67.9,383.7
			h-2.7v-12.8h-4.9v-2.5h12.4v2.5h-4.9V383.7z M88.3,383.7h-2.8l-1.6-3.7h-7.2l-1.6,3.7h-2.8l6.7-15.4h2.5L88.3,383.7z M80.3,371.5
			l-2.6,6.1h5.3L80.3,371.5z M90.9,368.4h2.7v12.8h8v2.4H90.9V368.4z M118.2,383.9c-4.8,0-7.9-3.4-7.9-7.9c0-4.3,3.3-7.9,7.9-7.9
			c2.7,0,4.3,0.7,5.9,2.1l-1.7,2c-1.2-1-2.3-1.6-4.3-1.6c-2.8,0-5,2.4-5,5.4c0,3.2,2.1,5.5,5.2,5.5c1.4,0,2.8-0.5,3.7-1.2v-2.9h-3.9
			v-2.3h6.5v6.4C123.1,382.8,121,383.9,118.2,383.9z M142.8,383.7h-2.8l-1.6-3.7h-7.2l-1.6,3.7h-2.8l6.7-15.4h2.5L142.8,383.7z
			 M134.7,371.5l-2.6,6.1h5.3L134.7,371.5z M155.2,383.7l-3.8-5.3h-3.4v5.3h-2.7v-15.3h6.8c3.5,0,5.7,1.9,5.7,4.9
			c0,2.5-1.5,4.1-3.6,4.7l4.1,5.8H155.2z M152,370.8h-3.9v5.1h3.9c1.9,0,3.1-1,3.1-2.6C155.2,371.7,154,370.8,152,370.8z
			 M166.9,383.7h-5.7v-15.3h5.7c4.8,0,8.1,3.3,8.1,7.6C175,380.3,171.7,383.7,166.9,383.7z M166.9,370.8h-3v10.4h3
			c3.2,0,5.3-2.2,5.3-5.2C172.2,373,170.1,370.8,166.9,370.8z M189.6,370.8H181v4h7.7v2.4H181v4.1h8.8v2.4h-11.5v-15.3h11.3V370.8z
			 M203.6,368.4h2.6v15.3H204l-8.4-10.9v10.9h-2.6v-15.3h2.5l8.2,10.6V368.4z M224.3,379.9L224.3,379.9l-4.9-7.2v10.9h-2.6v-15.3
			h2.9l4.7,7.2l4.7-7.2h2.9v15.3h-2.7v-11L224.3,379.9z M247,370.8h-8.7v4h7.7v2.4h-7.7v4.1h8.8v2.4h-11.5v-15.3H247V370.8z
			 M256,383.7h-5.7v-15.3h5.7c4.8,0,8.1,3.3,8.1,7.6C264.2,380.3,260.9,383.7,256,383.7z M256,370.8h-3v10.4h3
			c3.2,0,5.3-2.2,5.3-5.2C261.4,373,259.3,370.8,256,370.8z M270.3,368.4v15.3h-2.7v-15.3H270.3z M289,383.7h-2.8l-1.6-3.7h-7.2
			l-1.6,3.7H273l6.7-15.4h2.5L289,383.7z M281,371.5l-2.6,6.1h5.3L281,371.5z"/>
	</g>
	<g id="Hilton_Logo">
		<path style="&st19;" d="M504,240.8v47.8h-1.1v-24.2h-33.8v24.2H468v-47.8h1.1v22.4h33.8v-22.4H504L504,240.8z M521.9,240.8v47.8
			h-1.1v-47.8H521.9L521.9,240.8z M538.6,288.6v-47.8h1.1v46.7H568v1.1H538.6L538.6,288.6z M583.5,288.6h-1.1v-46.7h-17.3v-1.1H601
			v1.1h-17.5V288.6L583.5,288.6z M628.6,239.8c6.3,0,11.5,2.3,15.7,6.9c4.1,4.6,6.2,10.6,6.2,18c0,7.3-2.1,13.3-6.2,17.9
			c-4.1,4.6-9.5,6.9-16,6.9c-6.5,0-11.9-2.3-16-6.9c-4.1-4.6-6.2-10.6-6.2-17.9c0-7.5,2.1-13.5,6.2-18
			C616.6,242.1,622,239.8,628.6,239.8L628.6,239.8z M628,241c-6,0-10.9,2.2-14.8,6.5c-3.9,4.4-5.9,10.1-5.9,17.2
			c0,7.1,2,12.8,5.9,17.1c3.9,4.4,9,6.5,15.2,6.5c6.2,0,11.2-2.2,15.2-6.5c3.9-4.4,5.9-10.1,5.9-17.1c0-7.2-2-13-5.9-17.3
			C639.5,243.1,634.3,241,628,241L628,241z M662.9,288.6v-47.8h1.6l33.3,46.3v-46.3h1.1v47.8h-1.6l-33.4-46.5v46.5H662.9
			L662.9,288.6z"/>
		<path style="&st18;" d="M440.1,289.7v-3H439v-0.4h2.7v0.4h-1.1v3H440.1L440.1,289.7z M442.1,289.7v-3.4h0.7l0.8,2.4
			c0.1,0.2,0.1,0.4,0.2,0.5c0-0.1,0.1-0.3,0.2-0.5l0.8-2.3h0.6v3.4h-0.4v-2.8l-1,2.8h-0.4l-1-2.9v2.9H442.1L442.1,289.7z"/>
		<path style="&st18;" d="M437,290h0.1v-42.2H369V290l0.3,0c0.2-3.1,0.8-6.1,1.8-8.9c3.2-14.7,16.3-25.7,31.9-25.7
			c15.2,0,28,10.4,31.6,24.5C436,283.1,436.7,286.4,437,290L437,290z"/>
		<path style="&st18;" d="M369.1,202H369v42.2h68.1V202l-0.3,0c-0.2,3.1-0.8,6.1-1.8,8.9c-3.2,14.7-16.3,25.7-31.9,25.7
			c-15.2,0-28-10.4-31.6-24.5C370.2,208.9,369.4,205.5,369.1,202L369.1,202z"/>
	</g>
	<g id="Pixelated_Table_Logo">
		<g>
			<polygon style="&st18;" points="17.7,270.6 -41,270.6 -24.8,230 12.7,230 			"/>
			<polygon style="&st18;" points="48.8,270.6 36.3,270.6 24.4,230 32.6,230 			"/>
			<polygon style="&st18;" points="17.7,270.6 -41,270.6 -32.9,290 -23.1,290 -27.4,274.2 17.1,274.2 			"/>
			<polygon style="&st18;" points="33.4,270.6 20.9,270.6 20.5,274.2 32.2,274.2 			"/>
			<polygon style="&st18;" points="48.8,270.6 36.3,270.6 30.9,290 41.1,290 			"/>
			<g>
				<polygon style="&st18;" points="19.7,262.2 20.9,270.6 33.4,270.6 31.2,262.2 				"/>
				<polygon style="&st18;" points="30.7,260.3 22.6,230 14.8,230 19.4,260.3 				"/>
			</g>
		</g>
		<g>
			<path style="&st18;" d="M68.3,269.7c0,0-1.3,0.9-3,0.9c-1.5,0-2.9-1-2.9-2.5v-13.5h-2.4V254h2.4v-5.8h0.6v5.8h4v0.6h-4v13.5
				c0,1.2,1.1,1.9,2.2,1.9c1.5,0,2.6-0.7,2.7-0.8L68.3,269.7z"/>
			<path style="&st18;" d="M83.7,270.5h-0.6v-9.2c0-4.6-1.6-6.9-4.6-6.9c-3.1,0-6.1,2.5-7,5.7v10.4h-0.6v-23.2h0.6v11
				c1.4-2.7,4.1-4.5,6.9-4.5c3.4,0,5.2,2.6,5.2,7.6V270.5z"/>
			<path style="&st18;" d="M87.3,262.1c0-4.6,3.5-8.4,7.8-8.4c4.4,0,7.9,3.8,8,8.5v0.3H87.9c0.3,4.3,3.5,7.6,7.3,7.6
				c2.5,0,5-1.4,5.9-3.5l0.6,0.2c-0.9,2.3-3.7,3.9-6.6,3.9C90.9,270.8,87.3,266.9,87.3,262.1z M102.4,262c-0.3-4.4-3.3-7.6-7.3-7.6
				s-7,3.2-7.2,7.6H102.4z"/>
			<path style="&st18;" d="M115.4,266.7v10.6h-0.6V254h0.6v3.5c1.4-2.2,3.9-3.8,6.5-3.8c4.6,0,8,4.3,8,8.6c0,4.5-3.1,8.5-7.7,8.5
				C119.2,270.8,116.8,268.9,115.4,266.7z M129.2,262.3c0-4.1-3.2-7.9-7.3-7.9c-2.5,0-6.3,2.4-6.5,5.1v5.9c1.2,2.7,3.8,4.8,6.7,4.8
				C126.4,270.2,129.2,266.2,129.2,262.3z"/>
			<path style="&st18;" d="M133.6,249.7v-2.4h0.6v2.4H133.6z M133.6,270.5V254h0.6v16.5H133.6z"/>
			<path style="&st18;" d="M138,254l5.9,7.4l0.3,0.4l0.3-0.4l5.9-7.4h0.8l-6.6,8.3l6.6,8.2h-0.8l-5.9-7.4l-0.3-0.4l-0.3,0.4
				l-5.9,7.4h-0.8l6.6-8.2l-6.6-8.3H138z"/>
			<path style="&st18;" d="M152.4,262.1c0-4.6,3.5-8.4,7.8-8.4c4.4,0,7.9,3.8,8,8.5v0.3H153c0.3,4.3,3.5,7.6,7.3,7.6
				c2.5,0,5-1.4,5.9-3.5l0.6,0.2c-0.9,2.3-3.7,3.9-6.6,3.9C156,270.8,152.4,266.9,152.4,262.1z M167.5,262c-0.3-4.4-3.3-7.6-7.3-7.6
				c-3.9,0-7,3.2-7.2,7.6H167.5z"/>
			<path style="&st18;" d="M171.8,247.3h0.6V268c0,1.2,0.8,2,2.1,2c0.5,0,1.2-0.1,1.7-0.3l0.2,0.5c-0.6,0.2-1.6,0.4-2.2,0.4
				c-1.5,0-2.5-1.1-2.5-2.6V247.3z"/>
			<path style="&st18;" d="M177,265.8c0-2.8,2.8-4.7,6.8-4.7c1.9,0,4,0.4,5.5,0.9v-1.9c0-3.4-2.2-5.7-5.4-5.7c-1.6,0-3.5,0.7-5.3,2
				l-0.4-0.5c2.1-1.4,4-2.2,5.7-2.2c3.7,0,6,2.5,6,6.4v9.1c0,0.4,0.2,0.6,0.5,0.6v0.6c-0.3,0-0.3,0-0.4-0.1
				c-0.4-0.2-0.7-0.7-0.7-1.2v-1.5c-1.5,2-4.1,3.1-7,3.1C179.4,270.8,177,268.6,177,265.8z M188.9,267.2c0.3-0.4,0.5-0.9,0.5-1.3
				v-3.3c-1.7-0.7-3.6-1-5.5-1c-3.7,0-6.2,1.6-6.2,4.1c0,2.5,2.1,4.4,4.7,4.4C185.2,270.2,187.7,269,188.9,267.2z"/>
			<path style="&st18;" d="M201.2,269.7c0,0-1.3,0.9-3,0.9c-1.5,0-2.9-1-2.9-2.5v-13.5h-2.4V254h2.4v-5.8h0.6v5.8h4v0.6h-4v13.5
				c0,1.2,1.1,1.9,2.2,1.9c1.5,0,2.6-0.7,2.7-0.8L201.2,269.7z"/>
			<path style="&st18;" d="M202.2,262.1c0-4.6,3.5-8.4,7.8-8.4c4.4,0,7.9,3.8,8,8.5v0.3h-15.1c0.3,4.3,3.5,7.6,7.3,7.6
				c2.5,0,5-1.4,5.9-3.5l0.6,0.2c-0.9,2.3-3.7,3.9-6.6,3.9C205.8,270.8,202.2,266.9,202.2,262.1z M217.2,262
				c-0.3-4.4-3.3-7.6-7.3-7.6c-3.9,0-7,3.2-7.2,7.6H217.2z"/>
			<path style="&st18;" d="M220.2,262.3c0-4.5,3.2-8.6,7.7-8.6c3,0,5.4,1.9,6.7,4.1v-10.6h0.6v22c0,0.4,0.2,0.6,0.5,0.6v0.6
				c-0.2,0-0.3,0-0.4-0.1c-0.5-0.2-0.7-0.7-0.7-1.2v-2.2c-1.4,2.2-3.9,3.8-6.5,3.8C223.6,270.8,220.2,266.5,220.2,262.3z
				 M234.6,265.1v-5.9c-1-2.6-4.1-4.8-6.7-4.8c-4.3,0-7,4-7,7.9c0,4.1,3.2,7.9,7.3,7.9C230.8,270.2,234.5,267.8,234.6,265.1z"/>
			<path style="&st18;" d="M255,269.7c0,0-1.3,0.9-3,0.9c-1.5,0-2.9-1-2.9-2.5v-13.5h-2.4V254h2.4v-5.8h0.6v5.8h4v0.6h-4v13.5
				c0,1.2,1.1,1.9,2.2,1.9c1.5,0,2.6-0.7,2.7-0.8L255,269.7z"/>
			<path style="&st18;" d="M256.1,265.8c0-2.8,2.8-4.7,6.8-4.7c1.9,0,4,0.4,5.5,0.9v-1.9c0-3.4-2.2-5.7-5.4-5.7
				c-1.6,0-3.5,0.7-5.3,2l-0.4-0.5c2.1-1.4,4-2.2,5.7-2.2c3.7,0,6,2.5,6,6.4v9.1c0,0.4,0.2,0.6,0.5,0.6v0.6c-0.3,0-0.3,0-0.4-0.1
				c-0.4-0.2-0.7-0.7-0.7-1.2v-1.5c-1.5,2-4.1,3.1-7,3.1C258.5,270.8,256.1,268.6,256.1,265.8z M268,267.2c0.3-0.4,0.5-0.9,0.5-1.3
				v-3.3c-1.7-0.7-3.6-1-5.5-1c-3.7,0-6.2,1.6-6.2,4.1c0,2.5,2.1,4.4,4.7,4.4C264.3,270.2,266.9,269,268,267.2z"/>
			<path style="&st18;" d="M274.6,267.1v3.4H274v-23.2h0.6v10.6c1.7-2.4,3.8-4.1,6.7-4.1c4.8,0,7.7,4.5,7.7,8.6c0,4.5-3.5,8.5-8,8.5
				C278.4,270.8,275.9,269.2,274.6,267.1z M288.4,262.3c0-4.1-2.9-7.9-7-7.9c-3.1,0-5.5,2.3-6.7,4.8v6c0.2,2.7,3.9,5,6.5,5
				C285.3,270.2,288.4,266.2,288.4,262.3z"/>
			<path style="&st18;" d="M293,247.3h0.6V268c0,1.2,0.8,2,2.1,2c0.5,0,1.2-0.1,1.8-0.3l0.2,0.5c-0.6,0.2-1.6,0.4-2.2,0.4
				c-1.5,0-2.5-1.1-2.5-2.6V247.3z"/>
			<path style="&st18;" d="M298.5,262.1c0-4.6,3.5-8.4,7.8-8.4c4.4,0,7.9,3.8,8,8.5v0.3h-15.1c0.3,4.3,3.5,7.6,7.3,7.6
				c2.5,0,5-1.4,5.9-3.5l0.6,0.2c-0.9,2.3-3.7,3.9-6.6,3.9C302.1,270.8,298.5,266.9,298.5,262.1z M313.6,262
				c-0.3-4.4-3.3-7.6-7.3-7.6c-3.9,0-7,3.2-7.2,7.6H313.6z"/>
		</g>
	</g>
	<g id="MGM_Logo">
		<path style="&st18;" d="M699,372.2c0,2.1-0.9,3.7-2.7,5c-1.8,1.2-4.1,1.9-7,1.9c-3.6,0-6.9-0.6-9.8-1.9l1-3.5
			c3.1,1.1,6.1,1.6,8.7,1.6c3.5,0,5.3-1,5.3-2.9c0-0.8-0.4-1.4-1.2-1.9c-0.6-0.4-2.2-1.1-4.8-2c-3-1.1-5.1-2.2-6.2-3.1
			c-1.3-1.1-1.9-2.6-1.9-4.4c0-4.1,3.1-6.2,9.4-6.2c3.1,0,5.9,0.4,8.5,1.1l-0.7,3.7c-2.6-0.6-5.2-0.9-7.8-0.9
			c-1.8,0-3.1,0.2-3.9,0.5c-0.7,0.3-1.1,0.9-1.1,1.7c0,0.8,0.5,1.5,1.4,2.1c0.7,0.4,2.4,1.1,5.2,2.2c3,1.2,4.9,2.1,5.8,2.8
			C698.4,368.9,699,370.3,699,372.2"/>
		<g>
			<defs>
				<path id="SVGID_19_" d="M372,362.8c0,5.6,0.8,10.8,3.7,15v-3.7c0-4.6,3.7-7.9,7.4-9.9C379.4,365.4,375.2,364.6,372,362.8z"/>
			</defs>
			<use xlink:href="#SVGID_19_"  style="overflow:visible;fill:#808080;"/>
			<clipPath id="SVGID_20_">
				<use xlink:href="#SVGID_19_"  style="overflow:visible;"/>
			</clipPath>
			<rect x="372" y="362.8" style="&st20;" width="11.1" height="15"/>
		</g>
		<g>
			<defs>
				<path id="SVGID_21_" d="M376.5,357.9l-1.1,1h-1.2C374,358.3,376,356.9,376.5,357.9 M375.7,356.6c-1.3,1.1-2.7,2.2-4.3,1.7
					c1,0.8,2.5,1,4,0.9c1.4,0.9,3.1-1.6,5-1.6c2.6-0.4,6-0.8,7.8,1.6l-0.9-1.8c-2.5-0.1-4.6-1-6.6-2.2c-0.5-0.2-0.9-0.3-1.4-0.3
					C377.9,354.8,376.8,355.7,375.7,356.6"/>
			</defs>
			<use xlink:href="#SVGID_21_"  style="overflow:visible;fill:#808080;"/>
			<clipPath id="SVGID_22_">
				<use xlink:href="#SVGID_21_"  style="overflow:visible;"/>
			</clipPath>
			<rect x="371.3" y="354.8" style="&st21;" width="16.8" height="5.3"/>
		</g>
		<g>
			<defs>
				<path id="SVGID_23_" d="M369,349.2c1.3,0.3,2.5,0.6,3.9,0.8c2.6-1.2,3.3-3.3,2.2-6.2c-1.5-2.3-3.7-3.6-6.1-4.2V349.2z"/>
			</defs>
			<use xlink:href="#SVGID_23_"  style="overflow:visible;fill:#808080;"/>
			<clipPath id="SVGID_24_">
				<use xlink:href="#SVGID_23_"  style="overflow:visible;"/>
			</clipPath>
			<rect x="369" y="339.7" style="&st22;" width="7.2" height="10.3"/>
		</g>
		<g>
			<defs>
				<path id="SVGID_25_" d="M381.8,371.4c-4.3,8.8,1.7,20.8-4.4,28.4h9.6c0.4-0.4,0.8-0.8,1.2-1.3c7.1-9.2-6.7-14.7-6.5-23.5
					c0.4-3.5,2.3-6.2,4.7-9.1l-0.2-0.2C384,367.7,383.1,369.2,381.8,371.4"/>
			</defs>
			<use xlink:href="#SVGID_25_"  style="overflow:visible;fill:#808080;"/>
			<clipPath id="SVGID_26_">
				<use xlink:href="#SVGID_25_"  style="overflow:visible;"/>
			</clipPath>
			<rect x="377.4" y="365.6" style="&st23;" width="17.9" height="34.2"/>
		</g>
		<g>
			<defs>
				<path id="SVGID_27_" d="M400.4,337c9.4,7.2,15.5,18.6,15.5,31.4c0,12.8-6.1,24.2-15.5,31.4h31.4V337H400.4z"/>
			</defs>
			<use xlink:href="#SVGID_27_"  style="overflow:visible;fill:#808080;"/>
			<clipPath id="SVGID_28_">
				<use xlink:href="#SVGID_27_"  style="overflow:visible;"/>
			</clipPath>
			<rect x="400.4" y="337" style="&st24;" width="31.4" height="62.8"/>
		</g>
		<g>
			<defs>
				<path id="SVGID_29_" d="M369,399.8h5.4l1.3-1.1c7.3-9.9-1.4-16.9-6.7-24.7V399.8z"/>
			</defs>
			<use xlink:href="#SVGID_29_"  style="overflow:visible;fill:#808080;"/>
			<clipPath id="SVGID_30_">
				<use xlink:href="#SVGID_29_"  style="overflow:visible;"/>
			</clipPath>
			<rect x="369" y="374" style="&st25;" width="14.1" height="25.8"/>
		</g>
		<g>
			<defs>
				<path id="SVGID_31_" d="M369,337v1c1.5,0.2,2.9,0.6,4.2,1.2c3,1.8,5.3,4.7,5.1,8.3l6.7-0.6c0.9-2.2,1.2-5.6,0.4-7.4
					c-0.5-1.1-1-1.9-1.6-2.6H369z"/>
			</defs>
			<use xlink:href="#SVGID_31_"  style="overflow:visible;fill:#808080;"/>
			<clipPath id="SVGID_32_">
				<use xlink:href="#SVGID_31_"  style="overflow:visible;"/>
			</clipPath>
			<rect x="369" y="337" style="&st26;" width="17.3" height="10.5"/>
		</g>
		<g>
			<defs>
				<path id="SVGID_33_" d="M386.9,337c1.4,1.9,1.4,4.4,1.6,6.5c2.6-2,5.9-3.2,9.3-2.2c-2.4-1.8-3.9-3.2-6.7-4.3H386.9z"/>
			</defs>
			<use xlink:href="#SVGID_33_"  style="overflow:visible;fill:#808080;"/>
			<clipPath id="SVGID_34_">
				<use xlink:href="#SVGID_33_"  style="overflow:visible;"/>
			</clipPath>
			<rect x="386.9" y="337" style="&st27;" width="10.9" height="6.5"/>
		</g>
		<g>
			<defs>
				<path id="SVGID_35_" d="M399.6,376.7c1.3,4.6-4.1,3.8-6.5,5.1c-0.9-0.7-0.5-1.9-0.6-2.8l0.6-0.6c0.6,1.8,1.7,1.1,2.9,0.4
					c0.7-0.4,1.5-0.8,2.2-0.7C399,377.8,398.6,376.5,399.6,376.7 M393.9,370.1c1.2-1.3,4.7-3.9,5.9-2.9c0.3,0.3,0.4,1.1,0.4,1.9
					l-0.6,1.4l-0.7-1.8c-1.7,0.4-3.2,1-4,2.6c-0.1,0.5,0.1,1.4-0.4,1.8C393.4,372.8,394,371.1,393.9,370.1 M392.7,370.1
					c-2,0.6-3.9-0.7-5.9-1.1c0-0.3-0.1-0.6,0.1-0.7c-2.9,1.8-2.1,5.3-2.7,8c0.7,3.1,4,4.3,6.3,6c3.3,0.6,6.4-0.9,9.3-2
					c0.5,0.5,1.2,0.9,0.8,1.7c-2.2,3.2-5.7,4.6-9.6,4.3c2.3,4.5,0.8,9.6-1.7,13.5h2.3c7-3.2,13.7-8.1,14.2-17.4
					c0.7-5.9,0.2-12.1-4-16.2c-0.3,0-0.6,0-0.9,0c-0.7,0-1.5,0.1-2-0.6C397.1,367.4,394.6,368.1,392.7,370.1"/>
			</defs>
			<use xlink:href="#SVGID_35_"  style="overflow:visible;fill:#808080;"/>
			<clipPath id="SVGID_36_">
				<use xlink:href="#SVGID_35_"  style="overflow:visible;"/>
			</clipPath>
			<rect x="384" y="365.6" style="&st28;" width="22.5" height="34.2"/>
		</g>
		<g>
			<defs>
				<path id="SVGID_37_" d="M394.9,342.9c-3.1,0.2-6.1,2.4-7.2,4.3c2.1,1.2,4.5,3,6.5,4.8c-0.1,0.7,0.4,1.7-0.6,2
					c-1.1-0.8-2-3-3.3-2.2c1.1,2.2,3.9,2.5,6.1,3.1c0.8,0.8,0.6,2.2,2.4,1.7c0.8,0.2,1.2,1.2,1.4,2c-0.9,1.7-3,1.6-4.9,1.4
					c-0.9-0.1-1.9-0.2-2.6,0c1.8,0.7,3.8,0.9,5.4,2c1.7,1.1,2.1-1.4,2.8-2.2c2.8,0.7,1.3,3.7,2.5,5.3c6,6.3,4.8,17.3,1.8,24.5
					c8.3-7.6,7.6-24.4,5.7-31.2c-1.9-6.6-7.7-15.4-15.5-15.4C395.3,342.9,395.1,342.9,394.9,342.9"/>
			</defs>
			<use xlink:href="#SVGID_37_"  style="overflow:visible;fill:#808080;"/>
			<clipPath id="SVGID_38_">
				<use xlink:href="#SVGID_37_"  style="overflow:visible;"/>
			</clipPath>
			<rect x="387.6" y="342.9" style="&st29;" width="25.9" height="46.6"/>
		</g>
		<g>
			<defs>
				<path id="SVGID_39_" d="M394.9,342.9c-1.6,0.1-3.1,0.7-4.4,1.6c4.8,0.7,9.9,2,15.4,4.1c-2.7-3.3-6.2-5.7-10.3-5.7
					C395.2,342.9,395.1,342.9,394.9,342.9 M369,346c2-0.6,4.1-1.1,6.3-1.5c-0.1-0.2-0.1-0.4-0.2-0.7c-1.5-2.3-3.7-3.6-6.1-4.2V346z
					 M369,337v1c1.5,0.2,3,0.6,4.2,1.2c2,1.2,3.7,2.9,4.5,4.9c2.6-0.3,5.3-0.3,8-0.2c0.2-1.7,0.2-3.4-0.3-4.4
					c-0.5-1.1-1-1.9-1.6-2.6H369z M386.9,337c1.4,1.9,1.4,4.4,1.6,6.5c2.6-2,5.9-3.2,9.3-2.2c-2.4-1.8-3.9-3.2-6.7-4.3H386.9z
					 M400.4,337c4.9,3.7,8.8,8.6,11.5,14.2c6.2,2.9,12.8,6.7,19.9,11.6V337H400.4z"/>
			</defs>
			<use xlink:href="#SVGID_39_"  style="overflow:visible;fill:#808080;"/>
			<clipPath id="SVGID_40_">
				<use xlink:href="#SVGID_39_"  style="overflow:visible;"/>
			</clipPath>
			<rect x="369" y="337" style="&st30;" width="62.8" height="25.8"/>
		</g>
		<g>
			<defs>
				<path id="SVGID_41_" d="M377.4,399.8h9.6c0.4-0.4,0.8-0.8,1.2-1.3c1.4-1.9,2-3.6,2-5.2c-3.1-0.2-6.4-0.8-9.9-1.9
					C380.1,394.5,379.4,397.4,377.4,399.8 M392,393.3c-0.4,2.3-1.4,4.6-2.7,6.5h2.3c4.3-2,8.5-4.6,11.2-8.4
					C399.5,392.6,395.9,393.3,392,393.3 M369,399.8h5.4l1.3-1.1c2.1-2.9,2.9-5.5,2.8-7.9c-3-1.1-6.2-2.5-9.5-4.3V399.8z
					 M411.6,386.4c-2.7,5.3-6.5,9.8-11.2,13.4h31.4v-43.6C427.1,367.4,420.8,379.2,411.6,386.4"/>
			</defs>
			<use xlink:href="#SVGID_41_"  style="overflow:visible;fill:#808080;"/>
			<clipPath id="SVGID_42_">
				<use xlink:href="#SVGID_41_"  style="overflow:visible;"/>
			</clipPath>
			<rect x="369" y="356.2" style="&st31;" width="62.8" height="43.6"/>
		</g>
		<g>
			<defs>
				<path id="SVGID_43_" d="M386.5,368.6c0,0,0,0.1,0,0.1c0.1,0,0.2,0,0.3,0.1c0-0.2,0-0.4,0.1-0.5
					C386.7,368.4,386.6,368.5,386.5,368.6"/>
			</defs>
			<use xlink:href="#SVGID_43_"  style="overflow:visible;fill:#808080;"/>
			<clipPath id="SVGID_44_">
				<use xlink:href="#SVGID_43_"  style="overflow:visible;"/>
			</clipPath>
			<rect x="386.5" y="368.3" style="&st32;" width="0.4" height="0.5"/>
		</g>
		<g>
			<defs>
				<path id="SVGID_45_" d="M397.9,377.8c-0.7-0.1-1.5,0.3-2.2,0.7c-0.9,0.5-1.6,0.9-2.2,0.5c0.6,0.9,1.6,0.3,2.6-0.2
					c0.7-0.4,1.5-0.8,2.2-0.7c0.7-0.3,0.5-1.4,1.2-1.4c0-0.1,0-0.2-0.1-0.3c-0.1,0-0.1,0-0.2,0C398.4,376.4,398.6,377.5,397.9,377.8
					"/>
			</defs>
			<use xlink:href="#SVGID_45_"  style="overflow:visible;fill:#808080;"/>
			<clipPath id="SVGID_46_">
				<use xlink:href="#SVGID_45_"  style="overflow:visible;"/>
			</clipPath>
			<rect x="393.4" y="376.4" style="&st33;" width="5.9" height="3.5"/>
		</g>
		<g>
			<defs>
				<path id="SVGID_47_" d="M386.9,368.3c0.1,0,0.1-0.1,0.2-0.1C387,368.2,386.9,368.3,386.9,368.3"/>
			</defs>
			<use xlink:href="#SVGID_47_"  style="overflow:visible;fill:#808080;"/>
			<clipPath id="SVGID_48_">
				<use xlink:href="#SVGID_47_"  style="overflow:visible;"/>
			</clipPath>
			<rect x="386.9" y="368.2" style="&st34;" width="0.2" height="0.1"/>
		</g>
		<g>
			<defs>
				<path id="SVGID_49_" d="M392.2,378.7c0.1,0.9-0.4,2.1,0.6,2.8h0c-0.5-0.7-0.2-1.7-0.3-2.5l0.5-0.5c-0.1-0.1-0.1-0.3-0.2-0.4
					L392.2,378.7z"/>
			</defs>
			<use xlink:href="#SVGID_49_"  style="overflow:visible;fill:#808080;"/>
			<clipPath id="SVGID_50_">
				<use xlink:href="#SVGID_49_"  style="overflow:visible;"/>
			</clipPath>
			<rect x="391.8" y="378.1" style="&st35;" width="1.1" height="3.4"/>
		</g>
		<g>
			<defs>
				<path id="SVGID_51_" d="M393.6,369.8c0.1,0.9-0.4,2.5,0.4,2.9c-0.3-0.5,0-1.9-0.1-2.6c1.2-1.3,4.5-3.8,5.8-3
					c-0.2-0.3-0.5-0.4-0.9-0.4C397.3,366.7,394.6,368.7,393.6,369.8"/>
			</defs>
			<use xlink:href="#SVGID_51_"  style="overflow:visible;fill:#808080;"/>
			<clipPath id="SVGID_52_">
				<use xlink:href="#SVGID_51_"  style="overflow:visible;"/>
			</clipPath>
			<rect x="393.2" y="366.4" style="&st36;" width="6.5" height="6.3"/>
		</g>
		<g>
			<defs>
				<path id="SVGID_53_" d="M398.7,368.7l0.5,1.5l0.1-0.3l-0.4-1.3C398.8,368.7,398.8,368.7,398.7,368.7"/>
			</defs>
			<use xlink:href="#SVGID_53_"  style="overflow:visible;fill:#808080;"/>
			<clipPath id="SVGID_54_">
				<use xlink:href="#SVGID_53_"  style="overflow:visible;"/>
			</clipPath>
			<rect x="398.7" y="368.7" style="&st37;" width="0.6" height="1.6"/>
		</g>
		<g>
			<defs>
				<path id="SVGID_55_" d="M391.8,352.1c0.4,0.5,0.9,1.1,1.3,1.4C392.6,353.1,392.2,352.5,391.8,352.1z"/>
			</defs>
			<use xlink:href="#SVGID_55_"  style="overflow:visible;fill:#808080;"/>
			<clipPath id="SVGID_56_">
				<use xlink:href="#SVGID_55_"  style="overflow:visible;"/>
			</clipPath>
			<rect x="391.8" y="352.1" style="&st38;" width="1.3" height="1.4"/>
		</g>
		<g>
			<defs>
				<path id="SVGID_57_" d="M397.2,356.2c0.3,0.4,0.6,0.6,1.5,0.3c0.2,0.1,0.3,0.1,0.5,0.2c-0.2-0.3-0.4-0.5-0.8-0.6
					C397.8,356.4,397.5,356.4,397.2,356.2"/>
			</defs>
			<use xlink:href="#SVGID_57_"  style="overflow:visible;fill:#808080;"/>
			<clipPath id="SVGID_58_">
				<use xlink:href="#SVGID_57_"  style="overflow:visible;"/>
			</clipPath>
			<rect x="397.2" y="356.2" style="&st39;" width="2" height="0.6"/>
		</g>
		<g>
			<defs>
				<path id="SVGID_59_" d="M387.6,347.2c2,1.1,4.2,2.8,6.2,4.6c0,0,0,0,0,0C391.9,349.9,389.7,348.3,387.6,347.2
					C387.7,347.1,387.7,347.2,387.6,347.2"/>
			</defs>
			<use xlink:href="#SVGID_59_"  style="overflow:visible;fill:#808080;"/>
			<clipPath id="SVGID_60_">
				<use xlink:href="#SVGID_59_"  style="overflow:visible;"/>
			</clipPath>
			<rect x="387.6" y="347.1" style="&st40;" width="6.2" height="4.7"/>
		</g>
		<g>
			<defs>
				<path id="SVGID_61_" d="M404.4,347.1c3,3.1,5.2,7.3,6.2,10.9c1.9,6.6,2.6,22.6-5,30.5c-0.1,0.3-0.3,0.7-0.4,1
					c8.3-7.6,7.6-24.4,5.7-31.2C409.9,354.6,407.6,350.2,404.4,347.1z"/>
			</defs>
			<use xlink:href="#SVGID_61_"  style="overflow:visible;fill:#808080;"/>
			<clipPath id="SVGID_62_">
				<use xlink:href="#SVGID_61_"  style="overflow:visible;"/>
			</clipPath>
			<rect x="404.4" y="347.1" style="&st41;" width="9.1" height="42.4"/>
		</g>
		<g>
			<defs>
				<path id="SVGID_63_" d="M385.6,378.9c1.4,1.4,3.4,2.3,4.9,3.5c3.3,0.6,6.4-0.9,9.3-2c0.1,0.1,0.2,0.2,0.3,0.3
					c-0.2-0.2-0.4-0.4-0.6-0.6c-3,1.1-6,2.6-9.3,2C388.8,381,387,380.1,385.6,378.9z"/>
			</defs>
			<use xlink:href="#SVGID_63_"  style="overflow:visible;fill:#808080;"/>
			<clipPath id="SVGID_64_">
				<use xlink:href="#SVGID_63_"  style="overflow:visible;"/>
			</clipPath>
			<rect x="385.6" y="378.9" style="&st42;" width="14.5" height="4.1"/>
		</g>
		<g>
			<defs>
				<path id="SVGID_65_" d="M390.8,352.6c1.3,1.5,3.6,1.7,5.5,2.2c-0.1-0.1-0.1-0.2-0.2-0.3c-0.8-0.2-1.6-0.4-2.4-0.6
					c0,0-0.1,0-0.1,0.1c-0.1,0-0.1-0.1-0.2-0.1C392.4,353.6,391.5,353.3,390.8,352.6z"/>
			</defs>
			<use xlink:href="#SVGID_65_"  style="overflow:visible;fill:#808080;"/>
			<clipPath id="SVGID_66_">
				<use xlink:href="#SVGID_65_"  style="overflow:visible;"/>
			</clipPath>
			<rect x="390.8" y="352.6" style="&st43;" width="5.5" height="2.2"/>
		</g>
		<g>
			<defs>
				<path id="SVGID_67_" d="M381.7,364.6c-3.3,2-6.3,5.1-6.3,9.3v3.5c0.1,0.2,0.2,0.3,0.3,0.5v-3.7c0-4.6,3.7-7.9,7.4-9.9
					C382.7,364.4,382.2,364.5,381.7,364.6"/>
			</defs>
			<use xlink:href="#SVGID_67_"  style="overflow:visible;fill:#808080;"/>
			<clipPath id="SVGID_68_">
				<use xlink:href="#SVGID_67_"  style="overflow:visible;"/>
			</clipPath>
			<rect x="375.4" y="364.2" style="&st44;" width="7.8" height="13.6"/>
		</g>
		<g>
			<defs>
				<path id="SVGID_69_" d="M387.1,357.3l0.7,1.4c0.1,0.1,0.3,0.3,0.4,0.4l-0.9-1.8C387.2,357.3,387.1,357.3,387.1,357.3z"/>
			</defs>
			<use xlink:href="#SVGID_69_"  style="overflow:visible;fill:#808080;"/>
			<clipPath id="SVGID_70_">
				<use xlink:href="#SVGID_69_"  style="overflow:visible;"/>
			</clipPath>
			<rect x="387.1" y="357.3" style="&st45;" width="1.1" height="1.8"/>
		</g>
		<g>
			<defs>
				<path id="SVGID_71_" d="M385.5,366.3c-2.1,2.6-3.7,5.1-4.1,8.3c-0.2,8.9,13.6,14.3,6.5,23.5c-0.4,0.5-0.8,0.9-1.2,1.3h-9
					c-0.1,0.1-0.1,0.2-0.2,0.3h9.6c0.4-0.4,0.8-0.8,1.2-1.3c7.1-9.2-6.7-14.7-6.5-23.5c0.4-3.5,2.3-6.2,4.7-9.1l-0.2-0.2
					C386,365.9,385.7,366.1,385.5,366.3"/>
			</defs>
			<use xlink:href="#SVGID_71_"  style="overflow:visible;fill:#808080;"/>
			<clipPath id="SVGID_72_">
				<use xlink:href="#SVGID_71_"  style="overflow:visible;"/>
			</clipPath>
			<rect x="377.4" y="365.6" style="&st46;" width="17.9" height="34.2"/>
		</g>
		<g>
			<defs>
				<path id="SVGID_73_" d="M383.9,337c0.5,0.6,0.9,1.3,1.3,2.3c0.8,1.7,0.4,5.1-0.4,7.4l-6.4,0.6c0,0.1,0,0.2,0,0.3l6.7-0.6
					c0.9-2.2,1.2-5.6,0.4-7.4C385,338.5,384.5,337.7,383.9,337L383.9,337z"/>
			</defs>
			<use xlink:href="#SVGID_73_"  style="overflow:visible;fill:#808080;"/>
			<clipPath id="SVGID_74_">
				<use xlink:href="#SVGID_73_"  style="overflow:visible;"/>
			</clipPath>
			<rect x="378.3" y="337" style="&st47;" width="8" height="10.5"/>
		</g>
		<g>
			<defs>
				<path id="SVGID_75_" d="M369,374.1c5.3,7.6,13.6,14.5,6.4,24.3l-1.3,1.1H369v0.3h5.4l1.3-1.1c7.3-9.9-1.4-16.9-6.7-24.7V374.1z"
					/>
			</defs>
			<use xlink:href="#SVGID_75_"  style="overflow:visible;fill:#808080;"/>
			<clipPath id="SVGID_76_">
				<use xlink:href="#SVGID_75_"  style="overflow:visible;"/>
			</clipPath>
			<rect x="369" y="374" style="&st48;" width="14.1" height="25.8"/>
		</g>
		<g>
			<defs>
				<path id="SVGID_77_" d="M401.8,366.2c4,4.1,4.4,10.1,3.7,15.9c-0.5,9.4-7.2,14.2-14.2,17.4h-1.8c-0.1,0.1-0.1,0.2-0.2,0.3h2.3
					c7-3.2,13.7-8.1,14.2-17.4C406.6,376.5,406.1,370.3,401.8,366.2L401.8,366.2z"/>
			</defs>
			<use xlink:href="#SVGID_77_"  style="overflow:visible;fill:#808080;"/>
			<clipPath id="SVGID_78_">
				<use xlink:href="#SVGID_77_"  style="overflow:visible;"/>
			</clipPath>
			<rect x="389.3" y="366.2" style="&st49;" width="17.2" height="33.6"/>
		</g>
		<g>
			<defs>
				<path id="SVGID_79_" d="M431.5,337v62.5h-30.7c-0.1,0.1-0.3,0.2-0.4,0.3h31.4V337H431.5z"/>
			</defs>
			<use xlink:href="#SVGID_79_"  style="overflow:visible;fill:#808080;"/>
			<clipPath id="SVGID_80_">
				<use xlink:href="#SVGID_79_"  style="overflow:visible;"/>
			</clipPath>
			<rect x="400.4" y="337" style="&st50;" width="31.4" height="62.8"/>
		</g>
		<g>
			<defs>
				<path id="SVGID_81_" d="M374.8,343.6c1.1,2.8,0.4,5-2.2,6.2c-1.2-0.1-2.4-0.4-3.6-0.7v0.2c1.3,0.3,2.5,0.6,3.9,0.8
					c2.6-1.2,3.3-3.3,2.2-6.2c-0.4-0.6-0.9-1.2-1.4-1.7C374.1,342.6,374.5,343.1,374.8,343.6"/>
			</defs>
			<use xlink:href="#SVGID_81_"  style="overflow:visible;fill:#808080;"/>
			<clipPath id="SVGID_82_">
				<use xlink:href="#SVGID_81_"  style="overflow:visible;"/>
			</clipPath>
			<rect x="369" y="342.2" style="&st51;" width="7.2" height="7.8"/>
		</g>
		<g>
			<defs>
				<path id="SVGID_83_" d="M380,357.3c-1.8,0-3.4,2.3-4.8,1.6h-1c0,0,0,0,0-0.1c-0.9,0-1.8-0.2-2.5-0.5c-0.1,0-0.3,0-0.4-0.1
					c1,0.8,2.5,1,4,0.9c1.4,0.9,3.1-1.6,5-1.6c2.4-0.4,5.4-0.7,7.3,1c-1.1-1.3-2.8-1.6-4.5-1.6C382.1,357,381,357.1,380,357.3"/>
			</defs>
			<use xlink:href="#SVGID_83_"  style="overflow:visible;fill:#808080;"/>
			<clipPath id="SVGID_84_">
				<use xlink:href="#SVGID_83_"  style="overflow:visible;"/>
			</clipPath>
			<rect x="371.3" y="356.9" style="&st52;" width="16.3" height="3.2"/>
		</g>
		<g>
			<defs>
				<path id="SVGID_85_" d="M400.4,337c1.4,1.1,2.7,2.2,3.9,3.4C403.1,339.2,401.8,338.1,400.4,337L400.4,337z"/>
			</defs>
			<use xlink:href="#SVGID_85_"  style="overflow:visible;fill:#808080;"/>
			<clipPath id="SVGID_86_">
				<use xlink:href="#SVGID_85_"  style="overflow:visible;"/>
			</clipPath>
			<rect x="400.4" y="337" style="&st53;" width="3.9" height="3.4"/>
		</g>
		<g>
			<defs>
				<path id="SVGID_87_" d="M397.9,361.6c-1.4-0.9-3.2-1.2-4.7-1.8c-0.1,0-0.3,0-0.4,0.1c1.8,0.7,3.8,0.9,5.4,2
					c1.7,1.1,2.1-1.4,2.8-2.2c0.4,0.1,0.8,0.3,1,0.5c-0.3-0.4-0.7-0.6-1.3-0.8C400,360.2,399.5,362.7,397.9,361.6"/>
			</defs>
			<use xlink:href="#SVGID_87_"  style="overflow:visible;fill:#808080;"/>
			<clipPath id="SVGID_88_">
				<use xlink:href="#SVGID_87_"  style="overflow:visible;"/>
			</clipPath>
			<rect x="392.7" y="359.4" style="&st54;" width="9.3" height="3.6"/>
		</g>
		<g>
			<defs>
				<path id="SVGID_89_" d="M388.4,343c0,0.2,0,0.3,0,0.5c2.6-2,5.9-3.2,9.3-2.2c-0.2-0.1-0.3-0.2-0.4-0.3c-0.8-0.2-1.5-0.3-2.3-0.3
					C392.6,340.6,390.3,341.6,388.4,343"/>
			</defs>
			<use xlink:href="#SVGID_89_"  style="overflow:visible;fill:#808080;"/>
			<clipPath id="SVGID_90_">
				<use xlink:href="#SVGID_89_"  style="overflow:visible;"/>
			</clipPath>
			<rect x="388.4" y="340.3" style="&st55;" width="9.4" height="3.2"/>
		</g>
		<g>
			<defs>
				<path id="SVGID_91_" d="M373.9,358.6h0.4c0.2-0.5,1.3-1.1,1.9-1l0.1-0.1c-0.1-0.2-0.3-0.3-0.6-0.3
					C374.8,357.2,373.7,358.1,373.9,358.6"/>
			</defs>
			<use xlink:href="#SVGID_91_"  style="overflow:visible;fill:#808080;"/>
			<clipPath id="SVGID_92_">
				<use xlink:href="#SVGID_91_"  style="overflow:visible;"/>
			</clipPath>
			<rect x="373.7" y="357.2" style="&st56;" width="2.5" height="1.4"/>
		</g>
		<g>
			<defs>
				<path id="SVGID_93_" d="M369,338c1.5,0.2,2.9,0.6,4.2,1.2c0.8,0.5,1.6,1.1,2.3,1.8c-0.8-0.8-1.7-1.5-2.6-2.1
					c-1.2-0.5-2.5-0.9-3.9-1.2V338z"/>
			</defs>
			<use xlink:href="#SVGID_93_"  style="overflow:visible;fill:#808080;"/>
			<clipPath id="SVGID_94_">
				<use xlink:href="#SVGID_93_"  style="overflow:visible;"/>
			</clipPath>
			<rect x="369" y="337.8" style="&st57;" width="6.5" height="3.2"/>
		</g>
		<polygon style="&st18;" points="465.2,378.6 460.9,378.6 460.9,363 454.5,374.6 451.9,374.6 445.6,363 445.6,378.6 441.2,378.6 
			441.2,355 445.6,355 453.2,368.7 460.9,355 465.2,355 		"/>
		<path style="&st18;" d="M491.1,378c-2.7,0.7-5.3,1-7.7,1c-4,0-7.2-1.2-9.7-3.5c-2.4-2.3-3.6-5.2-3.6-8.6c0-3.6,1.2-6.5,3.7-8.8
			c2.5-2.3,5.6-3.4,9.5-3.4c2.3,0,4.5,0.3,6.7,0.8l-0.6,3.8c-2.3-0.4-4.1-0.5-5.6-0.5c-3,0-5.2,0.7-6.8,2.1
			c-1.6,1.4-2.4,3.4-2.4,6.1c0,2.4,0.8,4.4,2.3,5.9c1.5,1.5,3.6,2.3,6.1,2.3c1.3,0,2.5-0.1,3.9-0.3v-7.9h4.2V378z"/>
		<polygon style="&st18;" points="520.8,378.6 516.4,378.6 516.4,363 510,374.6 507.5,374.6 501.1,363 501.1,378.6 496.8,378.6 
			496.8,355 501.1,355 508.8,368.7 516.4,355 520.8,355 		"/>
		<path style="&st18;" d="M558.2,378.6h-5.6l-6.5-8.9h-5.8v8.9h-4.5V355h12.3c2.2,0,4.1,0.7,5.5,2.2c1.4,1.4,2.1,3.1,2.1,5.2
			c0,1.5-0.4,2.8-1.2,4c-0.8,1.2-1.9,2.1-3.4,2.6L558.2,378.6z M551.1,362.4c0-1.1-0.4-2-1.1-2.7c-0.7-0.7-1.6-1-2.7-1h-6.9v7.4h6.9
			c1.1,0,2-0.3,2.7-1C550.7,364.4,551.1,363.5,551.1,362.4"/>
		<polygon style="&st18;" points="578.9,378.6 561.9,378.6 561.9,355 578.9,355 578.9,358.9 566.5,358.9 566.5,364.5 578.1,364.5 
			578.1,368.4 566.5,368.4 566.5,374.7 578.9,374.7 		"/>
		<path style="&st18;" d="M602.3,372.2c0,2.1-0.9,3.7-2.7,5c-1.8,1.2-4.1,1.9-7,1.9c-3.6,0-6.9-0.6-9.8-1.9l1-3.5
			c3.1,1.1,6,1.6,8.7,1.6c3.5,0,5.3-1,5.3-2.9c0-0.8-0.4-1.4-1.2-1.9c-0.6-0.4-2.2-1.1-4.8-2c-3-1.1-5.1-2.2-6.2-3.1
			c-1.3-1.1-1.9-2.6-1.9-4.4c0-4.1,3.1-6.2,9.4-6.2c3.1,0,5.9,0.4,8.5,1.1l-0.7,3.7c-2.7-0.6-5.2-0.9-7.8-0.9
			c-1.8,0-3.1,0.2-3.9,0.5c-0.7,0.3-1.1,0.9-1.1,1.7c0,0.8,0.5,1.5,1.4,2.1c0.7,0.4,2.4,1.1,5.2,2.2c3,1.2,4.9,2.1,5.8,2.8
			C601.7,368.9,602.3,370.3,602.3,372.2"/>
		<path style="&st18;" d="M628.9,366.8c0,3.4-1.1,6.3-3.4,8.6c-2.3,2.4-5.1,3.5-8.4,3.5c-3.3,0-6.1-1.2-8.4-3.5
			c-2.3-2.4-3.4-5.2-3.4-8.6c0-3.4,1.1-6.3,3.4-8.6c2.3-2.4,5.1-3.6,8.4-3.6c3.3,0,6.1,1.2,8.4,3.6
			C627.8,360.6,628.9,363.5,628.9,366.8 M624.4,366.8c0-2.4-0.7-4.3-2-5.9c-1.3-1.5-3.1-2.3-5.3-2.3c-2.2,0-4,0.8-5.3,2.3
			c-1.3,1.5-2,3.5-2,5.9c0,2.4,0.7,4.3,1.9,5.8c1.3,1.6,3.1,2.3,5.3,2.3c2.2,0,4-0.8,5.4-2.3C623.8,371.2,624.4,369.2,624.4,366.8"
			/>
		<path style="&st18;" d="M656.1,378.6h-5.6l-6.5-8.9h-5.8v8.9h-4.5V355H646c2.2,0,4.1,0.7,5.5,2.2c1.4,1.4,2.1,3.1,2.1,5.2
			c0,1.5-0.4,2.8-1.2,4c-0.8,1.2-2,2.1-3.4,2.6L656.1,378.6z M649,362.4c0-1.1-0.4-2-1.1-2.7c-0.7-0.7-1.6-1-2.7-1h-6.9v7.4h6.9
			c1.1,0,2-0.3,2.7-1C648.6,364.4,649,363.5,649,362.4"/>
		<polygon style="&st18;" points="677.1,358.9 669.3,358.9 669.3,378.6 664.8,378.6 664.8,358.9 656.9,358.9 656.9,355 677.1,355 		
			"/>
		<rect x="441.2" y="386.8" style="&st18;" width="2.5" height="12.9"/>
		<polygon style="&st18;" points="458.7,399.8 456.2,399.8 449.8,390.7 449.8,399.8 447.3,399.8 447.3,386.8 449.8,386.8 
			456.2,395.8 456.2,386.8 458.7,386.8 		"/>
		<polygon style="&st18;" points="471.8,389 467.5,389 467.5,399.8 465,399.8 465,389 460.7,389 460.7,386.8 471.8,386.8 		"/>
		<polygon style="&st18;" points="483.1,399.8 473.8,399.8 473.8,386.8 483.1,386.8 483.1,389 476.3,389 476.3,392 482.7,392 
			482.7,394.1 476.3,394.1 476.3,397.6 483.1,397.6 		"/>
		<path style="&st18;" d="M498.5,399.8h-3.1l-3.6-4.9h-3.2v4.9h-2.5v-12.9h6.7c1.2,0,2.2,0.4,3,1.2c0.8,0.8,1.1,1.7,1.1,2.8
			c0,0.8-0.2,1.6-0.7,2.2c-0.5,0.7-1.1,1.1-1.8,1.4L498.5,399.8z M494.6,390.9c0-0.6-0.2-1.1-0.6-1.5c-0.4-0.4-0.9-0.6-1.5-0.6h-3.8
			v4.1h3.8c0.6,0,1.1-0.2,1.5-0.6C494.4,392,494.6,391.5,494.6,390.9"/>
		<polygon style="&st18;" points="511.9,399.8 509.5,399.8 503,390.7 503,399.8 500.6,399.8 500.6,386.8 503,386.8 509.5,395.8 
			509.5,386.8 511.9,386.8 		"/>
		<path style="&st18;" d="M526.2,399.8h-2.4l-1.1-2.9h-5.2l-1.1,2.9H514l5-12.9h2.2L526.2,399.8z M522.1,395l-2-5.6l-2,5.6H522.1z"
			/>
		<polygon style="&st18;" points="536.5,389 532.2,389 532.2,399.8 529.8,399.8 529.8,389 525.5,389 525.5,386.8 536.5,386.8 		"/>
		<rect x="538.6" y="386.8" style="&st18;" width="2.5" height="12.9"/>
		<path style="&st18;" d="M556.8,393.3c0,1.9-0.6,3.4-1.9,4.7c-1.2,1.3-2.8,1.9-4.6,1.9c-1.8,0-3.4-0.6-4.6-1.9
			c-1.2-1.3-1.9-2.9-1.9-4.7c0-1.9,0.6-3.4,1.9-4.7c1.2-1.3,2.8-2,4.6-2c1.8,0,3.4,0.7,4.6,2C556.2,389.9,556.8,391.5,556.8,393.3
			 M554.3,393.3c0-1.3-0.4-2.4-1.1-3.2c-0.7-0.8-1.7-1.3-2.9-1.3c-1.2,0-2.2,0.4-2.9,1.3s-1.1,1.9-1.1,3.2c0,1.3,0.4,2.4,1.1,3.2
			c0.7,0.9,1.7,1.3,2.9,1.3c1.2,0,2.2-0.4,2.9-1.3C554,395.7,554.3,394.6,554.3,393.3"/>
		<polygon style="&st18;" points="570.8,399.8 568.4,399.8 561.9,390.7 561.9,399.8 559.5,399.8 559.5,386.8 561.9,386.8 
			568.4,395.8 568.4,386.8 570.8,386.8 		"/>
		<path style="&st18;" d="M585.1,399.8h-2.5l-1.1-2.9h-5.2l-1.1,2.9h-2.4l5-12.9h2.2L585.1,399.8z M581,395l-2-5.6l-2,5.6H581z"/>
		<polygon style="&st18;" points="596,399.8 587.2,399.8 587.2,386.8 589.7,386.8 589.7,397.6 596,397.6 		"/>
		<path style="&st18;" d="M599.3,387.5h-1.4v3.5h-0.8v-3.5h-1.4v-0.7h3.6V387.5z M603.9,391h-0.8v-2.7l-1.1,2h-0.4l-1.2-2v2.7h-0.8
			v-4.2h0.7l1.4,2.4l1.4-2.4h0.8V391z"/>
	</g>
	<text transform="matrix(1 0 0 1 -461 186.976)"><tspan x="0" y="0" style="&st58; font-family:'MyriadPro-Regular'; font-size:12;">TBM Logo and Icons: </tspan><tspan x="105.8" y="0" style="&st3; font-family:'MyriadPro-Regular'; font-size:12;">#27bdbe, #149b9e, and white </tspan></text>
	
		<use xlink:href="#ToyBox_Media_Logo_Full_Color_Light"  width="199.8" height="85.9" x="0" y="-85.9" transform="matrix(1.2512 0 0 -1.2512 -461.0004 199.9756)" style="overflow:visible;"/>
	<text transform="matrix(1 0 0 1 -41 186.976)"><tspan x="0" y="0" style="&st58; font-family:'MyriadPro-Regular'; font-size:12;">Partner Logos: </tspan><tspan x="74.5" y="0" style="&st3; font-family:'MyriadPro-Regular'; font-size:12;">#808080</tspan></text>
</g>
<g id="Icons" style="&st16;">
	<polygon id="Down_Arrow_4_" style="&st59;" points="-46,-54 -46,-70 -52,-70 -52,-54 -59,-54 -49,-40.2 -39,-54 	"/>
	<g style="&st60;">
		<path style="&st61;" d="M-168.5-70c-6.2,0-11.2,5-11.2,11.2s5,11.2,11.2,11.2c6.2,0,11.2-5,11.2-11.2S-162.3-70-168.5-70z
			 M-168.5-51.7c-3.9,0-7-3.1-7-7s3.1-7,7-7c3.9,0,7,3.1,7,7S-164.6-51.7-168.5-51.7z"/>
		<path style="&st62;" d="M-159.5-53.2c-0.4-0.4-1.1-0.4-1.5,0l-2.3,2.3c-0.4,0.4-0.4,1.1,0,1.5l9.1,9.1c0.4,0.4,1.1,0.4,1.5,0
			l2.3-2.3c0.4-0.4,0.4-1.1,0-1.5L-159.5-53.2z"/>
	</g>
	<g id="User" style="&st60;">
		<g>
			<path style="&st63;" d="M29.6-113.8c-0.8-4.5-4.1-8-8.5-9.1c0.8-1.2,1.2-2.6,1.2-4.1v-5.6c0-4.1-3.4-7.5-7.5-7.5
				s-7.5,3.4-7.5,7.5v5.6c0,1.5,0.5,2.9,1.2,4.1c-4.4,1-7.8,4.6-8.5,9.1h-0.2v1.9c0,1,0.8,1.9,1.9,1.9h26.2c1,0,1.9-0.8,1.9-1.9
				v-1.9H29.6z M11-132.5c0-2.1,1.7-3.8,3.8-3.8c2.1,0,3.8,1.7,3.8,3.8v5.6c0,2.1-1.7,3.8-3.8,3.8c-2.1,0-3.8-1.7-3.8-3.8V-132.5z
				 M3.8-113.8c0.8-3.2,3.7-5.6,7.2-5.6h7.5c3.5,0,6.4,2.4,7.2,5.6H3.8z"/>
		</g>
	</g>
	<g id="Clock" style="&st60;">
		<g>
			<path style="&st63;" d="M-45.2-140c-8.3,0-15,6.7-15,15c0,8.3,6.7,15,15,15c8.3,0,15-6.7,15-15C-30.2-133.3-36.9-140-45.2-140z
				 M-45.2-113.8c-6.2,0-11.2-5-11.2-11.2c0-6.2,5-11.3,11.2-11.3s11.2,5,11.2,11.3C-34-118.8-39-113.8-45.2-113.8z M-43.3-132.5
				h-3.8v9.4h7.5v-3.8h-3.8V-132.5z"/>
		</g>
	</g>
	<g id="Heart" style="&st60;">
		<g>
			<path style="&st63;" d="M147.4-130.6c0-5.2-3.8-9.4-8.4-9.4c-2.7,0-5,1.4-6.6,3.5c-1.5-2.1-3.9-3.5-6.6-3.5
				c-4.7,0-8.4,4.2-8.4,9.4c0,0-1,9,15,20.6C148.4-121.6,147.4-130.6,147.4-130.6z M143.6-130.1c0,0.4-0.1,0.7-0.2,1.1
				c-0.6,2.9-2.8,8.9-11,14.1h0c-8.2-5.2-10.4-11.2-11-14.1c-0.1-0.3-0.1-0.7-0.2-1.1c0-0.4,0-0.6,0-0.6c0-0.2,0-0.3,0-0.5
				c0.1-1.1,0.4-2.1,0.9-2.9c0,0,0,0,0,0c0.2-0.2,0.3-0.5,0.5-0.7c0,0,0.1-0.1,0.1-0.1c0.2-0.2,0.3-0.3,0.5-0.5
				c0.1-0.1,0.2-0.1,0.3-0.2c0.2-0.1,0.3-0.2,0.5-0.3c0.2-0.1,0.3-0.1,0.5-0.2c0.1,0,0.2-0.1,0.4-0.1c0.3-0.1,0.6-0.1,0.9-0.1
				c0.3,0,0.9,0,0.9,0c4.2,0,5.6,5.6,5.6,5.6s1.5-5.6,5.6-5.6c0,0,0.7,0,0.9,0c0.3,0,0.6,0,0.9,0.1c0.1,0,0.2,0.1,0.4,0.1
				c0.2,0.1,0.3,0.1,0.5,0.2c0.2,0.1,0.3,0.2,0.5,0.3c0.1,0.1,0.2,0.1,0.3,0.2c0.2,0.1,0.4,0.3,0.5,0.5c0,0,0.1,0.1,0.1,0.1
				c0.2,0.2,0.4,0.4,0.5,0.7c0,0,0,0,0,0c0.5,0.8,0.8,1.8,0.9,2.9c0,0.2,0,0.3,0,0.5C143.7-130.6,143.6-130.4,143.6-130.1z"/>
		</g>
	</g>
	<polygon id="Down_Arrow_1_" style="&st64;" points="74,-122 90,-122 90,-128 74,-128 74,-135.2 60.2,-125 74,-114.9 	"/>
	<g id="Clock_4_" style="&st60;">
		<g>
			<path style="&st65;" d="M-43.1,7.5h-3.8v9.4h7.5v-3.8h-3.8V7.5z M-45,0c-8.3,0-15,6.7-15,15s6.7,15,15,15s15-6.7,15-15
				S-36.7,0-45,0z M-45,26.2c-6.2,0-11.2-5-11.2-11.2s5-11.2,11.2-11.2s11.2,5,11.2,11.2S-38.8,26.2-45,26.2z"/>
		</g>
	</g>
	<text transform="matrix(1 0 0 1 -461 -43.0243)" style="&st60;"><tspan x="0" y="0" style="&st58; font-family:'MyriadPro-Regular'; font-size:12;">Nav:</tspan><tspan x="21.9" y="0" style="&st3; font-family:'MyriadPro-Regular'; font-size:12;"> #ccc / white</tspan><tspan x="84.1" y="0" style="&st58; font-family:'MyriadPro-Regular'; font-size:12;"> icons</tspan></text>
	<text transform="matrix(1 0 0 1 -461 26.9758)" style="&st60;"><tspan x="0" y="0" style="&st58; font-family:'MyriadPro-Regular'; font-size:12;">News: </tspan><tspan x="32.5" y="0" style="&st3; font-family:'MyriadPro-Regular'; font-size:12;">#b3b3b3 / white </tspan><tspan x="0" y="14.4" style="&st58; font-family:'MyriadPro-Regular'; font-size:12;">icons (and text)</tspan></text>
	<text transform="matrix(1 0 0 1 -461 96.976)" style="&st60;"><tspan x="0" y="0" style="&st58; font-family:'MyriadPro-Regular'; font-size:12;">Footer: </tspan><tspan x="38" y="0" style="&st3; font-family:'MyriadPro-Regular'; font-size:12;">#808080 / white </tspan><tspan x="0" y="14.4" style="&st58; font-family:'MyriadPro-Regular'; font-size:12;">icons (and text)</tspan></text>
	<g style="&st60;">
		<path style="&st66;" d="M-108.5-70c-6.2,0-11.2,5-11.2,11.2s5,11.2,11.2,11.2s11.2-5,11.2-11.2S-102.3-70-108.5-70z M-108.5-51.7
			c-3.9,0-7-3.1-7-7s3.1-7,7-7s7,3.1,7,7S-104.6-51.7-108.5-51.7z"/>
		<path style="&st63;" d="M-99.5-53.2c-0.4-0.4-1.1-0.4-1.5,0l-2.3,2.3c-0.4,0.4-0.4,1.1,0,1.5l9.1,9.1c0.4,0.4,1.1,0.4,1.5,0
			l2.3-2.3c0.4-0.4,0.4-1.1,0-1.5L-99.5-53.2z"/>
	</g>
	<g id="Heart_4_" style="&st60;">
		<g>
			<path style="&st65;" d="M30,9.4C30,4.2,26.2,0,21.6,0c-2.7,0-5,1.4-6.6,3.5C13.5,1.4,11.1,0,8.4,0C3.8,0,0,4.2,0,9.4
				c0,0-1,9,15,20.6C31,18.4,30,9.4,30,9.4z M26.2,9.9c0,0.4-0.1,0.7-0.2,1.1c-0.6,2.9-2.8,8.9-11,14.1h0C6.8,19.9,4.6,13.9,4,11
				c-0.1-0.3-0.1-0.7-0.2-1.1c0-0.4,0-0.6,0-0.6c0-0.2,0-0.3,0-0.5C3.9,7.8,4.2,6.8,4.7,6c0,0,0,0,0,0c0.2-0.2,0.3-0.5,0.5-0.7
				c0,0,0.1-0.1,0.1-0.1C5.6,5,5.7,4.8,5.9,4.6C6,4.6,6.1,4.5,6.2,4.5c0.2-0.1,0.3-0.2,0.5-0.3C6.8,4.1,7,4,7.2,4
				c0.1,0,0.2-0.1,0.4-0.1c0.3-0.1,0.6-0.1,0.9-0.1c0.3,0,0.9,0,0.9,0c4.2,0,5.6,5.6,5.6,5.6s1.5-5.6,5.6-5.6c0,0,0.7,0,0.9,0
				c0.3,0,0.6,0,0.9,0.1c0.1,0,0.2,0.1,0.4,0.1C23,4,23.2,4.1,23.3,4.2c0.2,0.1,0.3,0.2,0.5,0.3c0.1,0.1,0.2,0.1,0.3,0.2
				c0.2,0.1,0.4,0.3,0.5,0.5c0,0,0.1,0.1,0.1,0.1c0.2,0.2,0.4,0.4,0.5,0.7c0,0,0,0,0,0c0.5,0.8,0.8,1.8,0.9,2.9c0,0.2,0,0.3,0,0.5
				C26.2,9.4,26.2,9.6,26.2,9.9z"/>
		</g>
	</g>
	<g style="&st60;">
		<path style="&st67;" d="M-179.6,9.9h6.2v20h-6.2V9.9z M-176.5,0c2,0,3.6,1.6,3.6,3.6c0,2-1.6,3.6-3.6,3.6c-2,0-3.6-1.6-3.6-3.6
			C-180.1,1.6-178.5,0-176.5,0"/>
		<path style="&st67;" d="M-169.5,9.9h6v2.7h0.1c0.8-1.6,2.9-3.2,5.9-3.2c6.3,0,7.5,4.2,7.5,9.5v11h-6.2v-9.7c0-2.3,0-5.3-3.2-5.3
			c-3.2,0-3.7,2.5-3.7,5.1V30h-6.2V9.9z"/>
	</g>
	<g id="Pin" style="&st60;">
		<g>
			<path style="&st68;" d="M-279.8,70c-6.2,0-11.2,5-11.2,11.3c0,6.2,9.4,18.7,11.2,18.7c1.8,0,11.3-12.5,11.3-18.7
				C-268.5,75-273.5,70-279.8,70z M-279.8,88.7c-4.1,0-7.5-3.4-7.5-7.5c0-4.1,3.4-7.5,7.5-7.5s7.5,3.4,7.5,7.5
				C-272.2,85.4-275.6,88.7-279.8,88.7z"/>
		</g>
	</g>
	<g id="iPhone" style="&st60;">
		<g>
			<path style="&st68;" d="M-216.1,70h-18.8c-1,0-1.9,0.8-1.9,1.9v26.2c0,1,0.8,1.9,1.9,1.9h18.8c1,0,1.9-0.8,1.9-1.9V71.9
				C-214.2,70.8-215.1,70-216.1,70z M-223.6,96.2h-3.8v-1.9h3.8V96.2z M-218,92.5h-15V73.7h15V92.5z"/>
		</g>
	</g>
	<g id="Envelope" style="&st60;">
		<g>
			<path style="&st68;" d="M-146.5,70h-35c-1.4,0-2.5,1.1-2.5,2.5v25c0,1.4,1.1,2.5,2.5,2.5h35c1.4,0,2.5-1.1,2.5-2.5v-25
				C-144,71.1-145.1,70-146.5,70z M-149.6,73.5L-164,85l-14.4-11.5H-149.6z M-146.8,96.5h-34.5V74.9l17.2,14.4l17.2-14.4v-1.4h0
				V96.5z"/>
		</g>
	</g>
	<path style="&st69;" d="M33.8,91.2L18.5,75.9c0,0-0.1-0.1-0.1-0.1l-0.2-0.2c-0.4-0.4-1-0.6-1.5-0.6c-0.6,0-1.1,0.2-1.5,0.6L15,75.8
		c0,0-0.1,0.1-0.1,0.1L-0.4,91.2c-0.8,0.8-0.8,2.2,0,3l0.2,0.2c0.8,0.8,2.2,0.8,3,0l13.9-13.9l13.9,13.9c0.8,0.8,2.2,0.8,3,0
		l0.2-0.2C34.6,93.4,34.6,92,33.8,91.2z"/>
	<path id="Twitter_1_" style="&st69;" d="M-77.1,73.5c-1.4,0.6-2.8,1-4.3,1.2c1.6-0.9,2.8-2.4,3.3-4.2c-1.5,0.9-3.1,1.5-4.8,1.8
		c-1.4-1.5-3.3-2.4-5.5-2.4c-4.2,0-7.6,3.4-7.6,7.6c0,0.6,0.1,1.2,0.2,1.7c-6.3-0.3-11.9-3.3-15.6-7.9c-0.7,1.1-1,2.4-1,3.8
		c0,2.6,1.3,4.9,3.4,6.3c-1.2,0-2.4-0.4-3.4-0.9c0,0,0,0.1,0,0.1c0,3.7,2.6,6.7,6.1,7.4c-0.6,0.2-1.3,0.3-2,0.3c-0.5,0-1,0-1.4-0.1
		c1,3,3.8,5.2,7.1,5.3c-2.6,2-5.9,3.2-9.4,3.2c-0.6,0-1.2,0-1.8-0.1c3.4,2.1,7.3,3.4,11.6,3.4c13.9,0,21.5-11.5,21.5-21.5
		c0-0.3,0-0.7,0-1C-79.4,76.4-78.1,75-77.1,73.5z"/>
	<path id="Facebook_1_" style="&st69;" d="M-37.8,100H-44V85h-3.1v-5.2h3.1v-3.1c0-4.2,1.8-6.7,6.7-6.7h4.1v5.2h-2.6
		c-1.9,0-2.1,0.7-2.1,2.1l0,2.6h4.7l-0.5,5.2h-4.1V100z"/>
	<path id="Twitter_4_" style="&st64;" d="M-254.1-136.5c-1.4,0.6-2.8,1-4.3,1.2c1.6-0.9,2.8-2.4,3.3-4.2c-1.5,0.9-3.1,1.5-4.8,1.8
		c-1.4-1.5-3.3-2.4-5.5-2.4c-4.2,0-7.6,3.4-7.6,7.6c0,0.6,0.1,1.2,0.2,1.7c-6.3-0.3-11.9-3.3-15.6-7.9c-0.7,1.1-1,2.4-1,3.8
		c0,2.6,1.3,4.9,3.4,6.3c-1.2,0-2.4-0.4-3.4-0.9c0,0,0,0.1,0,0.1c0,3.7,2.6,6.7,6.1,7.4c-0.6,0.2-1.3,0.3-2,0.3c-0.5,0-1,0-1.4-0.1
		c1,3,3.8,5.2,7.1,5.3c-2.6,2-5.9,3.2-9.4,3.2c-0.6,0-1.2,0-1.8-0.1c3.4,2.1,7.3,3.4,11.6,3.4c13.9,0,21.5-11.5,21.5-21.5
		c0-0.3,0-0.7,0-1C-256.4-133.6-255.1-135-254.1-136.5z"/>
	<path id="Facebook_4_" style="&st64;" d="M-214.8-110h-6.2v-15h-3.1v-5.2h3.1v-3.1c0-4.2,1.8-6.7,6.7-6.7h4.1v5.2h-2.6
		c-1.9,0-2.1,0.7-2.1,2.1l0,2.6h4.7l-0.5,5.2h-4.1V-110z"/>
	<g id="Google_Plus_2_" style="&st60;">
		<g>
			<path style="&st66;" d="M-105.8-138.6c0.2,0.2,0.5,0.4,0.8,0.7c0.3,0.3,0.6,0.7,0.9,1.1c0.3,0.4,0.5,0.9,0.7,1.5
				c0.2,0.6,0.3,1.2,0.3,2c0,1.4-0.3,2.5-0.9,3.4c-0.3,0.4-0.6,0.8-0.9,1.1c-0.4,0.3-0.8,0.7-1.2,1.1c-0.2,0.2-0.5,0.5-0.7,0.8
				c-0.2,0.3-0.4,0.7-0.4,1.1c0,0.4,0.1,0.7,0.4,1c0.2,0.3,0.4,0.5,0.6,0.7l1.3,1.1c0.8,0.7,1.6,1.4,2.2,2.2
				c0.6,0.8,0.9,1.9,0.9,3.3c0,1.9-0.8,3.6-2.5,5.1c-1.7,1.5-4.3,2.3-7.6,2.4c-2.8,0-4.8-0.6-6.2-1.8c-1.4-1.1-2.1-2.4-2.1-3.9
				c0-0.7,0.2-1.5,0.7-2.4c0.4-0.9,1.2-1.7,2.4-2.4c1.3-0.7,2.6-1.2,4-1.5c1.4-0.2,2.5-0.3,3.5-0.3c-0.3-0.4-0.5-0.8-0.8-1.2
				c-0.3-0.4-0.4-0.9-0.4-1.5c0-0.3,0-0.6,0.1-0.9c0.1-0.2,0.2-0.5,0.2-0.7c-0.4,0.1-0.9,0.1-1.3,0.1c-2.1,0-3.7-0.7-4.8-2
				c-1.2-1.2-1.7-2.6-1.7-4.2c0-1.9,0.8-3.7,2.4-5.3c1.1-0.9,2.3-1.5,3.5-1.8c1.2-0.2,2.3-0.4,3.4-0.4h7.9l-2.4,1.4H-105.8z
				 M-104.2-115.9c0-1-0.3-1.9-1-2.6c-0.7-0.7-1.8-1.6-3.2-2.6c-0.3,0-0.5,0-0.9,0c-0.2,0-0.7,0-1.5,0.1c-0.8,0.1-1.6,0.3-2.5,0.6
				c-0.2,0.1-0.5,0.2-0.8,0.3c-0.4,0.2-0.7,0.4-1.1,0.7c-0.4,0.3-0.7,0.7-0.9,1.2c-0.3,0.5-0.4,1.1-0.4,1.8c0,1.4,0.6,2.5,1.9,3.4
				c1.2,0.9,2.8,1.4,4.9,1.4c1.9,0,3.3-0.4,4.3-1.2C-104.7-113.7-104.2-114.7-104.2-115.9z M-109.7-127.5c1,0,1.9-0.4,2.6-1.1
				c0.3-0.5,0.5-1,0.6-1.5c0.1-0.5,0.1-1,0.1-1.3c0-1.6-0.4-3.1-1.2-4.7c-0.4-0.8-0.9-1.4-1.5-1.8c-0.6-0.4-1.3-0.7-2.1-0.7
				c-1.1,0-2,0.5-2.7,1.3c-0.6,0.9-0.9,1.8-0.9,2.9c0,1.4,0.4,2.9,1.3,4.4c0.4,0.7,0.9,1.3,1.6,1.8
				C-111.3-127.7-110.5-127.5-109.7-127.5z"/>
		</g>
		<polygon id="PLUS_2_" style="&st66;" points="-90.2,-135.7 -94.4,-135.7 -94.4,-139.9 -96.4,-139.9 -96.4,-135.7 -100.5,-135.7 
			-100.5,-133.7 -96.4,-133.7 -96.4,-129.6 -94.4,-129.6 -94.4,-133.7 -90.2,-133.7 		"/>
	</g>
	<g id="LinkedIn_2_" style="&st60;">
		<path style="&st66;" d="M-179.6-130.1h6.2v20h-6.2V-130.1z M-176.5-140c2,0,3.6,1.6,3.6,3.6c0,2-1.6,3.6-3.6,3.6
			c-2,0-3.6-1.6-3.6-3.6C-180.1-138.4-178.5-140-176.5-140"/>
		<path style="&st66;" d="M-169.5-130.1h6v2.7h0.1c0.8-1.6,2.9-3.2,5.9-3.2c6.3,0,7.5,4.2,7.5,9.5v11h-6.2v-9.7c0-2.3,0-5.3-3.2-5.3
			c-3.2,0-3.7,2.5-3.7,5.1v9.9h-6.2V-130.1z"/>
	</g>
	<path id="Twitter_2_" style="&st59;" d="M-254.1-66.5c-1.4,0.6-2.8,1-4.3,1.2c1.6-0.9,2.8-2.4,3.3-4.2c-1.5,0.9-3.1,1.5-4.8,1.8
		c-1.4-1.5-3.3-2.4-5.5-2.4c-4.2,0-7.6,3.4-7.6,7.6c0,0.6,0.1,1.2,0.2,1.7c-6.3-0.3-11.9-3.3-15.6-7.9c-0.7,1.1-1,2.4-1,3.8
		c0,2.6,1.3,4.9,3.4,6.3c-1.2,0-2.4-0.4-3.4-0.9c0,0,0,0.1,0,0.1c0,3.7,2.6,6.7,6.1,7.4c-0.6,0.2-1.3,0.3-2,0.3c-0.5,0-1,0-1.4-0.1
		c1,3,3.8,5.2,7.1,5.3c-2.6,2-5.9,3.2-9.4,3.2c-0.6,0-1.2,0-1.8-0.1c3.4,2.1,7.3,3.4,11.6,3.4c13.9,0,21.5-11.5,21.5-21.5
		c0-0.3,0-0.7,0-1C-256.4-63.6-255.1-65-254.1-66.5z"/>
	<path id="Facebook_2_" style="&st59;" d="M-214.8-40h-6.2v-15h-3.1v-5.2h3.1v-3.1c0-4.2,1.8-6.7,6.7-6.7h4.1v5.2h-2.6
		c-1.9,0-2.1,0.7-2.1,2.1l0,2.6h4.7l-0.5,5.2h-4.1V-40z"/>
	<text transform="matrix(1 0 0 1 -461 -113.0243)" style="&st60;"><tspan x="0" y="0" style="&st58; font-family:'MyriadPro-Regular'; font-size:12;">Articles: </tspan><tspan x="42" y="0" style="&st3; font-family:'MyriadPro-Regular'; font-size:12;">#585858 / #333</tspan><tspan x="0" y="14.4" style="&st58; font-family:'MyriadPro-Regular'; font-size:12;">Icons</tspan></text>
	<path id="Twitter_3_" style="&st70;" d="M-254.1,3.5c-1.4,0.6-2.8,1-4.3,1.2c1.6-0.9,2.8-2.4,3.3-4.2c-1.5,0.9-3.1,1.5-4.8,1.8
		c-1.4-1.5-3.3-2.4-5.5-2.4c-4.2,0-7.6,3.4-7.6,7.6c0,0.6,0.1,1.2,0.2,1.7c-6.3-0.3-11.9-3.3-15.6-7.9c-0.7,1.1-1,2.4-1,3.8
		c0,2.6,1.3,4.9,3.4,6.3c-1.2,0-2.4-0.4-3.4-0.9c0,0,0,0.1,0,0.1c0,3.7,2.6,6.7,6.1,7.4c-0.6,0.2-1.3,0.3-2,0.3c-0.5,0-1,0-1.4-0.1
		c1,3,3.8,5.2,7.1,5.3c-2.6,2-5.9,3.2-9.4,3.2c-0.6,0-1.2,0-1.8-0.1c3.4,2.1,7.3,3.4,11.6,3.4c13.9,0,21.5-11.5,21.5-21.5
		c0-0.3,0-0.7,0-1C-256.4,6.4-255.1,5-254.1,3.5z"/>
	<path id="Facebook_3_" style="&st71;" d="M-214.8,30h-6.2V15h-3.1V9.8h3.1V6.7c0-4.2,1.8-6.7,6.7-6.7h4.1v5.2h-2.6
		c-1.9,0-2.1,0.7-2.1,2.1l0,2.6h4.7l-0.5,5.2h-4.1V30z"/>
	<g id="Google_Plus_1_" style="&st60;">
		<g>
			<path style="&st72;" d="M-105.8,1.4c0.2,0.2,0.5,0.4,0.8,0.7c0.3,0.3,0.6,0.7,0.9,1.1c0.3,0.4,0.5,0.9,0.7,1.5
				c0.2,0.6,0.3,1.2,0.3,2c0,1.4-0.3,2.5-0.9,3.4c-0.3,0.4-0.6,0.8-0.9,1.1c-0.4,0.3-0.8,0.7-1.2,1.1c-0.2,0.2-0.5,0.5-0.7,0.8
				c-0.2,0.3-0.4,0.7-0.4,1.1c0,0.4,0.1,0.7,0.4,1c0.2,0.3,0.4,0.5,0.6,0.7l1.3,1.1c0.8,0.7,1.6,1.4,2.2,2.2
				c0.6,0.8,0.9,1.9,0.9,3.3c0,1.9-0.8,3.6-2.5,5.1c-1.7,1.5-4.3,2.3-7.6,2.4c-2.8,0-4.8-0.6-6.2-1.8c-1.4-1.1-2.1-2.4-2.1-3.9
				c0-0.7,0.2-1.5,0.7-2.4c0.4-0.9,1.2-1.7,2.4-2.4c1.3-0.7,2.6-1.2,4-1.5c1.4-0.2,2.5-0.3,3.5-0.3c-0.3-0.4-0.5-0.8-0.8-1.2
				c-0.3-0.4-0.4-0.9-0.4-1.5c0-0.3,0-0.6,0.1-0.9c0.1-0.2,0.2-0.5,0.2-0.7c-0.4,0.1-0.9,0.1-1.3,0.1c-2.1,0-3.7-0.7-4.8-2
				c-1.2-1.2-1.7-2.6-1.7-4.2c0-1.9,0.8-3.7,2.4-5.3c1.1-0.9,2.3-1.5,3.5-1.8c1.2-0.2,2.3-0.4,3.4-0.4h7.9l-2.4,1.4H-105.8z
				 M-104.2,24.1c0-1-0.3-1.9-1-2.6c-0.7-0.7-1.8-1.6-3.2-2.6c-0.3,0-0.5,0-0.9,0c-0.2,0-0.7,0-1.5,0.1c-0.8,0.1-1.6,0.3-2.5,0.6
				c-0.2,0.1-0.5,0.2-0.8,0.3c-0.4,0.2-0.7,0.4-1.1,0.7c-0.4,0.3-0.7,0.7-0.9,1.2c-0.3,0.5-0.4,1.1-0.4,1.8c0,1.4,0.6,2.5,1.9,3.4
				c1.2,0.9,2.8,1.4,4.9,1.4c1.9,0,3.3-0.4,4.3-1.2C-104.7,26.3-104.2,25.3-104.2,24.1z M-109.7,12.5c1,0,1.9-0.4,2.6-1.1
				c0.3-0.5,0.5-1,0.6-1.5c0.1-0.5,0.1-1,0.1-1.3c0-1.6-0.4-3.1-1.2-4.7c-0.4-0.8-0.9-1.4-1.5-1.8c-0.6-0.4-1.3-0.7-2.1-0.7
				c-1.1,0-2,0.5-2.7,1.3c-0.6,0.9-0.9,1.8-0.9,2.9c0,1.4,0.4,2.9,1.3,4.4c0.4,0.7,0.9,1.3,1.6,1.8
				C-111.3,12.3-110.5,12.5-109.7,12.5z"/>
		</g>
		<polygon id="PLUS_1_" style="&st72;" points="-90.2,4.3 -94.4,4.3 -94.4,0.1 -96.4,0.1 -96.4,4.3 -100.5,4.3 -100.5,6.3 
			-96.4,6.3 -96.4,10.4 -94.4,10.4 -94.4,6.3 -90.2,6.3 		"/>
	</g>
	<polygon id="Play_3_" style="&st73;" points="-8,-40 -8,-70 17,-55 	"/>
</g>
<g id="Icon_Rollovers">
	<polygon id="Down_Arrow_3_" style="&st3;" points="-46,-54 -46,-70 -52,-70 -52,-54 -59,-54 -49,-40.2 -39,-54 	"/>
	<g>
		<path style="&st3;" d="M-168.5-70c-6.2,0-11.2,5-11.2,11.2s5,11.2,11.2,11.2c6.2,0,11.2-5,11.2-11.2S-162.3-70-168.5-70z
			 M-168.5-51.7c-3.9,0-7-3.1-7-7s3.1-7,7-7c3.9,0,7,3.1,7,7S-164.6-51.7-168.5-51.7z"/>
		<path style="&st74;" d="M-159.5-53.2c-0.4-0.4-1.1-0.4-1.5,0l-2.3,2.3c-0.4,0.4-0.4,1.1,0,1.5l9.1,9.1c0.4,0.4,1.1,0.4,1.5,0
			l2.3-2.3c0.4-0.4,0.4-1.1,0-1.5L-159.5-53.2z"/>
	</g>
	<g id="User_2_">
		<g>
			<path style="&st75;" d="M29.6-113.8c-0.8-4.5-4.1-8-8.5-9.1c0.8-1.2,1.2-2.6,1.2-4.1v-5.6c0-4.1-3.4-7.5-7.5-7.5
				c-4.1,0-7.5,3.4-7.5,7.5v5.6c0,1.5,0.5,2.9,1.2,4.1c-4.4,1-7.8,4.6-8.5,9.1h-0.2v1.9c0,1,0.8,1.9,1.9,1.9h26.2
				c1,0,1.9-0.8,1.9-1.9v-1.9H29.6z M11-132.5c0-2.1,1.7-3.8,3.8-3.8c2.1,0,3.8,1.7,3.8,3.8v5.6c0,2.1-1.7,3.8-3.8,3.8
				c-2.1,0-3.8-1.7-3.8-3.8V-132.5z M3.8-113.8c0.8-3.2,3.7-5.6,7.2-5.6h7.5c3.5,0,6.4,2.4,7.2,5.6H3.8z"/>
		</g>
	</g>
	<g id="Clock_6_">
		<g>
			<path style="&st75;" d="M-45.2-140c-8.3,0-15,6.7-15,15c0,8.3,6.7,15,15,15c8.3,0,15-6.7,15-15C-30.2-133.3-36.9-140-45.2-140z
				 M-45.2-113.8c-6.2,0-11.2-5-11.2-11.2s5-11.2,11.2-11.2s11.2,5,11.2,11.2S-39-113.8-45.2-113.8z M-43.3-132.5h-3.8v9.4h7.5v-3.8
				h-3.8V-132.5z"/>
		</g>
	</g>
	<g id="Heart_6_">
		<g>
			<path style="&st75;" d="M147.4-130.6c0-5.2-3.8-9.4-8.4-9.4c-2.7,0-5,1.4-6.6,3.5c-1.5-2.1-3.9-3.5-6.6-3.5
				c-4.7,0-8.4,4.2-8.4,9.4c0,0-1,9,15,20.6C148.4-121.6,147.4-130.6,147.4-130.6z M143.6-130.1c0,0.4-0.1,0.7-0.2,1.1
				c-0.6,2.9-2.8,8.9-11,14.1h0c-8.2-5.2-10.4-11.2-11-14.1c-0.1-0.3-0.1-0.7-0.2-1.1c0-0.4,0-0.6,0-0.6c0-0.2,0-0.3,0-0.5
				c0.1-1.1,0.4-2.1,0.9-2.9c0,0,0,0,0,0c0.2-0.2,0.3-0.5,0.5-0.7c0,0,0.1-0.1,0.1-0.1c0.2-0.2,0.3-0.3,0.5-0.5
				c0.1-0.1,0.2-0.1,0.3-0.2c0.2-0.1,0.3-0.2,0.5-0.3c0.2-0.1,0.3-0.1,0.5-0.2c0.1,0,0.2-0.1,0.4-0.1c0.3-0.1,0.6-0.1,0.9-0.1
				c0.3,0,0.9,0,0.9,0c4.2,0,5.6,5.6,5.6,5.6s1.5-5.6,5.6-5.6c0,0,0.7,0,0.9,0c0.3,0,0.6,0,0.9,0.1c0.1,0,0.2,0.1,0.4,0.1
				c0.2,0.1,0.3,0.1,0.5,0.2c0.2,0.1,0.3,0.2,0.5,0.3c0.1,0.1,0.2,0.1,0.3,0.2c0.2,0.1,0.4,0.3,0.5,0.5c0,0,0.1,0.1,0.1,0.1
				c0.2,0.2,0.4,0.4,0.5,0.7c0,0,0,0,0,0c0.5,0.8,0.8,1.8,0.9,2.9c0,0.2,0,0.3,0,0.5C143.7-130.6,143.6-130.4,143.6-130.1z"/>
		</g>
	</g>
	<polygon id="Down_Arrow_2_" style="&st76;" points="74,-122 90,-122 90,-128 74,-128 74,-135.2 60.2,-125 74,-114.9 	"/>
	<g id="Clock_3_">
		<g>
			<path style="&st74;" d="M-43.1,7.5h-3.8v9.4h7.5v-3.8h-3.8V7.5z M-45,0c-8.3,0-15,6.7-15,15s6.7,15,15,15s15-6.7,15-15
				S-36.7,0-45,0z M-45,26.2c-6.2,0-11.2-5-11.2-11.2s5-11.2,11.2-11.2s11.2,5,11.2,11.2S-38.8,26.2-45,26.2z"/>
		</g>
	</g>
	<g id="Heart_3_">
		<g>
			<path style="&st74;" d="M30,9.4C30,4.2,26.2,0,21.6,0c-2.7,0-5,1.4-6.6,3.5C13.5,1.4,11.1,0,8.4,0C3.8,0,0,4.2,0,9.4
				c0,0-1,9,15,20.6C31,18.4,30,9.4,30,9.4z M26.2,9.9c0,0.4-0.1,0.7-0.2,1.1c-0.6,2.9-2.8,8.9-11,14.1h0C6.8,19.9,4.6,13.9,4,11
				c-0.1-0.3-0.1-0.7-0.2-1.1c0-0.4,0-0.6,0-0.6c0-0.2,0-0.3,0-0.5C3.9,7.8,4.2,6.8,4.7,6c0,0,0,0,0,0c0.2-0.2,0.3-0.5,0.5-0.7
				c0,0,0.1-0.1,0.1-0.1C5.6,5,5.7,4.8,5.9,4.6C6,4.6,6.1,4.5,6.2,4.5c0.2-0.1,0.3-0.2,0.5-0.3C6.8,4.1,7,4,7.2,4
				c0.1,0,0.2-0.1,0.4-0.1c0.3-0.1,0.6-0.1,0.9-0.1c0.3,0,0.9,0,0.9,0c4.2,0,5.6,5.6,5.6,5.6s1.5-5.6,5.6-5.6c0,0,0.7,0,0.9,0
				c0.3,0,0.6,0,0.9,0.1c0.1,0,0.2,0.1,0.4,0.1C23,4,23.2,4.1,23.3,4.2c0.2,0.1,0.3,0.2,0.5,0.3c0.1,0.1,0.2,0.1,0.3,0.2
				c0.2,0.1,0.4,0.3,0.5,0.5c0,0,0.1,0.1,0.1,0.1c0.2,0.2,0.4,0.4,0.5,0.7c0,0,0,0,0,0c0.5,0.8,0.8,1.8,0.9,2.9c0,0.2,0,0.3,0,0.5
				C26.2,9.4,26.2,9.6,26.2,9.9z"/>
		</g>
	</g>
	<g>
		<path style="&st3;" d="M-179.6,9.9h6.2v20h-6.2V9.9z M-176.5,0c2,0,3.6,1.6,3.6,3.6c0,2-1.6,3.6-3.6,3.6c-2,0-3.6-1.6-3.6-3.6
			C-180.1,1.6-178.5,0-176.5,0"/>
		<path style="&st3;" d="M-169.5,9.9h6v2.7h0.1c0.8-1.6,2.9-3.2,5.9-3.2c6.3,0,7.5,4.2,7.5,9.5v11h-6.2v-9.7c0-2.3,0-5.3-3.2-5.3
			c-3.2,0-3.7,2.5-3.7,5.1V30h-6.2V9.9z"/>
	</g>
	<g id="Pin_2_">
		<g>
			<path style="&st74;" d="M-279.8,70c-6.2,0-11.2,5-11.2,11.3c0,6.2,9.4,18.7,11.2,18.7c1.8,0,11.3-12.5,11.3-18.7
				C-268.5,75-273.5,70-279.8,70z M-279.8,88.7c-4.1,0-7.5-3.4-7.5-7.5c0-4.1,3.4-7.5,7.5-7.5s7.5,3.4,7.5,7.5
				C-272.2,85.4-275.6,88.7-279.8,88.7z"/>
		</g>
	</g>
	<g id="iPhone_2_">
		<g>
			<path style="&st74;" d="M-216.1,70h-18.8c-1,0-1.9,0.8-1.9,1.9v26.2c0,1,0.8,1.9,1.9,1.9h18.8c1,0,1.9-0.8,1.9-1.9V71.9
				C-214.2,70.8-215.1,70-216.1,70z M-223.6,96.2h-3.8v-1.9h3.8V96.2z M-218,92.5h-15V73.7h15V92.5z"/>
		</g>
	</g>
	<g id="Envelope_2_">
		<g>
			<path style="&st74;" d="M-146.5,70h-35c-1.4,0-2.5,1.1-2.5,2.5v25c0,1.4,1.1,2.5,2.5,2.5h35c1.4,0,2.5-1.1,2.5-2.5v-25
				C-144,71.1-145.1,70-146.5,70z M-149.6,73.5L-164,85l-14.4-11.5H-149.6z M-146.8,96.5h-34.5V74.9l17.2,14.4l17.2-14.4v-1.4h0
				V96.5z"/>
		</g>
	</g>
	<path style="&st3;" d="M33.8,91.2L18.5,75.9c0,0-0.1-0.1-0.1-0.1l-0.2-0.2c-0.4-0.4-1-0.6-1.5-0.6c-0.6,0-1.1,0.2-1.5,0.6L15,75.8
		c0,0-0.1,0.1-0.1,0.1L-0.4,91.2c-0.8,0.8-0.8,2.2,0,3l0.2,0.2c0.8,0.8,2.2,0.8,3,0l13.9-13.9l13.9,13.9c0.8,0.8,2.2,0.8,3,0
		l0.2-0.2C34.6,93.4,34.6,92,33.8,91.2z"/>
	<path id="Twitter_8_" style="&st76;" d="M-254.1-136.5c-1.4,0.6-2.8,1-4.3,1.2c1.6-0.9,2.8-2.4,3.3-4.2c-1.5,0.9-3.1,1.5-4.8,1.8
		c-1.4-1.5-3.3-2.4-5.5-2.4c-4.2,0-7.6,3.4-7.6,7.6c0,0.6,0.1,1.2,0.2,1.7c-6.3-0.3-11.9-3.3-15.6-7.9c-0.7,1.1-1,2.4-1,3.8
		c0,2.6,1.3,4.9,3.4,6.3c-1.2,0-2.4-0.4-3.4-0.9c0,0,0,0.1,0,0.1c0,3.7,2.6,6.7,6.1,7.4c-0.6,0.2-1.3,0.3-2,0.3c-0.5,0-1,0-1.4-0.1
		c1,3,3.8,5.2,7.1,5.3c-2.6,2-5.9,3.2-9.4,3.2c-0.6,0-1.2,0-1.8-0.1c3.4,2.1,7.3,3.4,11.6,3.4c13.9,0,21.5-11.5,21.5-21.5
		c0-0.3,0-0.7,0-1C-256.4-133.6-255.1-135-254.1-136.5z"/>
	<path id="Facebook_8_" style="&st76;" d="M-214.8-110h-6.2v-15h-3.1v-5.2h3.1v-3.1c0-4.2,1.8-6.7,6.7-6.7h4.1v5.2h-2.6
		c-1.9,0-2.1,0.7-2.1,2.1l0,2.6h4.7l-0.5,5.2h-4.1V-110z"/>
	<g id="Google_Plus_4_">
		<g>
			<path style="&st76;" d="M-105.8-138.6c0.2,0.2,0.5,0.4,0.8,0.7c0.3,0.3,0.6,0.7,0.9,1.1c0.3,0.4,0.5,0.9,0.7,1.5
				c0.2,0.6,0.3,1.2,0.3,2c0,1.4-0.3,2.5-0.9,3.4c-0.3,0.4-0.6,0.8-0.9,1.1c-0.4,0.3-0.8,0.7-1.2,1.1c-0.2,0.2-0.5,0.5-0.7,0.8
				c-0.2,0.3-0.4,0.7-0.4,1.1c0,0.4,0.1,0.7,0.4,1c0.2,0.3,0.4,0.5,0.6,0.7l1.3,1.1c0.8,0.7,1.6,1.4,2.2,2.2
				c0.6,0.8,0.9,1.9,0.9,3.3c0,1.9-0.8,3.6-2.5,5.1c-1.7,1.5-4.3,2.3-7.6,2.4c-2.8,0-4.8-0.6-6.2-1.8c-1.4-1.1-2.1-2.4-2.1-3.9
				c0-0.7,0.2-1.5,0.7-2.4c0.4-0.9,1.2-1.7,2.4-2.4c1.3-0.7,2.6-1.2,4-1.5c1.4-0.2,2.5-0.3,3.5-0.3c-0.3-0.4-0.5-0.8-0.8-1.2
				c-0.3-0.4-0.4-0.9-0.4-1.5c0-0.3,0-0.6,0.1-0.9c0.1-0.2,0.2-0.5,0.2-0.7c-0.4,0.1-0.9,0.1-1.3,0.1c-2.1,0-3.7-0.7-4.8-2
				c-1.2-1.2-1.7-2.6-1.7-4.2c0-1.9,0.8-3.7,2.4-5.3c1.1-0.9,2.3-1.5,3.5-1.8c1.2-0.2,2.3-0.4,3.4-0.4h7.9l-2.4,1.4H-105.8z
				 M-104.2-115.9c0-1-0.3-1.9-1-2.6c-0.7-0.7-1.8-1.6-3.2-2.6c-0.3,0-0.5,0-0.9,0c-0.2,0-0.7,0-1.5,0.1c-0.8,0.1-1.6,0.3-2.5,0.6
				c-0.2,0.1-0.5,0.2-0.8,0.3c-0.4,0.2-0.7,0.4-1.1,0.7c-0.4,0.3-0.7,0.7-0.9,1.2c-0.3,0.5-0.4,1.1-0.4,1.8c0,1.4,0.6,2.5,1.9,3.4
				c1.2,0.9,2.8,1.4,4.9,1.4c1.9,0,3.3-0.4,4.3-1.2C-104.7-113.7-104.2-114.7-104.2-115.9z M-109.7-127.5c1,0,1.9-0.4,2.6-1.1
				c0.3-0.5,0.5-1,0.6-1.5c0.1-0.5,0.1-1,0.1-1.3c0-1.6-0.4-3.1-1.2-4.7c-0.4-0.8-0.9-1.4-1.5-1.8c-0.6-0.4-1.3-0.7-2.1-0.7
				c-1.1,0-2,0.5-2.7,1.3c-0.6,0.9-0.9,1.8-0.9,2.9c0,1.4,0.4,2.9,1.3,4.4c0.4,0.7,0.9,1.3,1.6,1.8
				C-111.3-127.7-110.5-127.5-109.7-127.5z"/>
		</g>
		<polygon id="PLUS_4_" style="&st76;" points="-90.2,-135.7 -94.4,-135.7 -94.4,-139.9 -96.4,-139.9 -96.4,-135.7 -100.5,-135.7 
			-100.5,-133.7 -96.4,-133.7 -96.4,-129.6 -94.4,-129.6 -94.4,-133.7 -90.2,-133.7 		"/>
	</g>
	<g id="LinkedIn_1_">
		<path style="&st76;" d="M-179.6-130.1h6.2v20h-6.2V-130.1z M-176.5-140c2,0,3.6,1.6,3.6,3.6c0,2-1.6,3.6-3.6,3.6
			c-2,0-3.6-1.6-3.6-3.6C-180.1-138.4-178.5-140-176.5-140"/>
		<path style="&st76;" d="M-169.5-130.1h6v2.7h0.1c0.8-1.6,2.9-3.2,5.9-3.2c6.3,0,7.5,4.2,7.5,9.5v11h-6.2v-9.7c0-2.3,0-5.3-3.2-5.3
			c-3.2,0-3.7,2.5-3.7,5.1v9.9h-6.2V-130.1z"/>
	</g>
	<path id="Twitter_7_" style="&st3;" d="M-254.1-66.5c-1.4,0.6-2.8,1-4.3,1.2c1.6-0.9,2.8-2.4,3.3-4.2c-1.5,0.9-3.1,1.5-4.8,1.8
		c-1.4-1.5-3.3-2.4-5.5-2.4c-4.2,0-7.6,3.4-7.6,7.6c0,0.6,0.1,1.2,0.2,1.7c-6.3-0.3-11.9-3.3-15.6-7.9c-0.7,1.1-1,2.4-1,3.8
		c0,2.6,1.3,4.9,3.4,6.3c-1.2,0-2.4-0.4-3.4-0.9c0,0,0,0.1,0,0.1c0,3.7,2.6,6.7,6.1,7.4c-0.6,0.2-1.3,0.3-2,0.3c-0.5,0-1,0-1.4-0.1
		c1,3,3.8,5.2,7.1,5.3c-2.6,2-5.9,3.2-9.4,3.2c-0.6,0-1.2,0-1.8-0.1c3.4,2.1,7.3,3.4,11.6,3.4c13.9,0,21.5-11.5,21.5-21.5
		c0-0.3,0-0.7,0-1C-256.4-63.6-255.1-65-254.1-66.5z"/>
	<path id="Facebook_7_" style="&st3;" d="M-214.8-40h-6.2v-15h-3.1v-5.2h3.1v-3.1c0-4.2,1.8-6.7,6.7-6.7h4.1v5.2h-2.6
		c-1.9,0-2.1,0.7-2.1,2.1l0,2.6h4.7l-0.5,5.2h-4.1V-40z"/>
	<g id="Google_Plus_3_">
		<g>
			<path style="&st3;" d="M-105.8,1.4c0.2,0.2,0.5,0.4,0.8,0.7c0.3,0.3,0.6,0.7,0.9,1.1c0.3,0.4,0.5,0.9,0.7,1.5
				c0.2,0.6,0.3,1.2,0.3,2c0,1.4-0.3,2.5-0.9,3.4c-0.3,0.4-0.6,0.8-0.9,1.1c-0.4,0.3-0.8,0.7-1.2,1.1c-0.2,0.2-0.5,0.5-0.7,0.8
				c-0.2,0.3-0.4,0.7-0.4,1.1c0,0.4,0.1,0.7,0.4,1c0.2,0.3,0.4,0.5,0.6,0.7l1.3,1.1c0.8,0.7,1.6,1.4,2.2,2.2
				c0.6,0.8,0.9,1.9,0.9,3.3c0,1.9-0.8,3.6-2.5,5.1c-1.7,1.5-4.3,2.3-7.6,2.4c-2.8,0-4.8-0.6-6.2-1.8c-1.4-1.1-2.1-2.4-2.1-3.9
				c0-0.7,0.2-1.5,0.7-2.4c0.4-0.9,1.2-1.7,2.4-2.4c1.3-0.7,2.6-1.2,4-1.5c1.4-0.2,2.5-0.3,3.5-0.3c-0.3-0.4-0.5-0.8-0.8-1.2
				c-0.3-0.4-0.4-0.9-0.4-1.5c0-0.3,0-0.6,0.1-0.9c0.1-0.2,0.2-0.5,0.2-0.7c-0.4,0.1-0.9,0.1-1.3,0.1c-2.1,0-3.7-0.7-4.8-2
				c-1.2-1.2-1.7-2.6-1.7-4.2c0-1.9,0.8-3.7,2.4-5.3c1.1-0.9,2.3-1.5,3.5-1.8c1.2-0.2,2.3-0.4,3.4-0.4h7.9l-2.4,1.4H-105.8z
				 M-104.2,24.1c0-1-0.3-1.9-1-2.6c-0.7-0.7-1.8-1.6-3.2-2.6c-0.3,0-0.5,0-0.9,0c-0.2,0-0.7,0-1.5,0.1c-0.8,0.1-1.6,0.3-2.5,0.6
				c-0.2,0.1-0.5,0.2-0.8,0.3c-0.4,0.2-0.7,0.4-1.1,0.7c-0.4,0.3-0.7,0.7-0.9,1.2c-0.3,0.5-0.4,1.1-0.4,1.8c0,1.4,0.6,2.5,1.9,3.4
				c1.2,0.9,2.8,1.4,4.9,1.4c1.9,0,3.3-0.4,4.3-1.2C-104.7,26.3-104.2,25.3-104.2,24.1z M-109.7,12.5c1,0,1.9-0.4,2.6-1.1
				c0.3-0.5,0.5-1,0.6-1.5c0.1-0.5,0.1-1,0.1-1.3c0-1.6-0.4-3.1-1.2-4.7c-0.4-0.8-0.9-1.4-1.5-1.8c-0.6-0.4-1.3-0.7-2.1-0.7
				c-1.1,0-2,0.5-2.7,1.3c-0.6,0.9-0.9,1.8-0.9,2.9c0,1.4,0.4,2.9,1.3,4.4c0.4,0.7,0.9,1.3,1.6,1.8
				C-111.3,12.3-110.5,12.5-109.7,12.5z"/>
		</g>
		<polygon id="PLUS_3_" style="&st3;" points="-90.2,4.3 -94.4,4.3 -94.4,0.1 -96.4,0.1 -96.4,4.3 -100.5,4.3 -100.5,6.3 -96.4,6.3 
			-96.4,10.4 -94.4,10.4 -94.4,6.3 -90.2,6.3 		"/>
	</g>
</g>
</svg>
