<?xml version="1.0" encoding="utf-8"?>
<!-- Generator: Adobe Illustrator 17.1.0, SVG Export Plug-In . SVG Version: 6.00 Build 0)  -->
<!DOCTYPE svg PUBLIC "-//W3C//DTD SVG 1.1//EN" "http://www.w3.org/Graphics/SVG/1.1/DTD/svg11.dtd" [
	<!ENTITY ns_flows "http://ns.adobe.com/Flows/1.0/">
	<!ENTITY ns_extend "http://ns.adobe.com/Extensibility/1.0/">
	<!ENTITY ns_ai "http://ns.adobe.com/AdobeIllustrator/10.0/">
	<!ENTITY ns_graphs "http://ns.adobe.com/Graphs/1.0/">
	<!ENTITY st0 "display:none;">
	<!ENTITY st1 "display:inline;fill:#252525;">
	<!ENTITY st2 "fill:#FFFFFF;">
	<!ENTITY st3 "fill:#149B9E;">
	<!ENTITY st4 "fill:#27BDBE;">
	<!ENTITY st5 "display:none;fill:none;">
	<!ENTITY st6 "fill:#808080;">
	<!ENTITY st7 "fill:#808080;stroke:#7E7E7E;stroke-width:2.9999;stroke-miterlimit:2.6131;">
	<!ENTITY st8 "clip-path:url(#SVGID_2_);fill:#808080;">
	<!ENTITY st9 "clip-path:url(#SVGID_4_);fill:#808080;">
	<!ENTITY st10 "clip-path:url(#SVGID_6_);fill:#808080;">
	<!ENTITY st11 "clip-path:url(#SVGID_8_);fill:#808080;">
	<!ENTITY st12 "clip-path:url(#SVGID_10_);fill:#808080;">
	<!ENTITY st13 "clip-path:url(#SVGID_12_);fill:#808080;">
	<!ENTITY st14 "clip-path:url(#SVGID_14_);fill:#808080;">
	<!ENTITY st15 "clip-path:url(#SVGID_16_);fill:#808080;">
	<!ENTITY st16 "clip-path:url(#SVGID_18_);fill:#808080;">
	<!ENTITY st17 "clip-path:url(#SVGID_20_);fill:#808080;">
	<!ENTITY st18 "clip-path:url(#SVGID_22_);fill:#808080;">
	<!ENTITY st19 "clip-path:url(#SVGID_24_);fill:#808080;">
	<!ENTITY st20 "clip-path:url(#SVGID_26_);fill:#808080;">
	<!ENTITY st21 "clip-path:url(#SVGID_28_);fill:#808080;">
	<!ENTITY st22 "clip-path:url(#SVGID_30_);fill:#808080;">
	<!ENTITY st23 "clip-path:url(#SVGID_32_);fill:#808080;">
	<!ENTITY st24 "clip-path:url(#SVGID_34_);fill:#808080;">
	<!ENTITY st25 "clip-path:url(#SVGID_36_);fill:#808080;">
	<!ENTITY st26 "clip-path:url(#SVGID_38_);fill:#808080;">
	<!ENTITY st27 "clip-path:url(#SVGID_40_);fill:#808080;">
	<!ENTITY st28 "clip-path:url(#SVGID_42_);fill:#808080;">
	<!ENTITY st29 "clip-path:url(#SVGID_44_);fill:#808080;">
	<!ENTITY st30 "clip-path:url(#SVGID_46_);fill:#808080;">
	<!ENTITY st31 "clip-path:url(#SVGID_48_);fill:#808080;">
	<!ENTITY st32 "clip-path:url(#SVGID_50_);fill:#808080;">
	<!ENTITY st33 "clip-path:url(#SVGID_52_);fill:#808080;">
	<!ENTITY st34 "clip-path:url(#SVGID_54_);fill:#808080;">
	<!ENTITY st35 "clip-path:url(#SVGID_56_);fill:#808080;">
	<!ENTITY st36 "clip-path:url(#SVGID_58_);fill:#808080;">
	<!ENTITY st37 "clip-path:url(#SVGID_60_);fill:#808080;">
	<!ENTITY st38 "clip-path:url(#SVGID_62_);fill:#808080;">
	<!ENTITY st39 "clip-path:url(#SVGID_64_);fill:#808080;">
	<!ENTITY st40 "clip-path:url(#SVGID_66_);fill:#808080;">
	<!ENTITY st41 "clip-path:url(#SVGID_68_);fill:#808080;">
	<!ENTITY st42 "clip-path:url(#SVGID_70_);fill:#808080;">
	<!ENTITY st43 "clip-path:url(#SVGID_72_);fill:#808080;">
	<!ENTITY st44 "clip-path:url(#SVGID_74_);fill:#808080;">
	<!ENTITY st45 "clip-path:url(#SVGID_76_);fill:#808080;">
	<!ENTITY st46 "fill:#B3B3B3;">
	<!ENTITY st47 "opacity:0.35;clip-path:url(#SVGID_78_);fill:#231F20;">
	<!ENTITY st48 "opacity:0.35;clip-path:url(#SVGID_80_);fill:#231F20;">
	<!ENTITY st49 "opacity:0.35;clip-path:url(#i_Dot_1_);">
	<!ENTITY st50 "fill:#231F20;">
	<!ENTITY st51 "opacity:0.35;clip-path:url(#i_1_);">
	<!ENTITY st52 "opacity:0.35;clip-path:url(#SVGID_82_);">
	<!ENTITY st53 "opacity:0.35;clip-path:url(#SVGID_84_);">
	<!ENTITY st54 "opacity:0.35;clip-path:url(#SVGID_86_);">
	<!ENTITY st55 "opacity:0.35;clip-path:url(#SVGID_88_);">
	<!ENTITY st56 "opacity:0.35;clip-path:url(#SVGID_90_);">
	<!ENTITY st57 "opacity:0.35;clip-path:url(#SVGID_92_);">
	<!ENTITY st58 "opacity:0.35;clip-path:url(#SVGID_94_);">
	<!ENTITY st59 "fill:#CCCCCC;">
	<!ENTITY st60 "fill-rule:evenodd;clip-rule:evenodd;fill:#CCCCCC;">
	<!ENTITY st61 "fill-rule:evenodd;clip-rule:evenodd;fill:#585858;">
	<!ENTITY st62 "fill:#585858;">
	<!ENTITY st63 "fill-rule:evenodd;clip-rule:evenodd;fill:#B3B3B3;">
	<!ENTITY st64 "fill:#0177B5;">
	<!ENTITY st65 "fill-rule:evenodd;clip-rule:evenodd;fill:#808080;">
	<!ENTITY st66 "fill:#2AA9E0;">
	<!ENTITY st67 "fill:#3B5999;">
	<!ENTITY st68 "fill:#C30907;">
	<!ENTITY st69 "display:inline;fill:#FFFFFF;">
	<!ENTITY st70 "display:inline;">
	<!ENTITY st71 "fill-rule:evenodd;clip-rule:evenodd;fill:#FFFFFF;">
	<!ENTITY st72 "fill-rule:evenodd;clip-rule:evenodd;fill:#333333;">
	<!ENTITY st73 "display:inline;fill:#333333;">
	<!ENTITY st74 "fill:#333333;">
]>
<svg version="1.1" xmlns:x="&ns_extend;" xmlns:i="&ns_ai;" xmlns:graph="&ns_graphs;"
	 xmlns="http://www.w3.org/2000/svg" xmlns:xlink="http://www.w3.org/1999/xlink" xmlns:a="http://ns.adobe.com/AdobeSVGViewerExtensions/3.0/"
	 x="0px" y="0px" viewBox="0 0 330 63" style="enable-background:new 0 0 330 63;" xml:space="preserve">
<g id="Background" style="&st0;">
	<rect x="-860" y="-517" style="&st1;" width="1280" height="800"/>
</g>
<g id="No_Rollover">
	<g id="MGM_Logo">
		<path style="&st6;" d="M330,35.1c0,2.1-0.9,3.7-2.7,5c-1.8,1.2-4.1,1.9-7,1.9c-3.6,0-6.9-0.6-9.8-1.9l1-3.5
			c3.1,1.1,6.1,1.6,8.7,1.6c3.5,0,5.3-1,5.3-2.9c0-0.8-0.4-1.4-1.2-1.9c-0.6-0.4-2.2-1.1-4.8-2c-3-1.1-5.1-2.2-6.2-3.1
			c-1.3-1.1-1.9-2.6-1.9-4.4c0-4.1,3.1-6.2,9.4-6.2c3.1,0,5.9,0.4,8.5,1.1l-0.7,3.7c-2.6-0.6-5.2-0.9-7.8-0.9
			c-1.8,0-3.1,0.2-3.9,0.5c-0.7,0.3-1.1,0.9-1.1,1.7c0,0.8,0.5,1.5,1.4,2.1c0.7,0.4,2.4,1.1,5.2,2.2c3,1.2,4.9,2.1,5.8,2.8
			C329.4,31.9,330,33.3,330,35.1"/>
		<g>
			<defs>
				<path id="SVGID_1_" d="M3,25.8c0,5.6,0.8,10.8,3.7,15v-3.7c0-4.6,3.7-7.9,7.4-9.9C10.4,28.4,6.2,27.5,3,25.8z"/>
			</defs>
			<use xlink:href="#SVGID_1_"  style="overflow:visible;fill:#808080;"/>
			<clipPath id="SVGID_2_">
				<use xlink:href="#SVGID_1_"  style="overflow:visible;"/>
			</clipPath>
			<rect x="3" y="25.8" style="&st8;" width="11.1" height="15"/>
		</g>
		<g>
			<defs>
				<path id="SVGID_3_" d="M7.5,20.8l-1.1,1H5.2C5,21.2,7,19.9,7.5,20.8 M6.7,19.6c-1.3,1.1-2.7,2.2-4.3,1.7c1,0.8,2.5,1,4,0.9
					c1.4,0.9,3.1-1.6,5-1.6c2.6-0.4,6-0.8,7.8,1.6l-0.9-1.8c-2.5-0.1-4.6-1-6.6-2.2c-0.5-0.2-0.9-0.3-1.4-0.3
					C8.9,17.8,7.8,18.7,6.7,19.6"/>
			</defs>
			<use xlink:href="#SVGID_3_"  style="overflow:visible;fill:#808080;"/>
			<clipPath id="SVGID_4_">
				<use xlink:href="#SVGID_3_"  style="overflow:visible;"/>
			</clipPath>
			<rect x="2.3" y="17.8" style="&st9;" width="16.8" height="5.3"/>
		</g>
		<g>
			<defs>
				<path id="SVGID_5_" d="M0,12.2c1.3,0.3,2.5,0.6,3.9,0.8c2.6-1.2,3.3-3.3,2.2-6.2C4.6,4.6,2.4,3.3,0,2.7V12.2z"/>
			</defs>
			<use xlink:href="#SVGID_5_"  style="overflow:visible;fill:#808080;"/>
			<clipPath id="SVGID_6_">
				<use xlink:href="#SVGID_5_"  style="overflow:visible;"/>
			</clipPath>
			<rect x="0" y="2.7" style="&st10;" width="7.2" height="10.3"/>
		</g>
		<g>
			<defs>
				<path id="SVGID_7_" d="M12.8,34.4c-4.3,8.8,1.7,20.8-4.4,28.4H18c0.4-0.4,0.8-0.8,1.2-1.3c7.1-9.2-6.7-14.7-6.5-23.5
					c0.4-3.5,2.3-6.2,4.7-9.1l-0.2-0.2C15,30.7,14.1,32.2,12.8,34.4"/>
			</defs>
			<use xlink:href="#SVGID_7_"  style="overflow:visible;fill:#808080;"/>
			<clipPath id="SVGID_8_">
				<use xlink:href="#SVGID_7_"  style="overflow:visible;"/>
			</clipPath>
			<rect x="8.4" y="28.6" style="&st11;" width="17.9" height="34.2"/>
		</g>
		<g>
			<defs>
				<path id="SVGID_9_" d="M31.4,0c9.4,7.2,15.5,18.6,15.5,31.4c0,12.8-6.1,24.2-15.5,31.4h31.4V0H31.4z"/>
			</defs>
			<use xlink:href="#SVGID_9_"  style="overflow:visible;fill:#808080;"/>
			<clipPath id="SVGID_10_">
				<use xlink:href="#SVGID_9_"  style="overflow:visible;"/>
			</clipPath>
			<rect x="31.4" y="0" style="&st12;" width="31.4" height="62.8"/>
		</g>
		<g>
			<defs>
				<path id="SVGID_11_" d="M0,62.8h5.4l1.3-1.1C14.1,51.8,5.3,44.8,0,37V62.8z"/>
			</defs>
			<use xlink:href="#SVGID_11_"  style="overflow:visible;fill:#808080;"/>
			<clipPath id="SVGID_12_">
				<use xlink:href="#SVGID_11_"  style="overflow:visible;"/>
			</clipPath>
			<rect x="0" y="37" style="&st13;" width="14.1" height="25.8"/>
		</g>
		<g>
			<defs>
				<path id="SVGID_13_" d="M0,0v1C1.5,1.2,3,1.7,4.2,2.3C7.2,4,9.5,7,9.3,10.5L16,9.9c0.9-2.2,1.2-5.6,0.4-7.4
					c-0.5-1.1-1-1.9-1.6-2.6H0z"/>
			</defs>
			<use xlink:href="#SVGID_13_"  style="overflow:visible;fill:#808080;"/>
			<clipPath id="SVGID_14_">
				<use xlink:href="#SVGID_13_"  style="overflow:visible;"/>
			</clipPath>
			<rect x="0" y="0" style="&st14;" width="17.3" height="10.5"/>
		</g>
		<g>
			<defs>
				<path id="SVGID_15_" d="M17.9,0c1.4,1.9,1.4,4.4,1.6,6.5c2.6-2,5.9-3.2,9.3-2.2c-2.4-1.8-3.9-3.2-6.7-4.3H17.9z"/>
			</defs>
			<use xlink:href="#SVGID_15_"  style="overflow:visible;fill:#808080;"/>
			<clipPath id="SVGID_16_">
				<use xlink:href="#SVGID_15_"  style="overflow:visible;"/>
			</clipPath>
			<rect x="17.9" y="0" style="&st15;" width="10.9" height="6.5"/>
		</g>
		<g>
			<defs>
				<path id="SVGID_17_" d="M30.6,39.7c1.3,4.6-4.1,3.8-6.5,5.1c-0.9-0.7-0.5-1.9-0.6-2.8l0.6-0.6c0.6,1.8,1.7,1.1,2.9,0.4
					c0.7-0.4,1.5-0.8,2.2-0.7C30,40.8,29.6,39.5,30.6,39.7 M24.9,33.1c1.2-1.3,4.7-3.9,5.9-2.9c0.3,0.3,0.4,1.1,0.4,1.9l-0.6,1.4
					l-0.7-1.8c-1.7,0.4-3.2,1-4,2.6c-0.1,0.5,0.1,1.4-0.4,1.8C24.4,35.8,25,34,24.9,33.1 M23.7,33.1c-2,0.6-3.9-0.7-5.9-1.1
					c0-0.3-0.1-0.6,0.1-0.7c-2.9,1.8-2.1,5.3-2.7,8c0.7,3.1,4,4.3,6.3,6c3.3,0.6,6.4-0.9,9.3-2c0.5,0.5,1.2,0.9,0.8,1.7
					c-2.2,3.2-5.7,4.6-9.6,4.3c2.3,4.5,0.8,9.6-1.7,13.5h2.3c7-3.2,13.7-8.1,14.2-17.4c0.7-5.9,0.2-12.1-4-16.2c-0.3,0-0.6,0-0.9,0
					c-0.7,0-1.5,0.1-2-0.6C28.1,30.4,25.6,31.1,23.7,33.1"/>
			</defs>
			<use xlink:href="#SVGID_17_"  style="overflow:visible;fill:#808080;"/>
			<clipPath id="SVGID_18_">
				<use xlink:href="#SVGID_17_"  style="overflow:visible;"/>
			</clipPath>
			<rect x="15" y="28.6" style="&st16;" width="22.5" height="34.2"/>
		</g>
		<g>
			<defs>
				<path id="SVGID_19_" d="M25.9,5.9c-3.1,0.2-6.1,2.4-7.2,4.3c2.1,1.2,4.5,3,6.5,4.8c-0.1,0.7,0.4,1.7-0.6,2c-1.1-0.8-2-3-3.3-2.2
					c1.1,2.2,3.9,2.5,6.1,3.1c0.8,0.8,0.6,2.2,2.4,1.7c0.8,0.2,1.2,1.2,1.4,2c-0.9,1.7-3,1.6-4.9,1.4c-0.9-0.1-1.9-0.2-2.6,0
					c1.8,0.7,3.8,0.9,5.4,2c1.7,1.1,2.1-1.4,2.8-2.2c2.8,0.7,1.3,3.7,2.5,5.3c6,6.3,4.8,17.3,1.8,24.5c8.3-7.6,7.6-24.4,5.7-31.2
					C40,14.7,34.3,5.9,26.4,5.9C26.3,5.9,26.1,5.9,25.9,5.9"/>
			</defs>
			<use xlink:href="#SVGID_19_"  style="overflow:visible;fill:#808080;"/>
			<clipPath id="SVGID_20_">
				<use xlink:href="#SVGID_19_"  style="overflow:visible;"/>
			</clipPath>
			<rect x="18.6" y="5.9" style="&st17;" width="25.9" height="46.6"/>
		</g>
		<g>
			<defs>
				<path id="SVGID_21_" d="M25.9,5.9c-1.6,0.1-3.1,0.7-4.4,1.6c4.8,0.7,9.9,2,15.4,4.1c-2.7-3.3-6.2-5.7-10.3-5.7
					C26.2,5.9,26.1,5.9,25.9,5.9 M0,9c2-0.6,4.1-1.1,6.3-1.5C6.3,7.3,6.2,7.1,6.1,6.9C4.6,4.6,2.4,3.3,0,2.7V9z M0,0v1
					c1.5,0.2,3,0.6,4.2,1.2c2,1.2,3.7,2.9,4.5,4.9c2.6-0.3,5.3-0.3,8-0.2C17,5.3,17,3.6,16.5,2.6c-0.5-1.1-1-1.9-1.6-2.6H0z M17.9,0
					c1.4,1.9,1.4,4.4,1.6,6.5c2.6-2,5.9-3.2,9.3-2.2c-2.4-1.8-3.9-3.2-6.7-4.3H17.9z M31.4,0c4.9,3.7,8.8,8.6,11.5,14.2
					c6.2,2.9,12.8,6.7,19.9,11.6V0H31.4z"/>
			</defs>
			<use xlink:href="#SVGID_21_"  style="overflow:visible;fill:#808080;"/>
			<clipPath id="SVGID_22_">
				<use xlink:href="#SVGID_21_"  style="overflow:visible;"/>
			</clipPath>
			<rect x="0" y="0" style="&st18;" width="62.8" height="25.8"/>
		</g>
		<g>
			<defs>
				<path id="SVGID_23_" d="M8.4,62.8H18c0.4-0.4,0.8-0.8,1.2-1.3c1.4-1.9,2-3.6,2-5.2c-3.1-0.2-6.4-0.8-9.9-1.9
					C11.1,57.5,10.4,60.4,8.4,62.8 M23,56.3c-0.4,2.3-1.4,4.6-2.7,6.5h2.3c4.3-2,8.5-4.6,11.2-8.4C30.5,55.6,26.9,56.3,23,56.3
					 M0,62.8h5.4l1.3-1.1c2.1-2.9,2.9-5.5,2.8-7.9c-3-1.1-6.2-2.5-9.5-4.3V62.8z M42.6,49.4c-2.7,5.3-6.5,9.8-11.2,13.4h31.4V19.2
					C58.1,30.4,51.8,42.2,42.6,49.4"/>
			</defs>
			<use xlink:href="#SVGID_23_"  style="overflow:visible;fill:#808080;"/>
			<clipPath id="SVGID_24_">
				<use xlink:href="#SVGID_23_"  style="overflow:visible;"/>
			</clipPath>
			<rect x="0" y="19.2" style="&st19;" width="62.8" height="43.6"/>
		</g>
		<g>
			<defs>
				<path id="SVGID_25_" d="M17.5,31.6c0,0,0,0.1,0,0.1c0.1,0,0.2,0,0.3,0.1c0-0.2,0-0.4,0.1-0.5C17.7,31.4,17.6,31.5,17.5,31.6"/>
			</defs>
			<use xlink:href="#SVGID_25_"  style="overflow:visible;fill:#808080;"/>
			<clipPath id="SVGID_26_">
				<use xlink:href="#SVGID_25_"  style="overflow:visible;"/>
			</clipPath>
			<rect x="17.5" y="31.3" style="&st20;" width="0.4" height="0.5"/>
		</g>
		<g>
			<defs>
				<path id="SVGID_27_" d="M28.9,40.8c-0.7-0.1-1.5,0.3-2.2,0.7C25.8,42,25,42.4,24.4,42c0.6,0.9,1.6,0.3,2.6-0.2
					c0.7-0.4,1.5-0.8,2.2-0.7c0.7-0.3,0.5-1.4,1.2-1.4c0-0.1,0-0.2-0.1-0.3c-0.1,0-0.1,0-0.2,0C29.4,39.4,29.6,40.5,28.9,40.8"/>
			</defs>
			<use xlink:href="#SVGID_27_"  style="overflow:visible;fill:#808080;"/>
			<clipPath id="SVGID_28_">
				<use xlink:href="#SVGID_27_"  style="overflow:visible;"/>
			</clipPath>
			<rect x="24.4" y="39.4" style="&st21;" width="5.9" height="3.5"/>
		</g>
		<g>
			<defs>
				<path id="SVGID_29_" d="M17.9,31.3c0.1,0,0.1-0.1,0.2-0.1C18,31.2,17.9,31.3,17.9,31.3"/>
			</defs>
			<use xlink:href="#SVGID_29_"  style="overflow:visible;fill:#808080;"/>
			<clipPath id="SVGID_30_">
				<use xlink:href="#SVGID_29_"  style="overflow:visible;"/>
			</clipPath>
			<rect x="17.9" y="31.2" style="&st22;" width="0.2" height="0.1"/>
		</g>
		<g>
			<defs>
				<path id="SVGID_31_" d="M23.2,41.7c0.1,0.9-0.4,2.1,0.6,2.8h0c-0.5-0.7-0.2-1.7-0.3-2.5l0.5-0.5c-0.1-0.1-0.1-0.3-0.2-0.4
					L23.2,41.7z"/>
			</defs>
			<use xlink:href="#SVGID_31_"  style="overflow:visible;fill:#808080;"/>
			<clipPath id="SVGID_32_">
				<use xlink:href="#SVGID_31_"  style="overflow:visible;"/>
			</clipPath>
			<rect x="22.8" y="41.1" style="&st23;" width="1.1" height="3.4"/>
		</g>
		<g>
			<defs>
				<path id="SVGID_33_" d="M24.6,32.8c0.1,0.9-0.4,2.5,0.4,2.9c-0.3-0.5,0-1.9-0.1-2.6c1.2-1.3,4.5-3.8,5.8-3
					c-0.2-0.3-0.5-0.4-0.9-0.4C28.3,29.6,25.6,31.7,24.6,32.8"/>
			</defs>
			<use xlink:href="#SVGID_33_"  style="overflow:visible;fill:#808080;"/>
			<clipPath id="SVGID_34_">
				<use xlink:href="#SVGID_33_"  style="overflow:visible;"/>
			</clipPath>
			<rect x="24.2" y="29.3" style="&st24;" width="6.5" height="6.3"/>
		</g>
		<g>
			<defs>
				<path id="SVGID_35_" d="M29.7,31.7l0.5,1.5l0.1-0.3l-0.4-1.3C29.8,31.7,29.8,31.7,29.7,31.7"/>
			</defs>
			<use xlink:href="#SVGID_35_"  style="overflow:visible;fill:#808080;"/>
			<clipPath id="SVGID_36_">
				<use xlink:href="#SVGID_35_"  style="overflow:visible;"/>
			</clipPath>
			<rect x="29.7" y="31.7" style="&st25;" width="0.6" height="1.6"/>
		</g>
		<g>
			<defs>
				<path id="SVGID_37_" d="M22.8,15.1c0.4,0.5,0.9,1.1,1.3,1.4C23.6,16.1,23.2,15.5,22.8,15.1z"/>
			</defs>
			<use xlink:href="#SVGID_37_"  style="overflow:visible;fill:#808080;"/>
			<clipPath id="SVGID_38_">
				<use xlink:href="#SVGID_37_"  style="overflow:visible;"/>
			</clipPath>
			<rect x="22.8" y="15.1" style="&st26;" width="1.3" height="1.4"/>
		</g>
		<g>
			<defs>
				<path id="SVGID_39_" d="M28.2,19.2c0.3,0.4,0.6,0.6,1.5,0.3c0.2,0.1,0.3,0.1,0.5,0.2c-0.2-0.3-0.4-0.5-0.8-0.6
					C28.8,19.4,28.5,19.4,28.2,19.2"/>
			</defs>
			<use xlink:href="#SVGID_39_"  style="overflow:visible;fill:#808080;"/>
			<clipPath id="SVGID_40_">
				<use xlink:href="#SVGID_39_"  style="overflow:visible;"/>
			</clipPath>
			<rect x="28.2" y="19.2" style="&st27;" width="2" height="0.6"/>
		</g>
		<g>
			<defs>
				<path id="SVGID_41_" d="M18.6,10.2c2,1.1,4.2,2.8,6.2,4.6c0,0,0,0,0,0C22.9,12.9,20.7,11.3,18.6,10.2
					C18.7,10.1,18.7,10.1,18.6,10.2"/>
			</defs>
			<use xlink:href="#SVGID_41_"  style="overflow:visible;fill:#808080;"/>
			<clipPath id="SVGID_42_">
				<use xlink:href="#SVGID_41_"  style="overflow:visible;"/>
			</clipPath>
			<rect x="18.6" y="10.1" style="&st28;" width="6.2" height="4.7"/>
		</g>
		<g>
			<defs>
				<path id="SVGID_43_" d="M35.4,10c3,3.1,5.2,7.3,6.2,10.9c1.9,6.6,2.6,22.6-5,30.5c-0.1,0.3-0.3,0.7-0.4,1
					c8.3-7.6,7.6-24.4,5.7-31.2C40.9,17.6,38.6,13.2,35.4,10z"/>
			</defs>
			<use xlink:href="#SVGID_43_"  style="overflow:visible;fill:#808080;"/>
			<clipPath id="SVGID_44_">
				<use xlink:href="#SVGID_43_"  style="overflow:visible;"/>
			</clipPath>
			<rect x="35.4" y="10" style="&st29;" width="9.1" height="42.4"/>
		</g>
		<g>
			<defs>
				<path id="SVGID_45_" d="M16.6,41.8c1.4,1.4,3.4,2.3,4.9,3.5c3.3,0.6,6.4-0.9,9.3-2c0.1,0.1,0.2,0.2,0.3,0.3
					c-0.2-0.2-0.4-0.4-0.6-0.6c-3,1.1-6,2.6-9.3,2C19.8,44,18,43.1,16.6,41.8z"/>
			</defs>
			<use xlink:href="#SVGID_45_"  style="overflow:visible;fill:#808080;"/>
			<clipPath id="SVGID_46_">
				<use xlink:href="#SVGID_45_"  style="overflow:visible;"/>
			</clipPath>
			<rect x="16.6" y="41.8" style="&st30;" width="14.5" height="4.1"/>
		</g>
		<g>
			<defs>
				<path id="SVGID_47_" d="M21.8,15.6c1.3,1.5,3.6,1.7,5.5,2.2c-0.1-0.1-0.1-0.2-0.2-0.3c-0.8-0.2-1.6-0.4-2.4-0.6
					c0,0-0.1,0-0.1,0.1c-0.1,0-0.1-0.1-0.2-0.1C23.4,16.6,22.5,16.3,21.8,15.6z"/>
			</defs>
			<use xlink:href="#SVGID_47_"  style="overflow:visible;fill:#808080;"/>
			<clipPath id="SVGID_48_">
				<use xlink:href="#SVGID_47_"  style="overflow:visible;"/>
			</clipPath>
			<rect x="21.8" y="15.6" style="&st31;" width="5.5" height="2.2"/>
		</g>
		<g>
			<defs>
				<path id="SVGID_49_" d="M12.7,27.5c-3.3,2-6.3,5.1-6.3,9.3v3.5c0.1,0.2,0.2,0.3,0.3,0.5v-3.7c0-4.6,3.7-7.9,7.4-9.9
					C13.7,27.3,13.2,27.5,12.7,27.5"/>
			</defs>
			<use xlink:href="#SVGID_49_"  style="overflow:visible;fill:#808080;"/>
			<clipPath id="SVGID_50_">
				<use xlink:href="#SVGID_49_"  style="overflow:visible;"/>
			</clipPath>
			<rect x="6.4" y="27.2" style="&st32;" width="7.8" height="13.6"/>
		</g>
		<g>
			<defs>
				<path id="SVGID_51_" d="M18.1,20.3l0.7,1.4c0.1,0.1,0.3,0.3,0.4,0.4l-0.9-1.8C18.2,20.3,18.1,20.3,18.1,20.3z"/>
			</defs>
			<use xlink:href="#SVGID_51_"  style="overflow:visible;fill:#808080;"/>
			<clipPath id="SVGID_52_">
				<use xlink:href="#SVGID_51_"  style="overflow:visible;"/>
			</clipPath>
			<rect x="18.1" y="20.3" style="&st33;" width="1.1" height="1.8"/>
		</g>
		<g>
			<defs>
				<path id="SVGID_53_" d="M16.5,29.3c-2.1,2.6-3.7,5.1-4.1,8.3c-0.2,8.9,13.6,14.3,6.5,23.5c-0.4,0.5-0.8,0.9-1.2,1.3h-9
					c-0.1,0.1-0.1,0.2-0.2,0.3H18c0.4-0.4,0.8-0.8,1.2-1.3c7.1-9.2-6.7-14.7-6.5-23.5c0.4-3.5,2.3-6.2,4.7-9.1l-0.2-0.2
					C17,28.9,16.7,29.1,16.5,29.3"/>
			</defs>
			<use xlink:href="#SVGID_53_"  style="overflow:visible;fill:#808080;"/>
			<clipPath id="SVGID_54_">
				<use xlink:href="#SVGID_53_"  style="overflow:visible;"/>
			</clipPath>
			<rect x="8.4" y="28.6" style="&st34;" width="17.9" height="34.2"/>
		</g>
		<g>
			<defs>
				<path id="SVGID_55_" d="M14.9,0c0.5,0.6,0.9,1.3,1.3,2.3C17,4,16.6,7.4,15.7,9.6l-6.4,0.6c0,0.1,0,0.2,0,0.3L16,9.9
					c0.9-2.2,1.2-5.6,0.4-7.4C16,1.5,15.5,0.7,14.9,0L14.9,0z"/>
			</defs>
			<use xlink:href="#SVGID_55_"  style="overflow:visible;fill:#808080;"/>
			<clipPath id="SVGID_56_">
				<use xlink:href="#SVGID_55_"  style="overflow:visible;"/>
			</clipPath>
			<rect x="9.3" y="0" style="&st35;" width="8" height="10.5"/>
		</g>
		<g>
			<defs>
				<path id="SVGID_57_" d="M0,37.1c5.3,7.6,13.6,14.5,6.4,24.3l-1.3,1.1H0v0.3h5.4l1.3-1.1C14.1,51.8,5.3,44.8,0,37V37.1z"/>
			</defs>
			<use xlink:href="#SVGID_57_"  style="overflow:visible;fill:#808080;"/>
			<clipPath id="SVGID_58_">
				<use xlink:href="#SVGID_57_"  style="overflow:visible;"/>
			</clipPath>
			<rect x="0" y="37" style="&st36;" width="14.1" height="25.8"/>
		</g>
		<g>
			<defs>
				<path id="SVGID_59_" d="M32.8,29.2c4,4.1,4.4,10.1,3.7,15.9c-0.5,9.4-7.2,14.2-14.2,17.4h-1.8c-0.1,0.1-0.1,0.2-0.2,0.3h2.3
					c7-3.2,13.7-8.1,14.2-17.4C37.6,39.5,37.1,33.3,32.8,29.2L32.8,29.2z"/>
			</defs>
			<use xlink:href="#SVGID_59_"  style="overflow:visible;fill:#808080;"/>
			<clipPath id="SVGID_60_">
				<use xlink:href="#SVGID_59_"  style="overflow:visible;"/>
			</clipPath>
			<rect x="20.3" y="29.2" style="&st37;" width="17.2" height="33.6"/>
		</g>
		<g>
			<defs>
				<path id="SVGID_61_" d="M62.5,0v62.5H31.8c-0.1,0.1-0.3,0.2-0.4,0.3h31.4V0H62.5z"/>
			</defs>
			<use xlink:href="#SVGID_61_"  style="overflow:visible;fill:#808080;"/>
			<clipPath id="SVGID_62_">
				<use xlink:href="#SVGID_61_"  style="overflow:visible;"/>
			</clipPath>
			<rect x="31.4" y="0" style="&st38;" width="31.4" height="62.8"/>
		</g>
		<g>
			<defs>
				<path id="SVGID_63_" d="M5.8,6.5c1.1,2.8,0.4,5-2.2,6.2C2.3,12.6,1.2,12.3,0,12v0.2c1.3,0.3,2.5,0.6,3.9,0.8
					c2.6-1.2,3.3-3.3,2.2-6.2C5.7,6.2,5.2,5.7,4.7,5.2C5.1,5.6,5.5,6,5.8,6.5"/>
			</defs>
			<use xlink:href="#SVGID_63_"  style="overflow:visible;fill:#808080;"/>
			<clipPath id="SVGID_64_">
				<use xlink:href="#SVGID_63_"  style="overflow:visible;"/>
			</clipPath>
			<rect x="0" y="5.2" style="&st39;" width="7.2" height="7.8"/>
		</g>
		<g>
			<defs>
				<path id="SVGID_65_" d="M11,20.2c-1.8,0-3.4,2.3-4.8,1.6h-1c0,0,0,0,0-0.1c-0.9,0-1.8-0.2-2.5-0.5c-0.1,0-0.3,0-0.4-0.1
					c1,0.8,2.5,1,4,0.9c1.4,0.9,3.1-1.6,5-1.6c2.4-0.4,5.4-0.7,7.3,1c-1.1-1.3-2.8-1.6-4.5-1.6C13.1,20,12,20.1,11,20.2"/>
			</defs>
			<use xlink:href="#SVGID_65_"  style="overflow:visible;fill:#808080;"/>
			<clipPath id="SVGID_66_">
				<use xlink:href="#SVGID_65_"  style="overflow:visible;"/>
			</clipPath>
			<rect x="2.3" y="19.9" style="&st40;" width="16.3" height="3.2"/>
		</g>
		<g>
			<defs>
				<path id="SVGID_67_" d="M31.4,0c1.4,1.1,2.7,2.2,3.9,3.4C34.1,2.2,32.8,1.1,31.4,0L31.4,0z"/>
			</defs>
			<use xlink:href="#SVGID_67_"  style="overflow:visible;fill:#808080;"/>
			<clipPath id="SVGID_68_">
				<use xlink:href="#SVGID_67_"  style="overflow:visible;"/>
			</clipPath>
			<rect x="31.4" y="0" style="&st41;" width="3.9" height="3.4"/>
		</g>
		<g>
			<defs>
				<path id="SVGID_69_" d="M28.9,24.6c-1.4-0.9-3.2-1.2-4.7-1.8c-0.1,0-0.3,0-0.4,0.1c1.8,0.7,3.8,0.9,5.4,2
					c1.7,1.1,2.1-1.4,2.8-2.2c0.4,0.1,0.8,0.3,1,0.5c-0.3-0.4-0.7-0.6-1.3-0.8C31,23.2,30.5,25.7,28.9,24.6"/>
			</defs>
			<use xlink:href="#SVGID_69_"  style="overflow:visible;fill:#808080;"/>
			<clipPath id="SVGID_70_">
				<use xlink:href="#SVGID_69_"  style="overflow:visible;"/>
			</clipPath>
			<rect x="23.7" y="22.4" style="&st42;" width="9.3" height="3.6"/>
		</g>
		<g>
			<defs>
				<path id="SVGID_71_" d="M19.4,6c0,0.2,0,0.3,0,0.5c2.6-2,5.9-3.2,9.3-2.2c-0.2-0.1-0.3-0.2-0.4-0.3c-0.8-0.2-1.5-0.3-2.3-0.3
					C23.6,3.6,21.3,4.6,19.4,6"/>
			</defs>
			<use xlink:href="#SVGID_71_"  style="overflow:visible;fill:#808080;"/>
			<clipPath id="SVGID_72_">
				<use xlink:href="#SVGID_71_"  style="overflow:visible;"/>
			</clipPath>
			<rect x="19.4" y="3.3" style="&st43;" width="9.4" height="3.2"/>
		</g>
		<g>
			<defs>
				<path id="SVGID_73_" d="M4.9,21.5h0.4c0.2-0.5,1.3-1.1,1.9-1l0.1-0.1c-0.1-0.2-0.3-0.3-0.6-0.3C5.8,20.2,4.7,21.1,4.9,21.5"/>
			</defs>
			<use xlink:href="#SVGID_73_"  style="overflow:visible;fill:#808080;"/>
			<clipPath id="SVGID_74_">
				<use xlink:href="#SVGID_73_"  style="overflow:visible;"/>
			</clipPath>
			<rect x="4.7" y="20.2" style="&st44;" width="2.5" height="1.4"/>
		</g>
		<g>
			<defs>
				<path id="SVGID_75_" d="M0,1C1.5,1.2,3,1.7,4.2,2.3C5.1,2.8,5.8,3.3,6.5,4C5.8,3.2,4.9,2.5,3.9,1.9C2.7,1.4,1.4,1,0,0.8V1z"/>
			</defs>
			<use xlink:href="#SVGID_75_"  style="overflow:visible;fill:#808080;"/>
			<clipPath id="SVGID_76_">
				<use xlink:href="#SVGID_75_"  style="overflow:visible;"/>
			</clipPath>
			<rect x="0" y="0.8" style="&st45;" width="6.5" height="3.2"/>
		</g>
		<polygon style="&st6;" points="96.2,41.6 91.9,41.6 91.9,26 85.5,37.5 82.9,37.5 76.6,26 76.6,41.6 72.2,41.6 72.2,18 76.6,18 
			84.2,31.7 91.9,18 96.2,18 		"/>
		<path style="&st6;" d="M122.1,41c-2.7,0.7-5.3,1-7.7,1c-4,0-7.2-1.2-9.7-3.5c-2.4-2.3-3.6-5.2-3.6-8.6c0-3.6,1.2-6.5,3.7-8.8
			c2.5-2.3,5.6-3.4,9.5-3.4c2.3,0,4.5,0.3,6.7,0.8l-0.6,3.8c-2.3-0.4-4.1-0.5-5.6-0.5c-3,0-5.2,0.7-6.8,2.1
			c-1.6,1.4-2.4,3.4-2.4,6.1c0,2.4,0.8,4.4,2.3,5.9c1.5,1.5,3.6,2.3,6.1,2.3c1.3,0,2.5-0.1,3.9-0.3v-7.9h4.2V41z"/>
		<polygon style="&st6;" points="151.8,41.6 147.4,41.6 147.4,26 141,37.5 138.5,37.5 132.1,26 132.1,41.6 127.8,41.6 127.8,18 
			132.1,18 139.8,31.7 147.4,18 151.8,18 		"/>
		<path style="&st6;" d="M189.2,41.6h-5.6l-6.5-8.9h-5.8v8.9h-4.5V18h12.3c2.2,0,4.1,0.7,5.5,2.2c1.4,1.4,2.1,3.1,2.1,5.2
			c0,1.5-0.4,2.8-1.2,4c-0.8,1.2-1.9,2.1-3.4,2.6L189.2,41.6z M182.1,25.4c0-1.1-0.4-2-1.1-2.7c-0.7-0.7-1.6-1-2.7-1h-6.9v7.4h6.9
			c1.1,0,2-0.3,2.7-1C181.7,27.4,182.1,26.5,182.1,25.4"/>
		<polygon style="&st6;" points="209.9,41.6 192.9,41.6 192.9,18 209.9,18 209.9,21.9 197.5,21.9 197.5,27.4 209.1,27.4 209.1,31.3 
			197.5,31.3 197.5,37.7 209.9,37.7 		"/>
		<path style="&st6;" d="M233.3,35.1c0,2.1-0.9,3.7-2.7,5c-1.8,1.2-4.1,1.9-7,1.9c-3.6,0-6.9-0.6-9.8-1.9l1-3.5
			c3.1,1.1,6,1.6,8.7,1.6c3.5,0,5.3-1,5.3-2.9c0-0.8-0.4-1.4-1.2-1.9c-0.6-0.4-2.2-1.1-4.8-2c-3-1.1-5.1-2.2-6.2-3.1
			c-1.3-1.1-1.9-2.6-1.9-4.4c0-4.1,3.1-6.2,9.4-6.2c3.1,0,5.9,0.4,8.5,1.1l-0.7,3.7c-2.7-0.6-5.2-0.9-7.8-0.9
			c-1.8,0-3.1,0.2-3.9,0.5c-0.7,0.3-1.1,0.9-1.1,1.7c0,0.8,0.5,1.5,1.4,2.1c0.7,0.4,2.4,1.1,5.2,2.2c3,1.2,4.9,2.1,5.8,2.8
			C232.7,31.9,233.3,33.3,233.3,35.1"/>
		<path style="&st6;" d="M259.9,29.8c0,3.4-1.1,6.3-3.4,8.6c-2.3,2.4-5.1,3.5-8.4,3.5c-3.3,0-6.1-1.2-8.4-3.5
			c-2.3-2.4-3.4-5.2-3.4-8.6c0-3.4,1.1-6.3,3.4-8.6c2.3-2.4,5.1-3.6,8.4-3.6c3.3,0,6.1,1.2,8.4,3.6
			C258.8,23.6,259.9,26.4,259.9,29.8 M255.4,29.8c0-2.4-0.7-4.3-2-5.9c-1.3-1.5-3.1-2.3-5.3-2.3c-2.2,0-4,0.8-5.3,2.3
			c-1.3,1.5-2,3.5-2,5.9c0,2.4,0.7,4.3,1.9,5.8c1.3,1.6,3.1,2.3,5.3,2.3c2.2,0,4-0.8,5.4-2.3C254.8,34.1,255.4,32.2,255.4,29.8"/>
		<path style="&st6;" d="M287.1,41.6h-5.6l-6.5-8.9h-5.8v8.9h-4.5V18H277c2.2,0,4.1,0.7,5.5,2.2c1.4,1.4,2.1,3.1,2.1,5.2
			c0,1.5-0.4,2.8-1.2,4c-0.8,1.2-2,2.1-3.4,2.6L287.1,41.6z M280,25.4c0-1.1-0.4-2-1.1-2.7c-0.7-0.7-1.6-1-2.7-1h-6.9v7.4h6.9
			c1.1,0,2-0.3,2.7-1C279.6,27.4,280,26.5,280,25.4"/>
		<polygon style="&st6;" points="308.1,21.9 300.3,21.9 300.3,41.6 295.8,41.6 295.8,21.9 287.9,21.9 287.9,18 308.1,18 		"/>
		<rect x="72.2" y="49.8" style="&st6;" width="2.5" height="12.9"/>
		<polygon style="&st6;" points="89.7,62.7 87.2,62.7 80.8,53.7 80.8,62.7 78.3,62.7 78.3,49.8 80.8,49.8 87.2,58.8 87.2,49.8 
			89.7,49.8 		"/>
		<polygon style="&st6;" points="102.8,52 98.5,52 98.5,62.7 96,62.7 96,52 91.7,52 91.7,49.8 102.8,49.8 		"/>
		<polygon style="&st6;" points="114.1,62.7 104.8,62.7 104.8,49.8 114.1,49.8 114.1,51.9 107.3,51.9 107.3,55 113.7,55 113.7,57.1 
			107.3,57.1 107.3,60.6 114.1,60.6 		"/>
		<path style="&st6;" d="M129.5,62.7h-3.1l-3.6-4.9h-3.2v4.9h-2.5V49.8h6.7c1.2,0,2.2,0.4,3,1.2c0.8,0.8,1.1,1.7,1.1,2.8
			c0,0.8-0.2,1.6-0.7,2.2c-0.5,0.7-1.1,1.1-1.8,1.4L129.5,62.7z M125.6,53.8c0-0.6-0.2-1.1-0.6-1.5c-0.4-0.4-0.9-0.6-1.5-0.6h-3.8
			v4.1h3.8c0.6,0,1.1-0.2,1.5-0.6C125.4,54.9,125.6,54.5,125.6,53.8"/>
		<polygon style="&st6;" points="142.9,62.7 140.5,62.7 134,53.7 134,62.7 131.6,62.7 131.6,49.8 134,49.8 140.5,58.8 140.5,49.8 
			142.9,49.8 		"/>
		<path style="&st6;" d="M157.2,62.7h-2.4l-1.1-2.9h-5.2l-1.1,2.9H145l5-12.9h2.2L157.2,62.7z M153.1,57.9l-2-5.6l-2,5.6H153.1z"/>
		<polygon style="&st6;" points="167.5,52 163.2,52 163.2,62.7 160.8,62.7 160.8,52 156.5,52 156.5,49.8 167.5,49.8 		"/>
		<rect x="169.6" y="49.8" style="&st6;" width="2.5" height="12.9"/>
		<path style="&st6;" d="M187.8,56.3c0,1.9-0.6,3.4-1.9,4.7c-1.2,1.3-2.8,1.9-4.6,1.9s-3.4-0.6-4.6-1.9c-1.2-1.3-1.9-2.9-1.9-4.7
			c0-1.9,0.6-3.4,1.9-4.7c1.2-1.3,2.8-2,4.6-2s3.4,0.7,4.6,2C187.2,52.9,187.8,54.4,187.8,56.3 M185.3,56.3c0-1.3-0.4-2.4-1.1-3.2
			c-0.7-0.8-1.7-1.3-2.9-1.3c-1.2,0-2.2,0.4-2.9,1.3c-0.7,0.8-1.1,1.9-1.1,3.2c0,1.3,0.4,2.4,1.1,3.2c0.7,0.9,1.7,1.3,2.9,1.3
			c1.2,0,2.2-0.4,2.9-1.3C185,58.7,185.3,57.6,185.3,56.3"/>
		<polygon style="&st6;" points="201.8,62.7 199.4,62.7 192.9,53.7 192.9,62.7 190.5,62.7 190.5,49.8 192.9,49.8 199.4,58.8 
			199.4,49.8 201.8,49.8 		"/>
		<path style="&st6;" d="M216.1,62.7h-2.5l-1.1-2.9h-5.2l-1.1,2.9h-2.4l5-12.9h2.2L216.1,62.7z M212,57.9l-2-5.6l-2,5.6H212z"/>
		<polygon style="&st6;" points="227,62.7 218.2,62.7 218.2,49.8 220.7,49.8 220.7,60.6 227,60.6 		"/>
		<path style="&st6;" d="M230.3,50.5h-1.4V54h-0.8v-3.5h-1.4v-0.7h3.6V50.5z M234.9,54h-0.8v-2.7l-1.1,2h-0.4l-1.2-2V54h-0.8v-4.2
			h0.7l1.4,2.4l1.4-2.4h0.8V54z"/>
	</g>
</g>
<g id="Icons">
</g>
<g id="Icon_Rollovers" style="&st0;">
</g>
</svg>
