<?xml version="1.0" encoding="utf-8"?>
<!-- Generator: Adobe Illustrator 17.1.0, SVG Export Plug-In . SVG Version: 6.00 Build 0)  -->
<!DOCTYPE svg PUBLIC "-//W3C//DTD SVG 1.1//EN" "http://www.w3.org/Graphics/SVG/1.1/DTD/svg11.dtd" [
	<!ENTITY ns_flows "http://ns.adobe.com/Flows/1.0/">
	<!ENTITY ns_extend "http://ns.adobe.com/Extensibility/1.0/">
	<!ENTITY ns_ai "http://ns.adobe.com/AdobeIllustrator/10.0/">
	<!ENTITY ns_graphs "http://ns.adobe.com/Graphs/1.0/">
	<!ENTITY st0 "display:none;">
	<!ENTITY st1 "display:inline;fill:#252525;">
	<!ENTITY st2 "fill:#FFFFFF;">
	<!ENTITY st3 "fill:#149B9E;">
	<!ENTITY st4 "fill:#27BDBE;">
	<!ENTITY st5 "display:none;fill:none;">
	<!ENTITY st6 "fill:#808080;">
	<!ENTITY st7 "fill:#808080;stroke:#7E7E7E;stroke-width:2.9999;stroke-miterlimit:2.6131;">
	<!ENTITY st8 "clip-path:url(#SVGID_2_);fill:#808080;">
	<!ENTITY st9 "clip-path:url(#SVGID_4_);fill:#808080;">
	<!ENTITY st10 "clip-path:url(#SVGID_6_);fill:#808080;">
	<!ENTITY st11 "clip-path:url(#SVGID_8_);fill:#808080;">
	<!ENTITY st12 "clip-path:url(#SVGID_10_);fill:#808080;">
	<!ENTITY st13 "clip-path:url(#SVGID_12_);fill:#808080;">
	<!ENTITY st14 "clip-path:url(#SVGID_14_);fill:#808080;">
	<!ENTITY st15 "clip-path:url(#SVGID_16_);fill:#808080;">
	<!ENTITY st16 "clip-path:url(#SVGID_18_);fill:#808080;">
	<!ENTITY st17 "clip-path:url(#SVGID_20_);fill:#808080;">
	<!ENTITY st18 "clip-path:url(#SVGID_22_);fill:#808080;">
	<!ENTITY st19 "clip-path:url(#SVGID_24_);fill:#808080;">
	<!ENTITY st20 "clip-path:url(#SVGID_26_);fill:#808080;">
	<!ENTITY st21 "clip-path:url(#SVGID_28_);fill:#808080;">
	<!ENTITY st22 "clip-path:url(#SVGID_30_);fill:#808080;">
	<!ENTITY st23 "clip-path:url(#SVGID_32_);fill:#808080;">
	<!ENTITY st24 "clip-path:url(#SVGID_34_);fill:#808080;">
	<!ENTITY st25 "clip-path:url(#SVGID_36_);fill:#808080;">
	<!ENTITY st26 "clip-path:url(#SVGID_38_);fill:#808080;">
	<!ENTITY st27 "clip-path:url(#SVGID_40_);fill:#808080;">
	<!ENTITY st28 "clip-path:url(#SVGID_42_);fill:#808080;">
	<!ENTITY st29 "clip-path:url(#SVGID_44_);fill:#808080;">
	<!ENTITY st30 "clip-path:url(#SVGID_46_);fill:#808080;">
	<!ENTITY st31 "clip-path:url(#SVGID_48_);fill:#808080;">
	<!ENTITY st32 "clip-path:url(#SVGID_50_);fill:#808080;">
	<!ENTITY st33 "clip-path:url(#SVGID_52_);fill:#808080;">
	<!ENTITY st34 "clip-path:url(#SVGID_54_);fill:#808080;">
	<!ENTITY st35 "clip-path:url(#SVGID_56_);fill:#808080;">
	<!ENTITY st36 "clip-path:url(#SVGID_58_);fill:#808080;">
	<!ENTITY st37 "clip-path:url(#SVGID_60_);fill:#808080;">
	<!ENTITY st38 "clip-path:url(#SVGID_62_);fill:#808080;">
	<!ENTITY st39 "clip-path:url(#SVGID_64_);fill:#808080;">
	<!ENTITY st40 "clip-path:url(#SVGID_66_);fill:#808080;">
	<!ENTITY st41 "clip-path:url(#SVGID_68_);fill:#808080;">
	<!ENTITY st42 "clip-path:url(#SVGID_70_);fill:#808080;">
	<!ENTITY st43 "clip-path:url(#SVGID_72_);fill:#808080;">
	<!ENTITY st44 "clip-path:url(#SVGID_74_);fill:#808080;">
	<!ENTITY st45 "clip-path:url(#SVGID_76_);fill:#808080;">
	<!ENTITY st46 "fill:#B3B3B3;">
	<!ENTITY st47 "opacity:0.35;clip-path:url(#SVGID_78_);fill:#231F20;">
	<!ENTITY st48 "opacity:0.35;clip-path:url(#SVGID_80_);fill:#231F20;">
	<!ENTITY st49 "opacity:0.35;clip-path:url(#i_Dot_1_);">
	<!ENTITY st50 "fill:#231F20;">
	<!ENTITY st51 "opacity:0.35;clip-path:url(#i_1_);">
	<!ENTITY st52 "opacity:0.35;clip-path:url(#SVGID_82_);">
	<!ENTITY st53 "opacity:0.35;clip-path:url(#SVGID_84_);">
	<!ENTITY st54 "opacity:0.35;clip-path:url(#SVGID_86_);">
	<!ENTITY st55 "opacity:0.35;clip-path:url(#SVGID_88_);">
	<!ENTITY st56 "opacity:0.35;clip-path:url(#SVGID_90_);">
	<!ENTITY st57 "opacity:0.35;clip-path:url(#SVGID_92_);">
	<!ENTITY st58 "opacity:0.35;clip-path:url(#SVGID_94_);">
	<!ENTITY st59 "fill:#CCCCCC;">
	<!ENTITY st60 "fill-rule:evenodd;clip-rule:evenodd;fill:#CCCCCC;">
	<!ENTITY st61 "fill-rule:evenodd;clip-rule:evenodd;fill:#585858;">
	<!ENTITY st62 "fill:#585858;">
	<!ENTITY st63 "fill-rule:evenodd;clip-rule:evenodd;fill:#B3B3B3;">
	<!ENTITY st64 "fill:#0177B5;">
	<!ENTITY st65 "fill-rule:evenodd;clip-rule:evenodd;fill:#808080;">
	<!ENTITY st66 "fill:#2AA9E0;">
	<!ENTITY st67 "fill:#3B5999;">
	<!ENTITY st68 "fill:#C30907;">
	<!ENTITY st69 "display:inline;fill:#FFFFFF;">
	<!ENTITY st70 "display:inline;">
	<!ENTITY st71 "fill-rule:evenodd;clip-rule:evenodd;fill:#FFFFFF;">
	<!ENTITY st72 "fill-rule:evenodd;clip-rule:evenodd;fill:#333333;">
	<!ENTITY st73 "display:inline;fill:#333333;">
	<!ENTITY st74 "fill:#333333;">
]>
<svg version="1.1" xmlns:x="&ns_extend;" xmlns:i="&ns_ai;" xmlns:graph="&ns_graphs;"
	 xmlns="http://www.w3.org/2000/svg" xmlns:xlink="http://www.w3.org/1999/xlink" xmlns:a="http://ns.adobe.com/AdobeSVGViewerExtensions/3.0/"
	 x="0px" y="0px" viewBox="0 0 355.3 60" style="enable-background:new 0 0 355.3 60;" xml:space="preserve">
<g id="Background" style="&st0;">
	<rect x="-450" y="-410" style="&st1;" width="1280" height="800"/>
</g>
<g id="No_Rollover">
	<g id="Pixelated_Table_Logo">
		<g>
			<polygon style="&st6;" points="58.7,40.6 0,40.6 16.2,0 53.7,0 			"/>
			<polygon style="&st6;" points="89.8,40.6 77.3,40.6 65.4,0 73.6,0 			"/>
			<polygon style="&st6;" points="58.7,40.6 0,40.6 8.1,60 17.9,60 13.6,44.2 58.1,44.2 			"/>
			<polygon style="&st6;" points="74.4,40.6 61.9,40.6 61.5,44.2 73.2,44.2 			"/>
			<polygon style="&st6;" points="89.8,40.6 77.3,40.6 71.9,60 82.1,60 			"/>
			<g>
				<polygon style="&st6;" points="60.7,32.3 61.9,40.6 74.4,40.6 72.2,32.3 				"/>
				<polygon style="&st6;" points="71.7,30.4 63.6,0 55.8,0 60.4,30.4 				"/>
			</g>
		</g>
		<g>
			<path style="&st6;" d="M109.3,39.8c0,0-1.3,0.9-3,0.9c-1.5,0-2.9-1-2.9-2.5V24.6h-2.4V24h2.4v-5.8h0.6V24h4v0.6h-4v13.5
				c0,1.2,1.1,1.9,2.2,1.9c1.5,0,2.6-0.7,2.7-0.8L109.3,39.8z"/>
			<path style="&st6;" d="M124.7,40.5h-0.6v-9.2c0-4.6-1.6-6.9-4.6-6.9c-3.1,0-6.1,2.5-7,5.7v10.4h-0.6V17.3h0.6v11
				c1.4-2.7,4.1-4.5,6.9-4.5c3.4,0,5.2,2.6,5.2,7.6V40.5z"/>
			<path style="&st6;" d="M128.3,32.2c0-4.6,3.5-8.4,7.8-8.4c4.4,0,7.9,3.8,8,8.5v0.3h-15.1c0.3,4.3,3.5,7.6,7.3,7.6
				c2.5,0,5-1.4,5.9-3.5l0.6,0.2c-0.9,2.3-3.7,3.9-6.6,3.9C131.9,40.8,128.3,36.9,128.3,32.2z M143.4,32c-0.3-4.4-3.3-7.6-7.3-7.6
				c-3.9,0-7,3.2-7.2,7.6H143.4z"/>
			<path style="&st6;" d="M156.4,36.7v10.6h-0.6V24h0.6v3.5c1.4-2.2,3.9-3.8,6.5-3.8c4.6,0,8,4.3,8,8.6c0,4.5-3.1,8.5-7.7,8.5
				C160.2,40.8,157.8,39,156.4,36.7z M170.2,32.3c0-4.1-3.2-7.9-7.3-7.9c-2.5,0-6.3,2.4-6.5,5.1v5.9c1.2,2.7,3.8,4.8,6.7,4.8
				C167.4,40.2,170.2,36.2,170.2,32.3z"/>
			<path style="&st6;" d="M174.6,19.7v-2.4h0.6v2.4H174.6z M174.6,40.5V24h0.6v16.5H174.6z"/>
			<path style="&st6;" d="M179,24l5.9,7.4l0.3,0.4l0.3-0.4l5.9-7.4h0.8l-6.6,8.3l6.6,8.2h-0.8l-5.9-7.4l-0.3-0.4l-0.3,0.4l-5.9,7.4
				h-0.8l6.6-8.2l-6.6-8.3H179z"/>
			<path style="&st6;" d="M193.4,32.2c0-4.6,3.5-8.4,7.8-8.4c4.4,0,7.9,3.8,8,8.5v0.3H194c0.3,4.3,3.5,7.6,7.3,7.6
				c2.5,0,5-1.4,5.9-3.5l0.6,0.2c-0.9,2.3-3.7,3.9-6.6,3.9C197,40.8,193.4,36.9,193.4,32.2z M208.5,32c-0.3-4.4-3.3-7.6-7.3-7.6
				s-7,3.2-7.2,7.6H208.5z"/>
			<path style="&st6;" d="M212.8,17.3h0.6v20.8c0,1.2,0.8,2,2.1,2c0.5,0,1.2-0.1,1.7-0.3l0.2,0.5c-0.6,0.2-1.6,0.4-2.2,0.4
				c-1.5,0-2.5-1.1-2.5-2.6V17.3z"/>
			<path style="&st6;" d="M218,35.8c0-2.8,2.8-4.7,6.8-4.7c1.9,0,4,0.4,5.5,0.9v-1.9c0-3.4-2.2-5.7-5.4-5.7c-1.6,0-3.5,0.7-5.3,2
				l-0.4-0.5c2.1-1.4,4-2.2,5.7-2.2c3.7,0,6,2.5,6,6.4v9.1c0,0.4,0.2,0.6,0.5,0.6v0.6c-0.3,0-0.3,0-0.4-0.1
				c-0.4-0.2-0.7-0.7-0.7-1.2v-1.5c-1.5,2-4.1,3.1-7,3.1C220.4,40.8,218,38.6,218,35.8z M229.9,37.3c0.3-0.4,0.5-0.9,0.5-1.3v-3.3
				c-1.7-0.7-3.6-1-5.5-1c-3.7,0-6.2,1.6-6.2,4.1c0,2.5,2.1,4.4,4.7,4.4C226.2,40.2,228.7,39.1,229.9,37.3z"/>
			<path style="&st6;" d="M242.2,39.8c0,0-1.3,0.9-3,0.9c-1.5,0-2.9-1-2.9-2.5V24.6h-2.4V24h2.4v-5.8h0.6V24h4v0.6h-4v13.5
				c0,1.2,1.1,1.9,2.2,1.9c1.5,0,2.6-0.7,2.7-0.8L242.2,39.8z"/>
			<path style="&st6;" d="M243.2,32.2c0-4.6,3.5-8.4,7.8-8.4c4.4,0,7.9,3.8,8,8.5v0.3h-15.1c0.3,4.3,3.5,7.6,7.3,7.6
				c2.5,0,5-1.4,5.9-3.5l0.6,0.2c-0.9,2.3-3.7,3.9-6.6,3.9C246.8,40.8,243.2,36.9,243.2,32.2z M258.2,32c-0.3-4.4-3.3-7.6-7.3-7.6
				c-3.9,0-7,3.2-7.2,7.6H258.2z"/>
			<path style="&st6;" d="M261.2,32.3c0-4.5,3.2-8.6,7.7-8.6c3,0,5.4,1.9,6.7,4.1V17.3h0.6v22c0,0.4,0.2,0.6,0.5,0.6v0.6
				c-0.2,0-0.3,0-0.4-0.1c-0.5-0.2-0.7-0.7-0.7-1.2v-2.2c-1.4,2.2-3.9,3.8-6.5,3.8C264.6,40.8,261.2,36.5,261.2,32.3z M275.6,35.1
				v-5.9c-1-2.6-4.1-4.8-6.7-4.8c-4.3,0-7,4-7,7.9c0,4.1,3.2,7.9,7.3,7.9C271.8,40.2,275.5,37.8,275.6,35.1z"/>
			<path style="&st6;" d="M296,39.8c0,0-1.3,0.9-3,0.9c-1.5,0-2.9-1-2.9-2.5V24.6h-2.4V24h2.4v-5.8h0.6V24h4v0.6h-4v13.5
				c0,1.2,1.1,1.9,2.2,1.9c1.5,0,2.6-0.7,2.7-0.8L296,39.8z"/>
			<path style="&st6;" d="M297.1,35.8c0-2.8,2.8-4.7,6.8-4.7c1.9,0,4,0.4,5.5,0.9v-1.9c0-3.4-2.2-5.7-5.4-5.7c-1.6,0-3.5,0.7-5.3,2
				l-0.4-0.5c2.1-1.4,4-2.2,5.7-2.2c3.7,0,6,2.5,6,6.4v9.1c0,0.4,0.2,0.6,0.5,0.6v0.6c-0.3,0-0.3,0-0.4-0.1
				c-0.4-0.2-0.7-0.7-0.7-1.2v-1.5c-1.5,2-4.1,3.1-7,3.1C299.5,40.8,297.1,38.6,297.1,35.8z M309,37.3c0.3-0.4,0.5-0.9,0.5-1.3v-3.3
				c-1.7-0.7-3.6-1-5.5-1c-3.7,0-6.2,1.6-6.2,4.1c0,2.5,2.1,4.4,4.7,4.4C305.3,40.2,307.9,39.1,309,37.3z"/>
			<path style="&st6;" d="M315.6,37.1v3.4H315V17.3h0.6v10.6c1.7-2.4,3.8-4.1,6.7-4.1c4.8,0,7.7,4.5,7.7,8.6c0,4.5-3.5,8.5-8,8.5
				C319.4,40.8,316.9,39.2,315.6,37.1z M329.4,32.3c0-4.1-2.9-7.9-7-7.9c-3.1,0-5.5,2.3-6.7,4.8v6c0.2,2.7,3.9,5,6.5,5
				C326.3,40.2,329.4,36.2,329.4,32.3z"/>
			<path style="&st6;" d="M334,17.3h0.6v20.8c0,1.2,0.8,2,2.1,2c0.5,0,1.2-0.1,1.8-0.3l0.2,0.5c-0.6,0.2-1.6,0.4-2.2,0.4
				c-1.5,0-2.5-1.1-2.5-2.6V17.3z"/>
			<path style="&st6;" d="M339.5,32.2c0-4.6,3.5-8.4,7.8-8.4c4.4,0,7.9,3.8,8,8.5v0.3h-15.1c0.3,4.3,3.5,7.6,7.3,7.6
				c2.5,0,5-1.4,5.9-3.5l0.6,0.2c-0.9,2.3-3.7,3.9-6.6,3.9C343.1,40.8,339.5,36.9,339.5,32.2z M354.6,32c-0.3-4.4-3.3-7.6-7.3-7.6
				c-3.9,0-7,3.2-7.2,7.6H354.6z"/>
		</g>
	</g>
</g>
<g id="Icons">
</g>
<g id="Icon_Rollovers" style="&st0;">
</g>
</svg>
