<?xml version="1.0" encoding="utf-8"?>
<!-- Generator: Adobe Illustrator 17.1.0, SVG Export Plug-In . SVG Version: 6.00 Build 0)  -->
<!DOCTYPE svg PUBLIC "-//W3C//DTD SVG 1.1//EN" "http://www.w3.org/Graphics/SVG/1.1/DTD/svg11.dtd" [
	<!ENTITY ns_flows "http://ns.adobe.com/Flows/1.0/">
	<!ENTITY ns_extend "http://ns.adobe.com/Extensibility/1.0/">
	<!ENTITY ns_ai "http://ns.adobe.com/AdobeIllustrator/10.0/">
	<!ENTITY ns_graphs "http://ns.adobe.com/Graphs/1.0/">
	<!ENTITY st0 "fill:#FFFFFF;">
	<!ENTITY st1 "opacity:0.35;clip-path:url(#SVGID_2_);fill:#231F20;">
	<!ENTITY st2 "fill:#149B9E;">
	<!ENTITY st3 "fill:#27BDBE;">
	<!ENTITY st4 "opacity:0.35;clip-path:url(#SVGID_4_);fill:#231F20;">
	<!ENTITY st5 "opacity:0.35;clip-path:url(#i_Dot_1_);">
	<!ENTITY st6 "fill:#231F20;">
	<!ENTITY st7 "opacity:0.35;clip-path:url(#i_1_);">
	<!ENTITY st8 "opacity:0.35;clip-path:url(#SVGID_6_);">
	<!ENTITY st9 "opacity:0.35;clip-path:url(#SVGID_8_);">
	<!ENTITY st10 "opacity:0.35;clip-path:url(#SVGID_10_);">
	<!ENTITY st11 "opacity:0.35;clip-path:url(#SVGID_12_);">
	<!ENTITY st12 "opacity:0.35;clip-path:url(#SVGID_14_);">
	<!ENTITY st13 "opacity:0.35;clip-path:url(#SVGID_16_);">
	<!ENTITY st14 "opacity:0.35;clip-path:url(#SVGID_18_);">
	<!ENTITY st15 "display:none;">
	<!ENTITY st16 "display:inline;fill:#252525;">
	<!ENTITY st17 "display:none;fill:none;">
	<!ENTITY st18 "fill:#808080;">
	<!ENTITY st19 "fill:#808080;stroke:#7E7E7E;stroke-width:2.9999;stroke-miterlimit:2.6131;">
	<!ENTITY st20 "clip-path:url(#SVGID_20_);fill:#808080;">
	<!ENTITY st21 "clip-path:url(#SVGID_22_);fill:#808080;">
	<!ENTITY st22 "clip-path:url(#SVGID_24_);fill:#808080;">
	<!ENTITY st23 "clip-path:url(#SVGID_26_);fill:#808080;">
	<!ENTITY st24 "clip-path:url(#SVGID_28_);fill:#808080;">
	<!ENTITY st25 "clip-path:url(#SVGID_30_);fill:#808080;">
	<!ENTITY st26 "clip-path:url(#SVGID_32_);fill:#808080;">
	<!ENTITY st27 "clip-path:url(#SVGID_34_);fill:#808080;">
	<!ENTITY st28 "clip-path:url(#SVGID_36_);fill:#808080;">
	<!ENTITY st29 "clip-path:url(#SVGID_38_);fill:#808080;">
	<!ENTITY st30 "clip-path:url(#SVGID_40_);fill:#808080;">
	<!ENTITY st31 "clip-path:url(#SVGID_42_);fill:#808080;">
	<!ENTITY st32 "clip-path:url(#SVGID_44_);fill:#808080;">
	<!ENTITY st33 "clip-path:url(#SVGID_46_);fill:#808080;">
	<!ENTITY st34 "clip-path:url(#SVGID_48_);fill:#808080;">
	<!ENTITY st35 "clip-path:url(#SVGID_50_);fill:#808080;">
	<!ENTITY st36 "clip-path:url(#SVGID_52_);fill:#808080;">
	<!ENTITY st37 "clip-path:url(#SVGID_54_);fill:#808080;">
	<!ENTITY st38 "clip-path:url(#SVGID_56_);fill:#808080;">
	<!ENTITY st39 "clip-path:url(#SVGID_58_);fill:#808080;">
	<!ENTITY st40 "clip-path:url(#SVGID_60_);fill:#808080;">
	<!ENTITY st41 "clip-path:url(#SVGID_62_);fill:#808080;">
	<!ENTITY st42 "clip-path:url(#SVGID_64_);fill:#808080;">
	<!ENTITY st43 "clip-path:url(#SVGID_66_);fill:#808080;">
	<!ENTITY st44 "clip-path:url(#SVGID_68_);fill:#808080;">
	<!ENTITY st45 "clip-path:url(#SVGID_70_);fill:#808080;">
	<!ENTITY st46 "clip-path:url(#SVGID_72_);fill:#808080;">
	<!ENTITY st47 "clip-path:url(#SVGID_74_);fill:#808080;">
	<!ENTITY st48 "clip-path:url(#SVGID_76_);fill:#808080;">
	<!ENTITY st49 "clip-path:url(#SVGID_78_);fill:#808080;">
	<!ENTITY st50 "clip-path:url(#SVGID_80_);fill:#808080;">
	<!ENTITY st51 "clip-path:url(#SVGID_82_);fill:#808080;">
	<!ENTITY st52 "clip-path:url(#SVGID_84_);fill:#808080;">
	<!ENTITY st53 "clip-path:url(#SVGID_86_);fill:#808080;">
	<!ENTITY st54 "clip-path:url(#SVGID_88_);fill:#808080;">
	<!ENTITY st55 "clip-path:url(#SVGID_90_);fill:#808080;">
	<!ENTITY st56 "clip-path:url(#SVGID_92_);fill:#808080;">
	<!ENTITY st57 "clip-path:url(#SVGID_94_);fill:#808080;">
	<!ENTITY st58 "fill:#B3B3B3;">
	<!ENTITY st59 "fill:#CCCCCC;">
	<!ENTITY st60 "fill-rule:evenodd;clip-rule:evenodd;fill:#CCCCCC;">
	<!ENTITY st61 "fill-rule:evenodd;clip-rule:evenodd;fill:#585858;">
	<!ENTITY st62 "fill:#585858;">
	<!ENTITY st63 "fill-rule:evenodd;clip-rule:evenodd;fill:#B3B3B3;">
	<!ENTITY st64 "fill:#0177B5;">
	<!ENTITY st65 "fill-rule:evenodd;clip-rule:evenodd;fill:#808080;">
	<!ENTITY st66 "fill:#2AA9E0;">
	<!ENTITY st67 "fill:#3B5999;">
	<!ENTITY st68 "fill:#C30907;">
	<!ENTITY st69 "display:inline;fill:#FFFFFF;">
	<!ENTITY st70 "display:inline;">
	<!ENTITY st71 "fill-rule:evenodd;clip-rule:evenodd;fill:#FFFFFF;">
	<!ENTITY st72 "fill-rule:evenodd;clip-rule:evenodd;fill:#333333;">
	<!ENTITY st73 "display:inline;fill:#333333;">
	<!ENTITY st74 "fill:#333333;">
]>
<svg version="1.1" xmlns:x="&ns_extend;" xmlns:i="&ns_ai;" xmlns:graph="&ns_graphs;"
	 xmlns="http://www.w3.org/2000/svg" xmlns:xlink="http://www.w3.org/1999/xlink" xmlns:a="http://ns.adobe.com/AdobeSVGViewerExtensions/3.0/"
	 x="0px" y="0px" viewBox="0 0 250 107.5" style="enable-background:new 0 0 250 107.5;" xml:space="preserve">
<symbol  id="ToyBox_Media_Logo_Full_Color_Light" viewBox="0 -85.9 199.8 85.9">
	<path style="&st0;" d="M168.7-33.4l-11.9,19h15.2l5.9-10.9l6,10.9h15.3l-12.2-19l12.6-19.8h-15.2L178-41.4l-6.5-11.8h-15.3
		L168.7-33.4z"/>
	<g>
		<defs>
			<path id="SVGID_77_" d="M168.7-33.4l-11.9,19.1h15.3l5.9-10.9l6.1,10.9h15.3l-12.2-19.1l12.7-19.9h-15.3L178-41.5l-6.5-11.8
				l-15.3,0L168.7-33.4z"/>
		</defs>
		<clipPath id="SVGID_2_">
			<use xlink:href="#SVGID_77_"  style="overflow:visible;"/>
		</clipPath>
		<polygon style="&st1;" points="169.3,-54 143,-57.9 115.3,-50.4 140.2,-4.1 164.9,-14.5 		"/>
	</g>
	<g id="Box_5_">
		<polygon style="&st2;" points="164.9,-53.3 139.9,-57.4 139.9,-3.4 164.9,-14.4 		"/>
		<polygon style="&st3;" points="114.9,-53.3 139.9,-57.4 139.9,-3.4 114.9,-14.4 		"/>
	</g>
	<g>
		<path style="&st0;" d="M193.4-84.9l-1.8,3.5h-0.2c-1.2-1.5-2.5-2.6-3.8-3.1c-1.3-0.6-2.9-0.8-5-0.8c-2.5,0-4.5,0.8-5.9,2.3
			c-1.4,1.5-2.2,3.6-2.2,6.3c0,2.8,1,4.9,3,6.3c2,1.4,4.8,2.2,8.6,2.3l4.4,0.1v0.4c0,2.2-1.1,3.3-3.2,3.3c-1.9,0-4.4-0.7-7.4-2
			l-2.7,6.1c3.1,1.6,7,2.4,11.8,2.4c3.4,0,6.1-0.8,7.9-2.5c1.9-1.7,2.8-4.1,2.8-7.1v-17.5H193.4z M186.6-78.9c1.1,0,2.1,0.4,2.9,1.1
			c0.8,0.7,1.2,1.6,1.2,2.8v2.1l-2.1-0.1c-3-0.1-4.5-1.2-4.5-3.3C184-78,184.9-78.9,186.6-78.9z"/>
	</g>
	<g id="i_shadow_5_">
		<defs>
			<path id="SVGID_79_" d="M193.4-84.9l-1.8,3.5h-0.2c-1.2-1.5-2.5-2.6-3.8-3.1c-1.3-0.6-2.9-0.8-5-0.8c-2.5,0-4.5,0.8-5.9,2.3
				c-1.4,1.5-2.2,3.6-2.2,6.3c0,2.8,1,4.9,3,6.3c2,1.4,4.8,2.2,8.6,2.3l4.4,0.1v0.4c0,2.2-1.1,3.3-3.2,3.3c-1.9,0-4.4-0.7-7.4-2
				l-2.7,6.1c3.1,1.6,7,2.4,11.8,2.4c3.4,0,6.1-0.8,7.9-2.5c1.9-1.7,2.8-4.1,2.8-7.1v-17.5H193.4z M186.6-78.9
				c1.1,0,2.1,0.4,2.9,1.1c0.8,0.7,1.2,1.6,1.2,2.8v2.1l-2.1-0.1c-3-0.1-4.5-1.2-4.5-3.3C184-78,184.9-78.9,186.6-78.9z"/>
		</defs>
		<clipPath id="SVGID_4_">
			<use xlink:href="#SVGID_79_"  style="overflow:visible;"/>
		</clipPath>
		<path id="i_shadow_6_" style="&st4;" d="M177.4-85.4h-9.6l-1.9,25.8h9.2L177.4-85.4z"/>
	</g>
	<g>
		<path id="i_Dot_7_" style="&st0;" d="M174.8-53.2c0-2.4-2.1-4.3-5-4.3c-2.9,0-5,1.9-5,4.3c0,2.4,0.9,4.7,5,4.7
			C173.3-48.5,174.8-50.8,174.8-53.2z"/>
		<path id="i_6_" style="&st0;" d="M174.8-85.4h-9.2v25.8h9.2V-85.4z"/>
	</g>
	<g id="d_shadow_part_2_3_">
		<defs>
			<path id="i_Dot_6_" d="M174.8-52.2c0-2.4-2.1-4.3-5-4.3c-2.9,0-5,1.9-5,4.3c0,2.4,0.9,4.7,5,4.7
				C173.3-47.5,174.8-49.8,174.8-52.2z"/>
		</defs>
		<clipPath id="i_Dot_1_">
			<use xlink:href="#i_Dot_6_"  style="overflow:visible;"/>
		</clipPath>
		<g id="d_shadow_6_" style="&st5;">
			<path style="&st6;" d="M151.9-84.9c-1.9,0-3.6,0.5-5.1,1.6c-1.5,1.1-2.7,2.7-3.6,4.8c-0.9,2.1-1.5,4.6-1.7,7.4
				c-0.3,4.3,0.3,7.7,1.9,10.2c1.6,2.4,3.9,3.7,6.9,3.7c1.5,0,2.8-0.3,4-0.9c1.2-0.6,2.3-1.6,3.3-3h0.2c-0.4,2.1-0.7,4.2-0.9,6.3
				l-0.5,7.1h9.3l3-36.6h-7.3l-2.2,3.4h-0.4C157.4-83.6,155.1-84.9,151.9-84.9z M155.2-77.7c1.5,0,2.5,0.5,3,1.4
				c0.5,0.9,0.8,2.4,0.7,4.3l-0.1,0.7c-0.2,2.4-0.6,4-1.4,5c-0.7,1-1.8,1.5-3.3,1.5c-1.2,0-2.1-0.6-2.7-1.7
				c-0.6-1.1-0.8-2.8-0.7-4.9c0.1-2.1,0.6-3.6,1.3-4.7C152.9-77.1,153.9-77.7,155.2-77.7z"/>
		</g>
	</g>
	<g id="d_shadow_part_1_3_">
		<defs>
			<path id="i_5_" d="M174.8-85.4h-9.2v25.8h9.2V-85.4z"/>
		</defs>
		<clipPath id="i_1_">
			<use xlink:href="#i_5_"  style="overflow:visible;"/>
		</clipPath>
		<g id="d_shadow_5_" style="&st7;">
			<path style="&st6;" d="M151.9-85.9c-1.9,0-3.6,0.5-5.1,1.6c-1.5,1.1-2.7,2.7-3.6,4.8c-0.9,2.1-1.5,4.6-1.7,7.4
				c-0.3,4.3,0.3,7.7,1.9,10.2c1.6,2.4,3.9,3.7,6.9,3.7c1.5,0,2.8-0.3,4-0.9c1.2-0.6,2.3-1.6,3.3-3h0.2c-0.4,2.1-0.7,4.2-0.9,6.3
				l-0.5,7.1h9.3l3-36.6h-7.3l-2.2,3.4h-0.4C157.4-84.6,155.1-85.9,151.9-85.9z M155.2-78.7c1.5,0,2.5,0.5,3,1.4
				c0.5,0.9,0.8,2.4,0.7,4.3l-0.1,0.7c-0.2,2.4-0.6,4-1.4,5c-0.7,1-1.8,1.5-3.3,1.5c-1.2,0-2.1-0.6-2.7-1.7
				c-0.6-1.1-0.8-2.8-0.7-4.9c0.1-2.1,0.6-3.6,1.3-4.7C152.9-78.1,153.9-78.7,155.2-78.7z"/>
		</g>
	</g>
	<g id="d_6_">
		<path style="&st0;" d="M149.4-85.9c-1.9,0-3.6,0.5-5,1.6c-1.4,1.1-2.5,2.7-3.3,4.8c-0.8,2.1-1.2,4.6-1.2,7.4
			c0,4.3,0.9,7.7,2.6,10.2s4.1,3.7,7.2,3.7c1.5,0,3.2-0.3,4.3-0.9c1.1-0.6,1.6-1,2.3-1.8h0.2l0,12.2h9.3v-36.6h-6.9l-2,3.4h-0.4
			C154.8-84.6,152.5-85.9,149.4-85.9z M153.1-78.7c1.5,0,2.5,0.5,3.1,1.4c0.6,0.9,0.9,2.4,1,4.3v0.7c0,2.4-0.3,4-1,5
			c-0.7,1-1.7,1.5-3.2,1.5c-1.2,0-2.1-0.6-2.8-1.7c-0.7-1.1-1-2.8-1-4.9c0-2.1,0.3-3.6,1-4.7C150.9-78.1,151.9-78.7,153.1-78.7z"/>
	</g>
	<g id="e_shadow_3_">
		<defs>
			<path id="SVGID_81_" d="M149.4-85.9c-1.9,0-3.6,0.5-5,1.6c-1.4,1.1-2.5,2.7-3.3,4.8c-0.8,2.1-1.2,4.6-1.2,7.4
				c0,4.3,0.9,7.7,2.6,10.2s4.1,3.7,7.2,3.7c1.5,0,3.2-0.3,4.3-0.9c1.1-0.6,1.6-1,2.3-1.8h0.2l0,12.2h9.3v-36.6h-6.9l-2,3.4h-0.4
				C154.8-84.6,152.5-85.9,149.4-85.9z M153.1-78.7c1.5,0,2.5,0.5,3.1,1.4c0.6,0.9,0.9,2.4,1,4.3v0.7c0,2.4-0.3,4-1,5
				c-0.7,1-1.7,1.5-3.2,1.5c-1.2,0-2.1-0.6-2.8-1.7c-0.7-1.1-1-2.8-1-4.9c0-2.1,0.3-3.6,1-4.7C150.9-78.1,151.9-78.7,153.1-78.7z"/>
		</defs>
		<clipPath id="SVGID_6_">
			<use xlink:href="#SVGID_81_"  style="overflow:visible;"/>
		</clipPath>
		<g style="&st8;">
			<path style="&st6;" d="M132.1-85.5c-4.4,0-8,1.2-10.6,3.5c-2.6,2.4-4.1,5.7-4.4,10.1c-0.3,4.5,0.6,7.9,2.7,10.4
				c2.1,2.4,5.3,3.6,9.5,3.6c4,0,7.6-1,9.9-3.1s3.6-5.1,3.9-9l0.3-4.1h-16.8c0.2-1.5,0.8-2.7,1.9-3.5c1.1-0.8,2.5-1.3,4.3-1.3
				c1.6,0,3.1,0.2,4.4,0.5c1.3,0.3,3.2,0.8,4.7,1.6l0.5-6.6c-1.4-0.7-3.2-1.2-4.8-1.5C136.1-85.4,134.3-85.5,132.1-85.5z
				 M130.1-64.2c-1.1,0-2-0.3-2.6-1c-0.7-0.7-1-1.8-1.1-3.2h7.9c-0.1,1.3-0.6,2.3-1.3,3.1C132.2-64.6,131.3-64.2,130.1-64.2z"/>
		</g>
	</g>
	<g id="e_3_">
		<path style="&st0;" d="M129.6-85.5c-4.4,0-7.9,1.2-10.3,3.5c-2.5,2.4-3.7,5.7-3.7,10.1c0,4.5,1.1,7.9,3.4,10.4
			c2.3,2.4,5.5,3.6,9.7,3.6c4,0,7.1-1,9.3-3.1c2.2-2.1,3.3-5.1,3.3-9v-4.1h-16.4c0.1-1.5,0.6-2.7,1.6-3.5c1-0.8,2.4-1.3,4.2-1.3
			c1.6,0,3.1,0.2,4.5,0.5c1.4,0.3,2.8,0.8,4.4,1.6v-6.6c-1.4-0.7-2.9-1.2-4.5-1.5C133.5-85.4,131.7-85.5,129.6-85.5z M129-64.2
			c-1.1,0-2-0.3-2.7-1s-1.2-1.8-1.3-3.2h7.9c0,1.3-0.4,2.3-1.1,3.1C131.1-64.6,130.2-64.2,129-64.2z"/>
	</g>
	<g id="m_shadow_3_">
		<defs>
			<path id="SVGID_83_" d="M129.6-85.5c-4.4,0-7.9,1.2-10.3,3.5c-2.5,2.4-3.7,5.7-3.7,10.1c0,4.5,1.1,7.9,3.4,10.4
				c2.3,2.4,5.5,3.6,9.7,3.6c4,0,7.1-1,9.3-3.1c2.2-2.1,3.3-5.1,3.3-9v-4.1h-16.4c0.1-1.5,0.6-2.7,1.6-3.5c1-0.8,2.4-1.3,4.2-1.3
				c1.6,0,3.1,0.2,4.5,0.5c1.4,0.3,2.8,0.8,4.4,1.6v-6.6c-1.4-0.7-2.9-1.2-4.5-1.5C133.5-85.4,131.7-85.5,129.6-85.5z M129-64.2
				c-1.1,0-2-0.3-2.7-1s-1.2-1.8-1.3-3.2h7.9c0,1.3-0.4,2.3-1.1,3.1C131.1-64.6,130.2-64.2,129-64.2z"/>
		</defs>
		<clipPath id="SVGID_8_">
			<use xlink:href="#SVGID_83_"  style="overflow:visible;"/>
		</clipPath>
		<g style="&st9;">
			<path style="&st6;" d="M109.9-85.1l-1,14.5c-0.1,1.8-0.5,3.2-1,4.1c-0.6,0.9-1.4,1.4-2.4,1.4c-1.4,0-2.4-0.6-3-1.8
				c-0.6-1.2-0.8-3.1-0.6-5.7l0.9-12.4h-9.2l-1,14.5c-0.1,1.8-0.5,3.2-1,4.1c-0.5,0.9-1.3,1.4-2.4,1.4c-1.4,0-2.4-0.6-3-1.9
				c-0.6-1.3-0.8-3.4-0.5-6.3l0.8-11.7h-9.2l-1.9,26.6h6.9l1.4-3.3h0.5c0.6,1.2,1.6,2.2,2.9,2.8c1.3,0.6,2.8,1,4.5,1
				c3.8,0,6.6-1.2,8.3-3.5h0.7c0.7,1.1,1.7,2,3,2.6c1.3,0.6,2.8,0.9,4.4,0.9c3.1,0,5.5-0.8,7.2-2.4c1.6-1.6,2.9-4.1,3.2-7.4
				l1.6-17.3H109.9z"/>
		</g>
	</g>
	<g id="m_3_">
		<path style="&st0;" d="M107.7-85.1v14.5c0,1.8-0.2,3.2-0.7,4.1c-0.5,0.9-1.3,1.4-2.3,1.4c-1.4,0-2.4-0.6-3.1-1.8
			c-0.7-1.2-1-3.1-1-5.7v-12.4h-9.2v14.5c0,1.8-0.2,3.2-0.7,4.1c-0.5,0.9-1.2,1.4-2.3,1.4c-1.4,0-2.5-0.6-3.1-1.9
			c-0.7-1.3-1-3.4-1-6.3v-11.7H75v26.6H82l1.2-3.3h0.5c0.7,1.2,1.7,2.2,3.1,2.8c1.3,0.6,2.9,1,4.6,1c3.8,0,6.5-1.2,8.1-3.5h0.7
			c0.8,1.1,1.8,2,3.1,2.6c1.3,0.6,2.8,0.9,4.4,0.9c3.1,0,5.5-0.8,7-2.4c1.5-1.6,2.3-4.1,2.3-7.4v-17.3H107.7z"/>
	</g>
	<g id="y_shadow_on_m_3_">
		<defs>
			<path id="SVGID_85_" d="M107.7-85.1v14.5c0,1.8-0.2,3.2-0.7,4.1c-0.5,0.9-1.3,1.4-2.3,1.4c-1.4,0-2.4-0.6-3.1-1.8
				c-0.7-1.2-1-3.1-1-5.7v-12.4h-9.2v14.5c0,1.8-0.2,3.2-0.7,4.1c-0.5,0.9-1.2,1.4-2.3,1.4c-1.4,0-2.5-0.6-3.1-1.9
				c-0.7-1.3-1-3.4-1-6.3v-11.7H75v26.6H82l1.2-3.3h0.5c0.7,1.2,1.7,2.2,3.1,2.8c1.3,0.6,2.9,1,4.6,1c3.8,0,6.5-1.2,8.1-3.5h0.7
				c0.8,1.1,1.8,2,3.1,2.6c1.3,0.6,2.8,0.9,4.4,0.9c3.1,0,5.5-0.8,7-2.4c1.5-1.6,2.3-4.1,2.3-7.4v-17.3H107.7z"/>
		</defs>
		<clipPath id="SVGID_10_">
			<use xlink:href="#SVGID_85_"  style="overflow:visible;"/>
		</clipPath>
		<g id="y_shadow_8_" style="&st10;">
			<path style="&st6;" d="M53.4-14.5h14.1l8.1-22.3c0.4-1.2,0.7-2.6,0.9-4.2h0.3c0.1,1.6,0.2,3,0.5,4.1l5.2,22.4h13.7L83.8-55.8
				c-1.6-5.3-3.8-9-6.5-11.1c-2.7-2.2-6.4-3.3-11-3.3c-1.8,0-3.6,0.2-5.5,0.6L60-59.1c1.2-0.3,2.6-0.4,4.2-0.4
				c1.2,0,2.2,0.2,3.1,0.7c0.9,0.5,1.6,1.1,2.2,1.9c0.6,0.8,1.2,2.2,1.8,4.1L53.4-14.5z"/>
		</g>
	</g>
	<g id="b_shadow_3_">
		<defs>
			<polygon id="SVGID_87_" points="114.9,-53.2 139.9,-57.4 139.9,-3.4 114.9,-14.4 			"/>
		</defs>
		<clipPath id="SVGID_12_">
			<use xlink:href="#SVGID_87_"  style="overflow:visible;"/>
		</clipPath>
		<g id="b_6_" style="&st11;">
			<path style="&st6;" d="M114.8-13.1c4.1,0,7.4-1.8,10-5.4c2.6-3.6,5.2-8.7,5.6-15.1c0.5-6.6-0.4-11.8-2.6-15.5
				c-2.2-3.8-6.2-5.8-10.2-5.8c-1.4,0-3.4,0.2-4.5,0.6c-1.1,0.3-2.1,0.8-3,1.4c-0.9,0.6-2,1.6-3.2,2.9h-0.8l-1.9-4H94L91.4,0h12.8
				l1-18.9c1.1,2.1,2.5,3.5,4.1,4.4C110.9-13.5,112.7-13.1,114.8-13.1z M110.4-23.8c-1.8,0-3.1-0.7-3.9-2c-0.8-1.3-1.1-3.5-0.9-6.3
				l0.1-2c0.2-3.3,0.7-5.7,1.7-7.1c0.9-1.5,2.4-2.2,4.3-2.2c1.5,0,2.7,0.8,3.4,2.5c0.7,1.7,1,4.2,0.8,7.4
				C115.4-27,113.6-23.8,110.4-23.8z"/>
		</g>
	</g>
	<g id="b_5_">
		<path style="&st0;" d="M114.4-13c4.2,0,7.6-1.8,10.1-5.3c2.5-3.5,3.7-8.4,3.7-14.7c0-6.3-1.3-11.3-3.8-14.8
			c-2.5-3.6-5.7-5.4-9.8-5.4c-1.4,0-3.4,0.2-4.5,0.5c-1.1,0.3-2.1,0.7-3,1.3c-0.9,0.5-1.9,1.5-3.1,2.7h-0.8l-2.1-3.8H90.7V0h13.4
			v-18.7c1.3,2,2.8,3.5,4.5,4.4C110.3-13.5,112.2-13,114.4-13z M109.5-23.5c-1.9,0-3.2-0.7-4.1-2c-0.9-1.3-1.3-3.3-1.3-6.1v-1.9
			c0-3.2,0.4-5.5,1.3-6.8c0.9-1.4,2.3-2.1,4.3-2.1c1.6,0,2.8,0.8,3.6,2.4c0.8,1.6,1.3,4,1.3,7.1C114.5-26.7,112.8-23.5,109.5-23.5z"
			/>
	</g>
	<g id="y_shadow_5_">
		<defs>
			<path id="SVGID_89_" d="M114.4-13c4.2,0,7.6-1.8,10.1-5.3c2.5-3.5,3.7-8.4,3.7-14.7c0-6.3-1.3-11.3-3.8-14.8
				c-2.5-3.6-6-5.4-10.4-5.4c-1.4,0-2.7,0.2-3.8,0.5c-1.1,0.3-2.1,0.7-3,1.3c-0.9,0.5-1.9,1.5-3.1,2.7h-0.8l-2.1-3.8H90.7V0h13.4
				v-18.7c1.3,2,2.8,3.5,4.5,4.4C110.3-13.5,112.2-13,114.4-13z M109.5-23.5c-1.9,0-3.2-0.7-4.1-2c-0.9-1.3-1.3-3.3-1.3-6.1v-1.9
				c0-3.2,0.4-5.5,1.3-6.8c0.9-1.4,2.3-2.1,4.3-2.1c1.6,0,2.8,0.8,3.6,2.4c0.8,1.6,1.3,4,1.3,7.1C114.5-26.7,112.8-23.5,109.5-23.5z
				"/>
		</defs>
		<clipPath id="SVGID_14_">
			<use xlink:href="#SVGID_89_"  style="overflow:visible;"/>
		</clipPath>
		<g style="&st12;">
			<path style="&st6;" d="M53.4-13.5h14.1l8.1-22.3c0.4-1.2,0.7-2.6,0.9-4.2h0.3c0.1,1.6,0.2,3,0.5,4.1l5.2,22.4h13.7L83.8-54.8
				c-1.6-5.3-3.8-9-6.5-11.1c-2.7-2.2-6.4-3.3-11-3.3c-1.8,0-3.6,0.2-5.5,0.6L60-58.1c1.2-0.3,2.6-0.4,4.2-0.4
				c1.2,0,2.2,0.2,3.1,0.7c0.9,0.5,1.6,1.1,2.2,1.9c0.6,0.8,1.2,2.2,1.8,4.1L53.4-13.5z"/>
		</g>
	</g>
	<g id="y_3_">
		<path style="&st0;" d="M53.4-13.5h14.1l7.6-23.3h0.3l7.2,23.3h13.7L80.9-54.8c-2-5.3-4.4-9-7.3-11.1c-2.9-2.2-6.6-3.3-11.2-3.3
			c-1.8,0-3.6,0.2-5.5,0.6v10.5c1.2-0.3,2.6-0.4,4.1-0.4c1.2,0,2.2,0.2,3.1,0.7c0.9,0.5,1.7,1.1,2.3,1.9c0.7,0.8,1.4,2.2,2.1,4.1
			L53.4-13.5z"/>
	</g>
	<g id="o_shadow_3_">
		<defs>
			<path id="SVGID_91_" d="M53.4-13.5h14.1l6.6-22.3c0.3-1.2,0.5-2.6,0.7-4.2H75c0.2,1.6,0.5,3,0.8,4.1l6.8,22.4h13.7L80.9-54.8
				c-2-5.3-4.4-9-7.3-11.1c-2.9-2.2-6.6-3.3-11.2-3.3c-1.8,0-3.6,0.2-5.5,0.6v10.5c1.2-0.3,2.6-0.4,4.1-0.4c1.2,0,2.2,0.2,3.1,0.7
				c0.9,0.5,1.7,1.1,2.3,1.9c0.7,0.8,1.4,2.2,2.1,4.1L53.4-13.5z"/>
		</defs>
		<clipPath id="SVGID_16_">
			<use xlink:href="#SVGID_91_"  style="overflow:visible;"/>
		</clipPath>
		<g id="o_9_" style="&st13;">
			<path style="&st6;" d="M64.9-33c0.4-6.4-0.9-11.3-4.1-14.9c-3.2-3.6-7.8-5.3-14-5.3c-5.9,0-10.7,1.8-14.5,5.5
				c-3.7,3.6-5.8,8.5-6.3,14.7c-0.4,6.3,0.9,11.2,4.1,14.8c3.2,3.5,7.8,5.3,14,5.3c3.8,0,7.2-0.8,10.3-2.4c3-1.6,5.5-3.9,7.3-7
				C63.6-25.5,64.6-29,64.9-33z M39.8-33c0.2-3.3,0.9-5.9,1.9-7.6c1-1.7,2.6-2.6,4.7-2.6c2.1,0,3.5,0.9,4.2,2.6
				c0.7,1.7,1,4.3,0.8,7.6c-0.2,3.3-0.8,5.8-1.8,7.5c-1,1.7-2.5,2.5-4.6,2.5c-2.1,0-3.5-0.8-4.2-2.5C39.8-27.2,39.5-29.7,39.8-33z"
				/>
		</g>
	</g>
	<g id="o_8_">
		<path style="&st0;" d="M62.7-33.8c-0.2-6.4-2-11.3-5.5-14.7c-3.5-3.5-8.3-5.1-14.5-5c-5.9,0.1-10.5,2.1-13.9,5.8
			c-3.4,3.7-5,8.7-4.9,14.9c0.2,6.3,2,11.2,5.5,14.6c3.5,3.4,8.3,5.1,14.5,4.9c3.8-0.1,7.2-1,10-2.7c2.9-1.7,5.1-4.1,6.6-7.1
			C62.1-26.2,62.8-29.8,62.7-33.8z M37.6-33.2c-0.1-3.3,0.3-5.9,1.1-7.7c0.8-1.8,2.3-2.7,4.4-2.7c2.1-0.1,3.6,0.8,4.5,2.5
			c0.9,1.7,1.4,4.3,1.5,7.6c0.1,3.3-0.3,5.8-1.1,7.5c-0.8,1.7-2.3,2.6-4.4,2.6c-2.1,0.1-3.6-0.8-4.5-2.4
			C38.2-27.3,37.7-29.8,37.6-33.2z"/>
	</g>
	<g id="t_shadow_3_">
		<defs>
			<path id="SVGID_93_" d="M62.7-33.8c-0.2-6.4-2-11.3-5.5-14.7c-3.5-3.5-8.3-5.1-14.5-5c-5.9,0.1-10.5,2.1-13.9,5.8
				c-3.4,3.7-5,8.7-4.9,14.9c0.2,6.3,2,11.2,5.5,14.6c3.5,3.4,8.3,5.1,14.5,4.9c3.8-0.1,7.2-1,10-2.7c2.9-1.7,5.1-4.1,6.6-7.1
				C62.1-26.2,62.8-29.8,62.7-33.8z M37.6-33.2c-0.1-3.3,0.3-5.9,1.1-7.7c0.8-1.8,2.3-2.7,4.4-2.7c2.1-0.1,3.6,0.8,4.5,2.5
				c0.9,1.7,1.4,4.3,1.5,7.6c0.1,3.3-0.3,5.8-1.1,7.5c-0.8,1.7-2.3,2.6-4.4,2.6c-2.1,0.1-3.6-0.8-4.5-2.4
				C38.2-27.3,37.7-29.8,37.6-33.2z"/>
		</defs>
		<clipPath id="SVGID_18_">
			<use xlink:href="#SVGID_93_"  style="overflow:visible;"/>
		</clipPath>
		<g id="t_Shadow_3_" style="&st14;">
			<path style="&st6;" d="M24.4-42.4c1.8,0,3.9,0.3,6.4,1.2l0.4-9.8c-1.8-0.7-3.5-1.2-5.1-1.5c-1.6-0.3-3.5-0.4-5.7-0.4
				c-4.5,0.1-7.8,1.3-9.9,3.6c-2.1,2.3-3.2,5.7-3.4,10.3l-0.7,16L1.7-23l-0.2,5.5l5.8,4.1l3.1,8.1l8.8-0.2l0.3-7.8l9.5-0.2l0.4-10.1
				l-9.5,0.2l0.7-15.1C20.7-41.1,21.9-42.4,24.4-42.4z"/>
		</g>
	</g>
	<g id="t_3_">
		<path style="&st0;" d="M21.8-42.6c1.8,0,4,0.4,6.5,1.3v-9.8c-1.8-0.8-3.5-1.3-5.2-1.7c-1.6-0.3-3.5-0.5-5.7-0.5
			c-4.5,0-7.7,1.1-9.7,3.3c-2,2.2-3,5.6-3,10.2v16H0v5.5l6,4.2l3.5,8.2h8.8v-7.8h9.5v-10h-9.5v-15.1C18.2-41.4,19.4-42.6,21.8-42.6z
			"/>
	</g>
</symbol>
<g id="Background" style="&st15;">
	<rect x="-30" y="-380" style="&st16;" width="1280" height="800"/>
</g>
<g id="No_Rollover">
	
		<use xlink:href="#ToyBox_Media_Logo_Full_Color_Light"  width="199.8" height="85.9" x="0" y="-85.9" transform="matrix(1.2512 0 0 -1.2512 -3.702067e-04 -2.541047e-04)" style="overflow:visible;"/>
</g>
<g id="Icons">
</g>
<g id="Icon_Rollovers" style="&st15;">
</g>
</svg>
